<svg xmlns="http://www.w3.org/2000/svg" xmlns:xlink="http://www.w3.org/1999/xlink" viewBox="0 0 108.04 92.54"><defs><style>.cls-1{mask:url(#mask);filter:url(#luminosity-noclip-3);}.cls-14,.cls-2,.cls-4{mix-blend-mode:multiply;}.cls-2{fill:url(#Áåçûìÿííûé_ãðàäèåíò_1017);}.cls-3{mask:url(#mask-2);filter:url(#luminosity-noclip-4);}.cls-4{fill:url(#Áåçûìÿííûé_ãðàäèåíò_1017-2);}.cls-5{isolation:isolate;}.cls-6{fill:#fefcb6;}.cls-7{fill:#54110f;}.cls-15,.cls-8{mix-blend-mode:screen;}.cls-8{opacity:0.9;fill:url(#Áåçûìÿííûé_ãðàäèåíò_493);}.cls-9{mask:url(#mask-3);}.cls-10{fill:#fbc69f;}.cls-11{mask:url(#mask-4);}.cls-12{fill:#d9b5cf;}.cls-13{fill:#b85700;}.cls-14{opacity:0.64;}.cls-16{fill:url(#Áåçûìÿííûé_ãðàäèåíò_493-2);}.cls-17{fill:url(#Áåçûìÿííûé_ãðàäèåíò_493-3);}.cls-18{fill:url(#Áåçûìÿííûé_ãðàäèåíò_493-4);}.cls-19{filter:url(#luminosity-noclip-2);}.cls-20{filter:url(#luminosity-noclip);}</style><filter id="luminosity-noclip" x="2.98" y="-6211.72" width="98.5" height="32766" filterUnits="userSpaceOnUse" color-interpolation-filters="sRGB"><feFlood flood-color="#fff" result="bg"/><feBlend in="SourceGraphic" in2="bg"/></filter><mask id="mask" x="2.98" y="-6211.72" width="98.5" height="32766" maskUnits="userSpaceOnUse"><g class="cls-20"/></mask><radialGradient id="Áåçûìÿííûé_ãðàäèåíò_1017" cx="132.21" cy="278.3" r="89.58" gradientTransform="translate(-35.45 -259.54) scale(0.97 0.87)" gradientUnits="userSpaceOnUse"><stop offset="0.01"/><stop offset="0.09" stop-color="#0c0c0c"/><stop offset="0.25" stop-color="#2b2b2b"/><stop offset="0.45" stop-color="#5d5d5d"/><stop offset="0.7" stop-color="#a3a3a3"/><stop offset="0.99" stop-color="#fbfbfb"/><stop offset="1" stop-color="#fff"/></radialGradient><filter id="luminosity-noclip-2" x="6.2" y="-6211.72" width="99.6" height="32766" filterUnits="userSpaceOnUse" color-interpolation-filters="sRGB"><feFlood flood-color="#fff" result="bg"/><feBlend in="SourceGraphic" in2="bg"/></filter><mask id="mask-2" x="6.2" y="-6211.72" width="99.6" height="32766" maskUnits="userSpaceOnUse"><g class="cls-19"/></mask><radialGradient id="Áåçûìÿííûé_ãðàäèåíò_1017-2" cx="57.86" cy="374.95" r="99.42" xlink:href="#Áåçûìÿííûé_ãðàäèåíò_1017"/><radialGradient id="Áåçûìÿííûé_ãðàäèåíò_493" cx="89.15" cy="118.05" r="45.41" gradientTransform="translate(-35.45 -78.2) scale(0.97)" gradientUnits="userSpaceOnUse"><stop offset="0" stop-color="#ffd643"/><stop offset="0.65" stop-color="#ffe04f"/><stop offset="1" stop-color="#ffe857"/></radialGradient><filter id="luminosity-noclip-3" x="2.98" y="1.94" width="98.5" height="41.86" filterUnits="userSpaceOnUse" color-interpolation-filters="sRGB"><feFlood flood-color="#fff" result="bg"/><feBlend in="SourceGraphic" in2="bg"/></filter><mask id="mask-3" x="2.98" y="1.94" width="98.5" height="41.86" maskUnits="userSpaceOnUse"><g class="cls-1"><path class="cls-2" d="M101.37,13.59c.53-1.86-.79-4.55-2.25-5.91C96.85,5.79,75.86,2.05,54,1.94c-21.85.11-42.83,3.85-45.1,5.74C5.83,10.24-.17,37.68,5,42.05c3,2.53,7.67,1.85,11.21.86,14.37-4,24.6-17,37.17-24.09C66.52,11.41,87.46,4,101.37,13.59Z"/></g></mask><filter id="luminosity-noclip-4" x="6.2" y="39.81" width="99.6" height="44.12" filterUnits="userSpaceOnUse" color-interpolation-filters="sRGB"><feFlood flood-color="#fff" result="bg"/><feBlend in="SourceGraphic" in2="bg"/></filter><mask id="mask-4" x="6.2" y="39.81" width="99.6" height="44.12" maskUnits="userSpaceOnUse"><g class="cls-3"><path class="cls-4" d="M105.36,56c1-8.38.51-16.21-4.56-16.2-4.33,0-10.29,6.82-13.13,9.22C69.2,64.6,49.07,77.69,22.43,76.56,16.16,76.3,9.91,75.23,6.2,70.21a11.08,11.08,0,0,0,1.41,5.23C9.51,79,31.47,83.65,54,83.93c22.55-.28,44.52-5,46.41-8.5C101.77,73,104.33,64.21,105.36,56Z"/></g></mask><radialGradient id="Áåçûìÿííûé_ãðàäèåíò_493-2" cx="92.47" cy="115.47" r="18.95" xlink:href="#Áåçûìÿííûé_ãðàäèåíò_493"/><radialGradient id="Áåçûìÿííûé_ãðàäèåíò_493-3" cx="92.47" cy="148.45" r="19.09" xlink:href="#Áåçûìÿííûé_ãðàäèåíò_493"/><radialGradient id="Áåçûìÿííûé_ãðàäèåíò_493-4" cx="92.47" cy="131.81" r="19.76" xlink:href="#Áåçûìÿííûé_ãðàäèåíò_493"/></defs><g class="cls-5"><g id="Layer_1" data-name="Layer 1"><path class="cls-6" d="M108,39.85c-.13-16-4.42-31.69-6.73-33.84C98.88,4,76.9.12,54,0,31.14.12,9.16,4,6.78,6,4.47,8.16.18,23.82.05,39.85-.48,55.89,3.3,72.61,5.41,77c2,3.68,25,8.62,48.61,8.91,23.62-.29,46.63-5.23,48.61-8.91C104.74,72.61,108.52,55.89,108,39.85Z"/><path class="cls-7" d="M108,46.15c-.44,13.84-3.52,26.9-5.35,30.68s-25,8.61-48.61,8.9c-23.62-.29-46.63-5.22-48.61-8.9S.5,60,.06,46.15c0,.12,0,.24,0,.37-.53,16,3.25,32.76,5.36,37.12,2,3.68,25,8.61,48.61,8.9,23.62-.29,46.63-5.22,48.61-8.9,2.11-4.36,5.89-21.09,5.36-37.12C108,46.39,108,46.27,108,46.15Z"/><path class="cls-8" d="M101.26,6C98.88,4,76.9.12,54,0,31.14.12,9.16,4,6.78,6,4.47,8.16.18,23.82.05,39.85A119.29,119.29,0,0,0,3.6,71.58C0,30.84,7.53,10.72,9.83,8.57c2.39-2,23-5.07,45.85-6.61C84.61,0,101.58,6.31,101.26,6Z"/><g class="cls-9"><path class="cls-10" d="M101.37,13.59c.53-1.86-.79-4.55-2.25-5.91C96.85,5.79,75.86,2.05,54,1.94c-21.85.11-42.83,3.85-45.1,5.74C5.83,10.24-.17,37.68,5,42.05c3,2.53,7.67,1.85,11.21.86,14.37-4,24.6-17,37.17-24.09C66.52,11.41,87.46,4,101.37,13.59Z"/></g><g class="cls-11"><path class="cls-12" d="M105.36,56c1-8.38.51-16.21-4.56-16.2-4.33,0-10.29,6.82-13.13,9.22C69.2,64.6,49.07,77.69,22.43,76.56,16.16,76.3,9.91,75.23,6.2,70.21a11.08,11.08,0,0,0,1.41,5.23C9.51,79,31.47,83.65,54,83.93c22.55-.28,44.52-5,46.41-8.5C101.77,73,104.33,64.21,105.36,56Z"/></g><path class="cls-13" d="M32,34.16a420.61,420.61,0,0,1,43.78,0,3.73,3.73,0,0,0,3.84-4.53c-.38-2.63-2.67-5-5-5.27a201.75,201.75,0,0,0-41.55,0c-2.28.25-4.57,2.64-5,5.27A3.73,3.73,0,0,0,32,34.16Z"/><path class="cls-13" d="M76.09,40.54q-22.25-.49-44.5,0A4.9,4.9,0,0,0,27,45.44h0a4.9,4.9,0,0,0,4.58,4.9q22.25.49,44.5,0a4.9,4.9,0,0,0,4.58-4.9h0A4.9,4.9,0,0,0,76.09,40.54Z"/><path class="cls-13" d="M75.73,56.72a420.61,420.61,0,0,1-43.78,0,3.73,3.73,0,0,0-3.84,4.53c.38,2.63,2.67,5,5,5.27a201.75,201.75,0,0,0,41.55,0c2.29-.24,4.58-2.64,5-5.27A3.73,3.73,0,0,0,75.73,56.72Z"/><g class="cls-14"><path class="cls-7" d="M75.73,34.16h.17a3.63,3.63,0,0,0,.56-2.62,5.58,5.58,0,0,0-4.35-4.64,178.39,178.39,0,0,0-36.53,0,5.58,5.58,0,0,0-4.36,4.64,3.63,3.63,0,0,0,.56,2.62H32A420.61,420.61,0,0,1,75.73,34.16Z"/><path class="cls-7" d="M32,56.72h-.17a3.65,3.65,0,0,0-.56,2.63A5.55,5.55,0,0,0,35.58,64a177,177,0,0,0,36.53,0,5.56,5.56,0,0,0,4.35-4.62,3.65,3.65,0,0,0-.56-2.63h-.17A420.61,420.61,0,0,1,32,56.72Z"/><path class="cls-7" d="M73.4,41.13q-19.56-.43-39.12,0a4.31,4.31,0,0,0-4,4.31h0a4.31,4.31,0,0,0,4,4.31q19.56.44,39.12,0a4.31,4.31,0,0,0,4-4.31h0A4.31,4.31,0,0,0,73.4,41.13Z"/></g><g class="cls-15"><path class="cls-16" d="M32,35.57a420.61,420.61,0,0,1,43.78,0A3.73,3.73,0,0,0,79.57,31v0a3.61,3.61,0,0,1-3.83,3.14,420.61,420.61,0,0,0-43.78,0A3.62,3.62,0,0,1,28.12,31v0A3.73,3.73,0,0,0,32,35.57Z"/><path class="cls-17" d="M74.61,66.52a201.75,201.75,0,0,1-41.55,0c-2.27-.24-4.55-2.63-4.94-5.24a4.61,4.61,0,0,0,0,1.39c.38,2.62,2.67,5,5,5.26a201.75,201.75,0,0,0,41.55,0c2.29-.24,4.58-2.64,5-5.26a4.61,4.61,0,0,0,0-1.39C79.17,63.89,76.89,66.28,74.61,66.52Z"/><path class="cls-18" d="M76.09,50.34q-22.25.49-44.5,0a4.87,4.87,0,0,1-4.52-4.19,4.17,4.17,0,0,0-.06.71h0a4.9,4.9,0,0,0,4.58,4.9q22.25.5,44.5,0a4.9,4.9,0,0,0,4.58-4.9h0a4.17,4.17,0,0,0-.06-.71A4.87,4.87,0,0,1,76.09,50.34Z"/></g></g></g></svg>