<svg id="Layer_1" data-name="Layer 1" xmlns="http://www.w3.org/2000/svg" xmlns:xlink="http://www.w3.org/1999/xlink" viewBox="0 0 111.19 95.24"><defs><style>.cls-1{mask:url(#mask);filter:url(#luminosity-noclip-3);}.cls-2,.cls-4{mix-blend-mode:multiply;}.cls-2{fill:url(#Áåçûìÿííûé_ãðàäèåíò_1017);}.cls-3{mask:url(#mask-2);filter:url(#luminosity-noclip-4);}.cls-4{fill:url(#Áåçûìÿííûé_ãðàäèåíò_1017-2);}.cls-5{fill:#ad2f55;}.cls-6{fill:#28030d;}.cls-7{fill:#27010c;}.cls-8{mask:url(#mask-3);}.cls-9{fill:#a15e87;opacity:0.53;}.cls-10{mask:url(#mask-4);}.cls-11{fill:#9a648c;}.cls-12{fill:#471323;}.cls-13{fill:#020001;}.cls-14{filter:url(#luminosity-noclip-2);}.cls-15{filter:url(#luminosity-noclip);}</style><filter id="luminosity-noclip" x="3.07" y="-6486.88" width="101.38" height="32766" filterUnits="userSpaceOnUse" color-interpolation-filters="sRGB"><feFlood flood-color="#fff" result="bg"/><feBlend in="SourceGraphic" in2="bg"/></filter><mask id="mask" x="3.07" y="-6486.88" width="101.38" height="32766" maskUnits="userSpaceOnUse"><g class="cls-15"/></mask><radialGradient id="Áåçûìÿííûé_ãðàäèåíò_1017" cx="146.65" cy="236.57" r="92.2" gradientTransform="translate(-46.7 -223.74) scale(0.97 0.87)" gradientUnits="userSpaceOnUse"><stop offset="0.01"/><stop offset="0.09" stop-color="#0c0c0c"/><stop offset="0.25" stop-color="#2b2b2b"/><stop offset="0.45" stop-color="#5d5d5d"/><stop offset="0.7" stop-color="#a3a3a3"/><stop offset="0.99" stop-color="#fbfbfb"/><stop offset="1" stop-color="#fff"/></radialGradient><filter id="luminosity-noclip-2" x="6.38" y="-6486.88" width="102.51" height="32766" filterUnits="userSpaceOnUse" color-interpolation-filters="sRGB"><feFlood flood-color="#fff" result="bg"/><feBlend in="SourceGraphic" in2="bg"/></filter><mask id="mask-2" x="6.38" y="-6486.88" width="102.51" height="32766" maskUnits="userSpaceOnUse"><g class="cls-14"/></mask><radialGradient id="Áåçûìÿííûé_ãðàäèåíò_1017-2" cx="70.14" cy="336.04" r="102.33" xlink:href="#Áåçûìÿííûé_ãðàäèåíò_1017"/><filter id="luminosity-noclip-3" x="3.07" y="2" width="101.38" height="43.08" filterUnits="userSpaceOnUse" color-interpolation-filters="sRGB"><feFlood flood-color="#fff" result="bg"/><feBlend in="SourceGraphic" in2="bg"/></filter><mask id="mask-3" x="3.07" y="2" width="101.38" height="43.08" maskUnits="userSpaceOnUse"><g class="cls-1"><path class="cls-2" d="M104.32,14c.55-1.91-.81-4.69-2.31-6.09C99.67,6,78.08,2.12,55.6,2,33.11,2.12,11.52,6,9.18,7.9,6,10.55-.17,38.79,5.17,43.28c3.1,2.6,7.89,1.91,11.54.88C31.49,40,42,26.67,55,19.37,68.46,11.75,90,4.11,104.32,14Z"/></g></mask><filter id="luminosity-noclip-4" x="6.38" y="40.98" width="102.51" height="45.41" filterUnits="userSpaceOnUse" color-interpolation-filters="sRGB"><feFlood flood-color="#fff" result="bg"/><feBlend in="SourceGraphic" in2="bg"/></filter><mask id="mask-4" x="6.38" y="40.98" width="102.51" height="45.41" maskUnits="userSpaceOnUse"><g class="cls-3"><path class="cls-4" d="M108.43,57.65C109.52,49,109,41,103.73,41c-4.45,0-10.57,7-13.5,9.48-19,16-39.72,29.5-67.14,28.34-6.45-.28-12.89-1.37-16.71-6.54a11.45,11.45,0,0,0,1.45,5.38c2,3.62,24.56,8.45,47.77,8.75,23.21-.3,45.81-5.14,47.76-8.76C104.74,75.08,107.37,66.08,108.43,57.65Z"/></g></mask></defs><path class="cls-5" d="M111.14,41c-.13-16.5-4.55-32.62-6.92-34.84C101.76,4.15,79.14.12,55.6,0,32.05.12,9.43,4.15,7,6.18,4.6,8.4.19,24.52.05,41c-.54,16.5,3.35,33.71,5.51,38.2,2.05,3.79,25.72,8.86,50,9.17,24.31-.31,48-5.38,50-9.17C107.8,74.73,111.69,57.52,111.14,41Z"/><path class="cls-6" d="M.06,47.5c.46,14.25,3.63,27.69,5.5,31.57,2.05,3.79,25.72,8.87,50,9.17,24.31-.3,48-5.38,50-9.17,1.87-3.88,5-17.32,5.5-31.57,0,.13,0,.25,0,.38.55,16.5-3.34,33.71-5.51,38.2-2,3.79-25.72,8.87-50,9.16-24.32-.29-48-5.37-50-9.16-2.16-4.49-6-21.7-5.51-38.2C.05,47.75.06,47.63.06,47.5Z"/><path class="cls-7" d="M7,6.18C9.43,4.15,32.05.12,55.6,0c23.54.12,46.16,4.15,48.62,6.18C106.59,8.4,111,24.52,111.14,41a122.59,122.59,0,0,1-3.66,32.65c3.71-41.93-4-62.64-6.41-64.85-2.45-2-23.7-5.21-47.18-6.8C24.12,0,6.64,6.5,7,6.18Z"/><g class="cls-8"><path class="cls-9" d="M104.32,14c.55-1.91-.81-4.69-2.31-6.09C99.67,6,78.08,2.12,55.6,2,33.11,2.12,11.52,6,9.18,7.9,6,10.55-.17,38.79,5.17,43.28c3.1,2.6,7.89,1.91,11.54.88C31.49,40,42,26.67,55,19.37,68.46,11.75,90,4.11,104.32,14Z"/></g><g class="cls-10"><path class="cls-11" d="M108.43,57.65C109.52,49,109,41,103.73,41c-4.45,0-10.57,7-13.5,9.48-19,16-39.72,29.5-67.14,28.34-6.45-.28-12.89-1.37-16.71-6.54a11.45,11.45,0,0,0,1.45,5.38c2,3.62,24.56,8.45,47.77,8.75,23.21-.3,45.81-5.14,47.76-8.76C104.74,75.08,107.37,66.08,108.43,57.65Z"/></g><path class="cls-12" d="M31,29.7C30,31.62,28.71,56,31,58.07S59.7,60.45,59.7,60.45s2.41,6.79,4.18,6.32S88.27,46.39,88.27,43.23,63.2,19.06,61.72,19.7,59,27.4,59,27.4,32.07,27.78,31,29.7Z"/><path class="cls-7" d="M35.76,32.3c-.86,1.59-1.93,21.83,0,23.58s23.82,2,23.82,2,2,5.65,3.48,5.25S83.32,46.18,83.32,43.54,62.49,23.46,61.26,24s-1.72,6.4-1.72,6.4S36.62,30.7,35.76,32.3Z"/><path class="cls-13" d="M63.88,66.77c-1.77.47-4.18-6.32-4.18-6.32S33.36,60.18,31,58.07c-.91-.82-1.27-5-1.3-10,0,5.73.27,11,1.3,11.89,2.32,2.11,28.66,2.37,28.66,2.37s2.41,6.8,4.18,6.32S87.43,48.93,88.27,45.15a2.82,2.82,0,0,0,0-1.92C87.87,46.87,65.52,66.33,63.88,66.77Z"/></svg>