<svg id="Layer_1" data-name="Layer 1" xmlns="http://www.w3.org/2000/svg" xmlns:xlink="http://www.w3.org/1999/xlink" viewBox="0 0 106.41 91.15"><defs><style>.cls-1{mask:url(#mask);filter:url(#luminosity-noclip-3);}.cls-2,.cls-4{mix-blend-mode:multiply;}.cls-2{fill:url(#Áåçûìÿííûé_ãðàäèåíò_1017);}.cls-3{mask:url(#mask-2);filter:url(#luminosity-noclip-4);}.cls-4{fill:url(#Áåçûìÿííûé_ãðàäèåíò_1017-2);}.cls-5{fill:#51da4c;}.cls-6{fill:#0d2603;}.cls-7{mask:url(#mask-3);}.cls-10,.cls-8{fill:#638e52;}.cls-8{opacity:0.46;}.cls-9{mask:url(#mask-4);}.cls-10{opacity:0.58;}.cls-11{fill:#012608;}.cls-12{fill:#134416;}.cls-13{fill:#143d12;}.cls-14{fill:#031101;}.cls-15{filter:url(#luminosity-noclip-2);}.cls-16{filter:url(#luminosity-noclip);}</style><filter id="luminosity-noclip" x="2.94" y="-6261.16" width="97.02" height="32766" filterUnits="userSpaceOnUse" color-interpolation-filters="sRGB"><feFlood flood-color="#fff" result="bg"/><feBlend in="SourceGraphic" in2="bg"/></filter><mask id="mask" x="2.94" y="-6261.16" width="97.02" height="32766" maskUnits="userSpaceOnUse"><g class="cls-16"/></mask><radialGradient id="Áåçûìÿííûé_ãðàäèåíò_1017" cx="142.4" cy="271.22" r="88.22" gradientTransform="translate(-46.68 -253.11) scale(0.97 0.87)" gradientUnits="userSpaceOnUse"><stop offset="0.01"/><stop offset="0.09" stop-color="#0c0c0c"/><stop offset="0.25" stop-color="#2b2b2b"/><stop offset="0.45" stop-color="#5d5d5d"/><stop offset="0.7" stop-color="#a3a3a3"/><stop offset="0.99" stop-color="#fbfbfb"/><stop offset="1" stop-color="#fff"/></radialGradient><filter id="luminosity-noclip-2" x="6.1" y="-6261.16" width="98.11" height="32766" filterUnits="userSpaceOnUse" color-interpolation-filters="sRGB"><feFlood flood-color="#fff" result="bg"/><feBlend in="SourceGraphic" in2="bg"/></filter><mask id="mask-2" x="6.1" y="-6261.16" width="98.11" height="32766" maskUnits="userSpaceOnUse"><g class="cls-15"/></mask><radialGradient id="Áåçûìÿííûé_ãðàäèåíò_1017-2" cx="69.18" cy="366.41" r="97.93" xlink:href="#Áåçûìÿííûé_ãðàäèåíò_1017"/><filter id="luminosity-noclip-3" x="2.94" y="1.92" width="97.02" height="41.23" filterUnits="userSpaceOnUse" color-interpolation-filters="sRGB"><feFlood flood-color="#fff" result="bg"/><feBlend in="SourceGraphic" in2="bg"/></filter><mask id="mask-3" x="2.94" y="1.92" width="97.02" height="41.23" maskUnits="userSpaceOnUse"><g class="cls-1"><path class="cls-2" d="M99.84,13.39c.52-1.83-.78-4.49-2.21-5.83C95.38,5.7,74.72,2,53.2,1.92,31.69,2,11,5.7,8.78,7.56c-3,2.53-8.95,29.56-3.84,33.86,3,2.49,7.55,1.82,11,.84,14.15-4,24.23-16.74,36.61-23.73C65.51,11.24,86.14,3.93,99.84,13.39Z"/></g></mask><filter id="luminosity-noclip-4" x="6.1" y="39.21" width="98.11" height="43.46" filterUnits="userSpaceOnUse" color-interpolation-filters="sRGB"><feFlood flood-color="#fff" result="bg"/><feBlend in="SourceGraphic" in2="bg"/></filter><mask id="mask-4" x="6.1" y="39.21" width="98.11" height="43.46" maskUnits="userSpaceOnUse"><g class="cls-3"><path class="cls-4" d="M103.77,55.17c1-8.26.5-16-4.5-16-4.26,0-10.12,6.72-12.93,9.08-18.19,15.33-38,28.23-64.25,27.12-6.17-.26-12.33-1.31-16-6.26A10.83,10.83,0,0,0,7.49,74.3C9.37,77.76,31,82.39,53.2,82.67c22.22-.28,43.85-4.91,45.71-8.37C100.23,71.85,102.75,63.24,103.77,55.17Z"/></g></mask></defs><path class="cls-5" d="M106.36,39.25C106.23,23.46,102,8,99.73,5.92,97.39,4,75.74.12,53.2,0,30.67.12,9,4,6.68,5.92,4.4,8,.17,23.46.05,39.25c-.53,15.8,3.2,32.27,5.27,36.56,2,3.63,24.61,8.48,47.88,8.77,23.27-.29,45.93-5.14,47.89-8.77C103.16,71.52,106.89,55.05,106.36,39.25Z"/><path class="cls-6" d="M.06,45.45C.49,59.09,3.53,72,5.32,75.67c2,3.63,24.61,8.48,47.88,8.77,23.27-.29,45.93-5.14,47.89-8.77,1.79-3.72,4.82-16.58,5.26-30.22,0,.13,0,.25,0,.37.53,15.79-3.2,32.27-5.27,36.56-2,3.63-24.62,8.48-47.89,8.77C29.93,90.86,7.28,86,5.32,82.38,3.25,78.08-.48,61.61.05,45.82.05,45.7.05,45.58.06,45.45Z"/><g class="cls-7"><path class="cls-8" d="M99.84,13.39c.52-1.83-.78-4.49-2.21-5.83C95.38,5.7,74.72,2,53.2,1.92,31.69,2,11,5.7,8.78,7.56c-3,2.53-8.95,29.56-3.84,33.86,3,2.49,7.55,1.82,11,.84,14.15-4,24.23-16.74,36.61-23.73C65.51,11.24,86.14,3.93,99.84,13.39Z"/></g><g class="cls-9"><path class="cls-10" d="M103.77,55.17c1-8.26.5-16-4.5-16-4.26,0-10.12,6.72-12.93,9.08-18.19,15.33-38,28.23-64.25,27.12-6.17-.26-12.33-1.31-16-6.26A10.83,10.83,0,0,0,7.49,74.3C9.37,77.76,31,82.39,53.2,82.67c22.22-.28,43.85-4.91,45.71-8.37C100.23,71.85,102.75,63.24,103.77,55.17Z"/></g><path class="cls-11" d="M6.68,5.92C9,4,30.67.12,53.2,0,75.74.12,97.39,4,99.73,5.92c2.28,2.12,6.5,17.54,6.63,33.33a117.25,117.25,0,0,1-3.5,31.25C106.41,30.37,99,10.56,96.72,8.44,94.37,6.49,74,3.45,51.57,1.93,23.08,0,6.35,6.21,6.68,5.92Z"/><path class="cls-12" d="M80.47,23.83c-2.19-2.2-6.16-2-8.65.29C69.06,26.71,54.18,41.56,46.87,49c-3.76-3.83-8.68-8.72-11.14-11s-6.46-2.48-8.65-.29-2,6.16.29,8.66c3.2,3.41,11.37,11.59,14.78,14.79a7,7,0,0,0,4.38,1.83h.67a6.92,6.92,0,0,0,4.36-1.83C55,57.91,77,35.9,80.18,32.49,82.49,30,82.66,26,80.47,23.83Z"/><path class="cls-13" d="M76.81,27.48C75.15,25.82,72,26,70,27.91,67.29,30.5,49.58,48.22,47,51l-.09.1c-3.48-3.56-8.9-9-11.06-11-2-1.87-5.11-2.09-6.78-.43s-1.44,4.78.43,6.79c2.59,2.74,10.65,10.8,13.39,13.38,2,1.87,5.11,2.1,6.78.43.42-.42,24.15-23.24,26.73-26C78.26,32.26,78.48,29.15,76.81,27.48Z"/><path class="cls-14" d="M80.18,32.49C77,35.9,55,57.91,51.56,61.11a6.92,6.92,0,0,1-4.36,1.83h-.67a7,7,0,0,1-4.38-1.83c-3.41-3.2-11.58-11.38-14.78-14.79a6.9,6.9,0,0,1-1.71-3.38,6.88,6.88,0,0,0,1.71,6c3.2,3.42,11.37,11.59,14.78,14.8a7,7,0,0,0,4.38,1.83h.67a7,7,0,0,0,4.36-1.83C55,60.48,77,38.47,80.18,35.06a6.88,6.88,0,0,0,1.71-6A7,7,0,0,1,80.18,32.49Z"/></svg>