<svg id="Layer_1" data-name="Layer 1" xmlns="http://www.w3.org/2000/svg" xmlns:xlink="http://www.w3.org/1999/xlink" viewBox="0 0 111.19 95.24"><defs><style>.cls-1{mask:url(#mask);filter:url(#luminosity-noclip-3);}.cls-2,.cls-4{mix-blend-mode:multiply;}.cls-2{fill:url(#Áåçûìÿííûé_ãðàäèåíò_1017);}.cls-3{mask:url(#mask-2);filter:url(#luminosity-noclip-4);}.cls-4{fill:url(#Áåçûìÿííûé_ãðàäèåíò_1017-2);}.cls-5{fill:#ad2f55;}.cls-6{fill:#28030d;}.cls-7{fill:#27010c;}.cls-8{mask:url(#mask-3);}.cls-9{fill:#a15e87;opacity:0.53;}.cls-10{mask:url(#mask-4);}.cls-11{fill:#9a648c;}.cls-12{fill:#471323;}.cls-13{fill:#020001;}.cls-14{filter:url(#luminosity-noclip-2);}.cls-15{filter:url(#luminosity-noclip);}</style><filter id="luminosity-noclip" x="3.07" y="-6266.88" width="101.37" height="32766" filterUnits="userSpaceOnUse" color-interpolation-filters="sRGB"><feFlood flood-color="#fff" result="bg"/><feBlend in="SourceGraphic" in2="bg"/></filter><mask id="mask" x="3.07" y="-6266.88" width="101.37" height="32766" maskUnits="userSpaceOnUse"><g class="cls-15"/></mask><radialGradient id="Áåçûìÿííûé_ãðàäèåíò_1017" cx="156" cy="269.47" r="92.19" gradientTransform="translate(-55.74 -252.37) scale(0.97 0.87)" gradientUnits="userSpaceOnUse"><stop offset="0.01"/><stop offset="0.09" stop-color="#0c0c0c"/><stop offset="0.25" stop-color="#2b2b2b"/><stop offset="0.45" stop-color="#5d5d5d"/><stop offset="0.7" stop-color="#a3a3a3"/><stop offset="0.99" stop-color="#fbfbfb"/><stop offset="1" stop-color="#fff"/></radialGradient><filter id="luminosity-noclip-2" x="6.38" y="-6266.88" width="102.51" height="32766" filterUnits="userSpaceOnUse" color-interpolation-filters="sRGB"><feFlood flood-color="#fff" result="bg"/><feBlend in="SourceGraphic" in2="bg"/></filter><mask id="mask-2" x="6.38" y="-6266.88" width="102.51" height="32766" maskUnits="userSpaceOnUse"><g class="cls-14"/></mask><radialGradient id="Áåçûìÿííûé_ãðàäèåíò_1017-2" cx="79.49" cy="368.94" r="102.33" xlink:href="#Áåçûìÿííûé_ãðàäèåíò_1017"/><filter id="luminosity-noclip-3" x="3.07" y="2" width="101.37" height="43.08" filterUnits="userSpaceOnUse" color-interpolation-filters="sRGB"><feFlood flood-color="#fff" result="bg"/><feBlend in="SourceGraphic" in2="bg"/></filter><mask id="mask-3" x="3.07" y="2" width="101.37" height="43.08" maskUnits="userSpaceOnUse"><g class="cls-1"><path class="cls-2" d="M104.32,14c.55-1.92-.81-4.69-2.31-6.09C99.67,6,78.08,2.12,55.6,2,33.11,2.12,11.52,6,9.18,7.9,6,10.54-.18,38.79,5.17,43.28c3.1,2.6,7.88,1.9,11.54.88C31.49,40,42,26.67,55,19.36,68.46,11.75,90,4.11,104.32,14Z"/></g></mask><filter id="luminosity-noclip-4" x="6.38" y="40.97" width="102.51" height="45.41" filterUnits="userSpaceOnUse" color-interpolation-filters="sRGB"><feFlood flood-color="#fff" result="bg"/><feBlend in="SourceGraphic" in2="bg"/></filter><mask id="mask-4" x="6.38" y="40.97" width="102.51" height="45.41" maskUnits="userSpaceOnUse"><g class="cls-3"><path class="cls-4" d="M108.43,57.65C109.52,49,109,41,103.73,41c-4.45,0-10.57,7-13.5,9.49-19,16-39.72,29.49-67.14,28.33-6.45-.27-12.89-1.36-16.71-6.53a11.36,11.36,0,0,0,1.45,5.38c2,3.61,24.56,8.45,47.77,8.74,23.21-.29,45.81-5.13,47.76-8.75C104.74,75.08,107.37,66.08,108.43,57.65Z"/></g></mask></defs><path class="cls-5" d="M111.14,41c-.13-16.5-4.55-32.62-6.93-34.84C101.76,4.14,79.14.12,55.6,0,32.05.12,9.43,4.14,7,6.18,4.6,8.4.18,24.51.05,41c-.54,16.5,3.35,33.71,5.51,38.2,2,3.79,25.72,8.86,50,9.16,24.31-.3,48-5.37,50-9.16C107.79,74.73,111.69,57.52,111.14,41Z"/><path class="cls-6" d="M.06,47.5c.46,14.24,3.63,27.68,5.5,31.57,2,3.79,25.72,8.86,50,9.17,24.31-.31,48-5.38,50-9.17,1.87-3.89,5-17.33,5.5-31.57,0,.12,0,.25,0,.38.55,16.5-3.35,33.71-5.51,38.2-2,3.79-25.72,8.86-50,9.16-24.32-.3-48-5.37-50-9.16-2.16-4.49-6-21.7-5.51-38.2C.05,47.75.06,47.62.06,47.5Z"/><path class="cls-7" d="M7,6.18C9.43,4.14,32.05.12,55.6,0c23.54.12,46.16,4.14,48.61,6.18C106.59,8.4,111,24.51,111.14,41a122.51,122.51,0,0,1-3.66,32.64c3.71-41.92-4-62.63-6.41-64.84-2.45-2-23.7-5.22-47.18-6.8C24.11,0,6.64,6.49,7,6.18Z"/><g class="cls-8"><path class="cls-9" d="M104.32,14c.55-1.92-.81-4.69-2.31-6.09C99.67,6,78.08,2.12,55.6,2,33.11,2.12,11.52,6,9.18,7.9,6,10.54-.18,38.79,5.17,43.28c3.1,2.6,7.88,1.9,11.54.88C31.49,40,42,26.67,55,19.36,68.46,11.75,90,4.11,104.32,14Z"/></g><g class="cls-10"><path class="cls-11" d="M108.43,57.65C109.52,49,109,41,103.73,41c-4.45,0-10.57,7-13.5,9.49-19,16-39.72,29.49-67.14,28.33-6.45-.27-12.89-1.36-16.71-6.53a11.36,11.36,0,0,0,1.45,5.38c2,3.61,24.56,8.45,47.77,8.74,23.21-.29,45.81-5.13,47.76-8.75C104.74,75.08,107.37,66.08,108.43,57.65Z"/></g><path class="cls-12" d="M32.15,24.64c-.16,4.8-.16,36.74,0,41.55.14,3.49,3,4.42,6.36,4.42s6.22-.93,6.36-4.42c.16-4.81.16-36.75,0-41.55a6.71,6.71,0,0,0-6.36-6.5A6.71,6.71,0,0,0,32.15,24.64Z"/><path class="cls-7" d="M33.68,31.46c-.12,3.87-.12,29.6,0,33.47.11,2.81,2.3,3.59,4.83,3.59s4.72-.78,4.83-3.59c.12-3.87.12-29.6,0-33.47-.11-2.81-2.3-5.23-4.83-5.23S33.79,28.65,33.68,31.46Z"/><path class="cls-12" d="M48.65,32.28c-.15,4.8-.15,28.74,0,33.54.14,3.5,3,4.43,6.36,4.43s6.22-.93,6.36-4.43c.16-4.8.16-28.74,0-33.54A6.71,6.71,0,0,0,55,25.79,6.71,6.71,0,0,0,48.65,32.28Z"/><path class="cls-7" d="M50.18,39.47c-.12,3.87-.12,21.59,0,25.46.11,2.81,2.3,3.59,4.83,3.59s4.73-.78,4.83-3.59c.12-3.87.12-21.59,0-25.46-.1-2.81-2.29-5.23-4.83-5.23S50.29,36.66,50.18,39.47Z"/><path class="cls-12" d="M65,39.08c-.16,4.81-.16,21.94,0,26.74.14,3.5,3,4.43,6.36,4.43s6.22-.93,6.36-4.43c.16-4.8.16-21.93,0-26.74a6.36,6.36,0,1,0-12.72,0Z"/><path class="cls-7" d="M66.55,46.27c-.12,3.87-.12,14.79,0,18.66.1,2.81,2.29,3.59,4.83,3.59s4.72-.78,4.83-3.59c.12-3.87.12-14.79,0-18.66C76.1,43.46,73.91,41,71.38,41S66.65,43.46,66.55,46.27Z"/><path class="cls-13" d="M44.87,66.1v.07c-.14,3.49-3,4.42-6.36,4.42s-6.22-.93-6.36-4.42v-.12h-.06c0,1.6,0,2.82.06,3.49.14,3.49,3,4.42,6.36,4.43s6.22-.94,6.36-4.43c0-.66,0-1.86.05-3.43Z"/><path class="cls-13" d="M61.35,66.1c-.28,3.26-3.09,4.15-6.34,4.15s-6-.89-6.33-4.15H48.6c0,1.34,0,2.41,0,3.09.14,3.49,3,4.42,6.36,4.42s6.22-.93,6.36-4.42c0-.68.05-1.75.06-3.09Z"/><path class="cls-13" d="M77.71,66.1c-.28,3.26-3.09,4.15-6.33,4.15s-6-.89-6.34-4.15H65c0,1.27,0,2.33.06,3.09.14,3.49,3,4.42,6.36,4.42s6.22-.93,6.36-4.42c0-.76,0-1.82.06-3.09Z"/></svg>