<svg xmlns="http://www.w3.org/2000/svg" xmlns:xlink="http://www.w3.org/1999/xlink" viewBox="0 0 111.19 95.25"><defs><style>.cls-1{mask:url(#mask);filter:url(#luminosity-noclip-3);}.cls-2,.cls-4{mix-blend-mode:multiply;}.cls-2{fill:url(#Áåçûìÿííûé_ãðàäèåíò_1017);}.cls-3{mask:url(#mask-2);filter:url(#luminosity-noclip-4);}.cls-4{fill:url(#Áåçûìÿííûé_ãðàäèåíò_1017-2);}.cls-5{isolation:isolate;}.cls-6{fill:#ad2f55;}.cls-7{fill:#28030d;}.cls-8{fill:#27010c;}.cls-9{mask:url(#mask-3);}.cls-10{fill:#a15e87;opacity:0.53;}.cls-11{mask:url(#mask-4);}.cls-12{fill:#9a648c;}.cls-13{fill:#471323;}.cls-14{mix-blend-mode:screen;}.cls-15{fill:#020001;}.cls-16{filter:url(#luminosity-noclip-2);}.cls-17{filter:url(#luminosity-noclip);}</style><filter id="luminosity-noclip" x="3.07" y="-6378.5" width="101.37" height="32766" filterUnits="userSpaceOnUse" color-interpolation-filters="sRGB"><feFlood flood-color="#fff" result="bg"/><feBlend in="SourceGraphic" in2="bg"/></filter><mask id="mask" x="3.07" y="-6378.5" width="101.37" height="32766" maskUnits="userSpaceOnUse"><g class="cls-17"/></mask><radialGradient id="Áåçûìÿííûé_ãðàäèåíò_1017" cx="151.33" cy="252.78" r="92.19" gradientTransform="translate(-51.23 -237.84) scale(0.97 0.87)" gradientUnits="userSpaceOnUse"><stop offset="0.01"/><stop offset="0.09" stop-color="#0c0c0c"/><stop offset="0.25" stop-color="#2b2b2b"/><stop offset="0.45" stop-color="#5d5d5d"/><stop offset="0.7" stop-color="#a3a3a3"/><stop offset="0.99" stop-color="#fbfbfb"/><stop offset="1" stop-color="#fff"/></radialGradient><filter id="luminosity-noclip-2" x="6.38" y="-6378.5" width="102.51" height="32766" filterUnits="userSpaceOnUse" color-interpolation-filters="sRGB"><feFlood flood-color="#fff" result="bg"/><feBlend in="SourceGraphic" in2="bg"/></filter><mask id="mask-2" x="6.38" y="-6378.5" width="102.51" height="32766" maskUnits="userSpaceOnUse"><g class="cls-16"/></mask><radialGradient id="Áåçûìÿííûé_ãðàäèåíò_1017-2" cx="74.82" cy="352.25" r="102.32" xlink:href="#Áåçûìÿííûé_ãðàäèåíò_1017"/><filter id="luminosity-noclip-3" x="3.07" y="2" width="101.37" height="43.08" filterUnits="userSpaceOnUse" color-interpolation-filters="sRGB"><feFlood flood-color="#fff" result="bg"/><feBlend in="SourceGraphic" in2="bg"/></filter><mask id="mask-3" x="3.07" y="2" width="101.37" height="43.08" maskUnits="userSpaceOnUse"><g class="cls-1"><path class="cls-2" d="M104.32,14c.55-1.92-.81-4.69-2.31-6.08C99.67,6,78.08,2.12,55.6,2,33.11,2.12,11.52,6,9.18,7.91,6,10.54-.18,38.79,5.17,43.28c3.1,2.6,7.88,1.91,11.54.88C31.49,40,42,26.67,55,19.37,68.46,11.75,90,4.11,104.32,14Z"/></g></mask><filter id="luminosity-noclip-4" x="6.38" y="40.98" width="102.51" height="45.41" filterUnits="userSpaceOnUse" color-interpolation-filters="sRGB"><feFlood flood-color="#fff" result="bg"/><feBlend in="SourceGraphic" in2="bg"/></filter><mask id="mask-4" x="6.38" y="40.98" width="102.51" height="45.41" maskUnits="userSpaceOnUse"><g class="cls-3"><path class="cls-4" d="M108.43,57.65C109.52,49,109,41,103.73,41c-4.45,0-10.57,7-13.5,9.48-19,16-39.72,29.49-67.14,28.33-6.45-.27-12.89-1.36-16.71-6.53a11.45,11.45,0,0,0,1.45,5.38c2,3.61,24.56,8.45,47.77,8.74,23.21-.29,45.81-5.13,47.76-8.75C104.74,75.08,107.37,66.08,108.43,57.65Z"/></g></mask></defs><g class="cls-5"><g id="Layer_1" data-name="Layer 1"><path class="cls-6" d="M111.14,41c-.13-16.5-4.55-32.62-6.93-34.84C101.76,4.14,79.14.12,55.6,0,32.05.12,9.43,4.14,7,6.18,4.6,8.4.18,24.52.05,41c-.54,16.5,3.35,33.71,5.51,38.2,2,3.79,25.72,8.86,50,9.16,24.31-.3,48-5.37,50-9.16C107.79,74.73,111.69,57.52,111.14,41Z"/><path class="cls-7" d="M111.13,47.5c-.46,14.25-3.63,27.68-5.5,31.57-2,3.79-25.72,8.86-50,9.17-24.32-.31-48-5.38-50-9.17C3.69,75.18.52,61.75.06,47.5c0,.12,0,.25,0,.38-.54,16.5,3.35,33.71,5.51,38.2,2,3.79,25.72,8.86,50,9.17,24.31-.31,48-5.38,50-9.17,2.16-4.49,6.06-21.7,5.51-38.2C111.14,47.75,111.13,47.62,111.13,47.5Z"/><path class="cls-8" d="M104.21,6.18C101.76,4.14,79.14.12,55.6,0,32.05.12,9.43,4.14,7,6.18,4.6,8.4.18,24.52.05,41A122.45,122.45,0,0,0,3.71,73.66C0,31.74,7.75,11,10.12,8.82c2.45-2,23.7-5.21,47.18-6.8C87.08,0,104.55,6.49,104.21,6.18Z"/><g class="cls-9"><path class="cls-10" d="M104.32,14c.55-1.92-.81-4.69-2.31-6.08C99.67,6,78.08,2.12,55.6,2,33.11,2.12,11.52,6,9.18,7.91,6,10.54-.18,38.79,5.17,43.28c3.1,2.6,7.88,1.91,11.54.88C31.49,40,42,26.67,55,19.37,68.46,11.75,90,4.11,104.32,14Z"/></g><g class="cls-11"><path class="cls-12" d="M108.43,57.65C109.52,49,109,41,103.73,41c-4.45,0-10.57,7-13.5,9.48-19,16-39.72,29.49-67.14,28.33-6.45-.27-12.89-1.36-16.71-6.53a11.45,11.45,0,0,0,1.45,5.38c2,3.61,24.56,8.45,47.77,8.74,23.21-.29,45.81-5.13,47.76-8.75C104.74,75.08,107.37,66.08,108.43,57.65Z"/></g><path class="cls-13" d="M85,48.06c0-1.64,0-3.27,0-4.91A1.13,1.13,0,0,0,83.91,42l-1.83,0A1.12,1.12,0,0,1,81,41.15a25.08,25.08,0,0,0-4.24-9.07,1.14,1.14,0,0,1,.11-1.48L78.53,29a1.12,1.12,0,0,0,0-1.61q-2.19-2.14-4.34-4.34a1.13,1.13,0,0,0-1.6,0L71,24.71a1.15,1.15,0,0,1-1.48.12,24.86,24.86,0,0,0-9.07-4.25,1.1,1.1,0,0,1-.85-1.06c0-.61,0-1.23,0-1.83a1.13,1.13,0,0,0-1.11-1.11c-1.64,0-3.27,0-4.91,0a1.14,1.14,0,0,0-1.11,1.11c0,.6,0,1.22,0,1.83a1.11,1.11,0,0,1-.86,1.06,25,25,0,0,0-9.07,4.25A1.14,1.14,0,0,1,41,24.71l-1.61-1.65a1.13,1.13,0,0,0-1.6,0q-2.16,2.19-4.35,4.34a1.14,1.14,0,0,0,0,1.61l1.65,1.6a1.15,1.15,0,0,1,.12,1.48A24.94,24.94,0,0,0,31,41.15,1.12,1.12,0,0,1,29.9,42l-1.84,0A1.13,1.13,0,0,0,27,43.15c0,1.64,0,3.27,0,4.91a1.14,1.14,0,0,0,1.1,1.11l1.84,0a1.1,1.1,0,0,1,1.06.85,25,25,0,0,0,4.25,9.07,1.15,1.15,0,0,1-.12,1.48l-1.65,1.6a1.13,1.13,0,0,0,0,1.6q2.19,2.16,4.35,4.35a1.11,1.11,0,0,0,1.6,0L41,66.5a1.13,1.13,0,0,1,1.47-.11,25.32,25.32,0,0,0,9.07,4.24,1.11,1.11,0,0,1,.86,1.06c0,.62,0,1.22,0,1.83a1.14,1.14,0,0,0,1.11,1.11c1.64,0,3.27,0,4.91,0a1.13,1.13,0,0,0,1.11-1.11c0-.61,0-1.21,0-1.83a1.1,1.1,0,0,1,.85-1.06,25,25,0,0,0,9.07-4.24A1.14,1.14,0,0,1,71,66.5l1.61,1.65a1.11,1.11,0,0,0,1.6,0q2.14-2.19,4.34-4.35a1.11,1.11,0,0,0,0-1.6l-1.65-1.6a1.14,1.14,0,0,1-.11-1.48A25.15,25.15,0,0,0,81,50.06a1.1,1.1,0,0,1,1.07-.85l1.83,0A1.13,1.13,0,0,0,85,48.06ZM57.32,58.82A13.48,13.48,0,0,1,42.77,44.27,13.73,13.73,0,0,1,54.65,32.39,13.48,13.48,0,0,1,69.2,46.94,13.73,13.73,0,0,1,57.32,58.82Z"/><path class="cls-8" d="M81.05,42.4l-1.64,0a1,1,0,0,1-1-.76,22.34,22.34,0,0,0-3.81-8.15,1,1,0,0,1,.11-1.32l1.48-1.45a1,1,0,0,0,0-1.43q-2-1.94-3.9-3.9a1,1,0,0,0-1.43,0l-1.45,1.48a1,1,0,0,1-1.32.11A22.34,22.34,0,0,0,60,23.14a1,1,0,0,1-.76-1c0-.55,0-1.09,0-1.64a1,1,0,0,0-1-1q-2.2,0-4.41,0a1,1,0,0,0-1,1c0,.55,0,1.09,0,1.64a1,1,0,0,1-.76,1A22.34,22.34,0,0,0,43.84,27a1,1,0,0,1-1.32-.11l-1.45-1.48a1,1,0,0,0-1.43,0q-1.94,2-3.9,3.9a1,1,0,0,0,0,1.43l1.48,1.45a1,1,0,0,1,.11,1.32,22.34,22.34,0,0,0-3.81,8.15,1,1,0,0,1-1,.76c-.55,0-1.09,0-1.64,0a1,1,0,0,0-1,1q0,2.2,0,4.41a1,1,0,0,0,1,1l1.64,0a1,1,0,0,1,1,.76,22.34,22.34,0,0,0,3.81,8.15,1,1,0,0,1-.11,1.32l-1.48,1.45a1,1,0,0,0,0,1.43q2,1.94,3.9,3.9a1,1,0,0,0,1.43,0l1.45-1.49a1,1,0,0,1,1.32-.1A22.34,22.34,0,0,0,52,68.07a1,1,0,0,1,.76,1c0,.55,0,1.1,0,1.64a1,1,0,0,0,1,1q2.2,0,4.41,0a1,1,0,0,0,1-1c0-.54,0-1.09,0-1.64a1,1,0,0,1,.76-1,22.34,22.34,0,0,0,8.15-3.81,1,1,0,0,1,1.32.1l1.45,1.49a1,1,0,0,0,1.43,0q1.94-2,3.9-3.9a1,1,0,0,0,0-1.43l-1.48-1.45a1,1,0,0,1-.11-1.32,22.34,22.34,0,0,0,3.81-8.15,1,1,0,0,1,1-.76l1.64,0a1,1,0,0,0,1-1q0-2.2,0-4.41A1,1,0,0,0,81.05,42.4ZM70,47A14.58,14.58,0,0,1,57.4,59.63,14.31,14.31,0,0,1,42,44.19,14.58,14.58,0,0,1,54.57,31.58,14.3,14.3,0,0,1,70,47Z"/><g class="cls-14"><path class="cls-15" d="M76.77,32.08a2.14,2.14,0,0,0,.13.19l1.63-1.59a1.11,1.11,0,0,0,0-1.6l0,0L76.88,30.6A1.14,1.14,0,0,0,76.77,32.08Z"/><path class="cls-15" d="M54.65,32.39A13.73,13.73,0,0,0,42.77,44.27a12.9,12.9,0,0,0,0,2.15l0-.47A13.73,13.73,0,0,1,54.65,34.07,13.52,13.52,0,0,1,69.23,46.48,13.48,13.48,0,0,0,54.65,32.39Z"/><path class="cls-15" d="M35.07,32.27l.14-.19a1.15,1.15,0,0,0-.12-1.48c-.55-.52-1.08-1.05-1.61-1.56l0,0a1.13,1.13,0,0,0,0,1.6Z"/><path class="cls-15" d="M85,48.06a1.14,1.14,0,0,1-1.1,1.11l-1.83,0a1.1,1.1,0,0,0-1.07.85,25.15,25.15,0,0,1-4.24,9.07,1.14,1.14,0,0,0,.11,1.48h0A25,25,0,0,0,81,51.74a1.1,1.1,0,0,1,1.07-.85l1.83,0A1.13,1.13,0,0,0,85,49.74c0-1.1,0-2.2,0-3.29C85,47,85,47.52,85,48.06Z"/><path class="cls-15" d="M78.5,63.86c-1.45,1.41-2.89,2.85-4.3,4.3a1.11,1.11,0,0,1-1.6,0L71,66.5a1.14,1.14,0,0,0-1.48-.11,25,25,0,0,1-9.07,4.24,1.1,1.1,0,0,0-.85,1.06c0,.62,0,1.22,0,1.83a1.13,1.13,0,0,1-1.11,1.11c-1.64,0-3.27,0-4.91,0a1.14,1.14,0,0,1-1.11-1.11c0-.61,0-1.21,0-1.83a1.11,1.11,0,0,0-.86-1.06,25.32,25.32,0,0,1-9.07-4.24A1.13,1.13,0,0,0,41,66.5l-1.61,1.65a1.11,1.11,0,0,1-1.6,0c-1.42-1.45-2.86-2.89-4.3-4.3l0,0a1.11,1.11,0,0,0,0,1.59q2.19,2.16,4.35,4.35a1.13,1.13,0,0,0,1.6,0c.52-.55,1.06-1.1,1.61-1.66a1.13,1.13,0,0,1,1.47-.11,25.15,25.15,0,0,0,9.07,4.24,1.11,1.11,0,0,1,.86,1.07l0,1.83a1.14,1.14,0,0,0,1.11,1.1c1.64,0,3.27,0,4.91,0a1.13,1.13,0,0,0,1.11-1.1c0-.61,0-1.22,0-1.83a1.1,1.1,0,0,1,.85-1.07,25,25,0,0,0,9.07-4.24,1.14,1.14,0,0,1,1.48.11l1.61,1.66a1.13,1.13,0,0,0,1.6,0q2.14-2.19,4.34-4.35a1.1,1.1,0,0,0,0-1.59Z"/><path class="cls-15" d="M35.09,60.61a1.15,1.15,0,0,0,.12-1.48A25,25,0,0,1,31,50.06a1.1,1.1,0,0,0-1.06-.85l-1.84,0A1.14,1.14,0,0,1,27,48.06c0-.54,0-1.07,0-1.61,0,1.09,0,2.19,0,3.29a1.13,1.13,0,0,0,1.1,1.11l1.84,0a1.1,1.1,0,0,1,1.06.85,25,25,0,0,0,4.11,8.88Z"/></g></g></g></svg>