<svg id="Layer_1" data-name="Layer 1" xmlns="http://www.w3.org/2000/svg" xmlns:xlink="http://www.w3.org/1999/xlink" viewBox="0 0 237.61 97.71"><defs><style>.cls-1,.cls-5{mask:url(#mask);}.cls-1{filter:url(#luminosity-noclip-8);}.cls-2,.cls-4,.cls-6,.cls-8{mix-blend-mode:multiply;}.cls-2{fill:url(#Áåçûìÿííûé_ãðàäèåíò_1031);}.cls-3,.cls-9{mask:url(#mask-2);}.cls-4{fill:url(#Áåçûìÿííûé_ãðàäèåíò_1000);}.cls-5{filter:url(#luminosity-noclip-9);}.cls-6{fill:url(#Áåçûìÿííûé_ãðàäèåíò_1031-2);}.cls-7{mask:url(#mask-5);filter:url(#luminosity-noclip-10);}.cls-8{fill:url(#Áåçûìÿííûé_ãðàäèåíò_1000-3);}.cls-9{filter:url(#luminosity-noclip-11);}.cls-10{mask:url(#mask-8);}.cls-11{fill:#ad2f55;}.cls-12{mask:url(#mask-9);}.cls-13{mask:url(#mask-10);}.cls-14{fill:#280311;}.cls-15{mask:url(#mask-11);}.cls-16{fill:#27010c;}.cls-17{filter:url(#luminosity-noclip-5);}.cls-18{filter:url(#luminosity-noclip-2);}.cls-19{filter:url(#luminosity-noclip);}</style><filter id="luminosity-noclip" x="10.7" y="-7067.6" width="216.2" height="32766" filterUnits="userSpaceOnUse" color-interpolation-filters="sRGB"><feFlood flood-color="#fff" result="bg"/><feBlend in="SourceGraphic" in2="bg"/></filter><mask id="mask" x="10.7" y="-7067.6" width="216.2" height="32766" maskUnits="userSpaceOnUse"><g class="cls-19"/></mask><radialGradient id="Áåçûìÿííûé_ãðàäèåíò_1031" cx="-1011.82" cy="-481.07" r="47.22" gradientTransform="translate(3102.02 723.68) scale(2.95 1.44)" gradientUnits="userSpaceOnUse"><stop offset="0" stop-color="gray"/><stop offset="0.15" stop-color="#868686"/><stop offset="0.34" stop-color="#969696"/><stop offset="0.55" stop-color="#b1b1b1"/><stop offset="0.78" stop-color="#d6d6d6"/><stop offset="1" stop-color="#fff"/></radialGradient><filter id="luminosity-noclip-2" x="0" y="-7067.6" width="237.61" height="32766" filterUnits="userSpaceOnUse" color-interpolation-filters="sRGB"><feFlood flood-color="#fff" result="bg"/><feBlend in="SourceGraphic" in2="bg"/></filter><mask id="mask-2" x="0" y="-7067.6" width="237.61" height="32766" maskUnits="userSpaceOnUse"><g class="cls-18"/></mask><radialGradient id="Áåçûìÿííûé_ãðàäèåíò_1000" cx="57.65" cy="-481.13" r="113.3" gradientTransform="translate(61.24 784.11) scale(1.02 1.55)" gradientUnits="userSpaceOnUse"><stop offset="0" stop-color="gray"/><stop offset="0.15" stop-color="#8c8c8c"/><stop offset="0.42" stop-color="#ababab"/><stop offset="0.78" stop-color="#dcdcdc"/><stop offset="1" stop-color="#fff"/></radialGradient><radialGradient id="Áåçûìÿííûé_ãðàäèåíò_1031-2" cx="-1011.82" cy="-485.73" r="47.22" gradientTransform="translate(3102.02 774.75) scale(2.95 1.53)" xlink:href="#Áåçûìÿííûé_ãðàäèåíò_1031"/><filter id="luminosity-noclip-5" x="10.98" y="-7067.6" width="217" height="32766" filterUnits="userSpaceOnUse" color-interpolation-filters="sRGB"><feFlood flood-color="#fff" result="bg"/><feBlend in="SourceGraphic" in2="bg"/></filter><mask id="mask-5" x="10.98" y="-7067.6" width="217" height="32766" maskUnits="userSpaceOnUse"><g class="cls-17"/></mask><radialGradient id="Áåçûìÿííûé_ãðàäèåíò_1000-3" cx="160.03" cy="-293.46" r="117.73" gradientTransform="translate(-33.76 386.56) scale(0.97 1.09)" xlink:href="#Áåçûìÿííûé_ãðàäèåíò_1000"/><filter id="luminosity-noclip-8" x="10.7" y="11.2" width="216.2" height="72.51" filterUnits="userSpaceOnUse" color-interpolation-filters="sRGB"><feFlood flood-color="#fff" result="bg"/><feBlend in="SourceGraphic" in2="bg"/></filter><mask id="mask-8" x="10.7" y="11.2" width="216.2" height="72.51" maskUnits="userSpaceOnUse"><g class="cls-1"><path class="cls-2" d="M219.14,15.86c-4.87-2.28-52.6-4.77-100.34-4.66-47.72-.11-95.46,2.38-100.34,4.66-4,2-8.6,16.4-7.63,30.74.36,14.33,6.33,28.57,9.4,30,4.38,1.86,51.47,7.24,98.57,7.13,47.1.11,94.21-5.27,98.58-7.13,3.07-1.41,9-15.65,9.39-30C227.75,32.26,223.12,17.83,219.14,15.86Z"/></g></mask><filter id="luminosity-noclip-9" x="10.7" y="6.22" width="218.66" height="77.48" filterUnits="userSpaceOnUse" color-interpolation-filters="sRGB"><feFlood flood-color="#fff" result="bg"/><feBlend in="SourceGraphic" in2="bg"/></filter><mask id="mask-9" x="10.7" y="6.22" width="218.66" height="77.48" maskUnits="userSpaceOnUse"><g class="cls-5"><path class="cls-6" d="M219.14,11.21c-4.87-2.44-52.6-5.1-100.34-5-47.72-.12-95.46,2.54-100.34,5-4,2.09-8.6,17.52-7.63,32.84.36,15.32,6.33,30.53,9.4,32,4.38,2,51.47,7.74,98.57,7.62,47.1.12,94.21-5.64,98.58-7.62,3.07-1.51,9-16.72,9.39-32C227.75,28.73,223.12,13.3,219.14,11.21Z"/></g></mask><filter id="luminosity-noclip-10" x="10.98" y="53.52" width="217" height="30.74" filterUnits="userSpaceOnUse" color-interpolation-filters="sRGB"><feFlood flood-color="#fff" result="bg"/><feBlend in="SourceGraphic" in2="bg"/></filter><mask id="mask-10" x="10.98" y="53.52" width="217" height="30.74" maskUnits="userSpaceOnUse"><g class="cls-7"><path class="cls-8" d="M220.1,70.21c-4.58,1.61-51.43,4.67-100.63,4.57-49.17.1-96.3-4.11-100.87-5.71-1.5-.57-6.51-8.4-7.62-15.55.9,11.66,6.42,22.7,9.34,23.85,4.41,1.61,51.78,6.26,99.15,6.16,47.39.1,94.77-4.55,99.17-6.16,2.91-1.15,8.44-12.19,9.34-23.85C226.75,61.2,221.59,69.64,220.1,70.21Z"/></g></mask><filter id="luminosity-noclip-11" x="0" y="7.39" width="237.62" height="90.32" filterUnits="userSpaceOnUse" color-interpolation-filters="sRGB"><feFlood flood-color="#fff" result="bg"/><feBlend in="SourceGraphic" in2="bg"/></filter><mask id="mask-11" x="0" y="7.39" width="237.62" height="90.32" maskUnits="userSpaceOnUse"><g class="cls-9"><path class="cls-4" d="M229.13,11.26,229,11.2c2.76,7.2,4.86,19.37,4.15,31.47-.38,17.59-6.7,35.06-9.95,36.79-4.63,2.28-54.53,8.89-104.41,8.75C68.91,88.35,19,81.74,14.4,79.46c-3.25-1.73-9.57-19.2-9.95-36.79C3.74,30.57,5.84,18.4,8.59,11.2l-.11.06S-1,32.16.08,50.42c.4,18.27,7,36.4,10.33,38.2C15.23,91,67,97.85,118.8,97.7c51.8.15,103.58-6.71,108.4-9.08,3.37-1.8,9.92-19.93,10.32-38.2C238.6,32.16,229.13,11.26,229.13,11.26Z"/></g></mask></defs><g class="cls-10"><path class="cls-11" d="M219.14,15.86c-4.87-2.28-52.33-2.65-100.06-2.54-47.73-.11-95.74.26-100.62,2.54-4,2-8.6,16.4-7.63,30.74.36,14.33,6.33,28.57,9.4,30,4.38,1.86,51.47,7.24,98.57,7.13,47.1.11,94.21-5.27,98.58-7.13,3.07-1.41,9-15.65,9.39-30C227.75,32.26,223.12,17.83,219.14,15.86Z"/></g><g class="cls-12"><path class="cls-11" d="M220.79,13c-4.87-2.43-54.25-6.86-102-6.74-47.72-.12-95.46,2.54-100.34,5-4,2.09-8.6,17.52-7.63,32.84.36,15.32,6.33,30.53,9.4,32,4.38,2,51.47,7.74,98.57,7.62,47.1.12,94.21-5.64,98.58-7.62,3.07-1.51,11.51-16.3,11.87-31.62C230.22,29.15,224.77,15.07,220.79,13Z"/></g><g class="cls-13"><path class="cls-14" d="M220.1,70.21c-4.58,1.61-51.43,4.67-100.63,4.57-49.17.1-96.3-4.11-100.87-5.71-1.5-.57-6.51-8.4-7.62-15.55.9,11.66,6.42,22.7,9.34,23.85,4.41,1.61,51.68,7,99.05,6.89,47.39.1,94.87-5.28,99.27-6.89,2.91-1.15,8.44-12.19,9.34-23.85C226.75,61.2,221.59,69.64,220.1,70.21Z"/></g><path class="cls-11" d="M226.34,5.68C221.15,2.9,170.31-.14,119.47,0,68.65-.14,16.66,1.4,12.62,5.68,7.21,11.42,3.23,26.32,4.48,43.14c.39,17.46,6.74,34.8,10,36.52,4.66,2.27,54.82,8.83,105,8.69,50.17.14,100.34-6.42,105-8.69,3.27-1.72,9.62-19.06,10-36.52C235.51,25.67,230.58,8.07,226.34,5.68Zm2.52,37.13c-.35,15.48-6.32,32.1-9.4,33.62-4.41,2-53.21,7.87-100.6,7.74-47.37.13-95.25-5.65-99.66-7.66-3.08-1.52-8.74-18-9.1-33.44-1-15.49,2.6-28.77,6.59-30.9,4.91-2.46,55-5,103-4.85,48-.12,97,2.65,101.87,5.11C225.59,14.55,229.85,27.32,228.86,42.81Z"/><g class="cls-15"><path class="cls-14" d="M230.59,12.72a10.6,10.6,0,0,0,.19,1s3.09,16.8,2.38,28.9c-.38,17.59-6.7,35.06-9.95,36.79-4.63,2.28-54.53,8.89-104.41,8.75C68.91,88.35,19,81.74,14.4,79.46c-3.25-1.73-9.57-19.2-9.95-36.79-.71-12.1,4-28.09,6.79-35.28,0,0-1.47,2.37-1.5,2.39S-1,32.16.08,50.42c.4,18.27,7,36.4,10.33,38.2C15.23,91,67,97.85,118.8,97.7c51.8.15,103.58-6.71,108.4-9.08,3.37-1.8,9.92-19.93,10.32-38.2C238.6,32.16,230.59,12.72,230.59,12.72Z"/></g><g class="cls-15"><path class="cls-14" d="M230.59,12.72a10.6,10.6,0,0,0,.19,1s3.09,16.8,2.38,28.9c-.38,17.59-6.7,35.06-9.95,36.79-4.63,2.28-54.53,8.89-104.41,8.75C68.91,88.35,19,81.74,14.4,79.46c-3.25-1.73-9.57-19.2-9.95-36.79-.71-12.1,4-28.09,6.79-35.28,0,0-1.47,2.37-1.5,2.39S-1,32.16.08,50.42c.4,18.27,7,36.4,10.33,38.2C15.23,91,67,97.85,118.8,97.7c51.8.15,103.58-6.71,108.4-9.08,3.37-1.8,9.92-19.93,10.32-38.2C238.6,32.16,230.59,12.72,230.59,12.72Z"/></g><g class="cls-15"><path class="cls-14" d="M230.59,12.72a10.6,10.6,0,0,0,.19,1s3.09,16.8,2.38,28.9c-.38,17.59-6.7,35.06-9.95,36.79-4.63,2.28-54.53,8.89-104.41,8.75C68.91,88.35,19,81.74,14.4,79.46c-3.25-1.73-9.57-19.2-9.95-36.79-.71-12.1,4-28.09,6.79-35.28,0,0-1.47,2.37-1.5,2.39S-1,32.16.08,50.42c.4,18.27,7,36.4,10.33,38.2C15.23,91,67,97.85,118.8,97.7c51.8.15,103.58-6.71,108.4-9.08,3.37-1.8,9.92-19.93,10.32-38.2C238.6,32.16,230.59,12.72,230.59,12.72Z"/></g><g class="cls-15"><path class="cls-14" d="M230.59,12.72a10.6,10.6,0,0,0,.19,1s3.09,16.8,2.38,28.9c-.38,17.59-6.7,35.06-9.95,36.79-4.63,2.28-54.53,8.89-104.41,8.75C68.91,88.35,19,81.74,14.4,79.46c-3.25-1.73-9.57-19.2-9.95-36.79-.71-12.1,4-28.09,6.79-35.28,0,0-1.47,2.37-1.5,2.39S-1,32.16.08,50.42c.4,18.27,7,36.4,10.33,38.2C15.23,91,67,97.85,118.8,97.7c51.8.15,103.58-6.71,108.4-9.08,3.37-1.8,9.92-19.93,10.32-38.2C238.6,32.16,230.59,12.72,230.59,12.72Z"/></g><path class="cls-16" d="M15.55,11.82c-3.47,3.58-6.62,18.67-6.62,30.7,0,17.53,7.4,34.3,9.27,35.22,4.49,2,52.88,7.92,101.27,7.8,48.4.12,96.79-5.77,101.3-7.8,3.15-1.54,9.28-17.12,9.64-32.8,1-15.68-3.76-31.48-7.84-33.62-5-2.5-54-5.22-103.1-5.1-49-.12-98.08,2.6-103.08,5.1m210.18,34c-.36,14.88-5.48,27.75-7.93,30.36-.88,1-51.78,8-99.17,7.9-47.37.12-94.8-6.36-99.2-8.29-3.09-1.47-7.77-18.14-8.13-33,.17-8.85,2-25.88,6-27.92,4.9-2.36,53.36-5.85,101.36-5,16.76.29,96.28,1.66,100.68,4.86C223.78,16.78,227.55,30.38,226.57,45.27Z"/></svg>