<svg id="Layer_1" data-name="Layer 1" xmlns="http://www.w3.org/2000/svg" xmlns:xlink="http://www.w3.org/1999/xlink" viewBox="0 0 113.5 97.23"><defs><style>.cls-1{mask:url(#mask);filter:url(#luminosity-noclip-3);}.cls-2,.cls-4{mix-blend-mode:multiply;}.cls-2{fill:url(#Áåçûìÿííûé_ãðàäèåíò_1017);}.cls-3{mask:url(#mask-2);filter:url(#luminosity-noclip-4);}.cls-4{fill:url(#Áåçûìÿííûé_ãðàäèåíò_1017-2);}.cls-5{fill:#ad2f55;}.cls-6{fill:#28030d;}.cls-7{mask:url(#mask-3);}.cls-8{fill:#a15e87;opacity:0.53;}.cls-9{mask:url(#mask-4);}.cls-10{fill:#9a648c;}.cls-11{fill:#27010c;}.cls-12{fill:#471323;}.cls-13{fill:#020001;}.cls-14{filter:url(#luminosity-noclip-2);}.cls-15{filter:url(#luminosity-noclip);}</style><filter id="luminosity-noclip" x="3.13" y="-6144.98" width="103.49" height="32766" filterUnits="userSpaceOnUse" color-interpolation-filters="sRGB"><feFlood flood-color="#fff" result="bg"/><feBlend in="SourceGraphic" in2="bg"/></filter><mask id="mask" x="3.13" y="-6144.98" width="103.49" height="32766" maskUnits="userSpaceOnUse"><g class="cls-15"/></mask><radialGradient id="Áåçûìÿííûé_ãðàäèåíò_1017" cx="158.33" cy="287.27" r="94.1" gradientTransform="translate(-56.02 -268.23) scale(0.97 0.87)" gradientUnits="userSpaceOnUse"><stop offset="0.01"/><stop offset="0.09" stop-color="#0c0c0c"/><stop offset="0.25" stop-color="#2b2b2b"/><stop offset="0.45" stop-color="#5d5d5d"/><stop offset="0.7" stop-color="#a3a3a3"/><stop offset="0.99" stop-color="#fbfbfb"/><stop offset="1" stop-color="#fff"/></radialGradient><filter id="luminosity-noclip-2" x="6.51" y="-6144.98" width="104.64" height="32766" filterUnits="userSpaceOnUse" color-interpolation-filters="sRGB"><feFlood flood-color="#fff" result="bg"/><feBlend in="SourceGraphic" in2="bg"/></filter><mask id="mask-2" x="6.51" y="-6144.98" width="104.64" height="32766" maskUnits="userSpaceOnUse"><g class="cls-14"/></mask><radialGradient id="Áåçûìÿííûé_ãðàäèåíò_1017-2" cx="80.23" cy="388.8" r="104.45" xlink:href="#Áåçûìÿííûé_ãðàäèåíò_1017"/><filter id="luminosity-noclip-3" x="3.13" y="2.04" width="103.49" height="43.97" filterUnits="userSpaceOnUse" color-interpolation-filters="sRGB"><feFlood flood-color="#fff" result="bg"/><feBlend in="SourceGraphic" in2="bg"/></filter><mask id="mask-3" x="3.13" y="2.04" width="103.49" height="43.97" maskUnits="userSpaceOnUse"><g class="cls-1"><path class="cls-2" d="M106.49,14.27c.56-1.95-.83-4.78-2.36-6.2-2.39-2-24.44-5.91-47.38-6-23,.12-45,4-47.38,6-3.25,2.69-9.56,31.52-4.1,36.1,3.16,2.66,8.05,1.95,11.78.9,15.09-4.22,25.84-17.85,39-25.3C69.88,12,91.87,4.2,106.49,14.27Z"/></g></mask><filter id="luminosity-noclip-4" x="6.51" y="41.82" width="104.64" height="46.35" filterUnits="userSpaceOnUse" color-interpolation-filters="sRGB"><feFlood flood-color="#fff" result="bg"/><feBlend in="SourceGraphic" in2="bg"/></filter><mask id="mask-4" x="6.51" y="41.82" width="104.64" height="46.35" maskUnits="userSpaceOnUse"><g class="cls-3"><path class="cls-4" d="M110.68,58.84c1.11-8.81.54-17-4.79-17-4.55,0-10.8,7.17-13.79,9.69C72.69,67.86,51.55,81.62,23.56,80.43,17,80.15,10.4,79,6.51,73.76A11.72,11.72,0,0,0,8,79.25c2,3.69,25.08,8.63,48.77,8.92,23.69-.29,46.77-5.23,48.75-8.93C106.91,76.64,109.6,67.46,110.68,58.84Z"/></g></mask></defs><path class="cls-5" d="M113.45,41.87c-.14-16.85-4.65-33.3-7.08-35.56C103.87,4.22,80.79.12,56.75,0,32.71.12,9.62,4.22,7.11,6.31,4.69,8.57.19,25,.06,41.87c-.58,16.84,3.4,34.41,5.61,39,2.09,3.86,26.26,9,51.08,9.35,24.81-.31,49-5.49,51.06-9.35C110,76.28,114,58.71,113.45,41.87Z"/><path class="cls-6" d="M.06,48.48C.52,63,3.77,76.74,5.67,80.71c2.09,3.87,26.26,9.05,51.08,9.35,24.81-.3,49-5.48,51.06-9.35S113,63,113.43,48.48c0,.13,0,.26,0,.39.55,16.85-3.42,34.41-5.64,39-2.07,3.88-26.25,9.06-51.06,9.37-24.82-.31-49-5.49-51.08-9.37C3.46,83.28-.52,65.72.06,48.87Z"/><g class="cls-7"><path class="cls-8" d="M106.49,14.27c.56-1.95-.83-4.78-2.36-6.2-2.39-2-24.44-5.91-47.38-6-23,.12-45,4-47.38,6-3.25,2.69-9.56,31.52-4.1,36.1,3.16,2.66,8.05,1.95,11.78.9,15.09-4.22,25.84-17.85,39-25.3C69.88,12,91.87,4.2,106.49,14.27Z"/></g><g class="cls-9"><path class="cls-10" d="M110.68,58.84c1.11-8.81.54-17-4.79-17-4.55,0-10.8,7.17-13.79,9.69C72.69,67.86,51.55,81.62,23.56,80.43,17,80.15,10.4,79,6.51,73.76A11.72,11.72,0,0,0,8,79.25c2,3.69,25.08,8.63,48.77,8.92,23.69-.29,46.77-5.23,48.75-8.93C106.91,76.64,109.6,67.46,110.68,58.84Z"/></g><path class="cls-11" d="M7.11,6.31C9.62,4.22,32.71.12,56.75,0c24,.12,47.12,4.22,49.62,6.31,2.43,2.26,6.94,18.71,7.08,35.56a125,125,0,0,1-3.74,33.32c3.78-42.8-4.12-63.93-6.54-66.19C100.66,6.91,79,3.68,55,2.05,24.61,0,6.77,6.62,7.11,6.31Z"/><path class="cls-12" d="M77.56,39.22c-4.92-.15-37.51-.15-42.41,0-3.58.14-6.65,3-6.65,6.2s3.07,6.06,6.65,6.19c4.9.17,37.49.17,42.41,0,3.56-.13,6.62-2.94,6.62-6.19S81.12,39.36,77.56,39.22Z"/><path class="cls-11" d="M73.43,40.71c-4-.11-30.22-.11-34.17,0-2.87.11-5.33,2.24-5.33,4.71s2.46,4.61,5.33,4.71c4,.11,30.21.11,34.17,0,2.87-.1,5.33-2.24,5.34-4.71S76.3,40.82,73.43,40.71Z"/><path class="cls-13" d="M84.06,46.56a6.91,6.91,0,0,1-6.5,5c-4.47.15-41.06,0-42.41,0a6.91,6.91,0,0,1-6.51-5,4.81,4.81,0,0,0-.14,1.14c0,3.25,3.07,6.07,6.65,6.2s38.28.12,42.41,0c3.56-.13,6.62-2.95,6.62-6.2A5.38,5.38,0,0,0,84.06,46.56Z"/></svg>