<svg xmlns="http://www.w3.org/2000/svg" xmlns:xlink="http://www.w3.org/1999/xlink" viewBox="0 0 105.92 90.73"><defs><style>.cls-1{mask:url(#mask);filter:url(#luminosity-noclip-3);}.cls-2,.cls-4{mix-blend-mode:multiply;}.cls-2{fill:url(#Áåçûìÿííûé_ãðàäèåíò_1017);}.cls-3{mask:url(#mask-2);filter:url(#luminosity-noclip-4);}.cls-4{fill:url(#Áåçûìÿííûé_ãðàäèåíò_1017-2);}.cls-5{isolation:isolate;}.cls-6{fill:#f83b5c;}.cls-7{mask:url(#mask-3);}.cls-10,.cls-13,.cls-8{mix-blend-mode:screen;opacity:0.66;}.cls-8{fill:url(#Áåçûìÿííûé_ãðàäèåíò_495);}.cls-9{mask:url(#mask-4);}.cls-10{fill:url(#Áåçûìÿííûé_ãðàäèåíò_495-2);}.cls-11{fill:#29040f;}.cls-12{fill:#890902;}.cls-14{fill:#ffdbcc;}.cls-15{filter:url(#luminosity-noclip-2);}.cls-16{filter:url(#luminosity-noclip);}</style><filter id="luminosity-noclip" x="2.92" y="-6354.53" width="96.57" height="32766" filterUnits="userSpaceOnUse" color-interpolation-filters="sRGB"><feFlood flood-color="#fff" result="bg"/><feBlend in="SourceGraphic" in2="bg"/></filter><mask id="mask" x="2.92" y="-6354.53" width="96.57" height="32766" maskUnits="userSpaceOnUse"><g class="cls-16"/></mask><radialGradient id="Áåçûìÿííûé_ãðàäèåíò_1017" cx="130.48" cy="257.35" r="87.82" gradientTransform="translate(-35.59 -240.96) scale(0.97 0.87)" gradientUnits="userSpaceOnUse"><stop offset="0.01"/><stop offset="0.09" stop-color="#0c0c0c"/><stop offset="0.25" stop-color="#2b2b2b"/><stop offset="0.45" stop-color="#5d5d5d"/><stop offset="0.7" stop-color="#a3a3a3"/><stop offset="0.99" stop-color="#fbfbfb"/><stop offset="1" stop-color="#fff"/></radialGradient><filter id="luminosity-noclip-2" x="6.08" y="-6354.53" width="97.65" height="32766" filterUnits="userSpaceOnUse" color-interpolation-filters="sRGB"><feFlood flood-color="#fff" result="bg"/><feBlend in="SourceGraphic" in2="bg"/></filter><mask id="mask-2" x="6.08" y="-6354.53" width="97.65" height="32766" maskUnits="userSpaceOnUse"><g class="cls-15"/></mask><radialGradient id="Áåçûìÿííûé_ãðàäèåíò_1017-2" cx="57.59" cy="352.09" r="97.47" xlink:href="#Áåçûìÿííûé_ãðàäèåíò_1017"/><filter id="luminosity-noclip-3" x="2.92" y="1.91" width="96.57" height="41.04" filterUnits="userSpaceOnUse" color-interpolation-filters="sRGB"><feFlood flood-color="#fff" result="bg"/><feBlend in="SourceGraphic" in2="bg"/></filter><mask id="mask-3" x="2.92" y="1.91" width="96.57" height="41.04" maskUnits="userSpaceOnUse"><g class="cls-1"><path class="cls-2" d="M99.37,13.33c.53-1.82-.77-4.47-2.19-5.8C95,5.68,74.37,2,53,1.91,31.54,2,11,5.68,8.74,7.53,5.72,10-.17,37,4.92,41.22c3,2.49,7.51,1.83,11,.85C30,38.12,40,25.4,52.35,18.45,65.21,11.19,85.74,3.92,99.37,13.33Z"/></g></mask><linearGradient id="Áåçûìÿííûé_ãðàäèåíò_495" x1="2.92" y1="217.55" x2="99.49" y2="217.55" gradientTransform="translate(0 -173.57) scale(1 0.9)" gradientUnits="userSpaceOnUse"><stop offset="0" stop-color="#c70902"/><stop offset="0.27" stop-color="#cb0d04"/><stop offset="0.54" stop-color="#d61709"/><stop offset="0.79" stop-color="#ea2913"/><stop offset="1" stop-color="#ff3d1d"/></linearGradient><filter id="luminosity-noclip-4" x="6.08" y="39.03" width="97.65" height="43.25" filterUnits="userSpaceOnUse" color-interpolation-filters="sRGB"><feFlood flood-color="#fff" result="bg"/><feBlend in="SourceGraphic" in2="bg"/></filter><mask id="mask-4" x="6.08" y="39.03" width="97.65" height="43.25" maskUnits="userSpaceOnUse"><g class="cls-3"><path class="cls-4" d="M103.29,54.92c1-8.23.5-15.9-4.47-15.89-4.25,0-10.08,6.7-12.87,9-18.11,15.26-37.84,28.1-64,27-6.14-.26-12.27-1.3-15.91-6.22A10.74,10.74,0,0,0,7.46,74C9.33,77.4,30.85,82,53,82.29,75.07,82,96.61,77.4,98.46,74,99.77,71.52,102.28,63,103.29,54.92Z"/></g></mask><linearGradient id="Áåçûìÿííûé_ãðàäèåíò_495-2" x1="6.08" y1="259.99" x2="103.73" y2="259.99" xlink:href="#Áåçûìÿííûé_ãðàäèåíò_495"/></defs><g class="cls-5"><g id="Layer_1" data-name="Layer 1"><path class="cls-6" d="M105.87,39.08C105.74,23.36,101.54,8,99.27,5.9S75.39.12,53,0C30.53.12,9,4,6.64,5.9S.18,23.36.05,39.08C-.47,54.79,3.23,71.19,5.3,75.47,7.24,79.08,29.8,83.91,53,84.2c23.16-.29,45.71-5.12,47.66-8.73C102.68,71.18,106.39,54.79,105.87,39.08Z"/><g class="cls-7"><path class="cls-8" d="M99.37,13.33c.53-1.82-.77-4.47-2.19-5.8C95,5.68,74.37,2,53,1.91,31.54,2,11,5.68,8.74,7.53,5.72,10-.17,37,4.92,41.22c3,2.49,7.51,1.83,11,.85C30,38.12,40,25.4,52.35,18.45,65.21,11.19,85.74,3.92,99.37,13.33Z"/></g><g class="cls-9"><path class="cls-10" d="M103.29,54.92c1-8.23.5-15.9-4.47-15.89-4.25,0-10.08,6.7-12.87,9-18.11,15.26-37.84,28.1-64,27-6.14-.26-12.27-1.3-15.91-6.22A10.74,10.74,0,0,0,7.46,74C9.33,77.4,30.85,82,53,82.29,75.07,82,96.61,77.4,98.46,74,99.77,71.52,102.28,63,103.29,54.92Z"/></g><path class="cls-11" d="M105.86,45.24c-.44,13.58-3.45,26.38-5.24,30.09-2,3.61-24.5,8.43-47.66,8.72C29.8,83.76,7.24,78.94,5.3,75.33,3.51,71.62.49,58.82.06,45.24c0,.13,0,.25,0,.37C-.47,61.33,3.23,77.72,5.3,82,7.24,85.61,29.8,90.44,53,90.73c23.16-.29,45.71-5.12,47.66-8.73,2.06-4.28,5.77-20.67,5.25-36.39C105.87,45.49,105.86,45.37,105.86,45.24Z"/><path class="cls-11" d="M99.27,5.9C96.94,4,75.39.12,53,0,30.53.12,9,4,6.64,5.9S.18,23.36.05,39.08a116.7,116.7,0,0,0,3.48,31.1C0,30.23,7.38,10.51,9.64,8.4c2.34-1.94,22.57-5,44.94-6.47C83,0,99.59,6.19,99.27,5.9Z"/><path class="cls-12" d="M71,52.82q-4.7-5-9.51-9.9Q66.35,38,71,33c2.26-2.44,2.43-6.32.29-8.46h0c-2.15-2.15-6-2-8.47.28q-5,4.71-9.9,9.51-4.91-4.8-9.91-9.51c-2.44-2.26-6.31-2.43-8.46-.28s-2,6,.28,8.46q4.71,5,9.51,9.91-4.8,4.89-9.51,9.9c-2.26,2.44-2.42,6.32-.28,8.47h0c2.15,2.14,6,2,8.46-.29q5-4.7,9.91-9.51,4.9,4.82,9.9,9.51c2.45,2.26,6.32,2.43,8.47.29S73.3,55.26,71,52.82Z"/><path class="cls-11" d="M66.69,50.44q-3.57-3.81-7.22-7.52,3.66-3.72,7.22-7.52A4.75,4.75,0,0,0,66.91,29h0a4.76,4.76,0,0,0-6.43.21Q56.69,32.75,53,36.4q-3.72-3.65-7.52-7.22A4.76,4.76,0,0,0,39,29a4.76,4.76,0,0,0,.21,6.43c2.39,2.53,4.79,5,7.23,7.52-2.44,2.48-4.84,5-7.23,7.52A4.76,4.76,0,0,0,39,56.87h0a4.76,4.76,0,0,0,6.43-.22q3.8-3.57,7.52-7.22,3.72,3.65,7.52,7.22a4.4,4.4,0,1,0,6.21-6.21Z"/><g class="cls-13"><path class="cls-14" d="M43.25,44.08c.38-.39.75-.78,1.13-1.16Q39.58,38,34.87,33a6.75,6.75,0,0,1-1.68-3.4,6.73,6.73,0,0,0,1.68,5.73Q39,39.75,43.25,44.08Z"/><path class="cls-14" d="M61.53,42.92c.38.38.76.77,1.13,1.16q4.23-4.32,8.38-8.74a6.71,6.71,0,0,0,1.69-5.73A6.77,6.77,0,0,1,71,33Q66.35,38,61.53,42.92Z"/><path class="cls-14" d="M71.33,61.29c-2.15,2.14-6,2-8.47-.29q-5-4.7-9.9-9.51Q48.05,56.31,43.05,61c-2.44,2.26-6.31,2.43-8.46.29h0a5.16,5.16,0,0,1-1.4-2.74,5.65,5.65,0,0,0,1.4,5.06h0c2.15,2.15,6,2,8.46-.28q5-4.71,9.91-9.51,4.9,4.8,9.9,9.51c2.45,2.26,6.32,2.43,8.47.28a5.65,5.65,0,0,0,1.4-5.06A5.3,5.3,0,0,1,71.33,61.29Z"/></g></g></g></svg>