<svg id="Layer_1" data-name="Layer 1" xmlns="http://www.w3.org/2000/svg" xmlns:xlink="http://www.w3.org/1999/xlink" viewBox="0 0 270.76 88.01"><defs><style>.cls-1,.cls-5{mask:url(#mask);}.cls-1{filter:url(#luminosity-noclip-7);}.cls-2,.cls-4,.cls-6,.cls-8{mix-blend-mode:multiply;}.cls-2{fill:url(#Áåçûìÿííûé_ãðàäèåíò_1031);}.cls-10,.cls-3,.cls-9{mask:url(#mask-2);}.cls-3{filter:url(#luminosity-noclip-12);}.cls-4{fill:url(#Áåçûìÿííûé_ãðàäèåíò_1000);}.cls-5{filter:url(#luminosity-noclip-8);}.cls-6{fill:url(#Áåçûìÿííûé_ãðàäèåíò_1031-2);}.cls-7{mask:url(#mask-4);filter:url(#luminosity-noclip-9);}.cls-8{fill:url(#Áåçûìÿííûé_ãðàäèåíò_1000-2);}.cls-9{filter:url(#luminosity-noclip-10);}.cls-11{mask:url(#mask-7);}.cls-12{fill:#ad2f55;}.cls-13{mask:url(#mask-8);}.cls-14{mask:url(#mask-9);}.cls-15{fill:#280311;}.cls-16{mask:url(#mask-10);}.cls-17{mask:url(#mask-12);}.cls-18{fill:#27010c;}.cls-19{filter:url(#luminosity-noclip-4);}.cls-20{filter:url(#luminosity-noclip-2);}.cls-21{filter:url(#luminosity-noclip);}</style><filter id="luminosity-noclip" x="12.19" y="-6875.18" width="246.37" height="32766" filterUnits="userSpaceOnUse" color-interpolation-filters="sRGB"><feFlood flood-color="#fff" result="bg"/><feBlend in="SourceGraphic" in2="bg"/></filter><mask id="mask" x="12.19" y="-6875.18" width="246.37" height="32766" maskUnits="userSpaceOnUse"><g class="cls-21"/></mask><radialGradient id="Áåçûìÿííûé_ãðàäèåíò_1031" cx="-1518.09" cy="-514.6" r="45.36" gradientTransform="translate(5443.57 722.38) scale(3.5 1.35)" gradientUnits="userSpaceOnUse"><stop offset="0" stop-color="gray"/><stop offset="0.15" stop-color="#868686"/><stop offset="0.34" stop-color="#969696"/><stop offset="0.55" stop-color="#b1b1b1"/><stop offset="0.78" stop-color="#d6d6d6"/><stop offset="1" stop-color="#fff"/></radialGradient><filter id="luminosity-noclip-2" x="0" y="-6875.18" width="270.76" height="32766" filterUnits="userSpaceOnUse" color-interpolation-filters="sRGB"><feFlood flood-color="#fff" result="bg"/><feBlend in="SourceGraphic" in2="bg"/></filter><mask id="mask-2" x="0" y="-6875.18" width="270.76" height="32766" maskUnits="userSpaceOnUse"><g class="cls-20"/></mask><radialGradient id="Áåçûìÿííûé_ãðàäèåíò_1000" cx="59.65" cy="-526.7" r="108.85" gradientTransform="translate(64.62 800.07) scale(1.21 1.45)" gradientUnits="userSpaceOnUse"><stop offset="0" stop-color="gray"/><stop offset="0.15" stop-color="#8c8c8c"/><stop offset="0.42" stop-color="#ababab"/><stop offset="0.78" stop-color="#dcdcdc"/><stop offset="1" stop-color="#fff"/></radialGradient><radialGradient id="Áåçûìÿííûé_ãðàäèåíò_1031-2" cx="-1518.09" cy="-529.37" r="45.36" gradientTransform="translate(5443.57 788.03) scale(3.5 1.44)" xlink:href="#Áåçûìÿííûé_ãðàäèåíò_1031"/><filter id="luminosity-noclip-4" x="12.51" y="-6875.18" width="247.28" height="32766" filterUnits="userSpaceOnUse" color-interpolation-filters="sRGB"><feFlood flood-color="#fff" result="bg"/><feBlend in="SourceGraphic" in2="bg"/></filter><mask id="mask-4" x="12.51" y="-6875.18" width="247.28" height="32766" maskUnits="userSpaceOnUse"><g class="cls-19"/></mask><radialGradient id="Áåçûìÿííûé_ãðàäèåíò_1000-2" cx="208.02" cy="-277.01" r="113.1" gradientTransform="translate(-100.65 343.17) scale(1.15 1.02)" xlink:href="#Áåçûìÿííûé_ãðàäèåíò_1000"/><filter id="luminosity-noclip-7" x="12.19" y="10.09" width="246.37" height="65.31" filterUnits="userSpaceOnUse" color-interpolation-filters="sRGB"><feFlood flood-color="#fff" result="bg"/><feBlend in="SourceGraphic" in2="bg"/></filter><mask id="mask-7" x="12.19" y="10.09" width="246.37" height="65.31" maskUnits="userSpaceOnUse"><g class="cls-1"><path class="cls-2" d="M249.71,14.29c-5.54-2.06-59.94-4.3-114.33-4.2C81,10,26.6,12.23,21,14.29c-4.53,1.77-9.8,14.77-8.7,27.68.41,12.91,7.21,25.74,10.71,27,5,1.67,58.66,6.52,112.33,6.42,53.67.1,107.35-4.75,112.34-6.42,3.49-1.27,10.29-14.1,10.69-27C259.53,29.06,254.25,16.06,249.71,14.29Z"/></g></mask><filter id="luminosity-noclip-8" x="12.19" y="5.61" width="249.15" height="69.79" filterUnits="userSpaceOnUse" color-interpolation-filters="sRGB"><feFlood flood-color="#fff" result="bg"/><feBlend in="SourceGraphic" in2="bg"/></filter><mask id="mask-8" x="12.19" y="5.61" width="249.15" height="69.79" maskUnits="userSpaceOnUse"><g class="cls-5"><path class="cls-6" d="M249.71,10.09C244.17,7.9,189.77,5.5,135.38,5.61,81,5.5,26.6,7.9,21,10.09c-4.53,1.89-9.8,15.79-8.7,29.59.41,13.79,7.21,27.5,10.71,28.85,5,1.79,58.66,7,112.33,6.87,53.67.11,107.35-5.08,112.34-6.87,3.49-1.35,10.29-15.06,10.69-28.85C259.53,25.88,254.25,12,249.71,10.09Z"/></g></mask><filter id="luminosity-noclip-9" x="12.51" y="48.21" width="247.28" height="27.69" filterUnits="userSpaceOnUse" color-interpolation-filters="sRGB"><feFlood flood-color="#fff" result="bg"/><feBlend in="SourceGraphic" in2="bg"/></filter><mask id="mask-9" x="12.51" y="48.21" width="247.28" height="27.69" maskUnits="userSpaceOnUse"><g class="cls-7"><path class="cls-8" d="M250.81,63.24c-5.21,1.45-58.61,4.2-114.66,4.12-56.05.08-109.74-3.7-115-5.15-1.7-.51-7.41-7.56-8.68-14,1,10.5,7.31,20.45,10.65,21.48,5,1.45,59,5.63,113,5.55,54,.08,108-4.1,113-5.55,3.32-1,9.61-11,10.64-21.48C258.39,55.12,252.52,62.73,250.81,63.24Z"/></g></mask><filter id="luminosity-noclip-10" x="0" y="10.09" width="270.76" height="77.91" filterUnits="userSpaceOnUse" color-interpolation-filters="sRGB"><feFlood flood-color="#fff" result="bg"/><feBlend in="SourceGraphic" in2="bg"/></filter><mask id="mask-10" x="0" y="10.09" width="270.76" height="77.91" maskUnits="userSpaceOnUse"><g class="cls-9"><path class="cls-4" d="M261.1,10.14l-.14-.05c3.15,6.49,5.54,17.44,4.73,28.35-.43,15.84-7.63,31.58-11.33,33.13-5.28,2.06-62.14,8-119,7.89-56.85.12-113.69-5.83-119-7.89C12.71,70,5.5,54.28,5.07,38.44,4.26,27.53,6.66,16.58,9.79,10.09l-.13.05S-1.12,29,.1,45.42C.54,61.87,8,78.2,11.86,79.82,17.35,82,76.37,88.13,135.38,88c59,.12,118-6.06,123.53-8.19,3.83-1.62,11.3-17.95,11.76-34.4C271.89,29,261.1,10.14,261.1,10.14Z"/></g></mask><filter id="luminosity-noclip-12" x="-0.01" y="6.59" width="270.77" height="81.42" filterUnits="userSpaceOnUse" color-interpolation-filters="sRGB"><feFlood flood-color="#fff" result="bg"/><feBlend in="SourceGraphic" in2="bg"/></filter><mask id="mask-12" x="-0.01" y="6.59" width="270.77" height="81.42" maskUnits="userSpaceOnUse"><g class="cls-3"><path class="cls-4" d="M261.1,10.14l-.14-.05c3.15,6.49,5.54,17.44,4.73,28.35-.43,15.84-7.63,31.58-11.33,33.13-5.28,2.06-62.14,8-119,7.89-56.85.12-113.69-5.83-119-7.89C12.71,70,5.5,54.28,5.07,38.44,4.26,27.53,6.66,16.58,9.79,10.09l-.13.05S-1.12,29,.1,45.42C.54,61.87,8,78.2,11.86,79.82,17.35,82,76.37,88.13,135.38,88c59,.12,118-6.06,123.53-8.19,3.83-1.62,11.3-17.95,11.76-34.4C271.89,29,261.1,10.14,261.1,10.14Z"/></g></mask></defs><g class="cls-11"><path class="cls-12" d="M249.71,14.29c-5.54-2.06-59.62-2.39-114-2.29C81.31,11.9,26.6,12.23,21,14.29c-4.53,1.77-9.8,14.77-8.7,27.68.41,12.91,7.21,25.74,10.71,27,5,1.67,58.66,6.52,112.33,6.42,53.67.1,107.35-4.75,112.34-6.42,3.49-1.27,10.29-14.1,10.69-27C259.53,29.06,254.25,16.06,249.71,14.29Z"/></g><g class="cls-13"><path class="cls-12" d="M249.71,10.09C244.17,7.9,189.77,5.5,135.38,5.61,81,5.5,26.6,7.9,21,10.09c-4.53,1.89-9.8,15.79-8.7,29.59.41,13.79,7.21,27.5,10.71,28.85,5,1.79,58.66,7,112.33,6.87,53.67.11,107.35-5.08,112.34-6.87,3.49-1.35,13.11-14.68,13.52-28.47C262.35,26.26,254.25,12,249.71,10.09Z"/></g><g class="cls-14"><path class="cls-15" d="M250.81,63.24c-5.21,1.45-58.61,4.2-114.66,4.12-56.05.08-109.74-3.7-115-5.15-1.7-.51-7.41-7.56-8.68-14,1,10.5,7.31,20.45,10.65,21.48C28.18,71.14,82.05,76,136,75.9c54,.08,108.1-4.76,113.12-6.21,3.32-1,9.61-11,10.64-21.48C258.39,55.12,252.52,62.73,250.81,63.24Z"/></g><g class="cls-16"><path class="cls-15" d="M261.1,10.14l-.14-.05c3.15,6.49,5.54,17.44,4.73,28.35-.43,15.84-7.63,31.58-11.33,33.13-5.28,2.06-62.14,8-119,7.89-56.85.12-113.69-5.83-119-7.89C12.71,70,5.5,54.28,5.07,38.44,4.26,27.53,6.66,16.58,9.79,10.09l-.13.05S-1.12,29,.1,45.42C.54,61.87,8,78.2,11.86,79.82,17.35,82,76.37,88.13,135.38,88c59,.12,118-6.06,123.53-8.19,3.83-1.62,11.3-17.95,11.76-34.4C271.89,29,261.1,10.14,261.1,10.14Z"/></g><g class="cls-16"><path class="cls-15" d="M261.1,10.14l-.14-.05c3.15,6.49,5.54,17.44,4.73,28.35-.43,15.84-7.63,31.58-11.33,33.13-5.28,2.06-62.14,8-119,7.89-56.85.12-113.69-5.83-119-7.89C12.71,70,5.5,54.28,5.07,38.44,4.26,27.53,6.66,16.58,9.79,10.09l-.13.05S-1.12,29,.1,45.42C.54,61.87,8,78.2,11.86,79.82,17.35,82,76.37,88.13,135.38,88c59,.12,118-6.06,123.53-8.19,3.83-1.62,11.3-17.95,11.76-34.4C271.89,29,261.1,10.14,261.1,10.14Z"/></g><g class="cls-17"><path class="cls-15" d="M261.1,10.14l-.14-.05c3.15,6.49,5.54,17.44,4.73,28.35-.43,15.84-7.63,31.58-11.33,33.13-5.28,2.06-62.14,8-119,7.89-56.85.12-113.69-5.83-119-7.89C12.71,70,5.5,54.28,5.07,38.44,4.26,27.53,9.65,13.07,12.79,6.59c0,0-3.19,3.21-3.83,4.59C9,11.18-1.12,29,.1,45.42.54,61.87,8,78.2,11.86,79.82,17.35,82,76.37,88.13,135.38,88c59,.12,118-6.06,123.53-8.19,3.83-1.62,11.3-17.95,11.76-34.4C271.89,29,261.1,10.14,261.1,10.14Z"/></g><path class="cls-12" d="M257.92,5.12C252,2.62,194.08-.12,136.15,0,78.23-.12,19,1.26,14.38,5.12,8.21,10.29,3.68,23.71,5.11,38.85c.44,15.74,7.68,31.36,11.4,32.91,5.32,2,62.47,7.94,119.64,7.82,57.16.12,114.33-5.79,119.64-7.82,3.72-1.55,11-17.17,11.4-32.91C268.37,23.12,262.75,7.27,257.92,5.12Zm2.88,33.44c-.41,13.95-7.2,28.91-10.72,30.28-5,1.81-60.64,7.09-114.63,7-54,.11-108.55-5.09-113.57-6.9-3.52-1.37-10-16.18-10.37-30.13C10.4,24.84,14.47,12.88,19,11c5.59-2.22,62.7-4.49,117.4-4.37C191.14,6.48,246.93,9,252.51,11.2,257.07,13.11,261.92,24.61,260.8,38.56Z"/><path class="cls-18" d="M18.23,10.71c-4,3.23-8.06,16.75-8,27.59,0,15.79,8.42,30.9,10.56,31.72,5.12,1.83,60.26,7.14,115.41,7,55.14.11,110.29-5.2,115.42-7,3.59-1.39,10-15.29,10.41-29.41,1.14-14.13-3.7-28.48-8.35-30.42C247.92,8,192,5.49,136.15,5.61,80.27,5.49,24.38,8,18.68,10.19m240,30.42c-.41,13.41-6.57,25.81-10.08,27.13-5,1.74-58.44,7.6-112.43,7.5-54,.1-108-5.73-113-7.47-3.52-1.32-10.3-13.84-10.72-27.24-1.11-13.42,4.2-26.92,8.75-28.76,5.59-2.13,59.64-3.44,114.34-3.33,54.72-.11,109.83,1.63,115.41,3.77C255.44,14,259,27.4,258.66,40.61Z"/></svg>