<svg id="Layer_1" data-name="Layer 1" xmlns="http://www.w3.org/2000/svg" xmlns:xlink="http://www.w3.org/1999/xlink" viewBox="0 0 111.19 95.24"><defs><style>.cls-1{mask:url(#mask);filter:url(#luminosity-noclip-3);}.cls-2,.cls-4{mix-blend-mode:multiply;}.cls-2{fill:url(#Áåçûìÿííûé_ãðàäèåíò_1017);}.cls-3{mask:url(#mask-2);filter:url(#luminosity-noclip-4);}.cls-4{fill:url(#Áåçûìÿííûé_ãðàäèåíò_1017-2);}.cls-5{fill:#ad2f55;}.cls-6{fill:#28030d;}.cls-7{fill:#27010c;}.cls-8{mask:url(#mask-3);}.cls-9{fill:#a15e87;opacity:0.53;}.cls-10{mask:url(#mask-4);}.cls-11{fill:#9a648c;}.cls-12{fill:#471323;}.cls-13{fill:#020001;}.cls-14{filter:url(#luminosity-noclip-2);}.cls-15{filter:url(#luminosity-noclip);}</style><filter id="luminosity-noclip" x="3.07" y="-6486.88" width="101.38" height="32766" filterUnits="userSpaceOnUse" color-interpolation-filters="sRGB"><feFlood flood-color="#fff" result="bg"/><feBlend in="SourceGraphic" in2="bg"/></filter><mask id="mask" x="3.07" y="-6486.88" width="101.38" height="32766" maskUnits="userSpaceOnUse"><g class="cls-15"/></mask><radialGradient id="Áåçûìÿííûé_ãðàäèåíò_1017" cx="141.97" cy="236.57" r="92.2" gradientTransform="translate(-42.19 -223.74) scale(0.97 0.87)" gradientUnits="userSpaceOnUse"><stop offset="0.01"/><stop offset="0.09" stop-color="#0c0c0c"/><stop offset="0.25" stop-color="#2b2b2b"/><stop offset="0.45" stop-color="#5d5d5d"/><stop offset="0.7" stop-color="#a3a3a3"/><stop offset="0.99" stop-color="#fbfbfb"/><stop offset="1" stop-color="#fff"/></radialGradient><filter id="luminosity-noclip-2" x="6.38" y="-6486.88" width="102.51" height="32766" filterUnits="userSpaceOnUse" color-interpolation-filters="sRGB"><feFlood flood-color="#fff" result="bg"/><feBlend in="SourceGraphic" in2="bg"/></filter><mask id="mask-2" x="6.38" y="-6486.88" width="102.51" height="32766" maskUnits="userSpaceOnUse"><g class="cls-14"/></mask><radialGradient id="Áåçûìÿííûé_ãðàäèåíò_1017-2" cx="65.46" cy="336.04" r="102.33" xlink:href="#Áåçûìÿííûé_ãðàäèåíò_1017"/><filter id="luminosity-noclip-3" x="3.07" y="2" width="101.38" height="43.08" filterUnits="userSpaceOnUse" color-interpolation-filters="sRGB"><feFlood flood-color="#fff" result="bg"/><feBlend in="SourceGraphic" in2="bg"/></filter><mask id="mask-3" x="3.07" y="2" width="101.38" height="43.08" maskUnits="userSpaceOnUse"><g class="cls-1"><path class="cls-2" d="M104.32,14c.55-1.91-.81-4.69-2.31-6.09C99.67,6,78.08,2.12,55.59,2,33.11,2.12,11.52,6,9.18,7.9,6,10.55-.17,38.79,5.17,43.28c3.1,2.6,7.88,1.91,11.54.88C31.49,40,42,26.67,55,19.37,68.46,11.75,90,4.11,104.32,14Z"/></g></mask><filter id="luminosity-noclip-4" x="6.38" y="40.98" width="102.51" height="45.41" filterUnits="userSpaceOnUse" color-interpolation-filters="sRGB"><feFlood flood-color="#fff" result="bg"/><feBlend in="SourceGraphic" in2="bg"/></filter><mask id="mask-4" x="6.38" y="40.98" width="102.51" height="45.41" maskUnits="userSpaceOnUse"><g class="cls-3"><path class="cls-4" d="M108.43,57.65C109.52,49,109,41,103.73,41c-4.45,0-10.57,7-13.5,9.48-19,16-39.72,29.5-67.14,28.34-6.45-.28-12.89-1.37-16.71-6.54a11.33,11.33,0,0,0,1.45,5.38c2,3.62,24.56,8.45,47.76,8.75,23.22-.3,45.82-5.14,47.77-8.76C104.74,75.08,107.37,66.08,108.43,57.65Z"/></g></mask></defs><path class="cls-5" d="M111.14,41c-.14-16.5-4.55-32.62-6.93-34.84C101.76,4.15,79.14.12,55.59,0,32.05.12,9.43,4.15,7,6.18,4.6,8.4.18,24.52.05,41c-.54,16.5,3.35,33.71,5.51,38.2,2,3.79,25.72,8.86,50,9.17,24.32-.31,48-5.38,50-9.17C107.79,74.73,111.69,57.52,111.14,41Z"/><path class="cls-6" d="M111.13,47.5c-.46,14.25-3.63,27.69-5.5,31.57-2,3.79-25.72,8.87-50,9.17-24.31-.3-48-5.38-50-9.17C3.68,75.19.52,61.75.06,47.5c0,.13,0,.25,0,.38-.54,16.5,3.35,33.71,5.51,38.2,2,3.79,25.72,8.87,50,9.16,24.32-.29,48-5.37,50-9.16,2.16-4.49,6.06-21.7,5.51-38.2C111.14,47.75,111.13,47.63,111.13,47.5Z"/><path class="cls-7" d="M104.21,6.18C101.76,4.15,79.14.12,55.59,0,32.05.12,9.43,4.15,7,6.18,4.6,8.4.18,24.52.05,41A122.18,122.18,0,0,0,3.71,73.67C0,31.74,7.74,11,10.12,8.82c2.45-2,23.7-5.21,47.18-6.8C87.07,0,104.55,6.5,104.21,6.18Z"/><g class="cls-8"><path class="cls-9" d="M104.32,14c.55-1.91-.81-4.69-2.31-6.09C99.67,6,78.08,2.12,55.59,2,33.11,2.12,11.52,6,9.18,7.9,6,10.55-.17,38.79,5.17,43.28c3.1,2.6,7.88,1.91,11.54.88C31.49,40,42,26.67,55,19.37,68.46,11.75,90,4.11,104.32,14Z"/></g><g class="cls-10"><path class="cls-11" d="M108.43,57.65C109.52,49,109,41,103.73,41c-4.45,0-10.57,7-13.5,9.48-19,16-39.72,29.5-67.14,28.34-6.45-.28-12.89-1.37-16.71-6.54a11.33,11.33,0,0,0,1.45,5.38c2,3.62,24.56,8.45,47.76,8.75,23.22-.3,45.82-5.14,47.77-8.76C104.74,75.08,107.37,66.08,108.43,57.65Z"/></g><path class="cls-12" d="M81.8,29.7c1,1.92,2.32,26.26,0,28.37s-28.67,2.38-28.67,2.38-2.4,6.79-4.18,6.32S24.57,46.39,24.57,43.23,49.64,19.06,51.12,19.7s2.71,7.7,2.71,7.7S80.76,27.78,81.8,29.7Z"/><path class="cls-7" d="M77.08,32.3c.86,1.59,1.93,21.83,0,23.58s-23.83,2-23.83,2-2,5.65-3.47,5.25S29.51,46.18,29.51,43.54,50.34,23.46,51.57,24s1.73,6.4,1.73,6.4S76.21,30.7,77.08,32.3Z"/><path class="cls-13" d="M81.8,58.07c-2.32,2.11-28.67,2.38-28.67,2.38s-2.4,6.79-4.18,6.32S24.27,46.24,24.58,43.13a3.22,3.22,0,0,0,0,2C26,49.46,47.18,68.21,49,68.68s4.18-6.32,4.18-6.32S79.48,62.1,81.8,60c1-.92,1.34-6.16,1.3-11.89C83.06,53,82.71,57.25,81.8,58.07Z"/></svg>