<svg xmlns="http://www.w3.org/2000/svg" xmlns:xlink="http://www.w3.org/1999/xlink" viewBox="0 0 111.19 95.24"><defs><style>.cls-1{mask:url(#mask);filter:url(#luminosity-noclip-3);}.cls-2,.cls-4{mix-blend-mode:multiply;}.cls-2{fill:url(#Áåçûìÿííûé_ãðàäèåíò_1017);}.cls-3{mask:url(#mask-2);filter:url(#luminosity-noclip-4);}.cls-4{fill:url(#Áåçûìÿííûé_ãðàäèåíò_1017-2);}.cls-5{isolation:isolate;}.cls-6{fill:#ad2f55;}.cls-7{fill:#28030d;}.cls-8{fill:#27010c;}.cls-9{mask:url(#mask-3);}.cls-10{fill:#a15e87;opacity:0.53;}.cls-11{mask:url(#mask-4);}.cls-12{fill:#9a648c;}.cls-13{fill:#471323;}.cls-14{mix-blend-mode:screen;}.cls-15{fill:#020001;}.cls-16{filter:url(#luminosity-noclip-2);}.cls-17{filter:url(#luminosity-noclip);}</style><filter id="luminosity-noclip" x="3.07" y="-6486.88" width="101.37" height="32766" filterUnits="userSpaceOnUse" color-interpolation-filters="sRGB"><feFlood flood-color="#fff" result="bg"/><feBlend in="SourceGraphic" in2="bg"/></filter><mask id="mask" x="3.07" y="-6486.88" width="101.37" height="32766" maskUnits="userSpaceOnUse"><g class="cls-17"/></mask><radialGradient id="Áåçûìÿííûé_ãðàäèåíò_1017" cx="151.33" cy="236.57" r="92.2" gradientTransform="translate(-51.23 -223.74) scale(0.97 0.87)" gradientUnits="userSpaceOnUse"><stop offset="0.01"/><stop offset="0.09" stop-color="#0c0c0c"/><stop offset="0.25" stop-color="#2b2b2b"/><stop offset="0.45" stop-color="#5d5d5d"/><stop offset="0.7" stop-color="#a3a3a3"/><stop offset="0.99" stop-color="#fbfbfb"/><stop offset="1" stop-color="#fff"/></radialGradient><filter id="luminosity-noclip-2" x="6.38" y="-6486.88" width="102.51" height="32766" filterUnits="userSpaceOnUse" color-interpolation-filters="sRGB"><feFlood flood-color="#fff" result="bg"/><feBlend in="SourceGraphic" in2="bg"/></filter><mask id="mask-2" x="6.38" y="-6486.88" width="102.51" height="32766" maskUnits="userSpaceOnUse"><g class="cls-16"/></mask><radialGradient id="Áåçûìÿííûé_ãðàäèåíò_1017-2" cx="74.82" cy="336.04" r="102.33" xlink:href="#Áåçûìÿííûé_ãðàäèåíò_1017"/><filter id="luminosity-noclip-3" x="3.07" y="2" width="101.37" height="43.08" filterUnits="userSpaceOnUse" color-interpolation-filters="sRGB"><feFlood flood-color="#fff" result="bg"/><feBlend in="SourceGraphic" in2="bg"/></filter><mask id="mask-3" x="3.07" y="2" width="101.37" height="43.08" maskUnits="userSpaceOnUse"><g class="cls-1"><path class="cls-2" d="M104.32,14c.55-1.91-.81-4.69-2.31-6.09C99.67,6,78.08,2.12,55.6,2,33.11,2.12,11.52,6,9.18,7.9,6,10.55-.18,38.79,5.17,43.28c3.1,2.6,7.88,1.91,11.54.88C31.49,40,42,26.67,55,19.37,68.46,11.75,90,4.11,104.32,14Z"/></g></mask><filter id="luminosity-noclip-4" x="6.38" y="40.98" width="102.51" height="45.41" filterUnits="userSpaceOnUse" color-interpolation-filters="sRGB"><feFlood flood-color="#fff" result="bg"/><feBlend in="SourceGraphic" in2="bg"/></filter><mask id="mask-4" x="6.38" y="40.98" width="102.51" height="45.41" maskUnits="userSpaceOnUse"><g class="cls-3"><path class="cls-4" d="M108.43,57.65C109.52,49,109,41,103.73,41c-4.45,0-10.57,7-13.5,9.48-19,16-39.72,29.5-67.14,28.34-6.45-.28-12.89-1.37-16.71-6.54a11.45,11.45,0,0,0,1.45,5.38c2,3.62,24.56,8.45,47.77,8.75,23.21-.3,45.81-5.14,47.76-8.76C104.74,75.08,107.37,66.08,108.43,57.65Z"/></g></mask></defs><g class="cls-5"><g id="Layer_1" data-name="Layer 1"><path class="cls-6" d="M111.14,41c-.13-16.5-4.55-32.62-6.93-34.84C101.76,4.15,79.14.12,55.6,0,32.05.12,9.43,4.15,7,6.18,4.6,8.4.18,24.52.05,41c-.54,16.5,3.35,33.71,5.51,38.2,2,3.79,25.72,8.86,50,9.17,24.31-.31,48-5.38,50-9.17C107.79,74.73,111.69,57.52,111.14,41Z"/><path class="cls-7" d="M111.13,47.5c-.46,14.25-3.63,27.69-5.5,31.57-2,3.79-25.72,8.87-50,9.17-24.32-.3-48-5.38-50-9.17C3.69,75.19.52,61.75.06,47.5c0,.13,0,.25,0,.38-.54,16.5,3.35,33.71,5.51,38.2,2,3.79,25.72,8.87,50,9.16,24.31-.29,48-5.37,50-9.16,2.16-4.49,6.06-21.7,5.51-38.2C111.14,47.75,111.13,47.63,111.13,47.5Z"/><path class="cls-8" d="M104.21,6.18C101.76,4.15,79.14.12,55.6,0,32.05.12,9.43,4.15,7,6.18,4.6,8.4.18,24.52.05,41A122.59,122.59,0,0,0,3.71,73.67C0,31.74,7.75,11,10.12,8.82c2.45-2,23.7-5.21,47.18-6.8C87.08,0,104.55,6.5,104.21,6.18Z"/><g class="cls-9"><path class="cls-10" d="M104.32,14c.55-1.91-.81-4.69-2.31-6.09C99.67,6,78.08,2.12,55.6,2,33.11,2.12,11.52,6,9.18,7.9,6,10.55-.18,38.79,5.17,43.28c3.1,2.6,7.88,1.91,11.54.88C31.49,40,42,26.67,55,19.37,68.46,11.75,90,4.11,104.32,14Z"/></g><g class="cls-11"><path class="cls-12" d="M108.43,57.65C109.52,49,109,41,103.73,41c-4.45,0-10.57,7-13.5,9.48-19,16-39.72,29.5-67.14,28.34-6.45-.28-12.89-1.37-16.71-6.54a11.45,11.45,0,0,0,1.45,5.38c2,3.62,24.56,8.45,47.77,8.75,23.21-.3,45.81-5.14,47.76-8.76C104.74,75.08,107.37,66.08,108.43,57.65Z"/></g><path class="cls-13" d="M32.89,35.17a428.27,428.27,0,0,1,45,0,3.86,3.86,0,0,0,4-4.68c-.39-2.7-2.75-5.16-5.1-5.41a206.46,206.46,0,0,0-42.76,0c-2.35.25-4.71,2.71-5.1,5.41A3.86,3.86,0,0,0,32.89,35.17Z"/><path class="cls-13" d="M78.31,41.72q-22.9-.51-45.8,0a5,5,0,0,0-4.71,5.05h0a5,5,0,0,0,4.71,5q22.91.52,45.8,0a5,5,0,0,0,4.71-5h0A5,5,0,0,0,78.31,41.72Z"/><path class="cls-13" d="M77.93,58.38a433.75,433.75,0,0,1-45,0,3.84,3.84,0,0,0-4,4.66c.39,2.7,2.75,5.17,5.1,5.43a209.27,209.27,0,0,0,42.76,0c2.35-.26,4.71-2.73,5.1-5.43A3.84,3.84,0,0,0,77.93,58.38Z"/><path class="cls-8" d="M77.93,35.17h.19a3.78,3.78,0,0,0,.57-2.7,5.73,5.73,0,0,0-4.48-4.77,183.14,183.14,0,0,0-37.6,0,5.74,5.74,0,0,0-4.48,4.77,3.78,3.78,0,0,0,.57,2.7h.19A428.27,428.27,0,0,1,77.93,35.17Z"/><path class="cls-8" d="M32.89,58.38a1.2,1.2,0,0,0-.19,0,3.77,3.77,0,0,0-.57,2.7c.34,2.37,2.42,4.54,4.48,4.76a181.74,181.74,0,0,0,37.6,0c2.07-.22,4.14-2.39,4.48-4.76a3.77,3.77,0,0,0-.57-2.7,1.2,1.2,0,0,0-.19,0A433.75,433.75,0,0,1,32.89,58.38Z"/><path class="cls-8" d="M75.54,42.33q-20.13-.45-40.26,0a4.44,4.44,0,0,0-4.15,4.44h0a4.43,4.43,0,0,0,4.15,4.43q20.13.46,40.26,0a4.43,4.43,0,0,0,4.15-4.43h0A4.44,4.44,0,0,0,75.54,42.33Z"/><g class="cls-14"><path class="cls-15" d="M32.89,36.61a433.75,433.75,0,0,1,45,0,3.84,3.84,0,0,0,4-4.66v0a3.75,3.75,0,0,1-3.95,3.25,428.27,428.27,0,0,0-45,0,3.75,3.75,0,0,1-3.95-3.25v0A3.84,3.84,0,0,0,32.89,36.61Z"/><path class="cls-15" d="M76.79,68.47a209.27,209.27,0,0,1-42.76,0c-2.34-.26-4.69-2.71-5.09-5.4a4.88,4.88,0,0,0,0,1.43c.39,2.69,2.75,5.16,5.1,5.42a207.85,207.85,0,0,0,42.76,0c2.35-.26,4.71-2.72,5.1-5.42a4.56,4.56,0,0,0,0-1.43C81.49,65.76,79.13,68.21,76.79,68.47Z"/><path class="cls-15" d="M78.31,51.81q-22.9.52-45.8,0a5,5,0,0,1-4.65-4.31,4.37,4.37,0,0,0-.06.72h0a5,5,0,0,0,4.71,5.05q22.91.51,45.8,0A5,5,0,0,0,83,48.22h0A4.37,4.37,0,0,0,83,47.5,5,5,0,0,1,78.31,51.81Z"/></g></g></g></svg>