<svg id="Layer_1" data-name="Layer 1" xmlns="http://www.w3.org/2000/svg" xmlns:xlink="http://www.w3.org/1999/xlink" viewBox="0 0 113.5 97.23"><defs><style>.cls-1{mask:url(#mask);filter:url(#luminosity-noclip-3);}.cls-2,.cls-4{mix-blend-mode:multiply;}.cls-2{fill:url(#Áåçûìÿííûé_ãðàäèåíò_1017);}.cls-3{mask:url(#mask-2);filter:url(#luminosity-noclip-4);}.cls-4{fill:url(#Áåçûìÿííûé_ãðàäèåíò_1017-2);}.cls-5{fill:#ad2f55;}.cls-6{fill:#28030d;}.cls-7{mask:url(#mask-3);}.cls-8{fill:#a15e87;opacity:0.53;}.cls-9{mask:url(#mask-4);}.cls-10{fill:#9a648c;}.cls-11{fill:#27010c;}.cls-12{fill:#471323;}.cls-13{fill:#020001;}.cls-14{filter:url(#luminosity-noclip-2);}.cls-15{filter:url(#luminosity-noclip);}</style><filter id="luminosity-noclip" x="3.13" y="-6148.91" width="103.49" height="32766" filterUnits="userSpaceOnUse" color-interpolation-filters="sRGB"><feFlood flood-color="#fff" result="bg"/><feBlend in="SourceGraphic" in2="bg"/></filter><mask id="mask" x="3.13" y="-6148.91" width="103.49" height="32766" maskUnits="userSpaceOnUse"><g class="cls-15"/></mask><radialGradient id="Áåçûìÿííûé_ãðàäèåíò_1017" cx="153.18" cy="286.69" r="94.1" gradientTransform="translate(-51.04 -267.71) scale(0.97 0.87)" gradientUnits="userSpaceOnUse"><stop offset="0.01"/><stop offset="0.09" stop-color="#0c0c0c"/><stop offset="0.25" stop-color="#2b2b2b"/><stop offset="0.45" stop-color="#5d5d5d"/><stop offset="0.7" stop-color="#a3a3a3"/><stop offset="0.99" stop-color="#fbfbfb"/><stop offset="1" stop-color="#fff"/></radialGradient><filter id="luminosity-noclip-2" x="6.51" y="-6148.91" width="104.64" height="32766" filterUnits="userSpaceOnUse" color-interpolation-filters="sRGB"><feFlood flood-color="#fff" result="bg"/><feBlend in="SourceGraphic" in2="bg"/></filter><mask id="mask-2" x="6.51" y="-6148.91" width="104.64" height="32766" maskUnits="userSpaceOnUse"><g class="cls-14"/></mask><radialGradient id="Áåçûìÿííûé_ãðàäèåíò_1017-2" cx="75.08" cy="388.22" r="104.45" xlink:href="#Áåçûìÿííûé_ãðàäèåíò_1017"/><filter id="luminosity-noclip-3" x="3.13" y="2.05" width="103.49" height="43.97" filterUnits="userSpaceOnUse" color-interpolation-filters="sRGB"><feFlood flood-color="#fff" result="bg"/><feBlend in="SourceGraphic" in2="bg"/></filter><mask id="mask-3" x="3.13" y="2.05" width="103.49" height="43.97" maskUnits="userSpaceOnUse"><g class="cls-1"><path class="cls-2" d="M106.49,14.28c.56-2-.83-4.79-2.36-6.21-2.39-2-24.44-5.91-47.38-6-23,.11-45,4-47.38,6-3.25,2.7-9.55,31.52-4.1,36.11,3.16,2.65,8.05,2,11.78.89,15.09-4.22,25.84-17.85,39-25.3C69.88,12,91.87,4.2,106.49,14.28Z"/></g></mask><filter id="luminosity-noclip-4" x="6.51" y="41.83" width="104.64" height="46.35" filterUnits="userSpaceOnUse" color-interpolation-filters="sRGB"><feFlood flood-color="#fff" result="bg"/><feBlend in="SourceGraphic" in2="bg"/></filter><mask id="mask-4" x="6.51" y="41.83" width="104.64" height="46.35" maskUnits="userSpaceOnUse"><g class="cls-3"><path class="cls-4" d="M110.68,58.84c1.11-8.81.54-17-4.79-17-4.55,0-10.8,7.17-13.79,9.68C72.69,67.86,51.55,81.62,23.56,80.43,17,80.15,10.4,79,6.51,73.76A11.6,11.6,0,0,0,8,79.25c2,3.69,25.08,8.64,48.77,8.92,23.69-.28,46.77-5.23,48.75-8.93C106.91,76.64,109.6,67.46,110.68,58.84Z"/></g></mask></defs><path class="cls-5" d="M113.45,41.87c-.14-16.85-4.64-33.3-7.08-35.56C103.87,4.23,80.79.12,56.75,0,32.71.12,9.62,4.23,7.11,6.31,4.69,8.57.19,25,.06,41.87c-.58,16.85,3.4,34.42,5.61,39,2.09,3.87,26.26,9,51.08,9.35,24.81-.31,49-5.48,51.06-9.35C110,76.28,114,58.72,113.45,41.87Z"/><path class="cls-6" d="M113.43,48.49c-.46,14.53-3.7,28.26-5.62,32.22-2.07,3.88-26.25,9.05-51.06,9.36-24.82-.31-49-5.48-51.08-9.36C3.77,76.75.52,63,.06,48.49v.38c-.58,16.85,3.4,34.42,5.61,39,2.09,3.87,26.26,9,51.08,9.36,24.81-.31,49-5.49,51.06-9.36,2.22-4.58,6.19-22.15,5.64-39C113.45,48.74,113.43,48.61,113.43,48.49Z"/><g class="cls-7"><path class="cls-8" d="M106.49,14.28c.56-2-.83-4.79-2.36-6.21-2.39-2-24.44-5.91-47.38-6-23,.11-45,4-47.38,6-3.25,2.7-9.55,31.52-4.1,36.11,3.16,2.65,8.05,2,11.78.89,15.09-4.22,25.84-17.85,39-25.3C69.88,12,91.87,4.2,106.49,14.28Z"/></g><g class="cls-9"><path class="cls-10" d="M110.68,58.84c1.11-8.81.54-17-4.79-17-4.55,0-10.8,7.17-13.79,9.68C72.69,67.86,51.55,81.62,23.56,80.43,17,80.15,10.4,79,6.51,73.76A11.6,11.6,0,0,0,8,79.25c2,3.69,25.08,8.64,48.77,8.92,23.69-.28,46.77-5.23,48.75-8.93C106.91,76.64,109.6,67.46,110.68,58.84Z"/></g><path class="cls-11" d="M106.37,6.31C103.87,4.23,80.79.12,56.75,0,32.71.12,9.62,4.23,7.11,6.31,4.69,8.57.19,25,.06,41.87A124.8,124.8,0,0,0,3.78,75.2C0,32.4,7.9,11.26,10.33,9c2.49-2.08,24.19-5.32,48.16-6.95C88.88,0,106.71,6.63,106.37,6.31Z"/><path class="cls-12" d="M78,39.22c-4.9-.15-9.8-.26-14.71-.29q-.06-7.36-.3-14.71c-.14-3.57-2.95-6.64-6.19-6.64h0c-3.26,0-6.07,3.07-6.21,6.64q-.23,7.35-.29,14.71c-4.9,0-9.8.14-14.71.29-3.57.14-6.63,3-6.63,6.2s3.06,6.06,6.63,6.2c4.91.16,9.81.25,14.71.3q.06,7.35.29,14.71c.14,3.57,3,6.63,6.21,6.63h0c3.24,0,6-3.06,6.19-6.63q.24-7.35.3-14.71c4.91-.05,9.81-.14,14.71-.3,3.57-.14,6.64-2.95,6.64-6.2S81.52,39.36,78,39.22Z"/><path class="cls-11" d="M72.85,40.71c-3.73-.11-7.45-.19-11.18-.22,0-3.72-.1-7.45-.22-11.17-.1-2.71-2.24-5-4.7-5h0a5.06,5.06,0,0,0-4.7,5c-.12,3.72-.2,7.45-.24,11.17-3.73,0-7.44.11-11.16.22-2.71.11-5,2.25-5,4.71s2.33,4.61,5,4.71c3.72.11,7.43.18,11.16.22q.06,5.59.24,11.17a5.06,5.06,0,0,0,4.7,5h0c2.46,0,4.6-2.32,4.7-5,.12-3.72.2-7.44.22-11.17,3.73,0,7.45-.11,11.18-.22,2.71-.1,5-2.24,5-4.71S75.56,40.82,72.85,40.71Z"/><path class="cls-13" d="M78,51.62c-4.9.16-9.8.25-14.71.3q-.06,7.35-.3,14.71c-.14,3.57-2.95,6.63-6.19,6.63h0c-3.26,0-6.07-3.06-6.21-6.63q-.23-7.35-.29-14.71c-4.9-.05-9.8-.14-14.71-.3A6.94,6.94,0,0,1,29,46.56a6.21,6.21,0,0,0-.12,1.14c0,3.26,3.06,6.07,6.63,6.2,4.91.15,9.81.26,14.71.3q.06,7.35.29,14.71c.14,3.57,3,6.63,6.21,6.63h0c3.24,0,6-3.06,6.19-6.63q.24-7.35.3-14.71c4.91,0,9.81-.15,14.71-.3,3.57-.13,6.64-2.94,6.64-6.2a4.87,4.87,0,0,0-.14-1.14A6.93,6.93,0,0,1,78,51.62Z"/></svg>