<svg id="Layer_1" data-name="Layer 1" xmlns="http://www.w3.org/2000/svg" xmlns:xlink="http://www.w3.org/1999/xlink" viewBox="0 0 111.19 95.24"><defs><style>.cls-1{mask:url(#mask);filter:url(#luminosity-noclip-3);}.cls-2,.cls-4{mix-blend-mode:multiply;}.cls-2{fill:url(#Áåçûìÿííûé_ãðàäèåíò_1017);}.cls-3{mask:url(#mask-2);filter:url(#luminosity-noclip-4);}.cls-4{fill:url(#Áåçûìÿííûé_ãðàäèåíò_1017-2);}.cls-5{fill:#ad2f55;}.cls-6{fill:#28030d;}.cls-7{fill:#27010c;}.cls-8{mask:url(#mask-3);}.cls-9{fill:#a15e87;opacity:0.53;}.cls-10{mask:url(#mask-4);}.cls-11{fill:#9a648c;}.cls-12{fill:#471323;}.cls-13{fill:#020001;}.cls-14{filter:url(#luminosity-noclip-2);}.cls-15{filter:url(#luminosity-noclip);}</style><filter id="luminosity-noclip" x="3.07" y="-6266.17" width="101.37" height="32766" filterUnits="userSpaceOnUse" color-interpolation-filters="sRGB"><feFlood flood-color="#fff" result="bg"/><feBlend in="SourceGraphic" in2="bg"/></filter><mask id="mask" x="3.07" y="-6266.17" width="101.37" height="32766" maskUnits="userSpaceOnUse"><g class="cls-15"/></mask><radialGradient id="Áåçûìÿííûé_ãðàäèåíò_1017" cx="151.18" cy="269.58" r="92.19" gradientTransform="translate(-51.08 -252.46) scale(0.97 0.87)" gradientUnits="userSpaceOnUse"><stop offset="0.01"/><stop offset="0.09" stop-color="#0c0c0c"/><stop offset="0.25" stop-color="#2b2b2b"/><stop offset="0.45" stop-color="#5d5d5d"/><stop offset="0.7" stop-color="#a3a3a3"/><stop offset="0.99" stop-color="#fbfbfb"/><stop offset="1" stop-color="#fff"/></radialGradient><filter id="luminosity-noclip-2" x="6.38" y="-6266.17" width="102.51" height="32766" filterUnits="userSpaceOnUse" color-interpolation-filters="sRGB"><feFlood flood-color="#fff" result="bg"/><feBlend in="SourceGraphic" in2="bg"/></filter><mask id="mask-2" x="6.38" y="-6266.17" width="102.51" height="32766" maskUnits="userSpaceOnUse"><g class="cls-14"/></mask><radialGradient id="Áåçûìÿííûé_ãðàäèåíò_1017-2" cx="74.67" cy="369.05" r="102.32" xlink:href="#Áåçûìÿííûé_ãðàäèåíò_1017"/><filter id="luminosity-noclip-3" x="3.07" y="2" width="101.37" height="43.08" filterUnits="userSpaceOnUse" color-interpolation-filters="sRGB"><feFlood flood-color="#fff" result="bg"/><feBlend in="SourceGraphic" in2="bg"/></filter><mask id="mask-3" x="3.07" y="2" width="101.37" height="43.08" maskUnits="userSpaceOnUse"><g class="cls-1"><path class="cls-2" d="M104.32,14c.55-1.91-.81-4.69-2.31-6.08C99.67,6,78.08,2.12,55.6,2,33.11,2.12,11.52,6,9.18,7.91,6,10.55-.18,38.79,5.17,43.28c3.1,2.6,7.88,1.9,11.54.88C31.49,40,42,26.67,55,19.37,68.46,11.75,90,4.11,104.32,14Z"/></g></mask><filter id="luminosity-noclip-4" x="6.38" y="40.98" width="102.51" height="45.41" filterUnits="userSpaceOnUse" color-interpolation-filters="sRGB"><feFlood flood-color="#fff" result="bg"/><feBlend in="SourceGraphic" in2="bg"/></filter><mask id="mask-4" x="6.38" y="40.98" width="102.51" height="45.41" maskUnits="userSpaceOnUse"><g class="cls-3"><path class="cls-4" d="M108.43,57.65C109.52,49,109,41,103.73,41c-4.45,0-10.57,7-13.5,9.48-19,16-39.72,29.5-67.14,28.33-6.45-.27-12.89-1.36-16.71-6.53a11.45,11.45,0,0,0,1.45,5.38c2,3.61,24.56,8.45,47.77,8.74,23.21-.29,45.81-5.13,47.76-8.75C104.74,75.08,107.37,66.08,108.43,57.65Z"/></g></mask></defs><path class="cls-5" d="M111.14,41c-.13-16.5-4.55-32.62-6.93-34.84C101.76,4.15,79.14.12,55.6,0,32.05.12,9.43,4.15,7,6.18,4.6,8.4.18,24.52.05,41c-.54,16.5,3.35,33.71,5.51,38.2,2,3.79,25.72,8.86,50,9.16,24.31-.3,48-5.37,50-9.16C107.79,74.73,111.69,57.52,111.14,41Z"/><path class="cls-6" d="M111.13,47.5c-.46,14.25-3.63,27.68-5.5,31.57-2,3.79-25.72,8.86-50,9.17-24.32-.31-48-5.38-50-9.17C3.69,75.18.52,61.75.06,47.5c0,.13,0,.25,0,.38-.54,16.5,3.35,33.71,5.51,38.2,2,3.79,25.72,8.86,50,9.16,24.31-.3,48-5.37,50-9.16,2.16-4.49,6.06-21.7,5.51-38.2C111.14,47.75,111.13,47.63,111.13,47.5Z"/><path class="cls-7" d="M104.21,6.18C101.76,4.15,79.14.12,55.6,0,32.05.12,9.43,4.15,7,6.18,4.6,8.4.18,24.52.05,41A122.64,122.64,0,0,0,3.71,73.67C0,31.74,7.75,11,10.12,8.82c2.45-2,23.7-5.21,47.18-6.8C87.08,0,104.55,6.49,104.21,6.18Z"/><g class="cls-8"><path class="cls-9" d="M104.32,14c.55-1.91-.81-4.69-2.31-6.08C99.67,6,78.08,2.12,55.6,2,33.11,2.12,11.52,6,9.18,7.91,6,10.55-.18,38.79,5.17,43.28c3.1,2.6,7.88,1.9,11.54.88C31.49,40,42,26.67,55,19.37,68.46,11.75,90,4.11,104.32,14Z"/></g><g class="cls-10"><path class="cls-11" d="M108.43,57.65C109.52,49,109,41,103.73,41c-4.45,0-10.57,7-13.5,9.48-19,16-39.72,29.5-67.14,28.33-6.45-.27-12.89-1.36-16.71-6.53a11.45,11.45,0,0,0,1.45,5.38c2,3.61,24.56,8.45,47.77,8.74,23.21-.29,45.81-5.13,47.76-8.75C104.74,75.08,107.37,66.08,108.43,57.65Z"/></g><path class="cls-12" d="M68.64,66.35l-.81,7.22A1.6,1.6,0,0,1,66.24,75H47.34a1.61,1.61,0,0,1-1.6-1.5l-.46-7a1.62,1.62,0,0,1,1.34-1.68l2.8-.47a1.59,1.59,0,0,0,1.34-1.57V47a1.59,1.59,0,0,0-1.69-1.59l-1.48.08a1.6,1.6,0,0,1-1.67-1.81l.95-7.2a1.61,1.61,0,0,1,1.53-1.39l17.05-.6A1.6,1.6,0,0,1,67.1,36l.69,8A1.6,1.6,0,0,1,66.1,45.7l-2.29-.09a1.59,1.59,0,0,0-1.62,1.68l.72,15.46a1.61,1.61,0,0,0,1.43,1.51l2.89.32A1.6,1.6,0,0,1,68.64,66.35ZM56.4,29.72a8.16,8.16,0,1,0-8.16-8.16A8.16,8.16,0,0,0,56.4,29.72Z"/><path class="cls-7" d="M48.42,72a.09.09,0,0,1-.09-.09l-.41-6.22a.11.11,0,0,1,.08-.1l2.49-.41a2.74,2.74,0,0,0,2.29-2.71V45.1A2.74,2.74,0,0,0,50,42.36h-.15l-1.31.07a.1.1,0,0,1-.08,0,.07.07,0,0,1,0-.07l.84-6.39a.12.12,0,0,1,.09-.09l15.13-.53a.11.11,0,0,1,.1.09l.61,7.09s0,0,0,.06a.09.09,0,0,1-.08,0c-.71,0-1.4-.07-2.09-.08h0a2.81,2.81,0,0,0-2,.84,2.76,2.76,0,0,0-.75,2l.64,17.18a2.73,2.73,0,0,0,2.44,2.59l2.57.29a.07.07,0,0,1,.06,0,.09.09,0,0,1,0,.08L65.29,72a.09.09,0,0,1-.09.09Z"/><path class="cls-7" d="M56.47,28.91A5.92,5.92,0,1,1,62.39,23,5.92,5.92,0,0,1,56.47,28.91Z"/><path class="cls-13" d="M56.4,31.9a8.16,8.16,0,0,0,8.16-8.16,9.81,9.81,0,0,0-.07-1.09,8.16,8.16,0,0,1-16.17,0,9.81,9.81,0,0,0-.08,1.09A8.16,8.16,0,0,0,56.4,31.9Z"/><path class="cls-13" d="M66.1,45.7l-2.29-.09a1.59,1.59,0,0,0-1.62,1.68l.07,1.63a1.61,1.61,0,0,1,1.55-1.13l2.29.09a1.6,1.6,0,0,0,1.69-1.73l-.12-1.43A1.62,1.62,0,0,1,66.1,45.7Z"/><path class="cls-13" d="M47.59,47.7l1.48-.08a1.59,1.59,0,0,1,1.69,1.59V47a1.59,1.59,0,0,0-1.69-1.59l-1.48.08a1.59,1.59,0,0,1-1.5-.88l-.17,1.25A1.6,1.6,0,0,0,47.59,47.7Z"/><path class="cls-13" d="M67.83,73.57A1.6,1.6,0,0,1,66.24,75H47.34a1.61,1.61,0,0,1-1.6-1.5L45.39,68a1.56,1.56,0,0,0-.11.65l.46,7a1.61,1.61,0,0,0,1.6,1.5h18.9a1.59,1.59,0,0,0,1.59-1.42l.81-7.22a1.56,1.56,0,0,0-.14-.86Z"/></svg>