<svg xmlns="http://www.w3.org/2000/svg" xmlns:xlink="http://www.w3.org/1999/xlink" viewBox="0 0 105.51 90.38"><defs><style>.cls-1{mask:url(#mask);filter:url(#luminosity-noclip-3);}.cls-2,.cls-4{mix-blend-mode:multiply;}.cls-2{fill:url(#Áåçûìÿííûé_ãðàäèåíò_1017);}.cls-3{mask:url(#mask-2);filter:url(#luminosity-noclip-4);}.cls-4{fill:url(#Áåçûìÿííûé_ãðàäèåíò_1017-2);}.cls-5{isolation:isolate;}.cls-6{fill:#596aee;}.cls-7{fill:#100c39;}.cls-8{mask:url(#mask-3);}.cls-11,.cls-9{mix-blend-mode:screen;opacity:0.5;}.cls-9{fill:url(#Áåçûìÿííûé_ãðàäèåíò_3);}.cls-10{mask:url(#mask-4);}.cls-11{fill:#118edb;}.cls-12{fill:#1f218c;}.cls-13{fill:#3d10a2;}.cls-14{fill:#100f37;}.cls-15{fill:#23238d;}.cls-16{fill:#120e39;}.cls-17{filter:url(#luminosity-noclip-2);}.cls-18{filter:url(#luminosity-noclip);}</style><filter id="luminosity-noclip" x="2.91" y="-6491.18" width="96.2" height="32766" filterUnits="userSpaceOnUse" color-interpolation-filters="sRGB"><feFlood flood-color="#fff" result="bg"/><feBlend in="SourceGraphic" in2="bg"/></filter><mask id="mask" x="2.91" y="-6491.18" width="96.2" height="32766" maskUnits="userSpaceOnUse"><g class="cls-18"/></mask><radialGradient id="Áåçûìÿííûé_ãðàäèåíò_1017" cx="130" cy="236.98" r="87.49" gradientTransform="translate(-35.47 -223.18) scale(0.97 0.87)" gradientUnits="userSpaceOnUse"><stop offset="0.01"/><stop offset="0.09" stop-color="#0c0c0c"/><stop offset="0.25" stop-color="#2b2b2b"/><stop offset="0.45" stop-color="#5d5d5d"/><stop offset="0.7" stop-color="#a3a3a3"/><stop offset="0.99" stop-color="#fbfbfb"/><stop offset="1" stop-color="#fff"/></radialGradient><filter id="luminosity-noclip-2" x="6.06" y="-6491.18" width="97.28" height="32766" filterUnits="userSpaceOnUse" color-interpolation-filters="sRGB"><feFlood flood-color="#fff" result="bg"/><feBlend in="SourceGraphic" in2="bg"/></filter><mask id="mask-2" x="6.06" y="-6491.18" width="97.28" height="32766" maskUnits="userSpaceOnUse"><g class="cls-17"/></mask><radialGradient id="Áåçûìÿííûé_ãðàäèåíò_1017-2" cx="57.39" cy="331.37" r="97.1" xlink:href="#Áåçûìÿííûé_ãðàäèåíò_1017"/><filter id="luminosity-noclip-3" x="2.91" y="1.9" width="96.2" height="40.88" filterUnits="userSpaceOnUse" color-interpolation-filters="sRGB"><feFlood flood-color="#fff" result="bg"/><feBlend in="SourceGraphic" in2="bg"/></filter><mask id="mask-3" x="2.91" y="1.9" width="96.2" height="40.88" maskUnits="userSpaceOnUse"><g class="cls-1"><path class="cls-2" d="M99,13.28c.52-1.82-.77-4.45-2.2-5.78C94.58,5.65,74.09,2,52.76,1.9,31.42,2,10.93,5.65,8.71,7.5,5.69,10-.17,36.81,4.9,41.07c2.95,2.47,7.49,1.81,11,.84,14-3.94,24-16.6,36.3-23.53C65,11.15,85.41,3.9,99,13.28Z"/></g></mask><radialGradient id="Áåçûìÿííûé_ãðàäèåíò_3" cx="130" cy="236.98" r="87.49" gradientTransform="translate(-35.47 -223.18) scale(0.97 0.87)" gradientUnits="userSpaceOnUse"><stop offset="0.01" stop-color="#003fa9"/><stop offset="0.22" stop-color="#024bb0"/><stop offset="0.61" stop-color="#0969c4"/><stop offset="1" stop-color="#118edb"/></radialGradient><filter id="luminosity-noclip-4" x="6.06" y="38.89" width="97.28" height="43.09" filterUnits="userSpaceOnUse" color-interpolation-filters="sRGB"><feFlood flood-color="#fff" result="bg"/><feBlend in="SourceGraphic" in2="bg"/></filter><mask id="mask-4" x="6.06" y="38.89" width="97.28" height="43.09" maskUnits="userSpaceOnUse"><g class="cls-3"><path class="cls-4" d="M102.9,54.7c1-8.19.49-15.83-4.47-15.81-4.22,0-10,6.66-12.81,9-18,15.2-37.69,28-63.71,26.88-6.12-.25-12.23-1.29-15.85-6.2a10.74,10.74,0,0,0,1.37,5.1c1.86,3.43,23.31,8,45.33,8.3,22-.27,43.48-4.87,45.32-8.3C99.39,71.24,101.89,62.71,102.9,54.7Z"/></g></mask></defs><g class="cls-5"><g id="Layer_1" data-name="Layer 1"><path class="cls-6" d="M.05,38.93c-.52,15.65,3.17,32,5.23,36.24,1.94,3.6,24.4,8.42,47.48,8.7,23.07-.28,45.54-5.1,47.47-8.7,2.06-4.26,5.75-20.59,5.23-36.24-.12-15.67-4.31-31-6.57-33.06C96.57,3.93,75.1.11,52.76,0,30.41.11,9,3.93,6.62,5.87,4.37,8,.17,23.26.05,38.93"/><path class="cls-7" d="M.05,45.44c-.52,15.66,3.17,32,5.23,36.25,1.94,3.59,24.4,8.41,47.48,8.69,23.07-.28,45.54-5.1,47.47-8.69,2.06-4.26,5.75-20.6,5.23-36.25v-.37C105,58.59,102,71.34,100.23,75c-1.93,3.59-24.4,8.4-47.47,8.69C29.68,83.44,7.22,78.63,5.28,75,3.5,71.34.49,58.59.06,45.07"/><g class="cls-8"><path class="cls-9" d="M99,13.28c.52-1.82-.77-4.45-2.2-5.78C94.58,5.65,74.09,2,52.76,1.9,31.42,2,10.93,5.65,8.71,7.5,5.69,10-.17,36.81,4.9,41.07c2.95,2.47,7.49,1.81,11,.84,14-3.94,24-16.6,36.3-23.53C65,11.15,85.41,3.9,99,13.28Z"/></g><g class="cls-10"><path class="cls-11" d="M102.9,54.7c1-8.19.49-15.83-4.47-15.81-4.22,0-10,6.66-12.81,9-18,15.2-37.69,28-63.71,26.88-6.12-.25-12.23-1.29-15.85-6.2a10.74,10.74,0,0,0,1.37,5.1c1.86,3.43,23.31,8,45.33,8.3,22-.27,43.48-4.87,45.32-8.3C99.39,71.24,101.89,62.71,102.9,54.7Z"/></g><path class="cls-12" d="M.05,38.93a116.3,116.3,0,0,0,3.47,31C0,30.11,7.35,10.47,9.6,8.36c2.33-1.93,22.49-4.94,44.78-6.45C82.63,0,99.21,6.16,98.89,5.87,96.57,3.93,75.1.11,52.76,0,30.41.11,9,3.93,6.62,5.87,4.37,8,.17,23.26.05,38.93"/><path class="cls-13" d="M60.26,13.28q8.85.8,11.17,10a2.32,2.32,0,0,1,.07.38l.12,1.35a2.41,2.41,0,0,1,0,.38l-.09,1q-.72,8-14.59,20.91a7.28,7.28,0,0,0-2.14,3.74,2.18,2.18,0,0,1-1.63,1.5l-7.23,1.48a2.16,2.16,0,0,1-2.6-2.12c0-.76.06-1.64.14-2.64q.57-6.32,11.82-16c1.88-1.66,2.86-3,3-4l0-.3c-.19-2.34-1.52-3.61-4-3.84q-3.29-.29-10.52,8l-.31,0L38,26.35a2.19,2.19,0,0,1,0-2.7Q47,12.09,59.13,13.17Zm-7,43.25q4.2,1.61,4,4.11l-.05.56q-.48,5.37-9,6.65a2.44,2.44,0,0,1-.54,0l-.87-.09q-3.06-.27-3.32-4.47a2.22,2.22,0,0,1,.12-.85q2.31-6.59,9.4-6Z"/><path class="cls-14" d="M48.18,64.84l-.81-.07c-.53,0-1.78-.16-1.95-3a.76.76,0,0,1,0-.3c1.14-3.25,3.19-4.76,6.45-4.76.33,0,.67,0,1,.05H53c1.35.54,2.84,1.38,2.75,2.46l0,.54c-.09,1-.36,4-7.33,5.07h-.2Zm-2.1-12.9a.75.75,0,0,1-.53-.22.69.69,0,0,1-.21-.5c0-.68,0-1.48.13-2.38.32-3.58,3.89-8.32,10.62-14.08,2.08-1.84,3.09-3.32,3.21-4.65l0-.4V29.6a4.88,4.88,0,0,0-4.88-4.75l-.33,0c-2.36,0-5.47,2.22-9.73,7l-4.3-5.35a.78.78,0,0,1,0-.95c4.89-6.32,10.38-9.39,16.8-9.39.6,0,1.21,0,1.82.08l1.07.09c5,.45,8,3.21,9.33,8.45a.88.88,0,0,1,0,.16l.11,1.26a.29.29,0,0,1,0,.13l-.08.93C68.76,31.86,64.31,38.15,56,45.92A8,8,0,0,0,53.56,50a.74.74,0,0,1-.56.51l-6.77,1.38Z"/><path class="cls-15" d="M71.5,26.63q-.87,8-14.56,20.7a7.28,7.28,0,0,0-2.14,3.74,2.18,2.18,0,0,1-1.63,1.5l-7.23,1.48a2.17,2.17,0,0,1-2.49-1.46c-.06.84-.1,1.6-.11,2.26A2.15,2.15,0,0,0,45.94,57l7.23-1.48A2.17,2.17,0,0,0,54.8,54a7.23,7.23,0,0,1,2.14-3.74Q70.8,37.36,71.53,29.34l.09-1a2.29,2.29,0,0,0,0-.37l-.12-1.35Z"/><path class="cls-16" d="M43.79,36.09q7.23-8.33,10.52-8a3.9,3.9,0,0,1,3.6,2.26,2.9,2.9,0,0,0,.35-1l0-.3c-.19-2.34-1.52-3.61-4-3.84q-3.29-.29-10.52,8l-.31,0-5.36-6.7-.09.11a2.19,2.19,0,0,0,0,2.7l5.44,6.8Z"/><path class="cls-15" d="M48.16,67.85a2.44,2.44,0,0,1-.54,0l-.87-.09a3.31,3.31,0,0,1-3-2.78l-.15.37a2.27,2.27,0,0,0-.12.86q.26,4.2,3.32,4.47l.87.08a2.44,2.44,0,0,0,.54,0q8.51-1.29,9-6.65l.05-.57A2.59,2.59,0,0,0,57,62.23Q55.82,66.7,48.16,67.85Z"/></g></g></svg>