<svg id="Layer_1" data-name="Layer 1" xmlns="http://www.w3.org/2000/svg" xmlns:xlink="http://www.w3.org/1999/xlink" viewBox="0 0 111.19 95.25"><defs><style>.cls-1{mask:url(#mask);filter:url(#luminosity-noclip-3);}.cls-2,.cls-4{mix-blend-mode:multiply;}.cls-2{fill:url(#Áåçûìÿííûé_ãðàäèåíò_1017);}.cls-3{mask:url(#mask-2);filter:url(#luminosity-noclip-4);}.cls-4{fill:url(#Áåçûìÿííûé_ãðàäèåíò_1017-2);}.cls-5{fill:#ad2f55;}.cls-6{fill:#28030d;}.cls-7{fill:#27010c;}.cls-8{mask:url(#mask-3);}.cls-9{fill:#a15e87;opacity:0.53;}.cls-10{mask:url(#mask-4);}.cls-11{fill:#9a648c;}.cls-12{fill:#471323;}.cls-13{fill:#020001;}.cls-14{filter:url(#luminosity-noclip-2);}.cls-15{filter:url(#luminosity-noclip);}</style><filter id="luminosity-noclip" x="3.07" y="-6378.5" width="101.37" height="32766" filterUnits="userSpaceOnUse" color-interpolation-filters="sRGB"><feFlood flood-color="#fff" result="bg"/><feBlend in="SourceGraphic" in2="bg"/></filter><mask id="mask" x="3.07" y="-6378.5" width="101.37" height="32766" maskUnits="userSpaceOnUse"><g class="cls-15"/></mask><radialGradient id="Áåçûìÿííûé_ãðàäèåíò_1017" cx="156" cy="252.78" r="92.19" gradientTransform="translate(-55.74 -237.84) scale(0.97 0.87)" gradientUnits="userSpaceOnUse"><stop offset="0.01"/><stop offset="0.09" stop-color="#0c0c0c"/><stop offset="0.25" stop-color="#2b2b2b"/><stop offset="0.45" stop-color="#5d5d5d"/><stop offset="0.7" stop-color="#a3a3a3"/><stop offset="0.99" stop-color="#fbfbfb"/><stop offset="1" stop-color="#fff"/></radialGradient><filter id="luminosity-noclip-2" x="6.38" y="-6378.5" width="102.51" height="32766" filterUnits="userSpaceOnUse" color-interpolation-filters="sRGB"><feFlood flood-color="#fff" result="bg"/><feBlend in="SourceGraphic" in2="bg"/></filter><mask id="mask-2" x="6.38" y="-6378.5" width="102.51" height="32766" maskUnits="userSpaceOnUse"><g class="cls-14"/></mask><radialGradient id="Áåçûìÿííûé_ãðàäèåíò_1017-2" cx="79.49" cy="352.25" r="102.33" xlink:href="#Áåçûìÿííûé_ãðàäèåíò_1017"/><filter id="luminosity-noclip-3" x="3.07" y="2" width="101.37" height="43.08" filterUnits="userSpaceOnUse" color-interpolation-filters="sRGB"><feFlood flood-color="#fff" result="bg"/><feBlend in="SourceGraphic" in2="bg"/></filter><mask id="mask-3" x="3.07" y="2" width="101.37" height="43.08" maskUnits="userSpaceOnUse"><g class="cls-1"><path class="cls-2" d="M104.32,14c.55-1.92-.81-4.69-2.31-6.08C99.67,6,78.08,2.12,55.6,2,33.11,2.12,11.52,6,9.18,7.91,6,10.54-.18,38.79,5.17,43.28c3.1,2.6,7.88,1.91,11.54.88C31.49,40,42,26.67,55,19.37,68.46,11.75,90,4.11,104.32,14Z"/></g></mask><filter id="luminosity-noclip-4" x="6.38" y="40.98" width="102.51" height="45.41" filterUnits="userSpaceOnUse" color-interpolation-filters="sRGB"><feFlood flood-color="#fff" result="bg"/><feBlend in="SourceGraphic" in2="bg"/></filter><mask id="mask-4" x="6.38" y="40.98" width="102.51" height="45.41" maskUnits="userSpaceOnUse"><g class="cls-3"><path class="cls-4" d="M108.43,57.65C109.52,49,109,41,103.73,41c-4.45,0-10.57,7-13.5,9.48-19,16-39.72,29.49-67.14,28.33-6.45-.27-12.89-1.36-16.71-6.53a11.33,11.33,0,0,0,1.45,5.38c2,3.61,24.56,8.45,47.77,8.74,23.21-.29,45.81-5.13,47.76-8.75C104.74,75.08,107.37,66.08,108.43,57.65Z"/></g></mask></defs><path class="cls-5" d="M111.14,41c-.13-16.5-4.55-32.62-6.93-34.84C101.76,4.14,79.14.12,55.6,0,32.05.12,9.43,4.14,7,6.18,4.6,8.4.18,24.52.05,41c-.54,16.5,3.35,33.71,5.51,38.2,2,3.79,25.72,8.86,50,9.16,24.31-.3,48-5.37,50-9.16C107.79,74.73,111.69,57.52,111.14,41Z"/><path class="cls-6" d="M.06,47.5c.46,14.25,3.63,27.68,5.5,31.57,2,3.79,25.72,8.86,50,9.17,24.31-.31,48-5.38,50-9.17,1.87-3.89,5-17.32,5.5-31.57,0,.12,0,.25,0,.38.55,16.5-3.35,33.71-5.51,38.2-2,3.79-25.72,8.86-50,9.17-24.32-.31-48-5.38-50-9.17-2.16-4.49-6-21.7-5.51-38.2C.05,47.75.06,47.62.06,47.5Z"/><path class="cls-7" d="M7,6.18C9.43,4.14,32.05.12,55.6,0c23.54.12,46.16,4.14,48.61,6.18C106.59,8.4,111,24.52,111.14,41a122.45,122.45,0,0,1-3.66,32.64c3.71-41.92-4-62.63-6.41-64.84-2.45-2-23.7-5.21-47.18-6.8C24.11,0,6.64,6.49,7,6.18Z"/><g class="cls-8"><path class="cls-9" d="M104.32,14c.55-1.92-.81-4.69-2.31-6.08C99.67,6,78.08,2.12,55.6,2,33.11,2.12,11.52,6,9.18,7.91,6,10.54-.18,38.79,5.17,43.28c3.1,2.6,7.88,1.91,11.54.88C31.49,40,42,26.67,55,19.37,68.46,11.75,90,4.11,104.32,14Z"/></g><g class="cls-10"><path class="cls-11" d="M108.43,57.65C109.52,49,109,41,103.73,41c-4.45,0-10.57,7-13.5,9.48-19,16-39.72,29.49-67.14,28.33-6.45-.27-12.89-1.36-16.71-6.53a11.33,11.33,0,0,0,1.45,5.38c2,3.61,24.56,8.45,47.77,8.74,23.21-.29,45.81-5.13,47.76-8.75C104.74,75.08,107.37,66.08,108.43,57.65Z"/></g><path class="cls-12" d="M79.91,43.58a26.79,26.79,0,0,0-37-22.88c-2.71-2.8-4.13-4.22-5.28-4.14-3.7.26-6.83,18.15-4.2,21C36,42.3,52.84,41.5,54.71,39c1.48-1.95-1.72-5.59-2.87-7.35a13.27,13.27,0,0,1,3.08,0,13.8,13.8,0,1,1-14.83,18,5.2,5.2,0,0,0-5-3.47H32.57A5.27,5.27,0,0,0,27.47,53a26.8,26.8,0,0,0,52.44-9.42Z"/><path class="cls-7" d="M76.11,43.7A23,23,0,0,0,55,22.42a22.74,22.74,0,0,0-10.61,1.71c-2.31-2.4-3.53-3.61-4.51-3.55-3.17.23-5.84,15.53-3.59,18A4.86,4.86,0,0,0,39,40.49c6,1.15,14.38.24,15.67-1.45,1.48-1.95-1.72-5.59-2.87-7.35a13.27,13.27,0,0,1,3.08,0,13.8,13.8,0,1,1-14.83,18,5.2,5.2,0,0,0-5-3.47H34.06a4.48,4.48,0,0,0-2.81,5.46,22.92,22.92,0,0,0,44.86-8Z"/><path class="cls-13" d="M55,40.33a2.59,2.59,0,0,0,.1-2.56A2,2,0,0,1,54.71,39C52.84,41.5,36,42.31,33.38,37.57a3.09,3.09,0,0,1-.55-1.06,4.52,4.52,0,0,0,.84,2.36C36.24,43.61,53.13,42.8,55,40.33Z"/><path class="cls-13" d="M54.92,31.74a13.27,13.27,0,0,0-3.08,0c.23.36.55.79.89,1.26A14.67,14.67,0,0,1,55.2,33,13.88,13.88,0,0,1,66.77,43.09,13.85,13.85,0,0,0,54.92,31.74Z"/><path class="cls-13" d="M80.19,44.88a26,26,0,0,0-.7-4.51,26.33,26.33,0,0,1,.42,3.21,26.79,26.79,0,0,1-52.33,9.74,4.73,4.73,0,0,0,.18,1,26.79,26.79,0,0,0,52.43-9.41Z"/></svg>