<svg id="Layer_1" data-name="Layer 1" xmlns="http://www.w3.org/2000/svg" xmlns:xlink="http://www.w3.org/1999/xlink" viewBox="0 0 111.19 95.24"><defs><style>.cls-1{mask:url(#mask);filter:url(#luminosity-noclip-3);}.cls-2,.cls-4{mix-blend-mode:multiply;}.cls-2{fill:url(#Áåçûìÿííûé_ãðàäèåíò_1017);}.cls-3{mask:url(#mask-2);filter:url(#luminosity-noclip-4);}.cls-4{fill:url(#Áåçûìÿííûé_ãðàäèåíò_1017-2);}.cls-5{fill:#ad2f55;}.cls-6{fill:#28030d;}.cls-7{mask:url(#mask-3);}.cls-8{fill:#a15e87;opacity:0.53;}.cls-9{mask:url(#mask-4);}.cls-10{fill:#9a648c;}.cls-11{fill:#27010c;}.cls-12{fill:#471323;}.cls-13{fill:#020001;}.cls-14{filter:url(#luminosity-noclip-2);}.cls-15{filter:url(#luminosity-noclip);}</style><filter id="luminosity-noclip" x="3.07" y="-6377.95" width="101.38" height="32766" filterUnits="userSpaceOnUse" color-interpolation-filters="sRGB"><feFlood flood-color="#fff" result="bg"/><feBlend in="SourceGraphic" in2="bg"/></filter><mask id="mask" x="3.07" y="-6377.95" width="101.38" height="32766" maskUnits="userSpaceOnUse"><g class="cls-15"/></mask><radialGradient id="Áåçûìÿííûé_ãðàäèåíò_1017" cx="141.97" cy="252.86" r="92.19" gradientTransform="translate(-42.19 -237.92) scale(0.97 0.87)" gradientUnits="userSpaceOnUse"><stop offset="0.01"/><stop offset="0.09" stop-color="#0c0c0c"/><stop offset="0.25" stop-color="#2b2b2b"/><stop offset="0.45" stop-color="#5d5d5d"/><stop offset="0.7" stop-color="#a3a3a3"/><stop offset="0.99" stop-color="#fbfbfb"/><stop offset="1" stop-color="#fff"/></radialGradient><filter id="luminosity-noclip-2" x="6.38" y="-6377.95" width="102.51" height="32766" filterUnits="userSpaceOnUse" color-interpolation-filters="sRGB"><feFlood flood-color="#fff" result="bg"/><feBlend in="SourceGraphic" in2="bg"/></filter><mask id="mask-2" x="6.38" y="-6377.95" width="102.51" height="32766" maskUnits="userSpaceOnUse"><g class="cls-14"/></mask><radialGradient id="Áåçûìÿííûé_ãðàäèåíò_1017-2" cx="65.46" cy="352.33" r="102.33" xlink:href="#Áåçûìÿííûé_ãðàäèåíò_1017"/><filter id="luminosity-noclip-3" x="3.07" y="2" width="101.38" height="43.08" filterUnits="userSpaceOnUse" color-interpolation-filters="sRGB"><feFlood flood-color="#fff" result="bg"/><feBlend in="SourceGraphic" in2="bg"/></filter><mask id="mask-3" x="3.07" y="2" width="101.38" height="43.08" maskUnits="userSpaceOnUse"><g class="cls-1"><path class="cls-2" d="M104.32,14c.55-1.91-.81-4.69-2.31-6.09C99.67,6,78.08,2.12,55.59,2,33.11,2.12,11.52,6,9.18,7.9,6,10.54-.17,38.78,5.17,43.28c3.1,2.6,7.88,1.9,11.54.88C31.49,40,42,26.66,55,19.36,68.46,11.75,90,4.11,104.32,14Z"/></g></mask><filter id="luminosity-noclip-4" x="6.38" y="40.97" width="102.51" height="45.41" filterUnits="userSpaceOnUse" color-interpolation-filters="sRGB"><feFlood flood-color="#fff" result="bg"/><feBlend in="SourceGraphic" in2="bg"/></filter><mask id="mask-4" x="6.38" y="40.97" width="102.51" height="45.41" maskUnits="userSpaceOnUse"><g class="cls-3"><path class="cls-4" d="M108.43,57.65C109.52,49,109,41,103.73,41c-4.45,0-10.57,7-13.5,9.49-19,16-39.72,29.5-67.14,28.33-6.45-.27-12.89-1.36-16.71-6.53a11.36,11.36,0,0,0,1.45,5.38c2,3.61,24.56,8.45,47.76,8.74,23.22-.29,45.82-5.13,47.77-8.75C104.74,75.08,107.37,66.08,108.43,57.65Z"/></g></mask></defs><path class="cls-5" d="M111.14,41C111,24.51,106.59,8.4,104.21,6.18,101.76,4.15,79.14.12,55.59,0,32.05.12,9.43,4.15,7,6.18,4.6,8.4.18,24.51.05,41c-.54,16.5,3.35,33.71,5.51,38.2,2,3.79,25.72,8.86,50,9.16,24.32-.3,48-5.37,50-9.16C107.79,74.73,111.69,57.52,111.14,41Z"/><path class="cls-6" d="M111.13,47.5c-.46,14.25-3.63,27.68-5.5,31.57-2,3.79-25.72,8.86-50,9.17-24.31-.31-48-5.38-50-9.17C3.68,75.18.52,61.75.06,47.49c0,.13,0,.26,0,.39-.54,16.5,3.35,33.71,5.51,38.2,2,3.79,25.72,8.86,50,9.16,24.32-.3,48-5.37,50-9.16,2.16-4.49,6.06-21.7,5.51-38.2C111.14,47.75,111.13,47.62,111.13,47.5Z"/><g class="cls-7"><path class="cls-8" d="M104.32,14c.55-1.91-.81-4.69-2.31-6.09C99.67,6,78.08,2.12,55.59,2,33.11,2.12,11.52,6,9.18,7.9,6,10.54-.17,38.78,5.17,43.28c3.1,2.6,7.88,1.9,11.54.88C31.49,40,42,26.66,55,19.36,68.46,11.75,90,4.11,104.32,14Z"/></g><g class="cls-9"><path class="cls-10" d="M108.43,57.65C109.52,49,109,41,103.73,41c-4.45,0-10.57,7-13.5,9.49-19,16-39.72,29.5-67.14,28.33-6.45-.27-12.89-1.36-16.71-6.53a11.36,11.36,0,0,0,1.45,5.38c2,3.61,24.56,8.45,47.76,8.74,23.22-.29,45.82-5.13,47.77-8.75C104.74,75.08,107.37,66.08,108.43,57.65Z"/></g><path class="cls-11" d="M104.21,6.18C101.76,4.15,79.14.12,55.59,0,32.05.12,9.43,4.15,7,6.18,4.6,8.4.18,24.51.05,41A122.1,122.1,0,0,0,3.71,73.66C0,31.73,7.74,11,10.12,8.81c2.45-2,23.7-5.2,47.18-6.79C87.07,0,104.55,6.49,104.21,6.18Z"/><path class="cls-12" d="M69.22,16.13c-1.92-1-26.26-2.33-28.37,0S38.48,44.8,38.48,44.8s-6.8,2.4-6.32,4.18S52.53,73.36,55.69,73.36,79.86,48.29,79.23,46.81s-7.71-2.72-7.71-2.72S71.14,17.16,69.22,16.13Z"/><path class="cls-11" d="M66.62,20.85C65,20,44.79,18.92,43,20.85s-2,23.83-2,23.83-5.65,2-5.25,3.47S52.75,68.42,55.37,68.42s20.1-20.84,19.57-22.07-6.4-1.72-6.4-1.72S68.22,21.71,66.62,20.85Z"/><path class="cls-13" d="M79.23,46.81c-.85,3.46-20.75,26.55-23.54,26.55S33.14,51.69,32.13,48.8c-.38.39-.31,1.3.15,2.25,1,2.2,20.25,24.28,23.41,24.28S79,52.68,79.23,48.79A6.7,6.7,0,0,0,79.23,46.81Z"/></svg>