<svg xmlns="http://www.w3.org/2000/svg" viewBox="0 0 239.49 365.62">
  <defs>
    <style>.cls-1{fill:#616074;}.cls-2{fill:#eaebec;}.cls-3{fill:#0d0b15;}.cls-4{fill:#3f355e;}.cls-5{fill:#181f3a;}.cls-6{fill:#6b6b5b;}.cls-7{fill:#737363;}.cls-8{fill:#a6a696;}.cls-9{fill:#5a5a4a;}.cls-10{fill:#4d4d3d;}.cls-11{fill:#3c3c2c;}.cls-12{fill:#a87d3f;}.cls-13{fill:#ffd764;}.cls-14{fill:#f6c193;}.cls-15{fill:#ed9c6f;}.cls-16{fill:#121a3f;opacity:0.07;}.cls-17{fill:#dc8373;}.cls-18{fill:#b97c50;}.cls-19{fill:#da7758;}.cls-20{fill:#6b3828;}.cls-21{fill:#fff;}.cls-22{fill:#e98576;}.cls-23{fill:#4e384d;}.cls-24{opacity:0.04;}.cls-25{fill:#ffaf96;}.cls-25,.cls-26{fill-rule:evenodd;}.cls-26{fill:#824028;}.cls-27{fill:#edb285;}.cls-28{fill:#ffc898;}.cls-29{fill:#e59e87;}.cls-30{fill:#efba92;}.cls-31{fill:#eaead8;}.cls-32{fill:#d2d2c1;}.cls-33{fill:#cdcdbc;}.cls-34{fill:#f3f3e2;}.cls-35{fill:#a3a391;}.cls-36{fill:#fdd965;}.cls-37{fill:#c39549;}.cls-38{fill:#333323;}.cls-39{fill:#2f2f1f;}</style>
  </defs>
  <path class="cls-1" d="M107.41,296.3c-8.54,8-20.43,4.12-20.43,4.12L48.14,288.54c-9-5.12-.25-12-.25-12,5-4.95,15.21-2.39,15.21-2.39l19.77,1.94c8.23,7.92,18.18-.76,18.18-.76S105.45,281.6,107.41,296.3Z"/>
  <path class="cls-2" d="M107.41,296.3s-9.63,7.43-20.43,4.12L48.85,288.76s-5.78-2.33-4.17-8.19c0,0-2.39,1.74,1.59,13.09,1.28,1.67,5,3.37,12.08,6.07,12.13,4.61,24.55,9.76,36.88,10.21a17.46,17.46,0,0,0,9.84-2.52c.56-.36,4.14-2.76,3.9-3.88Z"/>
  <path class="cls-3" d="M107.41,296.3a20.12,20.12,0,0,1-3,2.63,21.18,21.18,0,0,1-3.4,1.85,23.27,23.27,0,0,1-3.64,1.14,25.38,25.38,0,0,1-3.81.42,22.16,22.16,0,0,1-3.89-.17,20.87,20.87,0,0,1-3.92-.87L78.13,299c-5.07-1.58-10.14-3.2-15.2-4.92s-10.12-3.47-15.17-5.3l-.1,0,0,0a10,10,0,0,1-2.89-2.5,6.05,6.05,0,0,1-1-2.25,5.3,5.3,0,0,1,0-2.42,7.37,7.37,0,0,1,1.79-3.07,9.53,9.53,0,0,1,2.36-1.89A21.59,21.59,0,0,0,46,279.15a8.22,8.22,0,0,0-1.09,3c-.3,2,1.43,3.28,3.16,4.09l-.14-.06q7.61,2.28,15.21,4.76c5.07,1.63,10.12,3.36,15.18,5.12L86,298.78a19.57,19.57,0,0,0,3.69,1.08,29.35,29.35,0,0,0,3.72.48,23.42,23.42,0,0,0,7.33-.68,19.44,19.44,0,0,0,3.47-1.31l1.65-.93Z"/>
  <path class="cls-4" d="M116.39,159.36c-1.2.65-19.54-5.65-22.86,8.43-2.22,9.38-5.11,28.79-7.4,50s-3.91,34.49-4.89,40.05S79.06,269.16,77.86,275a49.17,49.17,0,0,0,12.74,8.81c1.63-5.33,5.59-9.57,9-22.63,2.61-9.68,5.42-21.57,8.14-32.56,1.63-5.76,4.35-9.44,4.79-11.73a54.18,54.18,0,0,0,1.2-8.86c0-1.41,4.7-14.62,15.8-11.25,9.57,2.94,17.32,5.92,24.18,7.66,13.6,3.59,24,5.29,30.4,6.71,6.64,1.41,11-27.89,1.1-31.81a45.83,45.83,0,0,1-6.53-3.16,26.91,26.91,0,0,1-7.19-5.44H170c-8.38,0-19.91-2.17-34.72-6.42-7.72-2.28-14-3.92-18.93-5Z"/>
  <path class="cls-5" d="M184.3,208.22c-6.42-1.42-16.44-3.81-30-7.4-6.86-1.74-15.13-4-24.7-7q-16.65-5.07-22.53-7.51v2c2.07,10.78,3.15,16.87,3.15,18.29a29.86,29.86,0,0,1-.87,6.64c-.43,2.28-1.41,6.31-3,12.08-2.72,11-5.44,21.33-8.06,31-3.37,13.06-6,22.2-7.61,27.53,3.59,1.86,6.74,2.62,9.46,2.4,6.42-.33,11.1-10.12,14-29.17s5.33-32.32,7-39.94,2.94-12.62,3.59-15.34c12.41,4.46,24.16,8.16,35.26,11.21C173.74,216.82,190.94,209.63,184.3,208.22Z"/>
  <path class="cls-6" d="M107.21,304.1a30,30,0,0,0-4.35-.49,8.67,8.67,0,0,1-1.78-.2,3.27,3.27,0,0,1-2.28-2.27,2.74,2.74,0,0,1,.1-2A68.05,68.05,0,0,1,114.33,301c2.27.59,4.74,1.28,7.22,2.07,8.4,2.67,13.15,4.26,14.24,4.95a4,4,0,0,1,1.88,2.08,4.72,4.72,0,0,1,.19,2.37,4.13,4.13,0,0,1-.39,1.58,14.45,14.45,0,0,0-4.95-2.77c-2.37-.89-7.22-2.37-14.44-4.45-.39-.1-.79-.3-1.18-.39-3.86-1.09-7.12-1.88-9.69-2.38Z"/>
  <path class="cls-7" d="M102.86,303.61a30,30,0,0,1,4.35.49,16,16,0,0,1,3.16,3c.1.1.1.3.2.4l.59,1.18a10.65,10.65,0,0,1,.79,3.86,7.82,7.82,0,0,1-.29,2.27,7.17,7.17,0,0,1-2.48,3.37v.09c-.29.1-.59.3-.89.4a9.87,9.87,0,0,0-1.38.69,8.57,8.57,0,0,1-4.15-.19A11.46,11.46,0,0,1,98,316.47a9.86,9.86,0,0,1-1.68-1.78,12.45,12.45,0,0,1-2.57-6v-1.09a11.12,11.12,0,0,1,.1-1.87c.1-.2.1-.4.19-.5.3-1,1.88-2.37,4.75-4.05a3.27,3.27,0,0,0,2.28,2.27,8.67,8.67,0,0,0,1.78.2Z"/>
  <path class="cls-8" d="M102,294.61c1.48-.89,4.25-1.39,8.2-1.48s9.5.79,16.82,2.37,11.37,1.68,12,.39a23.83,23.83,0,0,0,.1,2.67c.1,3.07.2,4.95.2,5.44a14.34,14.34,0,0,0,1.38,3.17,8.64,8.64,0,0,0,3.76,3.76,12.38,12.38,0,0,0,4.45,1.28c1.48.1,2.27.2,2.37.2,2.87.1,4.85-.4,6-1.68a10.14,10.14,0,0,0,2.57-4.75c.49-2.08.79-3.26.79-3.56.1-.1.1-.1.1-.2v-1.08a18.9,18.9,0,0,1,.1-2.28c0-1.68,0-3.76.1-6.13.09-2.18.09-4.25.19-6.23.79-1.09,2.87-2.77,6.33-5.14s6.33-3.76,8.61-4.16a8.37,8.37,0,0,1,5.93.6h0a3.59,3.59,0,0,1,.49,3.16c-.2,1.39-1.88,3.46-5.14,6.23a106.93,106.93,0,0,0-8,7.42,19.72,19.72,0,0,0-4.15,6.13c-.1,2.18.29,3.56,1.28,4.25,2.87.89,5.44,1.78,7.91,2.48s6.14,1.78,11,3.26A83.31,83.31,0,0,1,199.08,316a114.77,114.77,0,0,1,10.38,5.54c2.57,1.48,3.46,2.67,2.57,3.56a9.39,9.39,0,0,1-3,2.57c-.1.1-.2.1-.3.2-.69.29-2.37.2-5-.3-6.24-1.68-12.27-3.36-18.2-4.94-11.87-3.17-18.49-4.85-20-5-3.85-.29-6.82.1-8.7,1.29s-5.44,5.93-10.48,14.34-9.2,13.15-12.36,14.53a7.47,7.47,0,0,1-7.62-.3l-.89-.59a12.62,12.62,0,0,1-.1-2.77v-.1a6.57,6.57,0,0,1,.2-1.38c.3-2.08,1.88-6.23,4.55-12.26s5.24-11.47,7.32-16.32a4.13,4.13,0,0,0,.39-1.58,4.72,4.72,0,0,0-.19-2.37,4,4,0,0,0-1.88-2.08c-1.09-.69-5.84-2.28-14.24-4.95-2.48-.79-5-1.48-7.22-2.07a68.05,68.05,0,0,0-15.43-1.88,6.74,6.74,0,0,1,3.07-4.55Z"/>
  <path class="cls-9" d="M139,295.89V267.61a35.34,35.34,0,0,0,7.81,3.56c0,1.09-.1,2.28-.19,3.56,0,3.86,1.36,11.65,2.15,23.41.49,5.84-.18,10.51.12,14.07a12.38,12.38,0,0,1-4.45-1.28,8.64,8.64,0,0,1-3.76-3.76,14.34,14.34,0,0,1-1.38-3.17c0-.49-.1-2.37-.2-5.44a23.83,23.83,0,0,1-.1-2.67Z"/>
  <path class="cls-10" d="M116.9,306.48a7.39,7.39,0,0,1,.29,2.07c0,2.48-.59,4.35-1.87,5.64-1,1.09-3.07,2.37-6.14,4h0a7.17,7.17,0,0,0,2.48-3.37,7.82,7.82,0,0,0,.29-2.27,10.65,10.65,0,0,0-.79-3.86l-.59-1.18c-.1-.1-.1-.3-.2-.4a16,16,0,0,0-3.16-3c2.57.5,5.83,1.29,9.69,2.38Z"/>
  <path class="cls-11" d="M147.06,271.27a38.3,38.3,0,0,0,6.13,1.09c-.39,5.93.32,14.77-.17,26.14a32.1,32.1,0,0,1-4.18,13.71c-.3-3.56-.59-8.21-1.09-14q-1.19-17.66-1.18-23.44c.09-1.28.19-2.47.19-3.56a.37.37,0,0,0,.3.1Z"/>
  <path class="cls-6" d="M208.77,327.84c.1-.1.2-.1.29-.2a9.3,9.3,0,0,0,3-2.57l.3.59a.76.76,0,0,1,.2.5c.09.1.09.1.09.19v.2a3.49,3.49,0,0,1-.29,1.09,3.21,3.21,0,0,1-.5,1.29A2.63,2.63,0,0,1,211,330,5,5,0,0,1,208,331.2a11.77,11.77,0,0,1-3.07-.4c-1.88-.39-3.76-.79-5.63-1.28l-5.44-1.19q-29.67-6.52-30.56-6.52c-2.77,0-5.44,1.58-8.11,4.74a117.16,117.16,0,0,0-6.92,10.38,57,57,0,0,1-7,9.6l-.89.89h0c-.3.29-.7.49-1,.79a12.06,12.06,0,0,1-2.67,2.07c-.7.3-1.29.6-2,.89a13.09,13.09,0,0,1-3.66.9,16.23,16.23,0,0,1-3.26-1,4.59,4.59,0,0,1-1.29-1,5.49,5.49,0,0,1-1-3.17l.89.59a7.47,7.47,0,0,0,7.62.3c3.16-1.38,7.31-6.23,12.36-14.53s8.6-13.16,10.48-14.34,4.85-1.58,8.7-1.29c1.49.1,8.11,1.78,20,5,5.93,1.58,12,3.26,18.2,4.94,2.67.5,4.35.59,5,.3Z"/>
  <path class="cls-10" d="M212.62,326.35c.1.2.3.4.4.6a6.06,6.06,0,0,1,1.09,1.68c.1.1.2.3.3.39a4,4,0,0,1,.49,1.09,11.4,11.4,0,0,1,.79,4c0,2.57-.59,4.45-1.88,5.73a22.81,22.81,0,0,1-6,4h0a7.51,7.51,0,0,0,2.37-3.36,8.43,8.43,0,0,0,.3-2.28,11.34,11.34,0,0,0-.79-3.95,8.94,8.94,0,0,0-.5-1.09c-.09-.1-.19-.3-.29-.4L208,331.2A5,5,0,0,0,211,330a2.63,2.63,0,0,0,.79-1.08,3.21,3.21,0,0,0,.5-1.29,3.49,3.49,0,0,0,.29-1.09v-.2Z"/>
  <path class="cls-7" d="M208.87,332.68c.1.1.19.3.29.4a8.94,8.94,0,0,1,.5,1.09,11.34,11.34,0,0,1,.79,3.95,8.43,8.43,0,0,1-.3,2.28,7.59,7.59,0,0,1-2.37,3.36l-.1.1c-.3.1-.59.29-.89.39s-.89.4-1.38.7a8.38,8.38,0,0,1-4.06-.2,11.19,11.19,0,0,1-4.84-2.67,15,15,0,0,1-1.59-1.78,11.65,11.65,0,0,1-2.57-6,3.61,3.61,0,0,1-.1-1.08,12,12,0,0,1,.2-2,.6.6,0,0,1,.1-.4,6.46,6.46,0,0,1,1.29-2.47l5.44,1.19c1.87.49,3.75.89,5.63,1.28a11.77,11.77,0,0,0,3.07.4l.89,1.48Z"/>
  <path class="cls-8" d="M170.5,298.17c.1-.1.1-.1.1-.2v.2Z"/>
  <path class="cls-6" d="M170.6,298c0,.1,0,.1-.1.2a10.7,10.7,0,0,0-1.09,1.28c-2,2.48-3,4.36-3,5.54-1-.69-1.38-2.07-1.28-4.25a19.72,19.72,0,0,1,4.15-6.13,106.93,106.93,0,0,1,8-7.42c3.26-2.77,4.94-4.84,5.14-6.23a3.59,3.59,0,0,0-.49-3.16l1.09,1.09a3.89,3.89,0,0,1,1.18,2,3.11,3.11,0,0,1,0,1.39c-.29.59-.69,1.48-1.18,2.57a8.74,8.74,0,0,1-1.59,2.57c-.49.49-2.37,2.27-5.53,5.34-2.28,2.08-4.06,3.86-5.34,5.24Z"/>
  <path class="cls-10" d="M170.6,298.17V298c1.28-1.38,3.06-3.16,5.34-5.24,3.16-3.07,5-4.85,5.53-5.34a8.74,8.74,0,0,0,1.59-2.57c.49-1.09.89-2,1.18-2.57a14.93,14.93,0,0,1,2.08.39,14,14,0,0,0-2.27,2.77.37.37,0,0,1-.1.3c-.2.59-.4,1.28-.7,2.17-.1.3-.1.5-.19.8a25,25,0,0,0-.7,6.13,10.25,10.25,0,0,0,.89,4.94,4.36,4.36,0,0,0,.7.69l-13.35-2.27Z"/>
  <path class="cls-9" d="M160.61,302.42c0,.3-.3,1.48-.79,3.56a10.14,10.14,0,0,1-2.57,4.75c-1.19,1.28-3.17,1.78-6,1.68-.1,0-.89-.1-2.37-.2,1.68-3.26,2.77-7.91,3.07-13.94.49-11.38.89-20,1.28-25.91a76.33,76.33,0,0,0,8.7.39c-.39,4.25-.69,8.81-.79,13.75-.1,2-.1,4.05-.19,6.23-.1,2.37-.1,4.45-.1,6.13a18.9,18.9,0,0,0-.1,2.28v1.08c0,.1,0,.1-.1.2Z"/>
  <path class="cls-7" d="M184,285.71a.37.37,0,0,0,.1-.3,14,14,0,0,1,2.27-2.77,1,1,0,0,1,1,.4h0l.3.3c.09.29.29.69.39,1.08a14.21,14.21,0,0,1,.4,4,32.37,32.37,0,0,1-.79,6.82,13.47,13.47,0,0,1-2.18,4.75,2.3,2.3,0,0,1-.89.59.64.64,0,0,1-.59-.1,4.36,4.36,0,0,1-.7-.69,10.25,10.25,0,0,1-.89-4.94,25,25,0,0,1,.7-6.13c.09-.3.09-.5.19-.8.3-.89.5-1.58.7-2.17Z"/>
  <path class="cls-8" d="M207.78,343.76h0l-.1.1.1-.1Z"/>
  <path class="cls-10" d="M121.74,346.63a8.31,8.31,0,0,1,1.49-2.38c.79-.89,1.48-.89,2.17-.2v.1a12.62,12.62,0,0,0,.1,2.77,5.49,5.49,0,0,0,1,3.17,4.59,4.59,0,0,0,1.29,1,16.23,16.23,0,0,0,3.26,1,13.09,13.09,0,0,0,3.66-.9c.69-.29,1.28-.59,2-.89a12.06,12.06,0,0,0,2.67-2.07c-.2.39-.4.89-.6,1.38a.37.37,0,0,0-.1.3,14,14,0,0,0-.79,2.37c-.1.3-.1.5-.19.79a30.22,30.22,0,0,0-.8,6.73c0,2.47.3,4.25,1,5.34.2.39.4.69.7.79L122,363.14a.37.37,0,0,0-.3-.1h0a1.91,1.91,0,0,1-.89-.89,12.07,12.07,0,0,1-.89-5.44,27.88,27.88,0,0,1,.7-6.53c.09-.29.09-.59.19-.88a22.35,22.35,0,0,1,.89-2.67Z"/>
  <path class="cls-7" d="M140.34,347.42l.89-.89a1.17,1.17,0,0,1,1.08.39v.1c.1.1.1.2.2.3a3.3,3.3,0,0,1,.5,1.18,16.56,16.56,0,0,1,.49,4.26,27.36,27.36,0,0,1-1,7.41c-.69,2.48-1.38,4.26-2.27,5.15a2.11,2.11,0,0,1-1,.69c-.2.1-.4,0-.69-.1s-.5-.4-.7-.79c-.69-1.09-1-2.87-1-5.34a30.22,30.22,0,0,1,.8-6.73c.09-.29.09-.49.19-.79a14,14,0,0,1,.79-2.37.37.37,0,0,1,.1-.3c.2-.49.4-1,.6-1.38s.69-.5,1-.79Z"/>
  <path class="cls-12" d="M150.42,198.68c-2.67,0-7.81,1.29-15.62,3.86s-16,5.84-24.23,9.49c-9.3,4.26-16.71,8.21-22.25,12.07-4.45,3.06-7.42,5.93-8.8,8.4a5.8,5.8,0,0,0-1,3.07c0,6.43.39,11,1.09,13.75A11.54,11.54,0,0,0,83.77,256a54.43,54.43,0,0,0,8.6,4.65c5.54,2.67,10.49,5.24,14.74,7.81a258.3,258.3,0,0,0,22.94,13.06c8.6,4.05,16.12,6.13,22.55,6.13,1.48,0,5.54-1.09,12.36-3.27a231,231,0,0,0,23-8.8c15.92-7.22,25.81-14.24,29.87-20.86.19-.3.29-.5.39-.69a6.77,6.77,0,0,0,1.88-3.07,14.41,14.41,0,0,0,.5-4.06,15.23,15.23,0,0,0-1.79-6.82q-1.92,1.63-5,4.15-7.56,6.39-9.49,7.42c-1.39.59-3.51.54-7.56,3a28.81,28.81,0,0,1-9.19,3.48c-10.58,2.08-18.14,4.74-23.78,8-2.27,1.49-14.86-3.1.08-7.26,14.73-4.25,23.06-7.53,25.33-9.4a58.7,58.7,0,0,1,14.92-9.3,37.31,37.31,0,0,0,10.58-6.53c-.89-1-1.78-2-2.77-3.06-5-5.25-11.86-10.49-20.37-15.63a151.8,151.8,0,0,0-23.44-11.67c-7.71-3.06-13.64-4.65-17.7-4.65Z"/>
  <path class="cls-13" d="M213.81,244.27q3.12-2.52,5-4.15a26.69,26.69,0,0,0-4.15-6.43,37.31,37.31,0,0,1-10.58,6.53c-7.81,3.46-12.76,6.23-15,8.21s-10.88,4.94-25.61,9.19c-14.94,4.16-23.94,5.25-27.2,3.17s-8.31-3.46-15.13-4.16c-1.88-.19-3.56-.39-5-.49a53.47,53.47,0,0,1,7.81,6.63,70.14,70.14,0,0,0,13.55,10.28,58.17,58.17,0,0,1,5.73,4.35c1.29.89,4,2.47,4.45,2.18a1.71,1.71,0,0,0,.89-1.39c0-1.38-1-3-2.87-4.65a15.34,15.34,0,0,1-4.54-5.83.21.21,0,0,0,.19-.2,32.56,32.56,0,0,0,7.62,3.17c1.58.49,3,.89,4.25,1.18a11.07,11.07,0,0,0,5.24-1.18,54.22,54.22,0,0,0,4.85-2.87c5.64-3.26,13.74-6,24.33-8.11a25.06,25.06,0,0,0,8.5-3.36,85.34,85.34,0,0,1,8.21-4.65q1.92-1,9.49-7.42Z"/>
  <path class="cls-1" d="M71.92,330.17c-9.77,6.41-20.83.6-20.83.6L14.82,312.48c-7.95-6.56,1.78-11.83,1.78-11.83,5.79-4,15.4.21,15.4.21l19.16,5.27c6.76,9.2,18,2.33,18,2.33S72.48,315.35,71.92,330.17Z"/>
  <path class="cls-2" d="M71.92,330.17s-10.75,5.69-20.83.6l-35.6-17.95s-5.31-3.27-2.73-8.77c0,0-2.64,1.3-.64,13.16,1,1.86,4.33,4.17,10.87,8,11.17,6.6,22.54,13.78,34.62,16.31a17.37,17.37,0,0,0,10.12-.82c.62-.25,4.55-2,4.5-3.16Z"/>
  <path class="cls-3" d="M71.92,330.17a19.46,19.46,0,0,1-3.41,2.08,20.81,20.81,0,0,1-3.66,1.25,23,23,0,0,1-3.79.51,24.49,24.49,0,0,1-3.82-.23,22.27,22.27,0,0,1-3.8-.83,20.92,20.92,0,0,1-3.72-1.52l-7.11-3.57c-4.73-2.43-9.45-4.88-14.14-7.43s-9.39-5.14-14-7.79l-.1-.06,0,0a10,10,0,0,1-2.42-2.95,6.1,6.1,0,0,1-.63-2.39,5.5,5.5,0,0,1,.44-2.38A7.33,7.33,0,0,1,14,302.11a9.32,9.32,0,0,1,2.64-1.46,20.67,20.67,0,0,0-2.26,2.23,7.91,7.91,0,0,0-1.57,2.77c-.65,2,.85,3.48,2.41,4.57l-.13-.08q7.11,3.54,14.19,7.26c4.72,2.47,9.41,5,14.09,7.63l7,4a19.38,19.38,0,0,0,3.46,1.69,28.42,28.42,0,0,0,3.58,1.1,23,23,0,0,0,7.34.58,20,20,0,0,0,3.64-.71l1.79-.64Z"/>
  <path class="cls-4" d="M78.72,191c-6.59-1.21-11.44-2.79-15.36.49a23.43,23.43,0,0,0-7.5,12.14c-2.72,9.25-5.11,24.59-7.4,45.81s-3.92,34.5-4.89,40.05-2.18,11.32-3.38,17.2a49.11,49.11,0,0,0,12.73,8.81c1.64-5.33,5.6-9.57,9-22.63,2.61-9.69,5.42-21.57,8.14-32.56,1.63-5.77,4.35-9.44,4.79-11.73a54.18,54.18,0,0,0,1.2-8.86c0-1.41,4.69-14.63,15.8-11.25,9.57,2.94,17.32,5.92,24.18,7.66,13.6,3.59,24,5.29,30.4,6.7,6.64,1.42,11.54-.9,14.26-.9a13,13,0,0,0,1.74-.1c.88-.11,1.53-.22,1.85-.22,3.71,0,7.73-2.4,12.19-7.29a38,38,0,0,0,8.28-13.61H185a61.84,61.84,0,0,1,1.2,6.31c.22,0,2.83-1,7.94-2.93,2.72-1.2,5-2.4,6.75-3.38.44-1.3.87-2.61,1.2-3.81a53,53,0,0,0,1.52-8.05c-1.63.76-3.26,1.42-4.9,2.18-1.41.54-2.93,1.08-4.35,1.63a62.78,62.78,0,0,1-11.32,3.59,27.94,27.94,0,0,1-5.77.65A80.27,80.27,0,0,1,147.5,211a45.31,45.31,0,0,1-6.53-3.16,26.91,26.91,0,0,1-7.19-5.44h-1.41c-8.38,0-19.92-2.18-34.72-6.42-7.72-2.29-14-3.92-18.93-5Z"/>
  <path class="cls-5" d="M197.45,228.11a34,34,0,0,0,2-3.91c.54-1.2,1.09-2.29,1.52-3.49-1.74,1-4,2.18-6.75,3.38-5.11,1.95-7.72,2.93-7.94,2.93a61.84,61.84,0,0,0-1.2-6.31h-.32a38,38,0,0,1-8.28,13.61c-4.46,4.89-8.48,7.29-12.19,7.29-.32,0-1,.11-1.85.22a13,13,0,0,1-1.74.1c-2.72,0-7.4-.65-14-2.06-6.42-1.42-16.43-3.81-30-7.4-6.86-1.75-15.13-4-24.7-7Q75.22,220.45,69.36,218v2c2.07,10.77,3.15,16.87,3.15,18.28a29.71,29.71,0,0,1-.87,6.64c-.43,2.29-1.41,6.31-3,12.08-2.73,11-5.45,21.33-8.06,31-3.37,13.06-6,22.2-7.62,27.53,3.6,1.85,6.75,2.61,9.47,2.39,6.42-.32,11.1-10.11,14-29.16s5.33-32.32,7-39.94,2.93-12.62,3.59-15.35c12.4,4.47,24.16,8.17,35.26,11.21,13.82,3.81,23.83,5.66,29.82,5.66,7.29,0,14.14-2.5,20.78-7.51,1.42-.1,2.61-.21,3.7-.21a20.29,20.29,0,0,0,13.28-4.9,33.32,33.32,0,0,0,7.62-9.58Z"/>

  <g id="man-head" transform="rotate(0, 175, 80)">
    <path class="cls-14" d="M174.27,6.5l-.35,0-.35,0-.15,0-.6-.06L172,6.27l-.31,0a2.22,2.22,0,0,0-.37,0l-1-.07-1,0c-6.87-.25-19.06.38-24.33,7.46v0a11.82,11.82,0,0,0-1.21,2h0c-.24.37-.49.75-.72,1.13s-.49.78-.73,1.17l-.5.82-.44.75c-2,3.48-3.61,6.8-3.61,8.66a2.11,2.11,0,0,0,.06.58l.49,1.17.9,2.16a2.65,2.65,0,0,1-.2,2.49l-.13.21-.14.24a6.34,6.34,0,0,1-.5.52h0l-.16.17a5.17,5.17,0,0,0-.72.93h0c-.07.13-.14.25-.21.39l-.86,1v0l-.26.3-.07.07a7.84,7.84,0,0,1-1.27,1.17L133,41.39c-1.1,1.56-1,2.55.39,3.63a13.46,13.46,0,0,0,2.38,1.46l.17.09h0v0l0,.15.13.85.06.42,0,.16,0,.27,0,.17h0l0,.29h0l.09.57.24,1.48,0,.13.05.33v.08h0l0,.11,0,.15h0l0,.14h0l.06.38L137,53.4l0,.23,0,.25.08.46v.11h0a0,0,0,0,1,0,0h0a1.11,1.11,0,0,0,0,.13h0s0,0,0,0h0s0,0,0,0l0,.16,0,.06a.7.7,0,0,0,0,.14v.05s0,.11,0,.17,0,.1,0,.16l0,.2a1.12,1.12,0,0,1,0,.21h0a0,0,0,0,1,0,0s0,.05,0,.08.07.38.11.57,0,.16,0,.24a.5.5,0,0,1,0,.12h0s0,0,0,0,0,0,0,.07.05.3.08.45.05.26.07.39l0,.19,0,.19v.07a1.5,1.5,0,0,1,0,.22c0,.11,0,.22,0,.34v.21a1.7,1.7,0,0,1,0,.22c0,.13,0,.28,0,.42a5,5,0,0,1-.18.91,4.85,4.85,0,0,0-.19,1.55A4.7,4.7,0,0,0,138,64a5.13,5.13,0,0,0,1.62,1.94l.1.08h0l.43.28.31.16c.23.12.49.24.77.36a8.16,8.16,0,0,0,3,.56,7.79,7.79,0,0,0,1.51-.14l.95-.26,1.05-.3.39-.11,2.74-.88.26-.08,2.61-.84.24.11.84.38a19.54,19.54,0,0,1,3.35,1.95l.14.11a18.51,18.51,0,0,1,2.28,2c.23.23.45.48.68.72l.59.72h0c.29,1,.66,2.28,1,3.77l-.4,1.17-.35,1.91,1.31,3.47.23.07c0,.77.09.81.13.79a2.63,2.63,0,0,0-.26.51,45.51,45.51,0,0,0-3.72,2.81l-.17.15c-.87.72-1.76,1.5-2.67,2.32l0,0c-.68.61-1.37,1.25-2.06,1.89-1,1-2,1.91-3,2.87l-.41.39c-.14.14-7,17.7-7,17.71l24.6-9.15,25.13-7.18c1-5.73.41-14.21.41-14.21a42.53,42.53,0,0,1-4-4.93,22.93,22.93,0,0,1-1.7-2.27,27.76,27.76,0,0,1-1.73-4l-.17-.28h0l-.22,0,.24-.18,0,0,0-.16h0c0-.09-.07-.23-.11-.4a.57.57,0,0,1,0-.14c-.05-.15-.09-.33-.15-.52s-.09-.37-.15-.57l-.09-.35c0-.13-.07-.26-.1-.41l0-.16v0c-.09-.33-.17-.68-.26-1.05l-.12-.57a49.19,49.19,0,0,1-.83-4.89v0l-.79-5.68,0-.29h0l0-.34a2.1,2.1,0,0,1,1.17-2.16c1.79-.92,3.49-4.32,3.63-4.66v0h0"/>
    <path class="cls-15" d="M136.08,53.75l0,.11a.24.24,0,0,0,.07.13.4.4,0,0,0,.14.15c.25.15.47.3.7.42h0l0,0,0,0,.08,0,0,0h0l.14.08.2,0v-.08l0-.42,0-.34v-.05l.06-1.11-.85-.82-.05,0h0l0,0h0s0,0,0,0C136.52,52.25,135.88,53,136.08,53.75Z"/>
    <path class="cls-16" d="M150.9,65.88l2.87-.92,1.08.49a18.91,18.91,0,0,1,3.35,2,23.66,23.66,0,0,0,8.51-8.29c.78-1.32.6-3.51,1-3.88l-3.65,4.91-12.67,5.22Z"/>
    <path class="cls-17" d="M139.7,66.2h0l.09.07.35.21,0,0a7.53,7.53,0,0,0,1,.5,8.45,8.45,0,0,0,3,.56,7.65,7.65,0,0,0,1.51-.14,7.84,7.84,0,0,0,1.25-.3l1.15-.37,9-3c10-2.86,10.62-9.32,10.61-9.42a.42.42,0,0,0-.49-.35.43.43,0,0,0-.37.48c.06.37-.7,5.83-10,8.49l-10.12,3.4a7.63,7.63,0,0,1-6.12-.54l-.35-.21a.44.44,0,0,0-.6.11A.41.41,0,0,0,139.7,66.2Z"/>
    <path class="cls-16" d="M137.32,55.08v.05s0,.11,0,.17a.94.94,0,0,0,0,.16l0,.2a1.09,1.09,0,0,1,0,.22h0a0,0,0,0,1,0,0s0,.05,0,.08.07.38.11.58,0,.16,0,.23a.5.5,0,0,1,0,.12h0s0,0,0,0,0,0,0,.07l2.24-1.22h0l.09,0Z"/>
    <polygon class="cls-18" points="135.94 46.6 135.96 46.75 136.09 47.6 136.15 48.02 136.18 48.18 136.22 48.45 136.24 48.62 138.85 46.3 135.94 46.6"/>
    <path class="cls-19" d="M161.94,70.48a.43.43,0,0,1,.57.22c.06.13,1.38,3.19.26,5.1-.88,1.49.13,3.1,1.11,4.34,1.15,1.47.42,2.34.39,2.37a.46.46,0,0,1-.41.15.4.4,0,0,1-.2-.09.42.42,0,0,1-.06-.59c.11-.14.15-.61-.41-1.33s-2.45-3.11-1.17-5.26c.91-1.55-.29-4.33-.3-4.36A.41.41,0,0,1,161.94,70.48Z"/>
    <path class="cls-19" d="M149.41,39.07a.41.41,0,0,0,.2-.21.42.42,0,0,0-.23-.55,6.59,6.59,0,0,0-3.91-.32.41.41,0,0,0-.27.53.43.43,0,0,0,.54.27,5.81,5.81,0,0,1,3.31.29A.41.41,0,0,0,149.41,39.07Z"/>
    <path class="cls-20" d="M143.6,32.37c-.3.62,1,.79,1.65.89l.2,0h0l.3.06c.2,0,.39.09.57.15a6.76,6.76,0,0,1,.92.37,5.32,5.32,0,0,1,.68.43,4.22,4.22,0,0,1,1.46,2.27,1.62,1.62,0,0,0,.11.3.33.33,0,0,0,.17.18.39.39,0,0,0,.3,0,.35.35,0,0,0,.19-.46l-.07-.24a4.89,4.89,0,0,0-2.17-2.92l-.41-.23a6.44,6.44,0,0,0-1.35-.5l-.37-.08-.44-.08C144.91,32.49,143.6,32.37,143.6,32.37Z"/>
    <path class="cls-20" d="M144.22,33.59l0,.17c-.2,1.27.15,2.34.81,2.46s1.45-.88,1.69-2.21l0-.11a3.82,3.82,0,0,0,.06-.81,9.83,9.83,0,0,0-1.89-.17l-.49,0A4.11,4.11,0,0,0,144.22,33.59Z"/>
    <path class="cls-21" d="M145.09,33.8a.52.52,0,0,0,0,.74.56.56,0,0,0,.76,0,.51.51,0,0,0,0-.74A.56.56,0,0,0,145.09,33.8Z"/>
    <path class="cls-20" d="M134.7,43.67c1-.72,1.33-.49,1.9-.11a5.21,5.21,0,0,1,.52.41c.51.47,1.39,1.51.12,1.31a1.83,1.83,0,0,1-.83-.37,1.92,1.92,0,0,0-1.41-.32h0C134.71,44.63,133.57,44.49,134.7,43.67Z"/>
    <path class="cls-22" d="M136,50.91c-.32.53.24,1.31.3,1.47s-.36,1.23-.15,1.56c.53.87,3.86,1.51,3.86,1.51a16.3,16.3,0,0,0,2.33-2.2.33.33,0,0,0,0-.12,0,0,0,0,0,0,0l-.11-.12-.66-.7c-1-1-4.46-1.86-4.46-1.86A1,1,0,0,0,136,50.91Z"/>
    <path class="cls-19" d="M136.33,53c.14,0,3.38,1.28,5.72.6a.13.13,0,0,0,.08,0,.4.4,0,0,0,.15-.45.33.33,0,0,0-.05-.12s0,0,0,0a.32.32,0,0,0-.11-.12.3.3,0,0,0-.27,0c-2.15.61-5.3-.58-5.33-.59a.28.28,0,0,0-.18,0,.16.16,0,0,0-.09,0,.33.33,0,0,0-.16.23A.44.44,0,0,0,136.33,53Z"/>
    <path class="cls-18" d="M137.23,54.67h0v0a0,0,0,0,0,0,0l0,.16v.06c0,.05,0,.09,0,.14v.05s0,.11,0,.17a.94.94,0,0,0,0,.16l0,.2a1.09,1.09,0,0,1,0,.22h0a0,0,0,0,1,0,0s0,.05,0,.08a8.51,8.51,0,0,0,2.43-.19h0l0,0c.35-.15.13-.3.05-.34a24.14,24.14,0,0,0-2.63-.71Z"/>
    <path class="cls-19" d="M139.77,46.31a2.77,2.77,0,0,0,1.79-1.92c.26-1.49-1.32-2.83-1.38-2.89a.45.45,0,0,0-.61,0,.42.42,0,0,0,0,.6c.35.3,1.25,1.27,1.1,2.12-.1.56-.66,1.05-1.65,1.43a.42.42,0,1,0,.32.78A3.52,3.52,0,0,0,139.77,46.31Z"/>
    <path class="cls-20" d="M149.91,29.09a4,4,0,0,1,1.88,2.75l.63,2a2.69,2.69,0,0,1-2.15-1.43c-.83-1.42-2.29-1.28-3.53-.93-1.65.47-4.91-1.09-5.7-3.88A17.55,17.55,0,0,1,149.91,29.09Z"/>
    <path class="cls-19" d="M167.81,46.76a.24.24,0,0,0-.18,0,.27.27,0,0,0-.07.37,4.08,4.08,0,0,0,1.95,1.48.27.27,0,0,0,.33-.19.26.26,0,0,0-.19-.33A3.54,3.54,0,0,1,168,46.87.24.24,0,0,0,167.81,46.76Z"/>
    <path class="cls-19" d="M166.56,50.66a2.29,2.29,0,0,0,1.35,1h0a3.31,3.31,0,0,0,1.54.16,3.24,3.24,0,0,0,1.47-.6c1.44-1,2.37-3.14,3-5.13.16-.53.29-1,.4-1.54a25.67,25.67,0,0,0,.51-2.89.31.31,0,0,0-.23-.34.27.27,0,0,0-.3.25c0,.07-.81,7.12-3.65,9.15a2.69,2.69,0,0,1-2.59.37h0a1.64,1.64,0,0,1-1-.74,4,4,0,0,1-.38-2.75.31.31,0,0,0-.2-.34h0a.26.26,0,0,0-.3.24A4.51,4.51,0,0,0,166.56,50.66Z"/>
    <path class="cls-19" d="M167.61,44a13.4,13.4,0,0,0,.14-1.37,3.89,3.89,0,0,1,1.62-3.11,2.55,2.55,0,0,1,2.32-.19,2.12,2.12,0,0,1,1.37,1.18,1.67,1.67,0,0,1-.14,1.37.28.28,0,0,1-.39.11.27.27,0,0,1-.11-.38,1.22,1.22,0,0,0,.09-.92,1.56,1.56,0,0,0-1-.83,2,2,0,0,0-1.71.08v0s-.35,1.59.76,2.25c.7.42,1,1,.81,1.58a.56.56,0,0,1-.09.17,1.44,1.44,0,0,1-1.47.5.24.24,0,0,1-.2-.27.24.24,0,0,1,.28-.2c.51.08.91-.07,1-.36s0-.69-.6-1a2.34,2.34,0,0,1-1-2.25,3.67,3.67,0,0,0-.92,2.3,12.53,12.53,0,0,1-.15,1.45.3.3,0,0,1-.21.21.2.2,0,0,1-.13,0A.28.28,0,0,1,167.61,44Z"/>
    <path class="cls-19" d="M169,46.68a1.61,1.61,0,0,0,1.67-.69.29.29,0,0,1,.4-.08.28.28,0,0,1,.08.39,2.4,2.4,0,0,1-1.3.93,1.77,1.77,0,0,1-1,0,.28.28,0,0,1-.19-.35A.29.29,0,0,1,169,46.68Z"/>
    <path class="cls-18" d="M144.41,53.49a.3.3,0,0,0,.23,0,.34.34,0,0,0,.16-.45,5,5,0,0,0-2.14-2.2.35.35,0,0,0-.45.18.33.33,0,0,0,.17.44,4.37,4.37,0,0,1,1.81,1.88A.32.32,0,0,0,144.41,53.49Z"/>
    <path class="cls-16" d="M138,35.89a8.82,8.82,0,0,0,1-.23,4.23,4.23,0,0,0,1.06-.47c2.3-1.53-1.64-4.39-1.64-4.39l.9,2.16a2.75,2.75,0,0,1,.22,1h0Z"/>
    <path class="cls-23" d="M158.33,82.29l-1.11-.2A5.92,5.92,0,0,0,158.33,82.29Z"/>
    <path class="cls-23" d="M147.5,83.93a.74.74,0,0,0,0-.19Z"/>
    <path class="cls-20" d="M142.34,15.44a4.73,4.73,0,0,0,1.72,3.82c1.28.88,3.3.88,5,.51,3.91-.83,10.65-1.34,7,6.24-4.94,10.4-1.7,6.4,2.05,8.39,3.4,1.81,2.64,5.7,2.47,6.41,0,.06,0,.16,0,.22l-.13,6a.86.86,0,0,0,.86.9h3.44a.88.88,0,0,0,.86-.89V43.18A5.59,5.59,0,0,1,167,39.57l0,0a6.39,6.39,0,0,1,5.16-2.14,4.09,4.09,0,0,1,3.43,1.83,4,4,0,0,1,.58,2.9,18.27,18.27,0,0,1-2,5.79A20.93,20.93,0,0,0,176,51.16c3.86,5.72,6.62,10.82,8.91,10.77,1.09,0,2.06-1.21,3-4,.12-.36.24-.74.36-1.16,2.8-9.85,12.17-13.18,8.81-22.85a.87.87,0,0,1,.95-1.16h0c1.37.3,2.6-.62.09-7.12a.9.9,0,0,1,.47-1.15c2.5-1.11,9.07-5.28-8.45-13.67a68.89,68.89,0,0,0-9.55-3.73L193.06,6c-.88-.11-9.78-3.25-19.63-2.89l8.37-1.85a83.65,83.65,0,0,0-11.73-1c-1.56,0-3.21.06-4.91.23-6.93.65-14.6,2.88-20,8.85a7.76,7.76,0,0,0-1.3,1.55,11.49,11.49,0,0,0-1,1.84A6.73,6.73,0,0,0,142.34,15.44Z"/>
    <g class="cls-24">
      <path class="cls-25" d="M142.91,12.69c9.28-1,23.64-4.41,35.55-7.51,0,0-13.25-2.76-17.6.13-3.6,2.4,2.2-2.95,4.3-4.86-6.93.65-14.6,2.88-20,8.85a7.76,7.76,0,0,0-1.3,1.55A11.49,11.49,0,0,0,142.91,12.69Z"/>
    </g>
    <path class="cls-26" d="M159.11,29.43c9.28-1,23.65-4.41,35.56-7.5,0,0-13.25-2.76-17.61.13-3.6,2.39,2.2-2.95,4.31-4.87-6.94.65-14.61,2.88-20,8.86a8.06,8.06,0,0,0-1.3,1.54A12.87,12.87,0,0,0,159.11,29.43Z"/>
  </g>
  <g id="man-right-hand" transform="rotate(0, 120, 100)">
    <path class="cls-27" d="M114.82,88.68c-1.26-1.77-6.72-6.47-7.83-7.41a12.68,12.68,0,0,0-6.42-2.54c-1.73-.28-3.3.61-4.52.85-2.72.52-1.78,1.92.8,3.12.7.32,3.23-1,4.87.1s2.92,1.35,3.91,2.48c.7.81,3.32,5,4.59,6.88C111.79,92.73,114.82,88.68,114.82,88.68Z"/>
    <path class="cls-28" d="M114.11,89.55c-1,1.16-2.8,3-3.89,2.61-1.27-1.87-3.89-6.07-4.59-6.88-1-1.13-2.35-1.43-3.91-2.48s-4.17.22-4.87-.1c-2.58-1.2-3.52-2.6-.8-3.12a12.26,12.26,0,0,0,1.31-.38C104.54,80.1,108.8,85.13,114.11,89.55Z"/>
    <path class="cls-28" d="M110.22,86.93a51.79,51.79,0,0,0-6.47-4.4A47.81,47.81,0,0,0,96.87,80c-1.82-.46-5.29,1.65-6.9,2.19-2.56.85-1.1,3.75,1.1,2.89.72-.27,3.33-1.43,5.2-.82a25.74,25.74,0,0,1,5.21,2.43c.89.58,3.79,2.79,5.52,4.24C108.66,91.06,110.22,86.93,110.22,86.93Z"/>
    <path class="cls-29" d="M109.18,89.07c-.6,1-1.37,1.94-2.18,1.88-1.73-1.45-4.63-3.66-5.52-4.24a25.74,25.74,0,0,0-5.21-2.43c-1.87-.61-4.48.55-5.2.82a1.85,1.85,0,0,1-2-.32C95.77,81,103.13,84.11,109.18,89.07Z"/>
    <path class="cls-28" d="M109.4,89.73A41.72,41.72,0,0,0,102.87,86a38.27,38.27,0,0,0-5.67-2.34c-1.79-.46-5,.79-6.17,1-2.57.42-1.87,2.79.65,2.89.77,0,2.08-.94,3.92-.35a24.22,24.22,0,0,1,5.16,2.36c.89.57,3.76,2.73,5.48,4.15C107.87,93.81,109.4,89.73,109.4,89.73Z"/>
    <path class="cls-29" d="M107.94,92.51c-.5.7-1.09,1.24-1.7,1.2-1.72-1.42-4.59-3.58-5.48-4.15a24.66,24.66,0,0,0-5.1-2.34C100.62,86.83,104.2,90.22,107.94,92.51Z"/>
    <path class="cls-29" d="M107.64,92.82c-.42.58-.91,1-1.42,1-1.43-1.2-3.83-3-4.57-3.47a20.57,20.57,0,0,0-4.26-2C101.54,88.07,104.52,90.91,107.64,92.82Z"/>
    <path class="cls-28" d="M107.12,92.91a37.84,37.84,0,0,0-6.8-4.46,23.09,23.09,0,0,0-5.64-1.22c-.71-.09-2.23.8-3.31,1.2-3.1,1.13-1.59,3.54.83,3.23.71-.09,3.25-.54,3.25-.54a24.68,24.68,0,0,1,5,2.18,18.12,18.12,0,0,1,3.27,2.33C105.25,95.82,107.12,92.91,107.12,92.91Z"/>
    <path class="cls-28" d="M122.86,96.76c-.88-1.24-7.36-8.61-11.51-11.68-1.6,1-8.35,8.58-7.64,10.55,6.49,4.6,11.73,8.08,12.42,8.16C123.14,103.93,123.42,98.61,122.86,96.76Z"/>
    <path class="cls-28" d="M108.94,94.23s13.16,8.41,8.59,9.48c-5.31,1.23-9.41-.79-15.21-3.82a20.09,20.09,0,0,0-5.87-1.48c-1.81-.27-1.49-2.23-.5-3,1.39-1.07,4.54-.9,7.82.77C107.48,98.07,108.94,94.23,108.94,94.23Z"/>
  </g>
  <g id="man-left-hand" transform="rotate(0, 35, 135)">
    <path class="cls-29" d="M36.77,132.76c1.89,1-2.35-6.78-6-10.77s-9.32-9.08-10.26-9.95-4.16,1.25-1.38,5.15S35.74,132.2,36.77,132.76Z"/>
    <path class="cls-28" d="M28,121.77c-1.76-1.9-8.85-6.37-10.28-7.25C15,112.84,12,113,10,113.11s-3.57,1.71-4.9,2.35c-2.94,1.44-1.61,3,1.54,3.75.84.23,3.42-2.18,5.48-1.24s3.55.89,4.89,2.06c.95.83,4.75,5.46,6.54,7.48C25.43,127.79,28,121.77,28,121.77Z"/>
    <path class="cls-30" d="M27.4,123.08c-.88,1.76-2.53,4.63-3.85,4.43-1.79-2-5.59-6.65-6.54-7.48-1.34-1.17-2.92-1.16-4.89-2.06s-4.64,1.47-5.48,1.24c-3.15-.8-4.48-2.31-1.54-3.75a12.5,12.5,0,0,0,1.4-.85C14.73,113.72,20.54,118.94,27.4,123.08Z"/>
    <path class="cls-28" d="M24.78,122.59a53.41,53.41,0,0,0-7.59-5,46.69,46.69,0,0,0-8-2.53c-2.1-.42-6,2.71-7.75,3.58-2.87,1.38-1.08,5,1.39,3.67.8-.44,3.72-2.22,5.88-1.65a25.79,25.79,0,0,1,6.06,2.62c1,.66,4.46,3.23,6.5,4.94C23.2,128.13,24.78,122.59,24.78,122.59Z"/>
    <path class="cls-29" d="M23.69,125.49c-.62,1.34-1.47,2.67-2.38,2.68-2-1.71-5.46-4.28-6.5-4.94a25.79,25.79,0,0,0-6.06-2.62c-2.16-.57-5.08,1.21-5.88,1.65A1.86,1.86,0,0,1,.58,122C8,116.38,16.56,119.66,23.69,125.49Z"/>
    <path class="cls-28" d="M24,126.32a42.11,42.11,0,0,0-7.61-4.14c-2.86-1.18-4.65-2.09-6.58-2.46s-5.61,1.57-7,2c-2.91.83-2,3.85.89,3.7.87,0,2.31-1.44,4.44-.87a24.37,24.37,0,0,1,6,2.53c1,.64,4.43,3.15,6.46,4.82C22.44,131.8,24,126.32,24,126.32Z"/>
    <path class="cls-29" d="M22.46,130.1c-.54,1-1.19,1.73-1.88,1.75-2-1.67-5.42-4.18-6.46-4.82a24.91,24.91,0,0,0-5.91-2.52C13.84,123.47,18.09,127.52,22.46,130.1Z"/>
    <path class="cls-29" d="M22.13,130.54c-.45.79-1,1.43-1.57,1.45-1.7-1.4-4.51-3.49-5.38-4a20.35,20.35,0,0,0-4.94-2.1C14.94,125,18.48,128.38,22.13,130.54Z"/>
    <path class="cls-28" d="M21.54,130.7a40.09,40.09,0,0,0-8-5.08,23.4,23.4,0,0,0-6.49-1c-.81,0-2.5,1.28-3.71,1.92-3.47,1.82-1.64,4.78,1.11,4.12.81-.19,3.68-1,3.68-1,1.91.65,4.45,1.31,5.79,2.29a19.4,19.4,0,0,1,3.83,2.71C19.55,134.71,21.54,130.7,21.54,130.7Z"/>
    <path class="cls-28" d="M39.66,134.05C38.6,132.52,30.85,123.6,26,120c-1.78,1.47-9.11,12.08-8.2,14.59,7.63,5.28,13.77,9.25,14.56,9.29C40.33,143.35,40.39,136.39,39.66,134.05Z"/>
  </g>
  <path class="cls-31" d="M164.88,115.86c.11.21-.07.66,0,3.27a3,3,0,0,0,2.78,2.71c3.16,0,9.22-2.27,16.51-7.17,7.94-5.33,12.8-8.11,15.52-8.65,4.14-.76-10.08-9-13.67-7a53.45,53.45,0,0,0-10.23,7.29c-2.07-.54-9.36-2.39-22-5.65-10.88-2.62-18-3.49-21.33-2.51-5.22-1.85-8.27-2.83-9-2.83s-1.74.87-2.94,2.62a31,31,0,0,0-1.85,2.93,5.36,5.36,0,0,0-.33.77c.55.54.72,1.87,1.49,2.63,1,1.09,1.72,8.64,2.59,4.5a13.43,13.43,0,0,1,3.39-4.46c.77-.76,1.28-1.7,1.72-2.13.87-.76,1.19-1.38,1.3-1.38l.26.16-.34,1.06c-1.63,2.94-2.63,5.47-2.63,6.56,2.5.76,8.3,3.74,16.36,7.55a37.64,37.64,0,0,0,15.9,3.13,6.91,6.91,0,0,0,4.23-1.64c.76-.55.47.18,1.56-.8Z"/>
  <path class="cls-32" d="M165.71,118.6a20.32,20.32,0,0,0-.44-4.24,28.85,28.85,0,0,1-2.72,2.17,6.94,6.94,0,0,1-4.25,1.64,36.12,36.12,0,0,1-15.45-3.48c-8-3.81-13.28-6.1-15.78-6.86,0-1.09.76-3.16,2.4-6.09V100H129a10.78,10.78,0,0,0-1.41,1.2l-1.75,1.74c-1.63,1.41-2.72,2.18-3.48,2.18-.32,0-1.09-.55-2.07-1.64-.76-.76-1.41-1.3-2-1.84a4.53,4.53,0,0,0-.54,1,10.8,10.8,0,0,0-1.52,6.2,3.73,3.73,0,0,0,1.09,2.28c.54.55,5.55,4.25,15.23,11.1a121.19,121.19,0,0,0,12.84,8.27c1.64.88,3.38,1.75,5,2.51q.5.48,10.45,2c6.64,1,10.77,1.41,12.51,1.3a10.59,10.59,0,0,1,3.16-.11c17.3-4.67,27.31-7.83,30-9.68,2.94-2-2.72-22.53-6.85-21.77-2.72.55-8.06,3.38-16,8.71-7.29,4.9-12.62,7.29-15.78,7.29a2,2,0,0,1-2.28-2.07Z"/>
  <path class="cls-31" d="M79.52,151c.11.21-.07.66,0,3.27A3,3,0,0,0,82.34,157c3.16,0,9.22-2.27,16.51-7.17,8-5.33,12.8-8.11,15.52-8.65,4.14-.76,6.65-1.19,7.63-1.41,2.94-.66,6.09-2,9.68-3.17a33,33,0,0,0,8.51-4.23c.87-.54,2.41-2.44,3.28-3-.11,1.41-.33,2.72-.44,4,5.77,2.29,11.1-1.63,16.11-11.86s15.78-18.75,27-28.11c-1-.54-2.92-5.31-4.11-5.64-3.16-1.09-4.28,1.09-4.28,0,0-.33.29-.16.61-1.68,0-.11,2.6-1.88,2.6-2,2.28-1.2,10.71-1.47,13.24,0,7.85,4.52.8-5.47-3.21-10.85-.28-.37-11.82,1.36-12.25,1.69a16.81,16.81,0,0,1-14.8,3.37,98,98,0,0,0-7.4,6.53,92.42,92.42,0,0,0-1.2,9.8,1.34,1.34,0,0,1-.11.65c-6.09,3-9.14,4.57-9.25,4.57a17.06,17.06,0,0,1-2.17.77,37.49,37.49,0,0,0-7,3.48c-2.72,1.74-5.33,3.37-7.73,4.79s-6.85,5.55-13.27,12.18-11.54,11.11-15.13,13.06a53.76,53.76,0,0,0-10.23,7.29c-2.07-.54-9.36-2.39-22-5.65-10.89-2.62-18-3.49-21.33-2.51-5.23-1.85-8.27-2.83-9-2.83s-1.74.88-2.93,2.62A27.4,27.4,0,0,0,33.34,136a5.36,5.36,0,0,0-.33.77c.54.54.72,1.87,1.48,2.63,1,1.09,1.73,8.65,2.59,4.5a13.5,13.5,0,0,1,3.4-4.46c.76-.76,1.28-1.7,1.71-2.13.87-.76,1.19-1.38,1.3-1.38l.27.16-.35,1.06c-1.63,2.94-2.63,5.47-2.63,6.56,2.51.76,8.31,3.74,16.36,7.55A37.67,37.67,0,0,0,73,154.43a6.89,6.89,0,0,0,4.23-1.64c.76-.55.48.18,1.57-.8Z"/>
  <path class="cls-32" d="M80.35,153.78a20.32,20.32,0,0,0-.44-4.24,27.62,27.62,0,0,1-2.72,2.17A6.94,6.94,0,0,1,73,153.35a36.17,36.17,0,0,1-15.46-3.48c-8.05-3.81-13.27-6.1-15.78-6.86,0-1.09.77-3.16,2.4-6.09v-1.75h-.44a11.62,11.62,0,0,0-1.41,1.2l-1.74,1.74c-1.63,1.42-2.72,2.18-3.48,2.18-.33,0-1.09-.55-2.07-1.63-.76-.76-1.42-1.31-2-1.85a4.19,4.19,0,0,0-.55,1,10.88,10.88,0,0,0-1.52,6.2A3.78,3.78,0,0,0,32,146.27c.54.55,5.55,4.25,15.23,11.1a120.29,120.29,0,0,0,12.85,8.27c1.63.88,3.37,1.75,5,2.51q.49.49,10.45,2c6.64,1,10.77,1.41,12.52,1.3a10.52,10.52,0,0,1,3.15-.11c17.31-4.67,27.32-7.83,30-9.68q4.41-2.94,12.08-7.51c2.5-2.29,4.57-5.77,6.42-10.66a.39.39,0,0,1,.11-.33c.32-1,.54-1.85.87-2.83a50.58,50.58,0,0,1,2.28-6.86c.11-1.3.33-2.61.44-4-.87.54-1.74,1-2.61,1.52a38.62,38.62,0,0,1-9,4.57,99.26,99.26,0,0,1-9.79,2.83c-1,.22-3.48.76-7.62,1.52-2.72.55-8,3.38-16,8.71-7.29,4.9-12.62,7.29-15.78,7.29a2,2,0,0,1-2.28-2.07Z"/>
  <path class="cls-33" d="M187.68,76.7c-1.31-.33-2.75,3.51-4.38,4.39-2.61,1.3-5,2.5-7.29,3.7V85a16.8,16.8,0,0,0-.44,2.73c0,1.08,1.53,2.17,4.68,3.26a15,15,0,0,1,3.27,1.3c-11.21,9.37-19.37,19.16-24.38,29.28S148.8,135.72,143,133.43a50.58,50.58,0,0,0-2.28,6.86c-.33,1-.55,1.85-.87,2.83a.39.39,0,0,0-.11.33v.32c.43,4.68-.83,12.14,1.67,18s3.06,8.7,3.06,11l-.61,13.73c0,4.89.93,8.39,1.37,11.44.22,1,.65,4,.76,4.72.33.33,3.18,2,3.51,2.29,3.05,3.59,4.17,1.29,4.5,1.29.1,0,1.41-.44,3.91-1.42a23.6,23.6,0,0,1,7.4-1.41,39.86,39.86,0,0,1,14.37,2.39c2.07.76,3.92,1.53,5.55,2.29,2.61,0,5.44-2.18,8.49-6.42s5.55-6.53,7.07-6.53c1.09,0,2,1.63,2.72,4.9,0,.76-.87,2.83-2.72,6.31a31.4,31.4,0,0,0-2.07,4.68,58,58,0,0,0,11.86-8.82l3.38-9.68c-2.5-12.08-3.81-28.3-3.92-48.43s-3.87-42-9.75-54.67c-4-8.81-2.54-9.71-7.55-10.47Z"/>
  <path class="cls-34" d="M152.72,89c-.65.76-1.2,1.63-1.74,2.39l-.33.33c-1.41,2.07-4.77,2.89-6.19,5.61-.22.44-13.06,10.4-13.16,10.62.1,0,17.83-9.59,23.92-12.64a1.34,1.34,0,0,0,.11-.65,92.42,92.42,0,0,1,1.2-9.8c-1.42,1.42-2.61,2.73-3.81,4.14Z"/>
  <path class="cls-35" d="M139.77,143.45c-1.85,4.89-3.92,8.37-6.42,10.66,1.09,13.38,1.74,23.18,2,29.16s-.55,10.13-2.4,12.19c-1.63,2.07-1.41,4.36.87,7a26.91,26.91,0,0,0,7.19,5.44A45.31,45.31,0,0,0,147.5,211a80.27,80.27,0,0,0,29.81,5.87,27.94,27.94,0,0,0,5.77-.65,62.78,62.78,0,0,0,11.32-3.59c1.42-.55,2.94-1.09,4.35-1.63a31.4,31.4,0,0,1,2.07-4.68c1.85-3.48,2.72-5.55,2.72-6.31-.76-3.27-1.63-4.9-2.72-4.9-1.52,0-3.92,2.18-7.07,6.53s-5.88,6.42-8.49,6.42c-1.63-.76-3.48-1.53-5.55-2.29a39.86,39.86,0,0,0-14.37-2.39,23.6,23.6,0,0,0-7.4,1.41c-2.5,1-3.81,1.42-3.91,1.42-.33,0-2-1.74-5-5.34l-.87-.86c-.11-.77-.33-1.64-.55-2.62a89.25,89.25,0,0,1-.65-12l.76-13.71c0-2.29-1.19-6.31-3.59-12.19a53.18,53.18,0,0,1-4.35-15.78v-.32Z"/>
  <path class="cls-36" d="M148.84,171.09a13.38,13.38,0,0,0-5.24,9c-.3,3.47-.59,8.51-1,15.13s-.69,12.36-.69,17-.2,10.39-.6,17-.29,10.68.2,12.17,2.38,3.56,5.44,6.23a15.18,15.18,0,0,0,8.21,3.85c.3-4,4.07-8.71,4.07-10.88,0-.6,2.61-55.62,3.31-55.62.19,0,32.74-20.39,35.61-21.48,3.75-1.48,15.26-8.93,18.22-10.81,5.24-3.26,8-4.85,8.11-4.95q.45-.13,8.9-3.85a16.42,16.42,0,0,0,3.46-1.68c-2.27-5.25-7.51-7.72-15.62-7.62-1.68.5-5.94,2.08-12.76,4.55a209.63,209.63,0,0,0-23.14,10.78c-8.6,4.55-16,8.6-22.35,12.16a110.35,110.35,0,0,0-14.14,9Z"/>
  <path class="cls-37" d="M208,156.56a123.11,123.11,0,0,0-12.66,4.25c-2.87,1.09-6.23,2.57-10.19,4.45-2.67,1.28-5.73,2.87-9.09,4.65-3.07,1.68-5.34,3-7,4a36.94,36.94,0,0,0-4.45,3.76,22.19,22.19,0,0,1-3.56,3,8.72,8.72,0,0,1-3.36-1.39,10.6,10.6,0,0,0-3-1.58,2,2,0,0,0-1.48.59,1.27,1.27,0,0,0-.39,1c0,1,.79,2.38,2.27,4.06a8.44,8.44,0,0,1,2.37,5.73q0,1.94-2.67,3.56A5.19,5.19,0,0,0,152,197.4a4.41,4.41,0,0,0,1.78,3,5,5,0,0,1,1.69,3.47,4,4,0,0,1-.89,2,5.45,5.45,0,0,0-.8,1.68,4.05,4.05,0,0,0,.6,2.28,4,4,0,0,1,.79,2.57c0,.1-.2,1.88-.59,5.54-.4,3.86-.6,6.53-.6,7.91,0,.4.3,3.07.79,8.11s.89,7.81.89,8.41c0,2.17-.19,5.24-.49,9.19l3.46.3c4.85,0,10.58-1.58,17.21-4.85,7.61-3.66,15.13-7.31,22.74-10.87,6.63-3.17,13.25-6.53,19.88-10.19,6.82-3.66,12-7.52,15.53-11.77a18.33,18.33,0,0,0,4.35-14.63,148.31,148.31,0,0,1-.1-22.45,276.27,276.27,0,0,0,0-28.49,17.07,17.07,0,0,0-1.39-6.32,16.42,16.42,0,0,1-3.46,1.68q-8.44,3.71-8.9,3.85c-.1.1-2.87,1.69-8.11,4.95a30,30,0,0,1-8.4,3.86ZM193,187c3-1.49,7.61-3.46,14-5.94,1.28-.59,2.47-1.09,3.56-1.58q5.79-2.82,9.49-1.78c2.28.59,4.06,2.27,5.24,5v4.06q-.74,14.09-2.67,18.39-2.22,4.89-11.27,10.68c-.49.2-4.85,2.28-13.15,6.33-8.61,4.25-13.16,6.33-13.55,6.33a4.87,4.87,0,0,1-4.15-2.57c-1.19-1.78-2-4.55-2.48-8.21a158.23,158.23,0,0,1-.59-16.81c0-4.35,5.14-9,15.53-13.94Z"/>
  <path class="cls-6" d="M207,181.08c-6.43,2.48-11.08,4.45-14,5.94-10.39,4.94-15.53,9.59-15.53,13.94a158.23,158.23,0,0,0,.59,16.81c.5,3.66,1.29,6.43,2.48,8.21h.39c.3,0,4.85-2.08,13.55-6.33,8.41-4,12.76-6,13.15-6.33,6-3.86,9.69-7.42,11.18-10.68,1.28-2.87,2.27-9,2.77-18.39v-4.06a17.85,17.85,0,0,0-1.49-2.47q-3.71-1-9.49,1.78c-1.09.49-2.28,1-3.56,1.58Z"/>
  <path class="cls-9" d="M200.66,213.72c.2,2.07.39,4.45.49,7.11.5,3.86.1,9.7-1.08,17.61a80.26,80.26,0,0,1-5.64,21q-3.85,9.06-5,11.57a42.37,42.37,0,0,1-4.06,7.12,11.3,11.3,0,0,1-2.08-1.18,4.85,4.85,0,0,1-2.27-2.77v-.2a50.59,50.59,0,0,0,4-7.12c.09-.3,1.77-3.95,4.94-11.07a61.24,61.24,0,0,0,5.54-20.57c.49-6.63.69-10.78.69-12.56v-3a10.07,10.07,0,0,0-.4-3.16c-2.07-.7-3.36-2.28-4.05-4.75a14.32,14.32,0,0,1-.3-7,12.06,12.06,0,0,1,2-4.75c5.44-4.45,10.68-6.53,15.53-6.43,4.35,1.78,7.31,4.15,9,7.12a6,6,0,0,0-4.06-.39,27.07,27.07,0,0,0-5.44,2.57,25.75,25.75,0,0,0-6.13,5,7.68,7.68,0,0,0-1.58,5.84Z"/>
  <path class="cls-38" d="M201.15,220.83c-.1-2.66-.29-5-.49-7.11a7.68,7.68,0,0,1,1.58-5.84,25.75,25.75,0,0,1,6.13-5,27.07,27.07,0,0,1,5.44-2.57,6,6,0,0,1,4.06.39c1.18,13.75.69,26.21-1.49,37.19s-5.53,20.07-10,27.09c-4.85,7.52-10.78,12-17.9,13.45h-1.19a6.8,6.8,0,0,1-2-.3,42.37,42.37,0,0,0,4.06-7.12q1.19-2.52,5-11.57a80.26,80.26,0,0,0,5.64-21c1.18-7.91,1.58-13.75,1.08-17.61Z"/>
  <path class="cls-39" d="M221.53,184.25c-.5,9.39-1.49,15.52-2.77,18.39-1.49,3.26-5.15,6.82-11.18,10.68-.39.3-4.74,2.37-13.15,6.33-8.7,4.25-13.25,6.33-13.55,6.33h-.39a4.87,4.87,0,0,0,4.15,2.57c.39,0,4.94-2.08,13.55-6.33,8.3-4.05,12.66-6.13,13.15-6.33q9-5.79,11.27-10.68,1.94-4.31,2.67-18.39v-4.06c-1.18-2.77-3-4.45-5.24-5a17.85,17.85,0,0,1,1.49,2.47v4.06Z"/>
</svg>