<svg xmlns="http://www.w3.org/2000/svg" viewBox="0 0 68.26 59.53">
  <defs>
    <style>.cls-1{fill:#16191c;}.cls-2{fill:#0d0b15;}.cls-12,.cls-3{fill:#fff;}.cls-3,.cls-6{opacity:0.1;}.cls-4,.cls-5,.cls-8{fill:#dadfe1;}.cls-5{opacity:0.3;}.cls-7{fill:#4c8fd1;}.cls-8{opacity:0.5;}.cls-9{opacity:0.7;}.cls-10{fill:#e63d48;}.cls-11{opacity:0.2;}.cls-13{fill:#ffd764;}</style>
  </defs>
  <path class="cls-1" d="M67.59,56.85c.34,1.54-1.5,2.79-4.13,2.78l-59.1-.09c-2.63,0-4.47-1.26-4.12-2.8Q3.31,43,6.4,29.2c.35-1.55,2.3-2.79,4.35-2.79l46.43.08c2,0,4,1.25,4.34,2.8Q64.55,43.06,67.59,56.85Z"/>
  <path class="cls-5" d="M23.75,10a.84.84,0,0,1-.84.83h-8a.85.85,0,0,1-.84-.84h0a.84.84,0,0,1,.84-.83h8a.83.83,0,0,1,.83.84Z"/>
  <path class="cls-4" d="M49.84,31.64c0,1.43-1.54,2.59-3.44,2.58l-12.14,0c-1.9,0-3.44-1.16-3.43-2.6v-1c0-1.43,1.54-2.59,3.44-2.59l12.14,0c1.9,0,3.43,1.17,3.43,2.6Z"/>
  <path class="cls-10" d="M56.35,28.64c0,.5-.54.9-1.2.9a1.08,1.08,0,0,1-1.2-.91c0-.5.54-.9,1.2-.9A1.09,1.09,0,0,1,56.35,28.64Z"/>
  <path class="cls-10" d="M56.34,31.35c0,.51-.53.91-1.2.91a1.09,1.09,0,0,1-1.2-.91c0-.5.54-.9,1.2-.9S56.34,30.85,56.34,31.35Z"/>
  <path class="cls-7" d="M56.34,34.07a1.25,1.25,0,0,1-2.4,0,1.09,1.09,0,0,1,1.2-.91C55.8,33.17,56.34,33.57,56.34,34.07Z"/>
  <path class="cls-7" d="M48.65,54.78a1.25,1.25,0,0,1-2.4,0,1.08,1.08,0,0,1,1.2-.9C48.11,53.88,48.65,54.28,48.65,54.78Z"/>
  <g class="cls-11">
    <path class="cls-12" d="M35.76,38c0,.26-.27.46-.61.46H30.89c-.33,0-.6-.2-.6-.45V36.64a.55.55,0,0,1,.61-.46h4.25c.34,0,.61.2.61.46Z"/>
    <path class="cls-12" d="M43,38c0,.25-.28.45-.61.45H38.11a.55.55,0,0,1-.6-.46V36.65a.55.55,0,0,1,.61-.46h4.25a.55.55,0,0,1,.61.46Z"/>
    <path class="cls-12" d="M50.2,38.05a.57.57,0,0,1-.61.46H45.33c-.33,0-.61-.21-.61-.46V36.66c0-.25.27-.45.61-.45h4.25a.55.55,0,0,1,.61.46Z"/>
  </g>
  <g class="cls-11">
    <path class="cls-12" d="M35.75,42.66a.55.55,0,0,1-.61.46H30.89a.55.55,0,0,1-.61-.46V41.27c0-.25.28-.45.61-.45h4.26a.55.55,0,0,1,.6.46Z"/>
    <path class="cls-12" d="M43,42.67a.55.55,0,0,1-.61.46H38.11a.55.55,0,0,1-.61-.46V41.28c0-.25.27-.45.61-.45h4.25c.34,0,.61.21.61.46Z"/>
    <path class="cls-12" d="M50.19,42.68c0,.26-.28.46-.61.46H45.32a.54.54,0,0,1-.6-.46V41.3c0-.26.27-.46.61-.46h4.25c.34,0,.61.2.61.46Z"/>
  </g>
  <g class="cls-11">
    <path class="cls-12" d="M35.74,47.29c0,.26-.27.46-.61.46H30.88c-.34,0-.61-.2-.61-.46V45.91a.54.54,0,0,1,.6-.46h4.26c.33,0,.61.2.6.46Z"/>
    <path class="cls-12" d="M43,47.3c0,.26-.27.46-.61.46H38.1c-.34,0-.61-.2-.61-.46V45.92c0-.25.28-.46.61-.46h4.26a.54.54,0,0,1,.6.46Z"/>
    <path class="cls-12" d="M50.18,47.32c0,.25-.27.45-.61.45H45.32a.55.55,0,0,1-.61-.46V45.93a.55.55,0,0,1,.61-.46h4.25a.55.55,0,0,1,.61.46Z"/>
  </g>
  <g class="cls-11">
    <path class="cls-12" d="M35.73,51.93c0,.25-.27.45-.6.45H30.87c-.33,0-.61-.21-.6-.46V50.54a.55.55,0,0,1,.61-.46h4.25a.55.55,0,0,1,.61.46Z"/>
    <path class="cls-12" d="M43,51.94c0,.25-.27.45-.6.45H38.09c-.33,0-.61-.21-.61-.46V50.55a.55.55,0,0,1,.6-.46h4.26c.33,0,.61.21.61.46Z"/>
    <path class="cls-12" d="M50.17,52a.55.55,0,0,1-.61.46H45.31a.55.55,0,0,1-.61-.46V50.56c0-.25.28-.45.61-.45h4.26a.55.55,0,0,1,.6.46Z"/>
  </g>
  <path class="cls-13" d="M42.64,55.11a.53.53,0,0,1-.6.45H38.29a.55.55,0,0,1-.6-.46v-.34c0-.25.27-.45.6-.45h3.76c.33,0,.6.2.6.45Z"/>
  <path class="cls-12" d="M58.73,39.79a.47.47,0,0,1-.49.46H54.42a.47.47,0,0,1-.49-.45v-.34a.46.46,0,0,1,.49-.45h3.82a.47.47,0,0,1,.49.46Z"/>
  <path class="cls-12" d="M58.73,43.08a.48.48,0,0,1-.5.45H54.41a.47.47,0,0,1-.49-.45v-.34a.47.47,0,0,1,.5-.45h3.82a.47.47,0,0,1,.49.45Z"/>
  <path class="cls-12" d="M58.72,46.36a.46.46,0,0,1-.49.45H54.41a.47.47,0,0,1-.49-.46V46a.48.48,0,0,1,.49-.46h3.82a.47.47,0,0,1,.49.45Z"/>
  <path class="cls-12" d="M58.71,49.65a.47.47,0,0,1-.49.45H54.4a.47.47,0,0,1-.49-.45V49.3a.47.47,0,0,1,.5-.45h3.81a.48.48,0,0,1,.5.46Z"/>
  <path class="cls-3" d="M60.91,57.83a1,1,0,0,1-1,1l-49.65-.08a1,1,0,0,1-1-1h0a1,1,0,0,1,1-1l49.65.08a1,1,0,0,1,1,1Z"/>
  <g id="receiver">
    <path class="cls-1" d="M14.11,8.27a1,1,0,0,1-1,1.05h0A1.05,1.05,0,0,1,12,8.26l0-7A1.05,1.05,0,0,1,13.07.23h0a1.06,1.06,0,0,1,1,1.06Z"/>
    <path class="cls-2" d="M25.33,51.48A2.6,2.6,0,0,1,23,54.1H14.72a2.6,2.6,0,0,1-2.34-2.64Q11.33,30.56,10.3,9.67A2.68,2.68,0,0,1,13.22,7l11.41,0a2.68,2.68,0,0,1,2.91,2.63Q26.45,30.59,25.33,51.48Z"/>
    <path class="cls-3" d="M25.33,51.48A2.6,2.6,0,0,1,23,54.1H14.72a2.6,2.6,0,0,1-2.34-2.64Q11.33,30.56,10.3,9.67A2.68,2.68,0,0,1,13.22,7l11.41,0a2.68,2.68,0,0,1,2.91,2.63Q26.45,30.59,25.33,51.48Z"/>
    <path class="cls-1" d="M25,26.38A1.43,1.43,0,0,1,23.81,28l-9.83,0a1.43,1.43,0,0,1-1.23-1.58l0-10.56A1.44,1.44,0,0,1,14,14.22l9.83,0a1.44,1.44,0,0,1,1.23,1.58Z"/>
    <path class="cls-4" d="M24.34,25.78a1.28,1.28,0,0,1-1.09,1.4l-8.71,0a1.28,1.28,0,0,1-1.09-1.4l0-9.35A1.27,1.27,0,0,1,14.56,15h8.71a1.27,1.27,0,0,1,1.08,1.4Z"/>
    <g class="cls-6">
      <path class="cls-4" d="M16.52,30.61a.62.62,0,0,1-.59.66H13.64a.63.63,0,0,1-.59-.66h0a.63.63,0,0,1,.59-.66h2.29a.63.63,0,0,1,.59.66Z"/>
      <path class="cls-4" d="M20.62,30.62a.63.63,0,0,1-.59.66H17.74a.63.63,0,0,1-.59-.66h0a.63.63,0,0,1,.59-.65H20a.63.63,0,0,1,.59.66Z"/>
      <path class="cls-4" d="M24.73,30.63a.63.63,0,0,1-.6.65H21.84a.63.63,0,0,1-.59-.66h0a.64.64,0,0,1,.6-.66h2.29a.63.63,0,0,1,.59.66Z"/>
    </g>
    <path class="cls-7" d="M21.38,35.54A2.5,2.5,0,1,1,18.88,33,2.49,2.49,0,0,1,21.38,35.54Z"/>
    <path class="cls-8" d="M18.88,37.61A2.08,2.08,0,1,1,21,35.54,2.08,2.08,0,0,1,18.88,37.61Zm0-4a1.87,1.87,0,1,0,1.87,1.88A1.87,1.87,0,0,0,18.88,33.66Z"/>
    <rect class="cls-7" x="22.24" y="32.62" width="2.3" height="2.3" rx="0.53" transform="translate(-10.42 57.11) rotate(-89.91)"/>
    <rect class="cls-7" x="22.24" y="35.65" width="2.3" height="2.3" rx="0.53" transform="translate(-13.45 60.13) rotate(-89.91)"/>
    <rect class="cls-7" x="13.22" y="32.61" width="2.3" height="2.3" rx="0.53" transform="translate(-19.41 48.07) rotate(-89.91)"/>
    <rect class="cls-7" x="13.22" y="35.63" width="2.3" height="2.3" rx="0.53" transform="translate(-22.44 51.09) rotate(-89.91)"/>
    <g class="cls-9">
      <rect class="cls-4" x="13.83" y="39.45" width="1.65" height="2.37" rx="0.53" transform="translate(-26 55.23) rotate(-89.91)"/>
      <rect class="cls-4" x="18.05" y="39.46" width="1.65" height="2.37" rx="0.53" transform="translate(-21.8 59.45) rotate(-89.91)"/>
      <rect class="cls-4" x="22.26" y="39.47" width="1.65" height="2.37" rx="0.53" transform="translate(-17.6 63.67) rotate(-89.91)"/>
    </g>
    <g class="cls-9">
      <rect class="cls-4" x="13.83" y="42.43" width="1.65" height="2.37" rx="0.53" transform="translate(-28.98 58.19) rotate(-89.91)"/>
      <rect class="cls-4" x="18.04" y="42.43" width="1.65" height="2.37" rx="0.53" transform="translate(-24.78 62.41) rotate(-89.91)"/>
      <rect class="cls-4" x="22.26" y="42.44" width="1.65" height="2.37" rx="0.53" transform="translate(-20.58 66.63) rotate(-89.91)"/>
    </g>
    <g class="cls-9">
      <rect class="cls-4" x="13.82" y="45.4" width="1.65" height="2.37" rx="0.53" transform="translate(-31.96 61.16) rotate(-89.91)"/>
      <rect class="cls-4" x="18.04" y="45.41" width="1.65" height="2.37" rx="0.53" transform="translate(-27.76 65.38) rotate(-89.91)"/>
      <rect class="cls-4" x="22.25" y="45.41" width="1.65" height="2.37" rx="0.53" transform="matrix(0, -1, 1, 0, -23.56, 69.6)"/>
    </g>
    <g class="cls-9">
      <rect class="cls-4" x="13.82" y="48.37" width="1.65" height="2.37" rx="0.53" transform="translate(-34.94 64.12) rotate(-89.91)"/>
      <rect class="cls-4" x="18.03" y="48.38" width="1.65" height="2.37" rx="0.53" transform="translate(-30.74 68.34) rotate(-89.91)"/>
      <rect class="cls-4" x="22.25" y="48.39" width="1.65" height="2.37" rx="0.53" transform="translate(-26.54 72.56) rotate(-89.91)"/>
    </g>
  </g>
</svg>