<svg xmlns="http://www.w3.org/2000/svg" viewBox="0 0 194.04 328.85">
  <defs>
    <style>.cls-1{isolation:isolate;}.cls-2{fill:#fdfdfd;}.cls-3{fill:#eef1ed;}.cls-4{fill:#877c87;}.cls-5{fill:#a3949e;}.cls-6{fill:#ccc5c7;}.cls-7{fill:#cfcacb;}.cls-8{fill:#f2f3f2;}.cls-9{fill:#f8f8f9;}.cls-10{fill:#ededed;}.cls-11{fill:#8a0203;}.cls-12{fill:#f1f6f6;}.cls-13{fill:#9d929c;}.cls-14{fill:#a0939e;}.cls-15{fill:#a49ca5;}.cls-16{fill:#c5bec1;}.cls-17{fill:#ceced1;}.cls-18{fill:#a596a1;}.cls-19{fill:#b3a9b0;}.cls-20{fill:#b4a7af;}.cls-21{fill:#b9afb6;}.cls-22{fill:#a5969f;}.cls-23{fill:#e4e8e9;}.cls-24{fill:#f5f5f5;}.cls-25{fill:#9a929d;}.cls-26{fill:#a28e9c;}.cls-27{fill:#a699a2;}.cls-28{fill:#9e939d;}.cls-29{fill:#e9e6e6;}.cls-30{fill:#dcdddf;}.cls-31{fill:#a1929d;}.cls-32{fill:#9e8f9b;}.cls-33{fill:#3c4b60;}.cls-34{fill:#c7c3c7;}.cls-35{fill:#aea1ab;}.cls-36{fill:#b8acb4;}.cls-37{fill:#8b747f;}.cls-38{fill:#b9b6bb;}.cls-39{fill:#dcdadb;}.cls-40{fill:#ebf1f3;}.cls-41{fill:#f5f6f5;}.cls-42{fill:#80878a;}.cls-43{fill:#a3939f;}.cls-44{fill:#283448;}.cls-45{fill:#d4d0d0;}.cls-46{fill:#454659;}.cls-47{fill:#9b929c;}.cls-48{fill:#e4e2e1;}.cls-49{fill:#9c8a97;}.cls-50{fill:#f6f7f7;}.cls-51{fill:#fbfbfb;}.cls-52{fill:#b5adb5;}.cls-53{fill:#b8b3b8;}.cls-54{fill:#d3d0d3;}.cls-55{fill:#e1dfdf;}.cls-56{fill:#d5d1d4;}.cls-57{fill:#cfcacd;}.cls-58{fill:#cbc6cb;}.cls-59{fill:#e3e2e3;}.cls-60{fill:#d8d6d7;}.cls-61{fill:#ded9dc;}.cls-62{fill:#ab9ea7;}.cls-63{fill:#dcd9da;}.cls-64{fill:#c4bbbf;}.cls-65{fill:#eae5e2;}.cls-66{fill:#6b3828;}.cls-67{fill:#fafbfa;}.cls-68{fill:#e59e87;}.cls-69{fill:#f6c193;}.cls-70{fill:#824028;}.cls-71{fill:#e8e8e7;}.cls-72{fill:#d9d3d2;}.cls-73{fill:#874835;}.cls-74{fill:#413f3a;}.cls-75{fill:#663f1f;}.cls-76{mix-blend-mode:multiply;opacity:0.2;}.cls-77{fill:#493124;}.cls-78{fill:#181f3a;}.cls-79,.cls-91{fill:#0d0b15;}.cls-80{fill:#231f20;}.cls-81{fill:#9d0a31;}.cls-101,.cls-102,.cls-103,.cls-104,.cls-81,.cls-82,.cls-83,.cls-84,.cls-85,.cls-86,.cls-87,.cls-88,.cls-89,.cls-90,.cls-91,.cls-92,.cls-94,.cls-95,.cls-96,.cls-97,.cls-98,.cls-99{fill-rule:evenodd;}.cls-82{fill:#7c0020;}.cls-83{fill:#560019;}.cls-84{fill:#31000d;}.cls-85{fill:#690019;}.cls-86{fill:#931734;}.cls-88{fill:#09090a;}.cls-89{fill:#2c2d3c;}.cls-90{fill:#3c3c3c;}.cls-92{fill:#050505;}.cls-101,.cls-93{fill:#212121;}.cls-94{fill:#9697a6;}.cls-95{fill:#5b5c6b;}.cls-96{fill:#3d3e4d;}.cls-97{fill:#323232;}.cls-98{fill:#4c4c4c;}.cls-100,.cls-99{fill:#636473;}.cls-102{fill:#bb1830;}.cls-103{fill:#5f081c;}.cls-104{fill:#830022;}</style>
  </defs>
  <g id="boss-head" transform="rotate(0, 100, 65)">
    <path class="cls-66" d="M124.14,17.7c-.55-.14-.78-.84-1.78-.81,1.47,4.5-.1,8.64-1.41,12.82-1-.73-1.43.21-1.9.75s-.76,1.75-2,1.64c-.91-.46-1.14-1.59-2.17-2.18C114,33.6,113.21,37.2,112,40.71A12.59,12.59,0,0,1,108,47.35c-.37.34-.71.66-1.26.42a18.45,18.45,0,0,1-3.3-6.54c-.49-2-1.05-3.9-1.65-6a11.47,11.47,0,0,0-1.64,3.31,6.12,6.12,0,0,1-.56,1.22c-.44.59-.94,1.14-1.36,1.74a2.91,2.91,0,0,1-2,1.27,3.14,3.14,0,0,0-2.5,3.77A5,5,0,0,0,94.22,48c.28,1,.6,2-.19,2.88a1.05,1.05,0,0,1-1.28-1.08,5,5,0,0,0-.46-1.84c-1.15-2.08-2.58-4-3.84-6a34.13,34.13,0,0,1-3.57-8,23.26,23.26,0,0,1-1.31-9.32c0-.26.19-.49.14-.77-.12.12-.11.28-.17.42C82.36,26.39,82,28.85,80.9,31c-.17.34-.21.85-.68.85s-.62-.54-.73-.94a20.24,20.24,0,0,1-.7-8.44,5.46,5.46,0,0,1,1.4-3.29,5.17,5.17,0,0,0,1.22-3.09,2.1,2.1,0,0,0-.76-2,4.25,4.25,0,0,1-1.53-2.22c-.16-.62-.7-.84-1.08-1.24,0-.39.53-.25.63-.54,1.18-3.49,1.07-5,4.72-5.87.91-.27,4.89-2.81,5.8-3.08,1.58-.48,5,.66,6.23-.42,2-.6,4.76,1.59,6.62.57a4.51,4.51,0,0,1,3.13-.24l1.6.72a14.28,14.28,0,0,1,6.77,3.59A3.4,3.4,0,0,0,116,6.48a2.38,2.38,0,0,1,2.39,1.84l.47.33c1.62.85,2.33,2.54,3.58,3.74a1,1,0,0,1,.33.93c.4.61.78,1.23,1.2,1.83A2.51,2.51,0,0,1,124.14,17.7Z"/>
    <path class="cls-70" d="M121.23,36.18a6.51,6.51,0,0,1-.27-2.84c0-.35,0-.69,0-1a4.33,4.33,0,0,1,0-2.34,2.18,2.18,0,0,0,0-.25c-.23-.27-.14-1.09-.53-.82-.58.38-1.52.6-1.68,1.15a5,5,0,0,1-1.48,2c-.57-.71-1.14-1.41-1.7-2.12-.19-.23-.26-.65-.61-.62s-.43.53-.49.82c-.69,3.56-1.68,7-2.72,10.51A12.05,12.05,0,0,1,107.87,47c-.34.3-.52.82-1.12.7a2.08,2.08,0,0,0-.2-.61A23.71,23.71,0,0,1,103,38.14c-.27-1.24-.71-2.44-1.16-4-.81,1.63-1.68,2.86-1.89,4.38.76-.07.83-.58.74-1.18-.17,0,.08-.13.09.05,0,.46-.15.9-.13,1.36a5.46,5.46,0,0,0,.62,2.89.36.36,0,0,0,0,.09,2.18,2.18,0,0,0-.27-.11.56.56,0,0,0-.24.57c.59,1.79.12,3.71.75,5.48.47,1,.25,2.16.73,3.16a1,1,0,0,0,.34.18,3,3,0,0,0,1,.07,54.28,54.28,0,0,1,9.45-.24c1,.05,1.33-.56,1.46-1.44.43-3.13,2.1-5.89,2.78-8.94l-.13-.11h.09l.11,0c.19,0,.15.18.19.29a3.08,3.08,0,0,0,1,2.11l.79.52a1.56,1.56,0,0,0,.37-1.2,15.45,15.45,0,0,0-.5-4.4c.29.67.59,1.34.82,2,.15.44.24,1,.94.75a4.31,4.31,0,0,0,.77-2.48C121.82,37.29,121.24,36.82,121.23,36.18Z"/>
    <path class="cls-70" d="M93.86,47.92a4,4,0,0,1,.73-5.22.94.94,0,0,1,.84-.24,2.79,2.79,0,0,0,2.86-1.61,9.28,9.28,0,0,1,1.1-1.26c.46.58.09,1.07-.21,1.52a31.91,31.91,0,0,0-3.32,6C95.46,48.07,94.53,47.66,93.86,47.92Z"/>
    <path class="cls-70" d="M90.9,45.19a45.39,45.39,0,0,1-5.71-11.07h0a4.92,4.92,0,0,0-.14-1,24.27,24.27,0,0,1-1.17-8.87c0-.48-.24-.41-.53-.26-1.48,2.38-1.7,5.29-3.25,7.76a21.26,21.26,0,0,1-1-9.32,5,5,0,0,1,1.39-3.1,4,4,0,0,0-.22-6,2.83,2.83,0,0,1-.87-1.53,1.18,1.18,0,0,0-1.39-1.16.63.63,0,0,0-.4-.08c-1.29.34-2.13,1-2,2.48,0,.33,0,.67,0,1s0,.53,0,.8c0,.86-.64,1.66-.23,2.55.34.19.29.46.25.78-.17,1.4-.3,2.81-.44,4.21-.5,2.55-.16,5.16-.52,7.72a5,5,0,0,0,.25,2.17c.52.72.17,1.58.35,2.36s.68.27,1,.39.53-.24.29-.62.05-1-.53-1.33c-.16-.09-.29-.46-.07-.55a3.87,3.87,0,0,1,1.3-.31c.2,0,.36.35.27.51-.74,1.36.95,1.75,1.16,2.77.08.39.12,1.34,1,1.47,1.27,2.46,3.3,4.35,5.06,6.45a2.4,2.4,0,0,0,1.51.84c1.22,1.87,1.76,4.07,2.89,6l.15-.12a2.6,2.6,0,0,0,.35-1.33,4.74,4.74,0,0,1,.28-1.63c.11-.26.21-.61.57-.61s.36.32.53.5c.38.44.28,1.2,1,1.43.37-.17.35-.59.58-.85A10.45,10.45,0,0,0,90.9,45.19Z"/>
    <path class="cls-73" d="M120.94,40.37c-.46,0-.44-.38-.54-.71A20.82,20.82,0,0,0,118.84,36c0,2.34.74,4.64.55,7a1.51,1.51,0,0,0-.85-.41h0l-.73-2.17a.36.36,0,0,0-.53,0h0c-.61.57-1.3,1.09-.86,2.12a1.52,1.52,0,0,1-.23,1,16.13,16.13,0,0,0-2,6.2c-.06.81-.44.93-1.08.88-.84.13-1.62-.29-2.44-.24-2.78.14-5.56.33-8.34.5-.45-.91-.22-1.94-.53-2.87.35-.78-.38-1.41-.29-2.2a5.93,5.93,0,0,0-.41-3.37.5.5,0,0,1,.18-.68L101,38.55V37l-1,1.57-.52,1A1.87,1.87,0,0,1,99,40.8a28.94,28.94,0,0,0-3,5.09c-.35.84-.58,1.9-1.93,1.61,0,0-.15.28-.23.42a3.52,3.52,0,0,1,0,2.86c-.49-.29-.92-.59-.79-1.29a2.76,2.76,0,0,0-.52-1.83c-.53,0-.53.41-.53.78-.3-.59-.63-1.18-.89-1.79-.49-1.14-.93-.66-1.35,0-.58.94-.42,2-.55,3-1-1.77-1.4-3.9-2.8-5.5a8.84,8.84,0,0,1-2.26-1.92,39.23,39.23,0,0,1-4.37-5.5c-.73-1.33-1.78-2.51-2-4.09-.11-.78-.67-.8-1.3-.66s-1,.47-.69,1.2c.21.44.51.88.12,1.48-.5-.42-.31-.93-.41-1.35s.14-1-.58-1.08c-.12.87.29,1.79-.27,2.61a.9.9,0,0,0-.25.78c.16.75.44,1.46.56,2.21.53,2.72,1.22,5.41,1.54,8.18a16.68,16.68,0,0,1,.27,2.11c.27,1.12.08,2.29.42,3.39.25,1.39.39,2.78.57,4.17a6.86,6.86,0,0,1,1.91-.25A1.06,1.06,0,0,0,81,55.24a2.19,2.19,0,0,1,.57-.29c2.87-.61,5.75-1.2,8.62-1.8l2.84,0a57.58,57.58,0,0,1,8.2-.26c.09,0,.67-.09.8,0l1.3,0c1.3.35,2.67.06,4,.5.41.31.94,0,1.36.25l.47,0a40.78,40.78,0,0,1,7.53,2,.66.66,0,0,0,.41.29c.64.2,1.35.21,1.82.79.76-.17.53-.81.62-1.31.21-1.48.17-3,.42-4.46a40.66,40.66,0,0,0,.37-4.54,16.61,16.61,0,0,0-.11-1.87,4.39,4.39,0,0,1,.5-2.15C120.51,41.71,120.93,41.07,120.94,40.37Z"/>
    <path class="cls-68" d="M77.53,51.57c.1,1.39.9,2.75.24,4.18L76.52,56c-.88.22-1.67.86-2.66.58a.72.72,0,0,1-.12-.77C75.32,55,75.32,55,75,53c-.08-.55-.26-1.11.24-1.57a2.46,2.46,0,0,1,1.25-.2A1.38,1.38,0,0,1,77.53,51.57Z"/>
    <path class="cls-69" d="M127.28,38.8c-.43-1.26-1.59-1.63-2.67-2-.68-.22-1-.62-1.08-.33-.51.29-1.12-.08-1.62.25v.06c-.32.23-.06.76-.44,1-.18.86-.35,1.73-.53,2.6-.52.63-.83,1.29-.27,2.06l0,0-.28,0a2.27,2.27,0,0,0-.44,1.8,5.71,5.71,0,0,1-.07,2.14c-.09,1.55-.18,3.11-.28,4.67-.13.69-.5,1.5.76,1.5.56-.19.45-.55.25-.93a1.15,1.15,0,0,1,0-1.32,2.49,2.49,0,0,0,1.91,2c.83.11,1.67.27,2.3-.51s.89-1.38,1.33-2.07c1.09-1.69.87-3.66,1.29-5.48.88-.12,1.25.24,1.09,1.11A8.92,8.92,0,0,0,127.28,38.8Zm-6.07,7.3a1,1,0,0,0-.13.16,2.81,2.81,0,0,1,0-.29l0,.08a.75.75,0,0,0,.15,0S121.23,46.09,121.21,46.1Z"/>
    <path class="cls-68" d="M121,47.66c.13-1-.29-2.12.26-3.12V46.1C121.13,46.62,121.42,47.21,121,47.66Z"/>
    <path class="cls-68" d="M127.26,41.16V39.84A.92.92,0,0,1,127.26,41.16Z"/>
    <path class="cls-68" d="M119.63,54.69c0-.44,0-.85.53-1,.12.37,1.07.33.52,1Z"/>
    <path class="cls-69" d="M77.08,48.12c0,.62-.12,1.17-.82,1.37a2,2,0,0,1,.32-2.5c.31-.29.1-.63.22-.93A6.25,6.25,0,0,1,77.08,48.12Z"/>
    <path class="cls-68" d="M72,52.61a4.13,4.13,0,0,1,3.16-1c0,1.37.65,2.7.14,4.14H73.88c-1.74.68-2.52.21-2.75-1.64C71.44,53.6,72.15,53.35,72,52.61Z"/>
    <path class="cls-68" d="M71.27,53.91c.1,1.69,1.27,1.88,2.61,1.82v.78l-3.1,1.25c-.49-.27-.35-.83-.56-1.23-.1-.78-.62-1.46-.58-2.27-.13-.7-.48-1.53.82-1.39l.27.26C71,53.36,71.44,53.41,71.27,53.91Z"/>
    <path class="cls-68" d="M127.39,44.27a2.05,2.05,0,0,0-.47,1.44,12,12,0,0,1-.22,1.79c-.27,1.57-1.33,2.78-1.91,4.21,0,0,0,.09,0,.13a6.38,6.38,0,0,1-2.3.24h0a2.39,2.39,0,0,1-1.6-2.07.73.73,0,0,0-.79.46c-.43.85.28,1.28.54,1.88h0c-1.1.17-1.1-.55-1.05-1.29a18.89,18.89,0,0,0-.42,4.37h0l-.34,1.33a8.8,8.8,0,0,0,3,1.35h0a1.37,1.37,0,0,0,1.39.48,10.62,10.62,0,0,0,2.48-1.78h0a4.84,4.84,0,0,0,1.7-2.71,29.8,29.8,0,0,0,1.11-8.71C128.8,43.78,128.76,43.74,127.39,44.27Zm-7.54,10.18a2.83,2.83,0,0,0,.25-.65c.06.31.39.48.53.74A1.41,1.41,0,0,0,119.85,54.45Z"/>
    <path class="cls-69" d="M77.08,48.12c-.33.28-.13-1.74-.28-2.06a52.06,52.06,0,0,0-1.54-8.3,1.43,1.43,0,0,0-1.11,0,.78.78,0,0,0-.42-.42,3.68,3.68,0,0,1-1.18-.61L72,37c-1,.38-2,.61-2.62,1.61h0l-.29.27a2.53,2.53,0,0,0-.77,1.51l-.8,3.4c-.06,1.53.26,3,.26,4.54.4,1.11.61,2.28,1.07,3.36-.26.17-.07.5,0,.77v.46c-.08.56.6.76.6,1.28l.2.11c.08-.5-.07-1.14.53-1.33a.64.64,0,0,1,.13.15.91.91,0,0,0,.48.24c.53,0,.9-.32,1.34-.52a14.09,14.09,0,0,1,3.08-1.21l1.31,0h1Z"/>
    <path class="cls-68" d="M68.08,49.53a7.87,7.87,0,0,1-.52-2.39c-.07-1.13-.42-2.26,0-3.4a23.2,23.2,0,0,1,.54,4.7A1,1,0,0,1,68.08,49.53Z"/>
    <path class="cls-68" d="M68.08,49.53c0-.36,0-.73,0-1.09a15,15,0,0,1,1.05,3.11c-.33.2-.23.56-.31.86A12.13,12.13,0,0,1,68.08,49.53Z"/>
    <path class="cls-68" d="M71.27,53.91l-.54-.78L72,52.61C72.91,53.69,72.18,53.85,71.27,53.91Z"/>
  </g>
  <g id="boss-legs">
    <path class="cls-71" d="M91,56.26l-8.15,0c1.42-.54,2.9-.22,4.34-.22C88.43,56,89.74,55.69,91,56.26Z"/>
    <path class="cls-72" d="M107.28,53.38c.45.1,1-.07,1.36.25C108.17,53.63,107.66,53.85,107.28,53.38Z"/>
    <path class="cls-74" d="M102.9,314.56v4.64s17.63.21,19.13,0,1.22-2.79,3.93-1.87,7.9,1.22,12,.67,3.22-3.44,3.22-3.44-10.85-2.22-14.65-2.46-12.2-1.23-15.46-1S102.9,314.56,102.9,314.56Z"/>
    <path class="cls-75" d="M138.44,306.68c-1.68-1.34-8.95-.49-9.5-8.12-.35-5,0-3.2-1.35-8.36s-12.48-4.19-15.46-3.94-5.15,6.53-5.16,8.83-3.33,7.56-4.07,13.22,0,6.25,0,6.25a83.32,83.32,0,0,1,9.5-.09c7.93.59,10.1-2.39,12.51-1.26,4.58,2.13,10.39,1.05,12.21,1.47,4,.93,4-.12,4-.12S139.85,307.82,138.44,306.68Z"/>
    <g class="cls-76">
    	<path class="cls-77" d="M116.89,314.27c6-3.2,4.38-6.47,10.16-3.88,4.23,1.89,3.59,3.61,8.91,3.61,1.71,0,3.48-.39,5.08,0,.07.32.11.52.11.52s0,1.05-4,.12c-1.82-.42-7.63.66-12.21-1.47-1.88-.88-3.62.73-8,1.21C116.86,314.37,116.84,314.3,116.89,314.27Z"/>
    	<path class="cls-77" d="M129.52,301.24a5.23,5.23,0,0,1-1,.38c-2,.53-3.94-.28-5.92-.61a45,45,0,0,0-7.43-.51,9.51,9.51,0,0,0-6.81,2.83c-2,1.83-3.19,3.94-2.86,6.53a13.07,13.07,0,0,1,.2,2.86c-.06.57-.21,1.14-.31,1.71-1.47.06-2.5.13-2.5.13s-.74-.59,0-6.25S107,297.38,107,295.09s2.17-8.58,5.16-8.83,14.1-1.23,15.46,3.94,1,3.36,1.35,8.36A9.41,9.41,0,0,0,129.52,301.24Z"/>
    </g>
    <path class="cls-74" d="M87.23,312.37l.48,4.62s-17.52,1.74-19,1.66-1.51-2.67-4.11-1.52-7.74,1.91-11.85,1.72-3.56-3.15-3.56-3.15,10.56-3.15,14.31-3.72,12-2.29,15.29-2.33S87.23,312.37,87.23,312.37Z"/>
    <path class="cls-75" d="M51,307.62c1.53-1.48,8.86-1.27,8.59-8.9-.17-5-.34-3.19.47-8.45s12-5.25,15-5.26,5.82,6.05,6.07,8.33,4.11,7.25,5.44,12.81.67,6.22.67,6.22a83,83,0,0,0-9.46.74c-7.84,1.28-10.31-1.5-12.59-.17-4.33,2.52-10.24,2-12,2.53-3.92,1.27-4,.23-4,.23S49.74,308.88,51,307.62Z"/>
    <g class="cls-76">
    	<path class="cls-77" d="M73.27,313.31c-6.29-2.67-5-6.07-10.52-3-4,2.25-3.2,3.9-8.49,4.37-1.7.15-3.5-.09-5.06.49,0,.32,0,.52,0,.52s.1,1,4-.23c1.76-.57,7.67,0,12-2.53,1.77-1,3.68.42,8.14.51C73.31,313.4,73.32,313.33,73.27,313.31Z"/>
    	<path class="cls-77" d="M59.32,301.43a5,5,0,0,0,1,.29c2.09.35,3.89-.61,5.83-1.12a45.07,45.07,0,0,1,7.34-1.16,9.77,9.77,0,0,1,7.08,2.23c2.15,1.65,3.59,3.65,3.53,6.26a12.35,12.35,0,0,0,.11,2.85c.12.56.33,1.12.48,1.68,1.48-.07,2.51-.09,2.51-.09s.67-.65-.67-6.22-5.2-10.52-5.44-12.81S78.05,285,75.05,285s-14.17,0-15,5.26-.64,3.44-.47,8.45A8.67,8.67,0,0,1,59.32,301.43Z"/>
    </g>
    <path class="cls-78" d="M43.12,190.26c5-5.38,8.8-11.63,14.05-16.77s11.42-6.8,18.73-7.5c17.94-1.71,37.86-3.75,54.4,3.88l3.8,9.84c2.82,5.15,7.3,9.84,11,14.46,3.2,4,5.49,5.64,6.87,10.57,1.14,4.07.22,5.15,0,8.92a9.72,9.72,0,0,1-1.9,5.4c-1.33,2-1-.12-1,6.59,0,8.88-2,15.1-4.35,23.16s-5.81,15.71-8.09,23.68c-2.64,9.24-1.24,19-4.26,28.2-2.06.55-4.78-.31-7-.41a25.14,25.14,0,0,1-6.38-1.1c-4.54-1.26-8.71-1.51-13.6-1.92-.17-19.94,4.52-40.13,10.48-60.95,2.56-8.92,0-27.13,0-27.13-8.58-8-19.27-3.45-29.65-.15-10.68,3.39-19.61,8.24-27.18,15.87l-.93.2c2.09,2.93,1.66,5.8,2.84,8.92s4.33,5.06,6.07,7.87c3.67,5.92,5.35,12.68,6.59,19.28s4.46,12.34,6.16,18.84c1.3,4.95,5.75,12.84-1.77,14.82-3.89,1-8,.41-11.72,2.13-3.09,1.43-5.47,3.56-8.77,4.74-6.08-12.4-9.87-24.24-13.84-37.34-2.11-7-12.06-27.75-15.19-34.42-2.91-6.19-1.79-1.05-3.44-7.66C22.61,212.19,33.44,200.78,43.12,190.26Z"/>
    <g class="cls-76">
    	<path class="cls-79" d="M56.65,299.66c1.88-2.76,4.94-4.42,8.59-6.25,5.71-2.85,8.09-6.46,8-12.4-.07-5.56-.06-10.39,1.47-15.79,1.52,5,3.79,9.63,5.14,14.79,1.3,4.95,5.75,12.84-1.77,14.82-3.89,1-8,.41-11.72,2.13-3.09,1.43-5.47,3.56-8.77,4.74C57.27,301,57,300.34,56.65,299.66Z"/>
    	<path class="cls-80" d="M25.39,223.28a7.13,7.13,0,0,1,3.07-1.59c4.74-1,6,5.17,6.41,8.16A30.52,30.52,0,0,1,34,241.52c-2.25-4.83-4.3-9.15-5.44-11.58C25.83,224.1,26.68,228.34,25.39,223.28Z"/>
    	<path class="cls-79" d="M86.32,209c-10.68,3.39-19.61,8.24-27.18,15.87l-.93.2c2.09,2.93,1.66,5.8,2.84,8.92s4.33,5.06,6.07,7.87c.11.17.19.34.29.51a82.71,82.71,0,0,0-9.3-7.84c-5.78-4.32-7.62-9.2-8.06-15.93,1.34-.28,2.69-.57,4-1,7.16-2.28,10.73-8.8,15.4-13.74a43.52,43.52,0,0,1,28.46-13.8c8.42-.61,17.69,1.37,23.19,7.58,3.67,4.15,5,9.43,5,14.66,0,4.58-.67,9.1-.36,13.69s.7,9-.79,13.58c-1.74,5.3-4.29,10.19-5,15.74-.79,5.84-.36,11.79-.53,17.65-.15,5.05-.53,10.29,1.91,15s7.1,7.85,11.67,10.77c-.17.65-.35,1.29-.56,1.93-2.06.55-4.78-.31-7-.41a25.14,25.14,0,0,1-6.38-1.1c-4.54-1.26-8.71-1.51-13.6-1.92-.17-19.94,4.52-40.13,10.48-60.95,2.56-8.92,0-27.13,0-27.13C107.39,201.16,96.7,205.73,86.32,209Z"/>
    	<path class="cls-80" d="M152,213.66a9.72,9.72,0,0,1-1.9,5.4c-1.33,2-1-.12-1,6.59,0,1.57-.09,3-.2,4.48-.47-2.09-.95-4.17-1.49-6.23-.66-2.51-1.39-5-2.13-7.49,1-.08,2,0,2.9-.07,1.12-2.57-2.73-2.61-2.09-4.6,1.85,0,4.26-.07,6,.75C152.06,212.85,152,213.24,152,213.66Z"/>
    </g>
  </g>
  <path class="cls-2" d="M140.63,84c.3,1,12.58,7.29,13.14,8.14a17.72,17.72,0,0,1,1.11,3.14c.66,4.44,2.14,8.7,3,13.1.26,1.15.38,2.31.65,3.45a1.65,1.65,0,0,1-2.19,2.11,17.46,17.46,0,0,1-5.94-3,3.11,3.11,0,0,1-1-2A43.44,43.44,0,0,0,146,98.17a11.14,11.14,0,0,1-.57-2.73c-.45,1.67-.83,3.17-1.19,4.67a18.16,18.16,0,0,1-2.56,5.67c-.68,1-1.35,1-1.88-.14a11.32,11.32,0,0,1-.68-4.46c-.08-1.47,0-3,0-4.42-.11,5.5-.18,11-.18,16.52,0,.7.17,1.54-.83,1.83a5.39,5.39,0,0,1-3-.91.91.91,0,0,1,.29-1.52c.89-.51.91-1.26.92-2.1,0-3.32-.1-6.63.07-9.94.47-1.66.17-3.35.25-5a3.68,3.68,0,0,1,.22-1.65c.37-.69,1.52-1.3,1.39-1.71a2.6,2.6,0,0,1,.38-2.05c.08-.15.08,0,.05-.11-.28-1.87,1.24-3.1,1.72-4.71a3.14,3.14,0,0,0,.07-1.39"/>
  <path class="cls-3" d="M22.26,161.46c1.67-.13,20.63-16.23,22.33-16.15.21.14,11.26,6.09,11.14,6.26,0,1.09-9.53,6.77-9.53,7.85-2.77.49-24.44,6.32-27.29,6.27a7.73,7.73,0,0,1-2.43-.35l-.26-.48a1.37,1.37,0,0,1,.38-.66,17.34,17.34,0,0,1,4.54-2.64A1.36,1.36,0,0,1,22.26,161.46Z"/>
  <path class="cls-4" d="M4.2,139.3c-.06.61.27,1.28-.26,1.83C4.11,140.53,3.83,139.87,4.2,139.3Z"/>
  <path class="cls-5" d="M191.16,156.5a10.58,10.58,0,0,1-8.45,8.29c-.39-.3-.85-.16-1.29-.19-.92-.24-1.72.75-2.63.46-.58-.18-3.42.36-3.77-.12-74.24,15.4-23.9.39-23.93.51-.73-1.13,19.67-6,19.85-7.23a1.57,1.57,0,0,1,1.44-.74c.77,0,1.11-.41,1.05-1.16a10.24,10.24,0,0,0-.2-1.56,1.56,1.56,0,0,1,.12-.77,1.29,1.29,0,0,1,1.66-.63,1.24,1.24,0,0,0,1.85-.8c.58-1.38,1.12.07,1.7.07a5.1,5.1,0,0,1,1.3,1.75,4.84,4.84,0,0,0,4.58,2.59C186.7,156.93,188.92,156.64,191.16,156.5Z"/>
  <path class="cls-6" d="M191.16,156.5c-2.22,1-4.59.66-6.92.81a4.45,4.45,0,0,1-4.27-2.14c-.59-.85-1.14-1.72-1.71-2.58-1.39-2.12-1.47-4.51-1.46-6.92.65,0,.65,0,1.15,1.31a7.48,7.48,0,0,0,1.6,2.92,3.36,3.36,0,0,0,3,1,6.53,6.53,0,0,0,4.78-3,19.65,19.65,0,0,0,2.5-4.67,5.26,5.26,0,0,1,.64-1.16c1.69-.56,2.16-1.8,2-3.43a.67.67,0,0,1,.34-.65,59.63,59.63,0,0,1,0,10.35A25.65,25.65,0,0,1,191.16,156.5Z"/>
  <path class="cls-7" d="M192.76,137.94a4.57,4.57,0,0,0-.12,1.41c.3,1.48,0,2.46-1.74,2.58-.1,0-.19.16-.29.24a1.1,1.1,0,0,1-.24-1.09,32.32,32.32,0,0,0,.37-6.73c0-.56-.05-1.15.43-1.58,1,1.24,1.08,2.75,1.38,4.2C192.28,137.36,193,137.56,192.76,137.94Z"/>
  <path class="cls-8" d="M177.73,147.12l-.78-1.57c-.59-.51-.54-1.3-.81-2a24.55,24.55,0,0,0-4.32-8.62,7.55,7.55,0,0,0-1.06-1.13c-1.41-1.6-2.46-3.51-4.24-4.79-3.46-3.14-6.89-6.33-11-8.69a2.12,2.12,0,0,1-.39-.34c-1.09-.94-2.37-1.64-3.48-2.55a3.84,3.84,0,0,1-1-1,3.54,3.54,0,0,0-1.29-1.6,33.3,33.3,0,0,1-7-6.18,7.43,7.43,0,0,0-2-1.63,14.91,14.91,0,0,0-.21,6.16,3.32,3.32,0,0,1-.18,2.11,1.45,1.45,0,0,1-1.91-.07.45.45,0,0,1-.08-.43c.62-.09.57-.55.57-1,0-3.92-.15-7.85.07-11.76.12-2.29.07-4.6.29-7.23a2.22,2.22,0,0,1,.42,1.74,40.07,40.07,0,0,0,.53,8.26,2.91,2.91,0,0,0,.35,1c.34.53.5.73,1,0,2.12-3.09,2.87-6.61,3.65-10.14a8.31,8.31,0,0,1,.31-.92c.35.23.67.53.66.87,0,2.66,1.78,4.72,2.32,7.21.42,2,1.25,3.85,1.42,5.88.13,1.7,1.34,2.44,2.63,3.1a21.22,21.22,0,0,0,4,1.81c1.44.39,2.34-.36,1.9-1.74-.38-1.17-.43-2.37-.69-3.54.56-1.38.78-1.39,1.77-.29a12.13,12.13,0,0,1,1.88,2.47c3.49,5.12,7,10.23,10.11,15.57a7.17,7.17,0,0,0,1.75,2,6.55,6.55,0,0,1,2,2.52c0,1.43.56,2.77.73,4.18a3.19,3.19,0,0,0,2.23,3c.28.08.55.57.23.71-.89.42-.49.91-.22,1.43a1,1,0,0,1,0,.87c-.08.25-.31.61-.15.73,1.56,1.2,0,2.7.43,4A1.26,1.26,0,0,1,177.73,147.12Z"/>
  <path class="cls-8" d="M136.72,100.26v11.29c0,.62.08,1.16-.86,1.26-.59.07-1.09.58-.47,1.28-.53.39-1.09.15-1.62,0-2.29-.47-4.6-.83-6.88-1.36a3.79,3.79,0,0,0-1.21-.2,4.48,4.48,0,0,1-.82-.1,13.91,13.91,0,0,1-2.8-.57c-.6-.38-.43-.93-.35-1.47a5.19,5.19,0,0,0,.1-2c.1-1.42,1.23-2.14,2.09-3.06a50.2,50.2,0,0,0,6.88-7.75,37.87,37.87,0,0,0,3.57-5,5.3,5.3,0,0,1,1.22-1.71,11.34,11.34,0,0,1,.89-.94c.38-.28.64-.19.8.24A7.21,7.21,0,0,1,137,94c-.38,1-.07,2-.12,3.07A16.33,16.33,0,0,1,136.72,100.26Z"/>
  <path class="cls-9" d="M136.72,100.26c-.19-3.48.27-7,.26-10.42a.52.52,0,0,1-.14-.52,26.54,26.54,0,0,1,1.48-2.72,10.13,10.13,0,0,1,1.13-2.07,1.49,1.49,0,0,1,1.18-.51c0,.4.52.58.14,1.23a16.64,16.64,0,0,0-1.52,3.2c-.34,1-1.16,2.55-.79,3.24.63,1.14-.33,1.23-.62,1.51a3.12,3.12,0,0,0-.89,2.32C136.91,97.1,137.31,98.71,136.72,100.26Z"/>
  <path class="cls-10" d="M153,91.77l.49.37a12.63,12.63,0,0,0,1.61,1.74h0a2.19,2.19,0,0,0,1.07,1L157.35,96a63.54,63.54,0,0,1,4.41,5c.29.33.75.66.4,1.21a13.68,13.68,0,0,1-3.22-2.54c-1.38-1.24-2.36-2.87-3.89-4a16.82,16.82,0,0,0-1.59-2.64A2.63,2.63,0,0,1,153,91.77Z"/>
  <path class="cls-11" d="M28,156.73a.63.63,0,0,0-.08-.23c-.42-.68-.65-1.33.24-1.84l.05,0C28,155.37,28.34,156.09,28,156.73Z"/>
  <path class="cls-12" d="M92.64,122.69c-.36,1-36.36,21.85-36.72,22.9-.35.51-23.5,0-28.73-.31-1-.18-2.28-1.14-3.24-1.44-.62-.45-.32-1-.12-1.51A21.09,21.09,0,0,1,27,136.58c.64-.77,1.21-1.59,1.8-2.39,1.13-1,1.87-2.34,3.16-3.17.36-.22.64-.58,1.13-.52a.81.81,0,0,1,.42.28c.42.49,32.5-25.11,33-24.64C65.28,109,93.54,119.6,92.64,122.69Z"/>
  <path class="cls-13" d="M43.09,124.7l-1.29,1c-.27-.17-.32-.77-.74-.58a1.05,1.05,0,0,1-1.52-.5c-.25-.38-.57-.3-.92-.13a2.38,2.38,0,0,0-.82.62c-.38.46-.81,1.16-1.44.87s-.34-1-.27-1.55a5.28,5.28,0,0,1,1.82-1.63q6.65-5.13,13.73-9.65c1-.62,1.72-1.62,3-1.8,1,1.23,2,2.42,1.1,4.15-.72.92-1.9,1.31-2.62,2.24"/>
  <path class="cls-14" d="M36.29,124.5l.14,1.33c1-.14,1.13-1.29,2.07-1.64.74-.27,1.07-.33,1.4.38.13.28.26.78.72.39,1.26-1.07,1.19-.13,1.18.74-.15.12-.3.24-.46.35a4.09,4.09,0,0,0-1.24.87c-.35.36-.82.58-1.2.91a12.14,12.14,0,0,0-3.2,2.59c-.33.28-.81.39-1,.81-1.54,1-2.52,2.52-3.89,3.67-.84.3-1.69-.31-2.55.07-.34.15-.62-.21-.56-.52.16-.76-.35-1.4-.29-2.13a31.42,31.42,0,0,1,4.89-5c.91-.85,1.91-1.62,2.9-2.4C35.49,124.71,35.76,124.28,36.29,124.5Z"/>
  <path class="cls-15" d="M40.28,127.15l-.31-.34a1.23,1.23,0,0,1,1.37-.76C41.18,126.6,40.6,126.76,40.28,127.15Z"/>
  <path class="cls-16" d="M7.63,151.29a54.65,54.65,0,0,1,.28-6c.32-.06.48.16.6.39a11.47,11.47,0,0,0,6.26,5.38c.81.31,1.58.7,2.38,1,.43.29,1.05-.12,1.42.37a3.47,3.47,0,0,1-.69,2.73,6,6,0,0,1-4.77,1.92,5.87,5.87,0,0,1-5.21-5C7.84,151.83,7.92,151.5,7.63,151.29Z"/>
  <path class="cls-17" d="M37.89,151.57c-.33.59-10.6,7.25-10.76,7.85-.28.31-1.77-1.4-2.27-1.54-1.05-.57-1.2-2.54-1.84-3.41s.42-2.14.59-3.26.39-2,.6-3c-.43-.77-.15-1.31.68-1.31a3.71,3.71,0,0,1,3.3,1.32C35.22,149.44,76.69,151.18,37.89,151.57Z"/>
  <path class="cls-18" d="M28.77,144.72c-1.06-.21-2.13-.33-3.19-.49h0c-.14-.88.45-1.53.72-2.28,1-2.67,3-4.71,4.49-7a3.7,3.7,0,0,0-3-.07c.68-1,0-1.72-.15-2.51a7.91,7.91,0,0,0-3,3.69,2.38,2.38,0,0,1-.39,1.21c-1.72,2.74-2.22,5.84-2.68,8.95a1.56,1.56,0,0,0,.08,1,.87.87,0,0,1-.16.17,16.49,16.49,0,0,1-1.68,5A10.51,10.51,0,0,1,17.63,155a7.27,7.27,0,0,1-2.93,1.61c-3.07.5-5.35-1-6.32-4.07-.16-.48,0-1.12-.68-1.37a1.14,1.14,0,0,0,.29-.85c-.06-1.64.33-3.25.24-4.88a1.11,1.11,0,0,0-.68-1l-.18.13,0-.13a.87.87,0,0,0,.13-.85,14.9,14.9,0,0,1-1.06-9.35c.09-.41.2-.86-.19-1.21a6.85,6.85,0,0,0-1.3,2.6c-.57.51-.36,1.31-.74,1.89,0,.59,0,1.18,0,1.77h0c-.32.58.09,1.26-.26,1.83a33.41,33.41,0,0,0-.13,6.4,1.52,1.52,0,0,0,.12,1.19,19,19,0,0,0,1.17,7,11,11,0,0,0,2.29,4.44l1,1.6a3.76,3.76,0,0,0,2.38,1.79l1.58.74h0a8.7,8.7,0,0,0,4.21.79.9.9,0,0,0-.06-.7c-.3-.64.15-.95.58-1.28a12.47,12.47,0,0,1,4.9-2c.46-.11.33.4.61.37a17.74,17.74,0,0,0,4.63-.83,1.84,1.84,0,0,0-.49-2.43c-.51-.5-.38-.84.13-1.19-.35-.75-1.15-.9-1.79-1.2a1.46,1.46,0,0,1-.89-2.07,14,14,0,0,0,.93-4.66,1.72,1.72,0,0,0-.17-.19c-.06-1,.58-1.1,1.36-.86s22.68,2.8,23.56,3.14c.35-1.47,5.69-4.05,6-5.52C55.53,145.84,29.23,144.81,28.77,144.72Z"/>
  <path class="cls-19" d="M25,135.87a2.45,2.45,0,0,1-.64,2c-1.82,2.92-2,6.23-2.49,9.48a15.5,15.5,0,0,1-1.31,4.35c-.17.29-.22.65-.53.86-.58-.46-.45-1.1-.35-1.67a6.86,6.86,0,0,0,0-1.92c.15-1.85.73-3.61,1.05-5.42a19.93,19.93,0,0,1,3.87-7.75A.49.49,0,0,1,25,135.87Z"/>
  <path class="cls-20" d="M22.35,161.18a19.85,19.85,0,0,0-6,3.4c-.49-.56-.57-.91.19-1.49A13,13,0,0,1,22,160.72C22.47,160.62,22.5,160.81,22.35,161.18Z"/>
  <path class="cls-21" d="M20,149.2c.29,1.13-.36,2.26,0,3.39a7.36,7.36,0,0,1-2.1,2.6l.53-2.85a25.07,25.07,0,0,0,.87-2.38C19.36,149.62,19.43,149.16,20,149.2Z"/>
  <path class="cls-22" d="M176.4,143.48c.19.69.37,1.38.55,2.07a34.4,34.4,0,0,0,1.31,7c-.75-.43-1.11-.32-1.35.61a1,1,0,0,1-1.53.56,1.7,1.7,0,0,0-1.89.14c-.59-.06-.6-.58-.66-1-.21-1.22-.6-2.39-.75-3.61a1.43,1.43,0,0,0-.5-1.84c-18.7,4.43-19.81-.41-19.69-1.1s19.36-1,19.82-1.27.43-.28.59-.64a8.15,8.15,0,0,0,.64-.94c.26-.62.79-.91,1.3-.37C174.93,143.9,175.75,143,176.4,143.48Z"/>
  <path class="cls-23" d="M172.75,148.83a8.72,8.72,0,0,1,.89,3.32,10.87,10.87,0,0,0,.41,1.34l0,.77c2.33,8.22-29.29,10.49-29.53,10.2-.81-1.62,4.95-12.66,3.82-14.15-.08-.12,23.56-2.79,23.66-2.87C172.54,147.21,172.32,148.37,172.75,148.83Z"/>
  <path class="cls-24" d="M176.16,132a9.47,9.47,0,0,0,1.84,2.34h0c1.35,1.74,2.66,3.53,4.11,5.17a9.26,9.26,0,0,0,5.45,3.15c.86.14,1.6.75,2.53.53a15.24,15.24,0,0,1-3.44,6,6.07,6.07,0,0,1-4.9,2c-2-.07-3.25-1.44-4-4.14a4.18,4.18,0,0,0,.11-2.52c-.12-.75-.15-1.37.93-1.5-1.08-.61-1.76-1.07-1.12-2.38.28-.59-.5-1.53-.42-2.4.33-.27.48.53.87.18,0-.48-.44-.44-.71-.62-.78-.53-1.72-.64-1.81-2.14a10.12,10.12,0,0,0-1-4.15c-.23-.44,0-.62.21-.87C175.74,130.7,175.94,131.37,176.16,132Z"/>
  <path class="cls-2" d="M191.17,132.77c-.64-1.85-2.3-2.76-3.69-3.92l-3.13-2.38c-.31-.2-.36-.6-.65-.81s-.42-.41-.62-.62l-2-2c-.13-.12-.25-.25-.39-.37-.33-.33-.75-.56-1.08-.9-.53-.55-1.77-1.49-1.79-1.59l-3.27-3.38c-.84-.93-3.08-3.48-3.45-3.9a42.23,42.23,0,0,1-2.64-3.32,15,15,0,0,1-2.11-2.59,13.92,13.92,0,0,1-1.08-1.33,2.69,2.69,0,0,0-.33-.41,15.36,15.36,0,0,1-1.78-2.24,3.77,3.77,0,0,0-1.38-1.45,26.49,26.49,0,0,1-4.68-4.23c-.72-.79-1.24-1.87-2.5-2,.43,4.45,2.11,8.64,2.89,13,.48,0,.39-1.56,1.21-.48a15.44,15.44,0,0,1,2.21,2.82c.93,1.4,1.89,2.78,2.79,4.2,1.87,3,4,5.77,5.7,8.87a16.88,16.88,0,0,0,2.74,4.05c1,.94,1.83,1.92,2.7,2.93.65.2.72,1,1.27,1.27h0a3,3,0,0,0,1.82,2.44l0-.05a.29.29,0,0,0,0,.14c2.14,3.12,4.17,6.39,7.84,8,1.33.57,2.75,1.29,4.33.72l.52-1C191.37,139.07,191.12,135.91,191.17,132.77Zm-12.77.59a2,2,0,0,1-.17-.33A.8.8,0,0,1,178.4,133.36Zm-.31.92c.22-.17.51-.29.44-.66C178.79,134.07,178.35,134.12,178.09,134.28Z"/>
  <path class="cls-25" d="M155.34,119.8a69,69,0,0,1,10.19,7.89c.41.37.78.79,1.17,1.19.2.29.3.61.5.9s.14.68-.33.89c-1.15.49-1.27.86-.39,1.8.67.73.62,1.14-.26,1.51a1.78,1.78,0,0,1-1-.42c-1.74-1.63-3.44-3.29-5.19-4.91a1.84,1.84,0,0,1-.6-1c-.05-.3,0-.64-.28-.85a23.6,23.6,0,0,1-2.37-2.9c-.63-.94-1.76-1.47-2.23-2.56C155.05,121,154.62,120.1,155.34,119.8Z"/>
  <path class="cls-26" d="M155.34,119.8c-.31.49.33,1.42-.74,1.55-.61.22-1-.23-1.37-.53a21.28,21.28,0,0,0-4.82-2.8c-2-.72-3.73-1.85-5.68-2.61-.67-.27-1.27-.8-2,0-.12.13-.25-.16-.35-.3a22.92,22.92,0,0,1,.09-6.3c.45-.5.84-.11,1.11.17a49.1,49.1,0,0,0,8.64,6.88,7.75,7.75,0,0,1,.66.63Z"/>
  <path class="cls-27" d="M176.4,143.48c-.33.07-.75,0-1,.23-.46.42-.66.42-1.08-.11s-1.06-.79-1.25.24c-.08.41-.36.52-.64.69s-.53-.26-.62-.53a34.37,34.37,0,0,0-2.8-6.14,1,1,0,0,1-.1-.51,2.93,2.93,0,0,0,.78-2c0-.71.82-1.11,1.17-1.73a20.11,20.11,0,0,1,4.94,8.06C176.07,142.24,176.22,142.87,176.4,143.48Z"/>
  <path class="cls-28" d="M170.9,133.58c-.12.48,0,1-.67,1.26-.42.14-.32.49-.23.76.29.94-.08,1.46-1,1.66-1.19-.94-2.56-1.73-2.9-3.39.4-.34,1.1-.6.12-1.17a2.13,2.13,0,0,1-.65-.87c-.33-.88.28-1.5,1.58-1.53a2,2,0,0,1-.44-1.42C168.53,130.07,169.59,131.94,170.9,133.58Z"/>
  <path class="cls-29" d="M150.91,116.44a36.42,36.42,0,0,1-10-7.89c-.45-.09-.48.22-.54.53a14.11,14.11,0,0,0-.18,2.59c0,.47.07,1-.34,1.34a9.48,9.48,0,0,1-.15-4.07,1.92,1.92,0,0,1,.11-.37c.14-.61-.22-1.59.41-1.77s1.4.63,1.87,1.18a43.55,43.55,0,0,0,5.8,5.56c.71.57,1.49,1,2.23,1.57A2.61,2.61,0,0,1,150.91,116.44Z"/>
  <path class="cls-30" d="M139.87,113a16.26,16.26,0,0,1,.27-4.23c.15-.52.31-.88.79-.23-.56.69-.21,1.49-.23,2.23,0,1.5.05,3,.08,4.51a.4.4,0,0,1-.09.39,1.21,1.21,0,0,1-.82-.29Z"/>
  <path class="cls-31" d="M124.1,105.47c-.59,1-2,1.49-2.07,2.87-.7-2.48-2.82-2.65-4.87-3-.09-.7-.09-.7,1.09-1.18-.73-.21-1.06-.83-1.7-1.16-.4.94.49,1.69.26,2.54a3.29,3.29,0,0,1-2.41,1.56c-.84-.35-1-.68-.48-1.63a4.88,4.88,0,0,0,.42-3.45c-.17-.66-1.09,0-1.14-.77.28-.75,1.06-.83,1.62-1.2a1.61,1.61,0,0,1,.37-.07c.92,0,1.19.91,1.92,1.44.23-1,0-2.09.73-2.89a1.84,1.84,0,0,1,.9-.67c1.8-.91,3.4-2.13,5.09-3.2.41-.25.76-.6,1.3-.54a2.24,2.24,0,0,0,2.62,1c1-.16,1.72.07,1.82,1.27,0,.45.47.82.67,1.25a4.44,4.44,0,0,1-1.31,2C127.36,101.66,125.72,103.56,124.1,105.47Z"/>
  <path class="cls-32" d="M130.15,97.65a1.48,1.48,0,0,1-.94-1.61.74.74,0,0,0-.93-.66c-.56.18-1.11,0-1.72.26-1.11.47-1-.8-1.41-1.36-.11-.54.36-.64.66-.82a59.63,59.63,0,0,0,5.26-3.81c.86-.59,1.64-1.28,2.46-1.91.41-.31.79-.7,1.39-.57a3.76,3.76,0,0,1,.76,4c-.33.54-.91.9-1.07,1.55-1.45,1.47-2.44,3.32-4,4.73A.81.81,0,0,1,130.15,97.65Z"/>
  <path class="cls-33" d="M117,105.24a6.55,6.55,0,0,1,2.81.29c1.78.64,2.1,1,2.21,2.81a1.92,1.92,0,0,1-.08,2.07c-.25.29-.14.92-.81.77-3.28-.49-6.59-.52-9.89-.74-.55-.62-.22-1.16.16-1.69.92-.69,1.71-1.59,3-1.74a6.88,6.88,0,0,0,2.35-1.55A.44.44,0,0,1,117,105.24Z"/>
  <path class="cls-34" d="M135.68,91.15c-.1-1-.19-2-.29-2.94a1.14,1.14,0,0,0-.77-1,8.92,8.92,0,0,1,3.18-3.39c.09.47-.35.77-.4,1.28.79,0,1.42-.65,2.21-.5l-1,2.09c-1.36.39-1.42,1.53-1.54,2.63l-.05.48C136.4,90.13,136.32,90.92,135.68,91.15Z"/>
  <path class="cls-35" d="M130.15,97.65l.26-.26c.25,0,.63-.24.57.31-.68,1.6-2.06,2.67-3.09,4a22.54,22.54,0,0,1-3.79,3.77c.48-1.34,1.59-2.21,2.42-3.29C127.7,100.65,128.93,99.16,130.15,97.65Z"/>
  <path class="cls-36" d="M131,97.7c-.07-.32-.48,0-.57-.31l3.34-4.18a1.08,1.08,0,0,1,.86-.51A23.49,23.49,0,0,1,131,97.7Z"/>
  <path class="cls-37" d="M121.14,111.18l.81-.77c0,.4,0,.79,0,1.19C121.51,111.71,121.31,111.48,121.14,111.18Z"/>
  <path class="cls-38" d="M137,89.36c-.62-1.52.11-2.77,1.54-2.63C138,87.55,137.79,88.62,137,89.36Z"/>
  <path class="cls-39" d="M137.8,83.86c-.84.49-1.19,1.4-1.8,2.09a15.47,15.47,0,0,1-1.38,1.3l-3.39,2.62a.93.93,0,0,1-1.08-.29c2.89-2.24,5.71-4.55,8.39-7l0,.42C138.14,83.16,138,83.55,137.8,83.86Z"/>
  <path class="cls-2" d="M38.13,101.56c-.85.29-1,1.16-1.55,1.73-.27.39-.56.77-.86,1.14-2.25,2.73-4.81,5.23-6.57,8.34a4.83,4.83,0,0,1-1.71,1.56,38.66,38.66,0,0,1-3.87,4.23,11.81,11.81,0,0,0-2.8,3,77.21,77.21,0,0,1-7.34,7c-.46-.15-.78.2-1.16.33-1.21.31-2.18,1.5-3.63,1A7.34,7.34,0,0,0,6.28,133a3.44,3.44,0,0,1,0,.64,14.79,14.79,0,0,0,1,10.09c.49.53,1.07,0,1.6.13,2.48.47,4.46-.61,6.19-2.12,3.15-2.74,5.23-6.35,7.73-9.61.22-.75,1.24-1,1.15-2,1.67-1.9,2.79-4.18,4.3-6.19a17,17,0,0,0,2.13-3.4,58.44,58.44,0,0,1,3.46-6.36c1.68-2.87,3.43-5.73,3.88-9.09C37.87,104,38.48,102.81,38.13,101.56Z"/>
  <path class="cls-40" d="M166.09,133.87c.74,1.32,2.08,2.13,2.9,3.39a36.24,36.24,0,0,1,3.48,7.27c-.13.43.63,1.05-.28,1.32-1.13-.22-2.33.43-3.43-.25-19.46,3.35-26.55,2.56-26.72,0-.59-1.55,22.32-9.93,21.65-11.43.58-.19,1.26-.16,1.67-.74Z"/>
  <path class="cls-41" d="M165.5,133.39c-.1,1.24-22.94,12.36-23.74,12.06-1.46-2.22-1.9-5.3-3.79-7.19-.09-.25,2.42-23,2.62-23.06s3.54-1.37,14.76,6.59c1.64,1.6,7.62,9.08,9.25,10.68Z"/>
  <path class="cls-42" d="M180.89,123.17,181,123"/>
  <path class="cls-2" d="M178.48,133.6c-.36-.3-.69-.5-.83-.94C178.66,132.34,178.86,132.71,178.48,133.6Z"/>
  <path class="cls-2" d="M188.62,131.48c-.47-.64-.7-1.13-1.28-1C188,130.11,188.55,130.11,188.62,131.48Z"/>
  <path class="cls-2" d="M178,134.36c0-.4.36-.51.52-.78.3,0,.72.09.6.45s-.72.29-1.12.33Z"/>
  <path class="cls-2" d="M188.71,133.75c0-.34,0-.69.33-.85a.28.28,0,0,1,.36.25A.65.65,0,0,1,188.71,133.75Z"/>
  <path class="cls-2" d="M189.12,132c-.11.05-.22.15-.32.15a.16.16,0,0,1-.14-.26c.07-.08.23-.09.35-.11S189.07,131.93,189.12,132Z"/>
  <path class="cls-43" d="M114.37,107l-2.67,1.79c-1.4.51-2.83.92-4.19,1.54l-17.57.11a9.28,9.28,0,0,1-1.16-.11c-.81-.26-1.74-.32-2.2-1.2-.14-1.08.18-1.76,1.43-1.75.93,0,1.09-.85,1.52-1.41.21-.27.45-.62.84-.49s.12.54.23.8c.39-.78.39-.78-.27-1.2s-.72-.81.3-1.37c1.09.14,2.1.62,3.2.69a26,26,0,0,0,8.48.18,8,8,0,0,0,3.17-.75c2.17-.89,4.48-1.42,6.59-2.49a1.16,1.16,0,0,1,1.24-.09c.18.31.41.18.67.12.49-.11.86-.15.6.62-.13.36.18.89.34,1.33.29.73.21,1.08-1,.56,1.38.7.9,1.5.44,1.81C113.42,106.3,113.91,106.6,114.37,107Z"/>
  <path class="cls-44" d="M86.74,109.17l2,1.17c-.68.16-1.42,0-2.07.31a50.61,50.61,0,0,0-6.27.49c-.52,0-1,0-1.57.07-.38-.47,0-.88.11-1.32.18-.87.62-1.71.25-2.63a2,2,0,0,1,1-2.12c.78-.46,1.39.19,2,.6,1.19.79,2.31,1.71,3.57,2.41A2.85,2.85,0,0,1,86.74,109.17Z"/>
  <path class="cls-45" d="M107.51,110.34c0-.11-.08-.33-.07-.34,1.43-.38,2.68-1.36,4.26-1.2a2.46,2.46,0,0,0-.45,1.64Z"/>
  <path class="cls-46" d="M78.1,111.36c.43-1.36.85-2.72,1.27-4.08.38,0,.48.18.42.6a20,20,0,0,1-.92,3.33Z"/>
  <path class="cls-47" d="M54.69,111.48a5.41,5.41,0,0,0,1.47-1.79c.17-.34.42-.7.91-.55s.46.48.45.84c-.05,1.93.12,3.87-.11,5.8l-.62.27c-.13-.81-.64-.9-1.31-.69.74-.84.22-1.78-.14-2.44C55.09,112.45,54.9,112,54.69,111.48Z"/>
  <path class="cls-48" d="M73.73,110.88c-1-.68-2-1.27-2.92-2A48.26,48.26,0,0,1,59.12,94.3c-1.51-2.7-2.4-5.77-4.94-7.87a9.67,9.67,0,0,1-2.38-3.25,1.27,1.27,0,0,0-.79-.81c-.94-.08-1.07.83-1.59,1.26A4.39,4.39,0,0,0,48,86.41c.1,5.68,0,11.37,0,17,0,1.26,0,2.52,0,3.77a3.43,3.43,0,0,1-2.09,3.32,25.87,25.87,0,0,0-4.18,2.69c-.8.59-1.66,1.07-2.76,1.84.37-2.16.24-4,.55-5.85.42-2.48,1-4.93,1.42-7.41.21-1.34.78-2.68.29-4.08-.19-.18-.43-.21-.57,0-.89,1.26-2.29,2.18-2.68,3.78-.49,3-.86,5.95-2.31,8.71-1.61,3.07-3.5,6-5.07,9.07a19.23,19.23,0,0,1-1.75,3.33A52.69,52.69,0,0,0,25.19,128c-.44.72-1.21,1.28-1.26,2.22-.3.7-1.24,1-1.32,1.82-2.28,2.59-4.05,5.57-6.33,8.17a11.44,11.44,0,0,1-5.51,3.48c-1.13.34-2.35-.48-3.51.1,0,.23.09.45.14.68a1.39,1.39,0,0,1,.51.84,11.22,11.22,0,0,0,6.81,6h0l2.37,1c.44.49.88.17,1.32,0a1.91,1.91,0,0,0,.89-1.22c.21-.64.18-1.38.68-1.92a6.51,6.51,0,0,1,.19-1.51c.34-1.39.58-2.81.86-4.22h0c.65-2.8,2.27-5.14,3.68-7.59h.12l.12,0,2.67-3.55a74,74,0,0,1,8.67-7.82c3.29-2.86,7-5.2,10.48-7.77,2.55-1.87,5.28-3.51,7.92-5.25.76.07,1-.54,1.39-1,.23-.28.36-.82.83-.65s.3.67.31,1c0,.9-.06,1.81,0,2.7.07.73-.41,1.51.16,2.2l1.39-.34a67.85,67.85,0,0,1,7.72-1.88l7.94-1.64C74.68,111.26,74.09,111.13,73.73,110.88Z"/>
  <path class="cls-49" d="M118,79.47l3.19,2.28c-.19.7-.65.39-1.06.28A90.44,90.44,0,0,0,111,79.86,87.59,87.59,0,0,0,93.08,78a85.41,85.41,0,0,0-11.64.5c-2.28.33-4.58.58-6.87.84a1.34,1.34,0,0,1-1.14-.16c.17-.63.74-.81,1.19-1.11A11.17,11.17,0,0,1,78,76.44a40.49,40.49,0,0,1,10.66-1.81,68.41,68.41,0,0,1,14.09.3,56.86,56.86,0,0,1,11.43,2.61A13.38,13.38,0,0,1,118,79.47Z"/>
  <path class="cls-50" d="M137.28,72.13c-1.09-1-1.93-2.34-3-3.43-.7-.81-2.74-2.64-3.64-3.6-2.47-1.68-4.93-3.39-7.45-5-.29-.2-.79-.2-.86-.62-.11-.68.74-.45,1-.87-.36-.36-.89-.41-1.29-.7a12.54,12.54,0,0,1-3-1.45,3.82,3.82,0,0,0-2.08-.78,7.39,7.39,0,0,1-2.68-.48,16.65,16.65,0,0,0-4.56-1,1,1,0,0,0-.58.22c.42,1.52.19,1.79-1.43,1.64-2.37-.23-4.76-.11-7.13-.35-.55-.06-1.27-.18-1.55.6a.66.66,0,0,0,.14.38,2.62,2.62,0,0,0,1.32.51,42.65,42.65,0,0,1,4.47.91c1.67.32,3.33.7,5,1,1.32.24,2.55.88,3.93.83h0c.11.93,1.16.61,1.58,1.11a1.64,1.64,0,0,0,.3.14s.11,0,.08,0,0,0-.12,0a6.33,6.33,0,0,0-1-.31c-2.08-.1-4.16-.11-6.25-.26a12.45,12.45,0,0,0-4.13-.11c-.44.46,0,.6.3.7.7.24,1.42.42,2.14.6a54.69,54.69,0,0,1,17.51,7.11c3.06,2,6.17,4,8.29,7.07.2.3.66.57.39,1s-.71.27-1.09.24a16.45,16.45,0,0,1-2.94-.66,91.06,91.06,0,0,1-10.61-3.78,87.26,87.26,0,0,0-14.67-4.42A116.69,116.69,0,0,0,90,66.05c-3.79-.37-7.54-1.06-11.36-1a10.39,10.39,0,0,1-3-.11,3,3,0,0,0-.42,0c-3.57,0-7.13-.25-10.71-.24a1.41,1.41,0,0,1-.75-.18,1.49,1.49,0,0,0-1.45.36c-2.42,1.62-4.27,3.65-4.78,6.63a5.92,5.92,0,0,0-.13,2.58C58,77.46,60,80.16,62,82.75A70.47,70.47,0,0,0,74,94.39a51.3,51.3,0,0,0,11.33,7.23,46.11,46.11,0,0,0,8,2.38,31.71,31.71,0,0,0,6.6.57c1.32,0,2.51-.71,3.84-.61,2.09-.59,4.31-.76,6.24-1.86.47-.38,1-.66,1.48-1,1.48-1.1,3.35-1.34,4.89-2.28a17.48,17.48,0,0,0,3.19-1.64c.1-.06.21-.11.31-.18.45-.26.89-.56,1.35-.82,3.09-2,6.13-4.19,9.14-6.37s6-4.3,8.25-7.25a7.51,7.51,0,0,0,1.57-3.9C140,76.12,138.57,74.15,137.28,72.13Z"/>
  <path class="cls-51" d="M133.39,76.41c-.86-.92-1.41-2.12-2.34-2.93a54.07,54.07,0,0,0-10.82-7.33,63.78,63.78,0,0,0-12.75-4.58l-3.36-.89c-.22-.65-.84-.48-1.3-.57-1.67-.32-3.39-.26-5-.72a2.66,2.66,0,0,0-.89,0,62,62,0,0,1-7.71,0c-3-.27-6,.24-9,.21a2.34,2.34,0,0,0-.75.24c-.06.19-1,.13-1.34.28-.69.1-1.38.17-2.06.3A38.45,38.45,0,0,0,63.63,64.6c.15.72.73.49,1.16.5,2.89,0,5.78,0,8.66.24.65.06,4.19.07,5.17,0a43.35,43.35,0,0,1,6.63.51c3.15.38,6.35.51,9.44,1.16,3.9.83,7.87,1.27,11.72,2.42,3.58,1.08,7.25,1.9,10.73,3.28A108.18,108.18,0,0,0,130,77.27a9.19,9.19,0,0,0,2.72.34C133.73,77.57,133.82,76.87,133.39,76.41Z"/>
  <path class="cls-52" d="M114.38,77.85c-1.68-.43-3.35-.91-5-1.29a74.88,74.88,0,0,0-12.76-1.73c-2.68-.14-5.31.31-8,.17-.65-.74-.25-1.14.5-1.14,2.82,0,5.64-.15,8.46.09,5.28-.12,10.28,1.25,15.22,2.87C113.23,77.3,114.2,77,114.38,77.85Z"/>
  <path class="cls-53" d="M97.57,74H89.66c-.7,0-1.41,0-1,1a36.53,36.53,0,0,0-12.88,2.72,10.32,10.32,0,0,1-1.11.37C76,76.51,78,76,79.79,75.29a26,26,0,0,1,7.39-1.38c3-.27,6-.15,9-.18C96.66,73.72,97.16,73.59,97.57,74Z"/>
  <path class="cls-54" d="M130.15,89.58a1.71,1.71,0,0,1,1.08.29,52.91,52.91,0,0,1-6.08,4.41c-1.65,1.06-3.3,2.13-5,3.18-.43.27-.79.68-1.35.7-.42-.22-.41-.5-.06-.76s.59-.31.85-.53a3.65,3.65,0,0,0,1.31-.79l5.89-4.2C127.93,91.1,129,90.35,130.15,89.58Z"/>
  <path class="cls-55" d="M115.68,61A46.64,46.64,0,0,1,108,59.4a4.24,4.24,0,0,0-1.53-.29l-.19,0A3.58,3.58,0,0,1,105,59c-.7-.42-1.73,0-2.26-.88.6-.92,1.43-.34,2.17-.33a35.15,35.15,0,0,1,8.94,2.09C114.34,60.46,115.33,60.16,115.68,61Z"/>
  <path class="cls-56" d="M102.53,104.93a25.63,25.63,0,0,1-8.06,0,6.68,6.68,0,0,1-.87-.26c-.24-.32-.66-.55-.52-1a27.74,27.74,0,0,0,10.78,0C103.85,104.51,102.76,104.28,102.53,104.93Z"/>
  <path class="cls-57" d="M102.53,104.93c-.1-.3-.4-.66.21-.75a1.66,1.66,0,0,0,1.12-.54c2-.74,4.15-.82,6-1.82,1.44-.51,2.7-1.46,4.2-1.81a.85.85,0,0,1,.77.24c-.4.52-1.05.66-1.56,1-3,1.23-6.12,2.39-9.25,3.41A3.46,3.46,0,0,1,102.53,104.93Z"/>
  <path class="cls-58" d="M93.08,103.64c.28.3.63.56.52,1a10.63,10.63,0,0,1-3.15-.78c-1.77-.85-3.74-1.28-5.26-2.62A74.46,74.46,0,0,0,93.08,103.64Z"/>
  <path class="cls-59" d="M114.11,100.25c-1.44.44-2.59,1.62-4.21,1.57a10.48,10.48,0,0,1,3.48-2.12,11.29,11.29,0,0,0,2.84-1.26c.37.53.06.81-.37,1.11A10,10,0,0,1,114.11,100.25Z"/>
  <path class="cls-60" d="M114.11,100.25a13.82,13.82,0,0,1,1.64-1,.75.75,0,0,0,.47-.81c1.34-.09,2.14-1.33,3.41-1.57,0,.57-1.25.43-.79,1.29l-.79.51a7.1,7.1,0,0,1-2.92,1.57h-1Z"/>
  <path class="cls-2" d="M75.46,65.11a1.13,1.13,0,0,1-.26,0c-.52-.07-1.28.27-1.45-.45s.57-.78,1.08-1a3.73,3.73,0,0,0,.85-.64c0,.77,1.19,1.32,0,2.07Z"/>
  <path class="cls-61" d="M114.38,77.85c-.38-.57-1.29-.34-1.59-1A8.87,8.87,0,0,1,118,79.47Z"/>
  <path class="cls-62" d="M120.16,82c.36-.06.79.12,1.06-.28l.78.54c.06.25,0,.37-.29.3Z"/>
  <path class="cls-63" d="M115.16,61.21a.59.59,0,0,0,.52-.26,1.27,1.27,0,0,1,1.16.46C116.19,61.44,115.66,61.65,115.16,61.21Z"/>
  <path class="cls-60" d="M120.94,96.08a1.23,1.23,0,0,1-1.31.79A2.61,2.61,0,0,1,120.94,96.08Z"/>
  <path class="cls-64" d="M121.71,82.59l.29-.3a1.18,1.18,0,0,1,.68.66C122.24,83.07,122,82.78,121.71,82.59Z"/>
  <path class="cls-43" d="M115.13,100.24a9.27,9.27,0,0,1,2.92-1.57,4.6,4.6,0,0,0-.49,2.55c0,.24.1.69-.33.72-.2,0-.43-.22-.62-.39C116.12,101.12,116,100.27,115.13,100.24Z"/>
  <path class="cls-43" d="M117,105.24l-.29.22c-.31-.95-1.06-1.83-.37-2.91.89.17,1.15,1.37,2.18,1.39.21,0,.14.27.16.42s-.17.18-.31.25C117.93,104.83,117.22,104.52,117,105.24Z"/>
  <path class="cls-2" d="M43.59,91.13c1.5-1.27,2.34-3.08,3.78-4.4.22-.2.46-.37.69-.56.48.35.31.86.31,1.32,0,6.45,0,12.9,0,19.35a4.17,4.17,0,0,1-2.65,4.21,69.89,69.89,0,0,0-7,4.63,3.18,3.18,0,0,1-.12-1.77,87.31,87.31,0,0,1,1.92-12.33A11.54,11.54,0,0,0,41,97.65c-.45-.52,0-1,.13-1.42.6-1.66,1.83-3,2.21-4.78A.82.82,0,0,1,43.59,91.13Z"/>
  <path class="cls-65" d="M42.38,92.14c-.69.82-1.26,1.73-2,2.49a1.42,1.42,0,0,0-.6,1.22C38.09,98.11,36,100,34.46,102.4l-1.85,1.9L31.22,106a1.68,1.68,0,0,1-.44.27c-1,.75-1.39,1.93-2.34,2.67a1.75,1.75,0,0,0-.55,1,1.14,1.14,0,0,0,.05.49,6,6,0,0,0-1.71,1.88,3.72,3.72,0,0,1-1.61,1.48,4.39,4.39,0,0,0-.84.65c-.42.39-.75.86-1.14,1.28a5.12,5.12,0,0,0-1.29,1.83A14.43,14.43,0,0,1,19.13,120c-.39.87-1.28,1.33-1.77,2.12-.66.38-.84,1.25-1.59,1.53a43.45,43.45,0,0,1-5.73,5c0,.07,0,.13-.07.19H9.72l-1.08,1,.6.15c-.53,1.17.08.7.6.41.83-.45,1.68-.88,2.52-1.32.46,0,.69-.38,1.05-.52a1.55,1.55,0,0,0,1-.47c2.14-1.64,3.86-3.7,5.83-5.51.3-.28.67-.57.53-1.08a51.77,51.77,0,0,0,6.81-7,5.6,5.6,0,0,0,2.16-2.16,33.5,33.5,0,0,1,3.74-4.93,20.46,20.46,0,0,0,3.3-4.11l1.32-1.82c.7-1.49,2-2.52,2.89-3.91a15.25,15.25,0,0,1,1.84-4,4.53,4.53,0,0,0,.77-2.26C43,91.29,42.71,91.76,42.38,92.14Z"/>
  <path class="cls-31" d="M91.53,107.47c.46-.25.75-.2.86.24,0,.1-.08.23-.12.35Z"/>
  <path class="cls-31" d="M90.35,107.93c-.19,0-.32.11-.4.07s-.11-.18-.16-.27.17-.11.22-.09A1.54,1.54,0,0,1,90.35,107.93Z"/>
  <path class="cls-67" d="M99.12,56.25l-7.91-.6c4-1,7.93-2.31,12.12-1.74a1.3,1.3,0,0,1,1.19-.36c1.55.18,3.18,0,4.59.88a1.27,1.27,0,0,1,.44,1.66c-.31.63-.88.34-1.38.31q-3.92-.23-7.83-.4C99.93,56,99.46,55.86,99.12,56.25Z"/>
  <path class="cls-55" d="M91,56.26a79.15,79.15,0,0,1,8.15.25c1.9.59,3.95.47,5.79,1.3a7.22,7.22,0,0,0-2.12.27,21.47,21.47,0,0,0-5-.79h-.19a6.19,6.19,0,0,1-1.36,0,32.92,32.92,0,0,0-4.08-.49C91.72,56.83,91.11,57,91,56.26Z"/>
  <path class="cls-31" d="M107.43,58.89a1.22,1.22,0,0,0-.89.11l-.17,0c-.37-.17-.85.11-1.2-.21-.65-.67-1.66-.27-2.38-.76a7.24,7.24,0,0,0-5-1l-.18.09c-.37-.11-.8.1-1.14-.16-1.8-.51-3.7-.36-5.52-.78h0a55.42,55.42,0,0,0-8.15,0,.48.48,0,0,1-.24,0c-.91.39-1.76-.34-2.66-.13a3.75,3.75,0,0,0-1,.13c.18-.28.72-.31.78-.67a.37.37,0,0,0-.21-.29c-.6-.28-1.18,0-1.77.06a23.29,23.29,0,0,0-3.54.8c-2.1,1.27-.73.54-3,1.34-.38.09-2.3,1.07-2.66,1.23a97.56,97.56,0,0,0-9.69,5.15A47.61,47.61,0,0,0,53.39,68c-.46.46-1.24.76-1.13,1.57l-.21.07a10.75,10.75,0,0,0-2.21,4.28,14.27,14.27,0,0,0-.15,5.25A5.07,5.07,0,0,0,51,82.53,20,20,0,0,0,54.17,87c.65.68,1.5,1.16,1.94,2.07a78.39,78.39,0,0,0,5.57,10.12,43.69,43.69,0,0,0,8.62,9.69c1.35,1.09,3,1.82,4.16,3.07a18.53,18.53,0,0,0,3.64-.57,5.85,5.85,0,0,0,1.27-4.08c.45-2.35.8-2.49,2.73-1.17,1.53,1,3.09,2,4.64,3.06.13-.92.27-1.73,1.6-1.44.53.11.92-.5,1.11-1a2.67,2.67,0,0,1,.85-1.17c.17.48-.46.78-.08,1.14a.71.71,0,0,0,.59.18c.75-.31.11-1.28.75-1.72a1.22,1.22,0,0,0-.82-.33c-1,0-.85-.44-.29-1-.18-.54-.7-.61-1.12-.79a44.87,44.87,0,0,1-4.14-1.83,38.5,38.5,0,0,1-5.9-3.35,87.31,87.31,0,0,1-10-8c-4.21-3.92-8.17-8-10.74-13.23a7.77,7.77,0,0,1-.72-5.14,9.66,9.66,0,0,1,5.77-7,1.22,1.22,0,0,0,1-.19,48.34,48.34,0,0,1,13.52-4A10,10,0,0,1,82,59.63c.39,0,5-.13,7.16-.22,0,0,2.15.21,2.16.27,2.36.9,3.26-.29,5.68,0h.76c2,.72,4.25.53,6.34,1a101.75,101.75,0,0,0,11,.53c.3.16.53.2.52-.26h0C113,60,110.15,59.7,107.43,58.89Z"/>
  <path class="cls-55" d="M116.74,55.71a1.15,1.15,0,0,0-.48-.42,27.13,27.13,0,0,0-6.32-1.84,1,1,0,0,0-.67.09l-.11-.06a2,2,0,0,0-.59-.14,2.38,2.38,0,0,1-1.33-.36c-1.25-.46-2.59,0-3.86-.37a7.49,7.49,0,0,0-1.34-.1h-1.16c-2.1,0-4.2,0-6.3,0-.45,0-1-.08-1.32.26h-.13c-.94,0-1.89,0-2.83,0-1.67.27-3.34.58-5,.94s-3.1.42-4.38,1.43c0,0,0,.06,0,.1l-1.26.25a.9.9,0,0,1,0,.23c-.41.17-1.37-.37-1,.78h1.31c.63-.07,1.28.05,1.9,0a2.61,2.61,0,0,0,.76.08,2.24,2.24,0,0,0,.45-.09,47.12,47.12,0,0,1,7.79,0,2.33,2.33,0,0,0,.46.08,50.21,50.21,0,0,1,6.37.28,1.52,1.52,0,0,0,1.46-.35v-.26a2.07,2.07,0,0,0-1.34-.43,28.63,28.63,0,0,0-4.28-.3,4.11,4.11,0,0,0,2-.5,5.91,5.91,0,0,1,3-.73c1.18,0,2.36,0,3.54,0,.46,0,1,.07,1.28-.39l0,0a38.56,38.56,0,0,1,5.78.52h.54a30.06,30.06,0,0,1,5.11,1.27,4.36,4.36,0,0,0,2.29.28Zm-24.25-.19h-.88C91.89,55.51,92.18,55.51,92.49,55.52Z"/>
  <path class="cls-2" d="M76.39,63a2.12,2.12,0,0,1-.25-.52.24.24,0,0,1,.28-.3.34.34,0,0,1,.21.26A2,2,0,0,1,76.39,63Z"/>
  <path class="cls-81" d="M169.73,216c0,7.8-4.55,14.11-10,14.11H32c-5.5,0-10-6.31-10-14.11,0-5,.34-12.08,4.55-15.39,12.37-9.51,41.83-7.27,69.48-7.27s57.2-2,69.23,7.59c4,3.21,4.55,10.26,4.55,15.07Z"/>
  <path class="cls-82" d="M167.67,218c0,6.1-4.38,11-9.79,11H33.77C28.36,229,24,224.1,24,218c0-15.18,36.33-14.53,72.4-14.43,35.73.11,71.29-.64,71.29,14.43Z"/>
  <path class="cls-83" d="M163.89,220.14c0,5.56-4.12,10.05-9.28,10.05H37c-5.16,0-9.28-4.49-9.28-10.05,0-13.79,34.78-12,69-11.86,33.84,0,67.16-1.71,67.16,11.86Z"/>
  <path class="cls-84" d="M169.73,216c0,7.8-4.55,14.11-10,14.11H32c-5.41,0-9.88-6-10-13.57,2.84,6.3,7.13,7.05,22.59,7.69,19.15.64,97.74,1,108.56.64,10.05-.32,14.17-3,16.06-13a13.11,13.11,0,0,1,.6,4.17Z"/>
  <path class="cls-85" d="M152.4,99.8a9.33,9.33,0,0,1-9.24,9.83H48.86a9.46,9.46,0,0,1-9.34-9.83C42,58.94,150,58.94,152.4,99.8Z"/>
  <path class="cls-83" d="M150,90.9c2.34,5.38,3.74,10.53.66,14.75a10.66,10.66,0,0,1-8.22,4H49.61c-5.14,0-11-5.5-9.9-10.89l.93-4.21c1.4,6,3.83,6.09,9,6.09h92.8c5,0,10-1.18,7.56-9.72Z"/>
  <path class="cls-82" d="M94.51,73.22c6.91,0,20.92,1.41,36.23,6.56,14.94,5.15,16.52,14.16,10.74,14.16H50.54c-10,0-2.24-9.24,11.3-14.86,10.92-4.68,26.42-5.86,32.67-5.86Z"/>
  <path class="cls-86" d="M147.08,86.45c-32.21-14.63-70.4-17.67-102.79.82,18.2-23.88,83.37-24.23,102.79-.82Z"/>
  <path class="cls-86" d="M47.27,88.79c1.59-.23-1,3.51-2.24,7.14s-.74,7.14-1.87,6.56-1.3-5.39.19-8.43,2.43-5,3.92-5.27Zm97.47-.35c-.84.12.66,3.51,1.78,7.14s1.21,6.67,2,5.74.84-4-.28-7.61-2.61-5.5-3.55-5.27Z"/>
  <path class="cls-85" d="M43.82,105.56H148.69a10.57,10.57,0,0,1,10.56,9.94l.86,13.25c.17,2.14-.34,6.52-1.54,8.13-1.89,2.56-5.33,1.92-8.94,1.92H43c-2.83,0-5.67.21-7.64-1.5s-3.09-5.77-2.84-8.55l.86-13.25a10.5,10.5,0,0,1,10.48-9.94Z"/>
  <path class="cls-83" d="M159.25,121.27v7.59c0,5.45-4.72,9.94-10.56,9.94H43.82c-5.75,0-10.48-4.49-10.48-9.94v-7.59c1.55,6.2,4.73,8.34,10.48,8.34H148.69c5.84,0,7.73-3.1,10.56-8.34Z"/>
  <path class="cls-82" d="M44.85,107.27H147.74c9.79,0,9.79,15.6,0,15.6H44.85c-9.87,0-9.87-15.6,0-15.6Z"/>
  <path class="cls-85" d="M41,138.69H151.61a10.88,10.88,0,0,1,11.08,9.94l.94,13.36c.17,2.78-.6,6.95-2.75,8.77s-5.32,1.17-8.33,1.17H40c-3.26,0-6.7.54-8.76-1.49-1.8-1.82-2.49-5.88-2.32-8.45l.95-13.36A10.82,10.82,0,0,1,41,138.69Z"/>
  <path class="cls-83" d="M162.69,154.51V162c0,5.46-5,9.94-11.08,9.94H41c-6.1,0-11.08-4.48-11.08-9.94v-7.48c1.63,6.09,5,8.34,11.08,8.34H151.61c6.1,0,8.07-3.1,11.08-8.34Z"/>
  <path class="cls-82" d="M42,140.51H150.49c10.39,0,10.39,15.61,0,15.61H42c-10.39,0-10.39-15.61,0-15.61Z"/>
  <path class="cls-85" d="M38.67,171.72H153.84c6.36,0,11.17,4.49,11.51,9.94l1,13.36c.17,2.14-.69,6.52-2.15,8.23-2.14,2.35-5.66,1.71-9.36,1.71H37.72c-3.78,0-7.47.64-9.62-1.81-1.37-1.61-2.06-6-1.88-8.13l.94-13.36c.43-5.45,5.24-9.94,11.51-9.94Z"/>
  <path class="cls-83" d="M165.35,187.54V195c0,5.45-5.15,9.94-11.51,9.94H38.67c-6.27,0-11.51-4.49-11.51-9.94v-7.48c1.72,6.09,5.24,8.23,11.51,8.23H153.84c6.36,0,8.42-3.1,11.51-8.23Z"/>
  <path class="cls-82" d="M39.79,173.43H152.72c10.83,0,10.83,15.61,0,15.61H39.79c-10.74,0-10.74-15.61,0-15.61Z"/>
  <path class="cls-86" d="M41.05,109.09c1-.22-.88,3.2-1.61,6.73s.16,7.27-1,6.09-1.29-4.49-.57-8.12,2.27-4.38,3.23-4.7Zm108.2-.86c-1.13-.11.25,4.06,1.05,7.59s-.16,7.27,1,6.09,1.38-4.38.65-8-1.62-5.67-2.75-5.67Z"/>
  <path class="cls-86" d="M37.82,142c1-.32-.88,3.1-1.61,6.62s.16,7.27-1.05,6.1-1.29-4.49-.57-8,2.27-4.49,3.23-4.7Zm114-1c-1.13-.1.24,4.07,1,7.59s-.16,7.27,1.05,6.1,1.45-4.39.72-8-1.69-5.56-2.74-5.67Z"/>
  <path class="cls-86" d="M34.92,175.25c1-.22-.89,3.2-1.62,6.73s.16,7.27-1,6.09S31,183.59,31.77,180s2.18-4.38,3.15-4.7Zm119.34-.86c-1.13-.1.24,4.06,1,7.59s-.16,7.27,1.05,6.09,1.45-4.38.73-8-1.7-5.56-2.75-5.67Z"/>
  <path class="cls-87" d="M146.92,248.9l-3,.43-8.59-7.41-50.83-4.66L83.8,239l50,4.44,8.95,7.62,1.28,1.62,6.1,1.84c.29.07,3.84-1.41,3.91-3.11.07-1.06-.78-.91-7.1-2.54Z"/>
  <path class="cls-88" d="M103.68,243.61v14.18h-19V243.68c.55-2.11,4.15-3.45,9.39-3.45,5,0,8.66.84,9.58,3.38Z"/>
  <path class="cls-89" d="M99.2,240.93v16.86H89.9V241a12.44,12.44,0,0,1,4.62-.77,12.89,12.89,0,0,1,4.68.7Z"/>
  <path class="cls-90" d="M133.5,231.27v4a4.48,4.48,0,0,1-4.48,4.44H115.89c-4,2.54-10.51,3-21,3.11-11.14.07-17.75-.36-23-3.11H58.73a4.42,4.42,0,0,1-4.4-4.44v-4Z"/>
  <path class="cls-91" d="M133.5,235.57v4A4.48,4.48,0,0,1,129,244H115.89c-4,2.54-10.51,3-21,3.11-11.14.07-17.75-.36-23-3.11H58.73a4.42,4.42,0,0,1-4.4-4.44v-4Z"/>
  <path class="cls-92" d="M128.64,229.61v2.91a3.18,3.18,0,0,1-1.53,2.65H61.56A3.09,3.09,0,0,1,60,232.52v-2.91Zm-17.55,7.06c-5.61,3.25-25.63,3-32.95,0Z"/>
  <rect class="cls-79" x="88.25" y="246.49" width="12.17" height="54.2"/>
  <rect class="cls-93" x="93.85" y="247.36" width="5.22" height="53.34"/>
  <path class="cls-94" d="M90.74,297.7H61.82c-13,0-20.63,11.54-20.63,24.3l5.61.21c0-10.83,7.48-19.66,16.63-19.66H95c-.13-1.93.8-3.21-.4-4-.6-.43-3.21-.71-3.81-.86Z"/>
  <path class="cls-95" d="M42.86,322.07l3.94.14c0-10.83,7.48-19.66,16.63-19.66H95a5.64,5.64,0,0,0-.27-1.5c-5,.07-12.75.07-21.64,0-15.62-.21-18.36.36-23.77,6-3.47,3.56-4.68,10.54-6.41,15Z"/>
  <path class="cls-96" d="M42.12,312.38c-4.81,1.64-4.61,10.12-2.2,13.32a5.82,5.82,0,0,0,5.34,2.21,7.91,7.91,0,0,0,3.81-1.07c1.94-1.21,2.67-4.77,2.6-7-.06-3-1.13-5.42-2.8-6.7a7.36,7.36,0,0,0-6.75-.71Z"/>
  <path class="cls-97" d="M46.46,315.09c-1.67-3.28-4.54-3.71-6.54-1s-2.21,7.62-.6,10.9,4.61,3.7,6.54,1,2.27-7.63.6-10.9Z"/>
  <path class="cls-98" d="M45.93,315c-1.47-3.07-4.34-3.14-6.08-.65a8.36,8.36,0,0,0-1.33,4.21,13.06,13.06,0,0,0,1,6.05c1.47,3,4.07,3.42,5.81.86a10.17,10.17,0,0,0,1.73-5.27,11.7,11.7,0,0,0-1.13-5.2Z"/>
  <path class="cls-99" d="M39.58,324.63c1.54,3,4.28,3.42,6.08.86A7.17,7.17,0,0,0,47,321.85a8.68,8.68,0,0,0-1.47-6.91c-1.34-1.78-3.54-2.2-5.34.36a10,10,0,0,0-1.41,6.06,10.26,10.26,0,0,0,.8,3.27Z"/>
  <path class="cls-94" d="M97.75,297.7h28.92c13,0,20.64,11.54,20.64,24.3l-5.68.21c0-10.83-7.48-19.66-16.56-19.66H93.48c.67-1.93-.07-3.49,1.07-4.35a18.74,18.74,0,0,1,3.2-.5Z"/>
  <path class="cls-95" d="M145.64,322.07l-4,.14c0-10.83-7.48-19.66-16.56-19.66H93.48a13.43,13.43,0,0,1,.33-1.5c5,.07,12.69.07,21.64,0,15.63-.21,18.37.36,23.78,6,3.4,3.56,4.61,10.54,6.41,15Z"/>
  <path class="cls-96" d="M146.37,312.38c4.74,1.64,4.61,10.12,2.21,13.32a5.85,5.85,0,0,1-5.35,2.21,7.49,7.49,0,0,1-3.8-1.07c-2-1.21-2.74-4.77-2.67-7a8.56,8.56,0,0,1,2.87-6.7,7.34,7.34,0,0,1,6.74-.71Z"/>
  <path class="cls-97" d="M142,315.09c1.6-3.28,4.54-3.71,6.55-1s2.2,7.62.53,10.9-4.54,3.7-6.48,1-2.27-7.63-.6-10.9Z"/>
  <path class="cls-98" d="M142.57,315c1.4-3.07,4.27-3.14,6-.65a8.4,8.4,0,0,1,1.4,4.21,12.37,12.37,0,0,1-1.07,6.05c-1.47,3-4,3.42-5.74.86a9.58,9.58,0,0,1-1.74-5.27,10.82,10.82,0,0,1,1.14-5.2Z"/>
  <path class="cls-99" d="M148.84,324.63c-1.47,3-4.2,3.42-6,.86a7.92,7.92,0,0,1-1.4-3.64,9.27,9.27,0,0,1,1.47-6.91c1.4-1.78,3.61-2.2,5.41.36a10.49,10.49,0,0,1,1.4,6.06,8.56,8.56,0,0,1-.87,3.27Z"/>
  <path class="cls-100" d="M142.9,316.37a3.48,3.48,0,0,1,2.34-2.07,2.59,2.59,0,0,1,2.54,1.36A7.85,7.85,0,0,1,149,319.5a8.72,8.72,0,0,1-.8,4.21,3.45,3.45,0,0,1-2.33,2.06,2.6,2.6,0,0,1-2.54-1.35,7.79,7.79,0,0,1-1.27-3.85,8.7,8.7,0,0,1,.8-4.2Zm2.4-.93a3.18,3.18,0,0,0-1.87,1.64,7.3,7.3,0,0,0-.6,3.35,5.69,5.69,0,0,0,1,3.13,2.15,2.15,0,0,0,2,1.07,3.12,3.12,0,0,0,1.87-1.64,7,7,0,0,0,.6-3.34,6,6,0,0,0-1-3.14,2.2,2.2,0,0,0-2-1.07Z"/>
  <path class="cls-95" d="M88.4,297.92a34.89,34.89,0,0,1,4.75.14c1.6.43,2.27,3.49.06,3.7a71.58,71.58,0,0,0-7.94.72c-4.21.85-7.28,2.63-9.29,5.63-1.8,2.7-1.87,4.7-2,7.62-.07.43-.87.28-1.4.14l-2.94-1.07c-1.74-.64-.8-4.63.53-7.76a11.83,11.83,0,0,1,4.34-5.2c5.35-3.78,11.42-3.92,13.89-3.92Z"/>
  <path class="cls-94" d="M90.14,298.2h2c1.27.07,1.81,2.14.27,2.5s-10.62-.72-16.29,5.84a11.9,11.9,0,0,0-2.94,8.12c-.74,0-2.47-.36-3.21-.36-.06-5.05,1.4-8.12,4.41-11a17,17,0,0,1,8-4.27,30.6,30.6,0,0,1,7.75-.86Z"/>
  <path class="cls-97" d="M66.37,314.73a7.36,7.36,0,0,1,10.81-1,8.53,8.53,0,0,1,.94,11.55,7.38,7.38,0,0,1-10.82,1.06,8.69,8.69,0,0,1-.93-11.61Z"/>
  <path class="cls-96" d="M66.63,314.66c2.54-3.21,7.48-3.35,10.55-.64a7.1,7.1,0,0,1,2.34,4.42,9,9,0,0,1-1.8,6.41,6.77,6.77,0,0,1-10,1,8.66,8.66,0,0,1-3-5.7,9.42,9.42,0,0,1,1.93-5.49Z"/>
  <path class="cls-99" d="M77.23,324.25a6.09,6.09,0,0,1-9,.9,6.18,6.18,0,0,1-2-3.53A6.51,6.51,0,0,1,68.33,315a6,6,0,0,1,8.06.32,7.29,7.29,0,0,1,2,5.84,6.82,6.82,0,0,1-1.2,3.08Z"/>
  <path class="cls-100" d="M67.83,316.09a5.59,5.59,0,0,1,8.09-.79,6.34,6.34,0,0,1,2,4.13,6.44,6.44,0,0,1-1.27,4.49,5.64,5.64,0,0,1-3.87,2.21,5.9,5.9,0,0,1-4.21-1.42,6.19,6.19,0,0,1-2-4.14,6.37,6.37,0,0,1,1.26-4.48Zm4-.93a4.53,4.53,0,0,0-3.07,1.71,4.8,4.8,0,0,0-1.07,3.56,5.26,5.26,0,0,0,1.6,3.35,4.36,4.36,0,0,0,3.34,1.07,4.53,4.53,0,0,0,3.14-1.71,5,5,0,0,0,1-3.56,4.84,4.84,0,0,0-1.6-3.28,4.65,4.65,0,0,0-3.34-1.14Z"/>
  <path class="cls-95" d="M100.09,297.92a34.38,34.38,0,0,0-4.74.14c-1.6.43-2.34,3.49-.07,3.7,3.21.29,5.61.22,7.88.72,4.28.85,7.35,2.63,9.35,5.63,1.81,2.7,1.87,4.7,2,7.62.06.43.8.28,1.4.14l2.94-1.07c1.73-.64.8-4.63-.6-7.76a11.77,11.77,0,0,0-4.28-5.2c-5.34-3.78-11.42-3.92-13.89-3.92Z"/>
  <path class="cls-94" d="M98.36,298.2h-2c-1.27.07-1.8,2.14-.27,2.5s10.62-.72,16.3,5.84a11.72,11.72,0,0,1,2.87,8.12c.8,0,2.47-.36,3.27-.36.07-5.05-1.4-8.12-4.4-11a17,17,0,0,0-8.08-4.27,29.75,29.75,0,0,0-7.68-.86Z"/>
  <path class="cls-97" d="M122.13,314.73a7.38,7.38,0,0,0-10.82-1,8.62,8.62,0,0,0-1,11.55,7.39,7.39,0,0,0,10.82,1.06,8.63,8.63,0,0,0,1-11.61Z"/>
  <path class="cls-96" d="M121.8,314.66c-2.47-3.21-7.48-3.35-10.49-.64a6.83,6.83,0,0,0-2.34,4.42,8.69,8.69,0,0,0,1.81,6.41,6.75,6.75,0,0,0,10,1,8.94,8.94,0,0,0,3-5.7,9,9,0,0,0-2-5.49Z"/>
  <path class="cls-99" d="M111,324.23a6.39,6.39,0,0,0,9.49.94,6.87,6.87,0,0,0,2.15-3.71,6.74,6.74,0,0,0-2.34-6.95,6.22,6.22,0,0,0-8.42.33,7.68,7.68,0,0,0-2.15,6.15,6.44,6.44,0,0,0,1.27,3.24Z"/>
  <path class="cls-100" d="M120.59,316.09a5.51,5.51,0,0,0-3.87-2.14,5.44,5.44,0,0,0-4.14,1.35,6.31,6.31,0,0,0-.73,8.62,5.64,5.64,0,0,0,3.87,2.21,5.74,5.74,0,0,0,4.14-1.42,6,6,0,0,0,2.07-4.14,6.16,6.16,0,0,0-1.34-4.48Zm-3.94-.93a4.7,4.7,0,0,1,3.08,1.71,5.42,5.42,0,0,1,1.06,3.56,5,5,0,0,1-1.66,3.35,4.2,4.2,0,0,1-3.34,1.07,4.43,4.43,0,0,1-3.08-1.71,5.06,5.06,0,0,1-1-3.56,4.63,4.63,0,0,1,1.6-3.28,4.49,4.49,0,0,1,3.34-1.14Z"/>
  <path class="cls-101" d="M80.43,233.36c-1.75-.08-42.62,1.8-44.3,1.72-9.05-.6-17.87-1.36-23.27-4.84C6.24,226.08.39,217.59,8.14,200.52l.16-28.7,6.23-.09-.91,29.21c-4.41,12.82-4,19.62,2,23.35,5.09,3.23,11.79,4.08,20.15,4.5l44.68,2.53Z"/>
  <path class="cls-91" d="M102.65,235.86c-3-.09-61.68-.31-63.35-.39-9.06-.6-17.88-1.36-23.28-4.84C9.4,226.47,3.55,218,11.3,200.91l.16-28.7,6.23-.08-.91,29.2c-4.41,12.83-4,19.62,2,23.35,5.1,3.23,13,3.92,21.33,4.34,1.59.09,60.78.43,63.7.51Z"/>
  <path class="cls-84" d="M7.09,163.19H18.35c2.81,0,5.17,1.76,5.17,3.87v15.7c0,2.11-2.36,3.87-5.17,3.87H7.09c-2.81,0-5.09-1.76-5.09-3.87v-15.7c0-2.11,2.28-3.87,5.09-3.87Z"/>
  <path class="cls-85" d="M7.09,163.19H18.35c2.81,0,5.17,1.76,5.17,3.87v8.2c0,2.23-2.36,4-5.17,4H7.09c-2.81,0-5.09-1.76-5.09-4v-8.2c0-2.11,2.28-3.87,5.09-3.87Z"/>
  <path class="cls-82" d="M7.09,163.19H18.35c2.81,0,5.17,1.76,5.17,3.87v6.33c-.61-4-1.37-3.16-4.19-3.52s-6.38.36-11.33.24-5.55,0-6,4.22v-7.27c0-2.11,2.28-3.87,5.09-3.87Z"/>
  <path class="cls-102" d="M7.09,163.19H18.35c2.81,0,5.17,1.76,5.17,3.87v1.76c-.84-2.34-2.36-2-4.72-2.34-2.2-.24-5-.12-8.21-.12a13.28,13.28,0,0,0-4.64.35c-2.43.59-3.19.7-3.95,2.34v-2c0-2.11,2.28-3.87,5.09-3.87Z"/>
  <path class="cls-101" d="M96.26,233.36c1.67-.08,56.34,2.15,57.93,2.06,9.06-.59,17.88-1.35,23.36-4.84,6.61-4.16,12.47-12.65,4.64-29.71l-.08-28.7-6.24-.09.91,29.21c4.34,12.82,3.88,19.62-2,23.35-5.18,3.23-11.79,4.08-20.24,4.5-1.59.09-56.95,2.73-58.7,2.82Z"/>
  <path class="cls-91" d="M89.11,236.43c9.09.46,61.45-.56,62.93-.64,9.06-.51,17.44-2.08,22.92-5.56,6.62-4.16,12.47-12.66,4.64-29.72l-.08-28.7-6.24-.09.92,29.21c4.33,12.82,3.88,19.62-2,23.35-5.17,3.23-11.79,4.08-20.23,4.5-1.6.09-61.47.54-63.21.62Z"/>
  <path class="cls-84" d="M183.54,163.54H172.21c-2.81,0-5.09,1.75-5.09,3.86v15.7c0,2.11,2.28,3.87,5.09,3.87h11.33c2.81,0,5.09-1.76,5.09-3.87V167.4c0-2.11-2.28-3.86-5.09-3.86Z"/>
  <path class="cls-85" d="M183.54,163.54H172.21c-2.81,0-5.09,1.75-5.09,3.86v8.2c0,2.23,2.28,4,5.09,4h11.33c2.81,0,5.09-1.76,5.09-4v-8.2c0-2.11-2.28-3.86-5.09-3.86Z"/>
  <path class="cls-82" d="M183.54,163.54H172.21c-2.81,0-5.09,1.75-5.09,3.86v6.33c.61-4,1.37-3.16,4.18-3.52s6.39.36,11.33.24,5.55,0,6,4.22V167.4c0-2.11-2.28-3.86-5.09-3.86Z"/>
  <path class="cls-102" d="M183.54,163.54H172.21c-2.81,0-5.09,1.75-5.09,3.86v1.76c.83-2.34,2.28-2,4.71-2.34,2.21-.24,4.94-.12,8.21-.12a12.58,12.58,0,0,1,4.56.35c2.44.59,3.2.7,4,2.34v-2c0-2.11-2.28-3.86-5.09-3.86Z"/>
  <path class="cls-83" d="M36.82,223,52.46,102.35C63.4,86.48,83.27,84.17,98.62,84.65s33.2,3,41.45,19.94l12.48,119.54Z"/>
  <path class="cls-103" d="M43.92,219.9,57.65,104.75c9.59-15.16,27-17.39,40.49-16.91s29.07,3,36.37,19l10.94,114.12Z"/>
  <path class="cls-85" d="M46,202l11.62-97.29c9.59-15.16,27-17.39,40.49-16.91,11.8.4,25.33,2.39,33.3,13.72C121.46,152.76,74.63,185.37,46,202Z"/>
  <path class="cls-104" d="M53.62,138.64l4-33.89c9.59-15.16,27-17.39,40.49-16.91,11.23.4,24.18,2.23,32.34,12.36-16.22-6.14-34.64-5.18-50.86,1.28-14.3,5.66-20.82,19.54-26,37.16Z"/>
</svg>