<svg xmlns="http://www.w3.org/2000/svg" viewBox="0 0 252.09 351.83">
  <defs>
    <style>.cls-1{fill:#6b6b5b;}.cls-2{fill:#737363;}.cls-3{fill:#a6a696;}.cls-4{fill:#5a5a4a;}.cls-5{fill:#4d4d3d;}.cls-6{fill:#3c3c2c;}.cls-7{fill:#ffaf96;}.cls-8{fill:#f9f9f9;}.cls-9{fill:#ffd764;}.cls-10{fill:#c39549;}.cls-11{fill:#1a0902;}.cls-12{fill:#1d1e56;}.cls-13{fill:#0e6073;}.cls-14{fill:#0e6d84;}.cls-15{fill:#224070;}.cls-16{fill:#3e3a77;}.cls-17{fill:#6b3828;}.cls-18{fill:#633022;}.cls-19{fill:#874839;}.cls-20{fill:#f6c193;}.cls-21{fill:#d9755b;}.cls-22{fill:#121a3f;opacity:0.15;}.cls-23{fill:#202d20;}.cls-24{fill:#f7f7f7;}.cls-25{fill:#e98576;}.cls-26{opacity:0.12;}.cls-27{fill:#b97c50;}.cls-28{fill:#532dba;}.cls-29{fill:#db9781;}.cls-30{fill:#fdd965;}.cls-31{fill:#f4ca62;}.cls-32{fill:#dbb956;}.cls-33{fill:#7b9881;}.cls-34{fill:#0d7396;}.cls-35{fill:#0e5462;}.cls-36{fill:#2f2f1f;}.cls-37{fill:#333323;}</style>
  </defs>
  <path class="cls-1" d="M136.77,288a30.06,30.06,0,0,1,4.43-.57,8.8,8.8,0,0,0,1.81-.23,3.32,3.32,0,0,0,2.29-2.35,2.86,2.86,0,0,0-.13-2A69.44,69.44,0,0,0,129.45,285c-2.31.64-4.82,1.38-7.33,2.23-8.54,2.85-13.36,4.54-14.46,5.26a4.07,4.07,0,0,0-1.88,2.15,4.85,4.85,0,0,0-.17,2.43,4.39,4.39,0,0,0,.43,1.61,15,15,0,0,1,5-2.91c2.41-.94,7.33-2.53,14.67-4.76.4-.11.8-.31,1.21-.42,3.91-1.17,7.23-2,9.85-2.58Z"/>
  <path class="cls-2" d="M141.2,287.39a30.06,30.06,0,0,0-4.43.57,16.65,16.65,0,0,0-3.19,3.08c-.09.1-.09.31-.19.41-.2.4-.39.81-.59,1.22a11.06,11.06,0,0,0-.75,3.95,8.39,8.39,0,0,0,.34,2.31,7.31,7.31,0,0,0,2.58,3.4v.1c.3.09.61.29.91.39a9.27,9.27,0,0,1,1.43.68,8.82,8.82,0,0,0,4.23-.26,11.78,11.78,0,0,0,4.81-2.8,10,10,0,0,0,1.68-1.85,12.68,12.68,0,0,0,2.54-6.19l0-1.11a11.52,11.52,0,0,0-.13-1.92c-.11-.2-.11-.4-.21-.5-.32-1-2-2.39-4.91-4.06a3.32,3.32,0,0,1-2.29,2.35,8.8,8.8,0,0,1-1.81.23Z"/>
  <path class="cls-3" d="M142,278.19c-1.53-.88-4.36-1.34-8.4-1.38s-9.68.95-17.12,2.68-11.58,1.89-12.2.59a24.89,24.89,0,0,1-.07,2.73c-.05,3.13-.12,5.05-.11,5.55a14.34,14.34,0,0,1-1.37,3.25,8.81,8.81,0,0,1-3.77,3.9,12.74,12.74,0,0,1-4.52,1.38c-1.52.12-2.32.23-2.42.23-2.93.15-5-.32-6.19-1.62a10.14,10.14,0,0,1-2.69-4.8c-.54-2.11-.86-3.32-.87-3.62-.1-.1-.1-.1-.1-.2v-.1l0-1a20.11,20.11,0,0,0-.13-2.32c0-1.72-.06-3.84-.2-6.26-.13-2.22-.17-4.33-.3-6.35-.82-1.1-3-2.79-6.54-5.15s-6.52-3.74-8.84-4.11a8.6,8.6,0,0,0-6,.7h0a3.68,3.68,0,0,0-.45,3.24c.22,1.41,2,3.5,5.34,6.28a105.34,105.34,0,0,1,8.29,7.44,20.35,20.35,0,0,1,4.34,6.19c.13,2.22-.25,3.64-1.25,4.36-2.92.95-5.52,1.9-8,2.65s-6.23,1.91-11.15,3.5a86.86,86.86,0,0,0-14,5.56,114.61,114.61,0,0,0-10.5,5.82c-2.61,1.55-3.5,2.77-2.57,3.67a9.58,9.58,0,0,0,3.06,2.58c.1.1.21.09.31.19q1.07.45,5.14-.38c6.33-1.81,12.46-3.62,18.49-5.32,12.07-3.42,18.8-5.24,20.31-5.36,3.94-.37,7,0,8.91,1.17s5.64,6,10.92,14.47,9.59,13.29,12.84,14.65a7.63,7.63,0,0,0,7.76-.42l.9-.62a12.63,12.63,0,0,0,.06-2.83V329a6.89,6.89,0,0,0-.22-1.41c-.34-2.12-2-6.33-4.84-12.44s-5.52-11.63-7.72-16.54a4.39,4.39,0,0,1-.43-1.61,4.85,4.85,0,0,1,.17-2.43,4.07,4.07,0,0,1,1.88-2.15c1.1-.72,5.92-2.41,14.46-5.26,2.51-.85,5-1.59,7.33-2.23a69.44,69.44,0,0,1,15.72-2.16,7,7,0,0,0-3.2-4.6Z"/>
  <path class="cls-4" d="M104.25,280.08l-.09-5.95-.35-22.91A36.08,36.08,0,0,1,95.89,255c0,1.11.14,2.32.25,3.63.06,3.94-1.18,11.79-1.81,23.81-.41,6,.32,10.84.08,14.48a12.74,12.74,0,0,0,4.52-1.38,8.81,8.81,0,0,0,3.77-3.9,14.34,14.34,0,0,0,1.37-3.25c0-.5.06-2.42.11-5.55a24.89,24.89,0,0,0,.07-2.73Z"/>
  <path class="cls-5" d="M126.92,290.54a7.36,7.36,0,0,0-.28,2.12c0,2.53.68,4.43,2,5.72,1,1.1,3.16,2.38,6.32,3.95h0a7.31,7.31,0,0,1-2.58-3.4,8.39,8.39,0,0,1-.34-2.31,11.06,11.06,0,0,1,.75-3.95c.2-.41.39-.82.59-1.22.1-.1.1-.31.19-.41a16.65,16.65,0,0,1,3.19-3.08c-2.62.55-5.94,1.41-9.85,2.58Z"/>
  <path class="cls-3" d="M135,302.33v0Z"/>
  <path class="cls-1" d="M33.49,313.76c-.1-.1-.21-.09-.31-.19A9.58,9.58,0,0,1,30.12,311l-.3.61a.77.77,0,0,0-.19.51c-.1.1-.1.1-.1.2v.2a3.9,3.9,0,0,0,.32,1.11,3.18,3.18,0,0,0,.53,1.3,2.83,2.83,0,0,0,.82,1.1,5.19,5.19,0,0,0,3.15,1.16,11.86,11.86,0,0,0,3.12-.45c1.91-.43,3.83-.86,5.73-1.4L48.74,314q30.16-7.12,31.08-7.14c2.83,0,5.58,1.53,8.35,4.72a118.17,118.17,0,0,1,7.23,10.49,57.61,57.61,0,0,0,7.31,9.68l.92.89h0c.31.3.72.5,1,.8a12.43,12.43,0,0,0,2.76,2.07c.71.3,1.32.59,2,.88a13.55,13.55,0,0,0,3.75.85,15.48,15.48,0,0,0,3.32-1.06,4.37,4.37,0,0,0,1.29-1,5.52,5.52,0,0,0,1-3.24l-.9.62a7.63,7.63,0,0,1-7.76.42c-3.25-1.36-7.57-6.25-12.84-14.65s-9-13.29-10.92-14.47-5-1.54-8.91-1.17c-1.51.12-8.24,1.94-20.31,5.36-6,1.7-12.16,3.51-18.49,5.32q-4.08.83-5.14.38Z"/>
  <path class="cls-5" d="M29.53,312.31c-.1.2-.3.41-.4.61a6.27,6.27,0,0,0-1.08,1.73c-.1.11-.2.31-.3.41a3.91,3.91,0,0,0-.48,1.12,11.41,11.41,0,0,0-.75,4.05c0,2.62.68,4.53,2,5.82,1,1.1,3.06,2.38,6.22,3.95h0a7.72,7.72,0,0,1-2.48-3.4,9,9,0,0,1-.34-2.31,11.41,11.41,0,0,1,.75-4.05,8.16,8.16,0,0,1,.49-1.12c.1-.1.19-.31.29-.41l.89-1.53A5.19,5.19,0,0,1,31.2,316a2.83,2.83,0,0,1-.82-1.1,3.18,3.18,0,0,1-.53-1.3,3.9,3.9,0,0,1-.32-1.11v-.2Z"/>
  <path class="cls-2" d="M33.46,318.71c-.1.1-.19.31-.29.41a8.16,8.16,0,0,0-.49,1.12,11.41,11.41,0,0,0-.75,4.05,9,9,0,0,0,.34,2.31,7.72,7.72,0,0,0,2.48,3.4l.1.1c.3.09.61.29.91.39s.92.39,1.43.68a8.37,8.37,0,0,0,4.13-.26,11.42,11.42,0,0,0,4.9-2.8,15,15,0,0,0,1.59-1.84,11.84,11.84,0,0,0,2.53-6.2,3.87,3.87,0,0,0,.09-1.11,12.42,12.42,0,0,0-.24-2,.6.6,0,0,0-.1-.4,6.67,6.67,0,0,0-1.35-2.5l-5.54,1.29c-1.9.54-3.82,1-5.73,1.4a11.86,11.86,0,0,1-3.12.45l-.89,1.53Z"/>
  <path class="cls-6" d="M95.59,255.08a39.61,39.61,0,0,1-6.24,1.2c.49,6.05-.46,15,.22,26.6.4,6.15,3.07,10.7,4.84,14,.24-3.64.47-8.39.89-14.35q.93-18,.84-23.94c-.11-1.31-.24-2.52-.25-3.63a.38.38,0,0,1-.3.11Z"/>
  <path class="cls-1" d="M72.08,282.89a10.76,10.76,0,0,1,1.14,1.3c2,2.49,3.09,4.39,3.11,5.6,1-.72,1.38-2.14,1.25-4.36a20.35,20.35,0,0,0-4.34-6.19A105.34,105.34,0,0,0,65,271.8c-3.37-2.78-5.12-4.87-5.34-6.28a3.68,3.68,0,0,1,.45-3.24L59,263.41a4,4,0,0,0-1.18,2,3.16,3.16,0,0,0,0,1.42c.31.6.73,1.5,1.25,2.6a9,9,0,0,0,1.65,2.6c.52.5,2.46,2.29,5.74,5.37,2.35,2.08,4.2,3.87,5.53,5.26,0,.1,0,.1.1.2Z"/>
  <path class="cls-5" d="M72,282.69c-1.33-1.39-3.18-3.18-5.53-5.26-3.28-3.08-5.22-4.87-5.74-5.37a9,9,0,0,1-1.65-2.6c-.52-1.1-.94-2-1.25-2.6a15.48,15.48,0,0,0-2.11.43,15,15,0,0,1,2.36,2.79.35.35,0,0,0,.11.3c.21.61.42,1.31.74,2.22.1.29.1.5.21.8a26,26,0,0,1,.8,6.24,10.33,10.33,0,0,1-.83,5.06,4.39,4.39,0,0,1-.7.72L72,282.89v-.2Z"/>
  <path class="cls-3" d="M72,282.89h.1c-.1-.1-.1-.1-.1-.2v.2Z"/>
  <path class="cls-4" d="M82.24,287.08c0,.3.33,1.51.87,3.62a10.14,10.14,0,0,0,2.69,4.8c1.23,1.3,3.26,1.77,6.19,1.62.1,0,.9-.11,2.42-.23-1.77-3.31-3-8-3.35-14.18-.68-11.6-1.22-20.38-1.71-26.43a76.17,76.17,0,0,1-8.88.54c.47,4.33.84,9,1,14,.13,2,.17,4.13.3,6.35.14,2.42.17,4.54.2,6.26a20.11,20.11,0,0,1,.13,2.32l0,1v.1c0,.1,0,.1.1.2Z"/>
  <path class="cls-2" d="M55.7,267.29a1,1,0,0,0-1,.42h0l-.3.31c-.09.3-.29.71-.38,1.12a14.32,14.32,0,0,0-.34,4,32.4,32.4,0,0,0,.91,6.95,13.57,13.57,0,0,0,2.29,4.81,2.34,2.34,0,0,0,.92.59.63.63,0,0,0,.6-.11,4.39,4.39,0,0,0,.7-.72,10.33,10.33,0,0,0,.83-5.06,26,26,0,0,0-.8-6.24c-.11-.3-.11-.51-.21-.8-.32-.91-.53-1.61-.74-2.22a.35.35,0,0,1-.11-.3,15,15,0,0,0-2.36-2.79Z"/>
  <path class="cls-3" d="M34.75,330l.1.1-.1-.1Z"/>
  <path class="cls-5" d="M122.59,331.59a8.34,8.34,0,0,0-1.55-2.4c-.82-.9-1.53-.89-2.22-.17v.1a12.63,12.63,0,0,1-.06,2.83,5.52,5.52,0,0,1-1,3.24,4.37,4.37,0,0,1-1.29,1,15.48,15.48,0,0,1-3.32,1.06,13.55,13.55,0,0,1-3.75-.85c-.71-.29-1.32-.58-2-.88a12.43,12.43,0,0,1-2.76-2.07c.21.39.42.9.63,1.4a.42.42,0,0,1,.11.3,14.08,14.08,0,0,1,.84,2.41c.11.3.11.5.22.8a32,32,0,0,1,.91,6.86c0,2.52-.24,4.34-.93,5.46-.2.41-.39.71-.69.82l16.81-3.09a.37.37,0,0,1,.3-.1h0a1.92,1.92,0,0,0,.89-.92,12.24,12.24,0,0,0,.83-5.57,28.76,28.76,0,0,0-.81-6.65c-.11-.3-.11-.6-.22-.9a20.09,20.09,0,0,0-1-2.71Z"/>
  <path class="cls-2" d="M103.63,332.68l-.92-.89a1.2,1.2,0,0,0-1.11.42v.1c-.1.1-.1.21-.2.31a3.37,3.37,0,0,0-.49,1.22,17,17,0,0,0-.44,4.34,28.2,28.2,0,0,0,1.13,7.56c.75,2.51,1.48,4.31,2.4,5.21a2.1,2.1,0,0,0,1,.69c.2.1.41,0,.71-.11s.49-.41.69-.82c.69-1.12,1-2.94.93-5.46a32,32,0,0,0-.91-6.86c-.11-.3-.11-.5-.22-.8a14.08,14.08,0,0,0-.84-2.41.42.42,0,0,0-.11-.3c-.21-.5-.42-1-.63-1.4s-.71-.5-1-.8Z"/>
  <polygon class="cls-7" points="150.53 295.59 167.68 297.55 165.21 316.81 148.34 314.89 150.53 295.59"/>
  <path class="cls-8" d="M199,323s1.36,3-5,4.58c-3.09.74-13.36,3.83-20.21,2s-8-.37-15.19-.51-14-2.44-15.17-3.69-.5-4.07,1.34-5.91,25,1.65,25,1.65l19.08,1Z"/>
  <path class="cls-9" d="M148.58,303a.19.19,0,0,0-.14-.19.23.23,0,0,0-.25.06c-1,1.11-3.47,7.84-4.1,17.5,1.28,1.21.85,1.58,6.37,2.66s13.51.1,17.86,2.45,20.05,2.24,27.22,1.2c3-.74,6.59-2.66.4-6.92-6.53-4.49-10.87-1.77-15.21-6.93s-7.89-5.78-7.89-5.78-5.3-1.26-13,3C154.29,313.16,148,307.06,148.58,303Z"/>
  <path class="cls-10" d="M148.53,303c0-.14-.26-.2-.34,0a3,3,0,0,0-.31.48,9.06,9.06,0,0,0-.5,1c-.3.71-.55,1.45-.78,2.19-.46,1.48-.83,3-1.15,4.5a66.61,66.61,0,0,0-1.18,9.22l-.06-.15a11.92,11.92,0,0,0,1.19,1.1,5.23,5.23,0,0,0,1.45.61c1,.29,2.11.5,3.18.7a41.42,41.42,0,0,0,6.5.56c2.19.06,4.4.09,6.62.32a20.38,20.38,0,0,1,3.33.58,30.65,30.65,0,0,1,3.1,1.19,30.9,30.9,0,0,0,6.31,1c2.16.17,4.34.25,6.52.25a102.18,102.18,0,0,0,13-.74l-.08,0a10,10,0,0,0,1.8-.61,2.81,2.81,0,0,0,1.22-.94c.45-.56-.28-1.71-1.24-2.56a17.46,17.46,0,0,0-6.94-3.79c-1.29-.38-2.66-.63-4-1a11.16,11.16,0,0,1-4-1.9,11,11,0,0,1-1.59-1.53c-.5-.54-.88-1.06-1.36-1.56a21.79,21.79,0,0,0-3-2.74,10.64,10.64,0,0,0-3.55-1.8,14.07,14.07,0,0,0-4-.05,23,23,0,0,0-7.86,2.46,18.62,18.62,0,0,1-1.91.9l-1,.26-1.06.09a7.73,7.73,0,0,1-4-1.18,9.69,9.69,0,0,1-3-2.9A6.18,6.18,0,0,1,148.53,303Zm.1,0a6.07,6.07,0,0,0,1.16,3.89,9.54,9.54,0,0,0,3,2.84,7.51,7.51,0,0,0,3.94,1.13l1-.1,1-.26c.63-.27,1.26-.57,1.87-.9a24.41,24.41,0,0,1,7.92-2.63,14.63,14.63,0,0,1,4.18,0,10.79,10.79,0,0,1,3.77,1.81,21.28,21.28,0,0,1,3.16,2.75,24,24,0,0,0,2.92,3,10.24,10.24,0,0,0,3.75,1.71c1.34.35,2.72.57,4.07.93a18.22,18.22,0,0,1,7.33,3.94,6.44,6.44,0,0,1,1.36,1.62,2,2,0,0,1,.1,2.07,3.63,3.63,0,0,1-1.63,1.35,10.9,10.9,0,0,1-2,.69h0a93.23,93.23,0,0,1-13.15.69c-2.2,0-4.4-.12-6.58-.31a31,31,0,0,1-6.49-1.16,30.3,30.3,0,0,0-3-1.24,19.68,19.68,0,0,0-3.22-.62c-2.17-.27-4.37-.34-6.56-.44A40,40,0,0,1,150,323c-1.08-.22-2.15-.44-3.21-.76a5.69,5.69,0,0,1-1.51-.68,14.49,14.49,0,0,1-1.2-1.14l0,0v0a68.19,68.19,0,0,1,1.26-9.24c.33-1.52.71-3,1.19-4.51a21.4,21.4,0,0,1,.8-2.2,11.26,11.26,0,0,1,.51-1.05,3.91,3.91,0,0,1,.34-.49C148.21,302.67,148.63,302.69,148.63,303Z"/>
  <path class="cls-11" d="M143.23,322.38c0-.05,0-.11-.07-.14a.15.15,0,0,0-.18,0c-1.21,1.64-1.83,4.23,4.77,5.5,10.06,1.93,15.9-.65,22,.94s17.94-.09,22.19-.51,8.9-2.34,7.42-4.77c-.23-.6.22,1.95-2.86,3.2-1.82.73-9.37,1.42-16.86,1.8-8.59.43-6.78-1.11-16.51-2.45C154.25,324.78,141,327.13,143.23,322.38Z"/>
  <polygon class="cls-7" points="184.11 291.3 199.91 295.93 191.46 332.62 175.92 328.06 184.11 291.3"/>
  <path class="cls-8" d="M228,332.86s1.35,3.39-4.93,5.12c-3,.84-13.18,4.31-20,2.25s-7.86-.4-15-.55-13.8-2.7-15-4.09-.5-4.54,1.31-6.61,24.73,1.81,24.73,1.81l18.84,1.1Z"/>
  <path class="cls-9" d="M178.11,310.63a.2.2,0,0,0-.13-.21.23.23,0,0,0-.25.06c-1,1.25-3.4,8.77-4,19.56,1.26,1.35.85,1.76,6.3,3s13.34.09,17.65,2.7,19.81,2.47,26.88,1.3c3-.83,6.5-3,.38-7.73-6.47-5-10.74-2-15.05-7.72s-7.8-6.44-7.8-6.44-5.24-1.39-12.81,3.39C183.78,322,177.59,315.18,178.11,310.63Z"/>
  <path class="cls-10" d="M178.07,310.62c0-.18-.29-.24-.36,0a4.88,4.88,0,0,0-.31.55c-.18.39-.34.78-.49,1.19-.29.8-.54,1.62-.76,2.45-.45,1.66-.8,3.34-1.1,5a78,78,0,0,0-1.11,10.23l-.06-.16c.4.4.72.85,1.11,1.17a4.53,4.53,0,0,0,1.37.69,27,27,0,0,0,3.13.79,34.65,34.65,0,0,0,6.44.66c2.17.08,4.36.1,6.57.36a18.11,18.11,0,0,1,3.31.65,7.92,7.92,0,0,1,.82.28,5.11,5.11,0,0,1,.8.35c.56.29,1,.47,1.42.68a26.76,26.76,0,0,0,6.21,1.16c2.14.2,4.3.29,6.46.29a89,89,0,0,0,12.89-.84l-.09,0c1.25-.34,2.57-.94,3-1.76s-.21-1.93-1.1-2.88a16.67,16.67,0,0,0-6.85-4.32c-1.3-.44-2.69-.71-4.11-1.15a10.51,10.51,0,0,1-4-2.13,25.22,25.22,0,0,1-2.83-3.34,21.25,21.25,0,0,0-2.91-3,10.36,10.36,0,0,0-3.51-2.08,12,12,0,0,0-4.14-.07A21.22,21.22,0,0,0,190,318.3a11.81,11.81,0,0,1-2,1,5.86,5.86,0,0,1-2.16.3,7.28,7.28,0,0,1-4-1.55,10.16,10.16,0,0,1-2.8-3.25A7.28,7.28,0,0,1,178.07,310.62Zm.09,0a7.22,7.22,0,0,0,1,4.07,10.13,10.13,0,0,0,2.78,3.19,7.08,7.08,0,0,0,3.91,1.48,5.29,5.29,0,0,0,2.08-.31,10.93,10.93,0,0,0,1.9-1,22.24,22.24,0,0,1,8-3.06,12.36,12.36,0,0,1,4.29,0,10.83,10.83,0,0,1,3.74,2.11,21.84,21.84,0,0,1,3.05,3,24.57,24.57,0,0,0,2.81,3.21,10,10,0,0,0,3.76,1.92c1.36.39,2.78.64,4.15,1.08a17.46,17.46,0,0,1,7.25,4.49,6.69,6.69,0,0,1,1.24,1.78,2.44,2.44,0,0,1,0,2.14,3.72,3.72,0,0,1-1.57,1.5,9.6,9.6,0,0,1-2,.8h0a81.64,81.64,0,0,1-13.07.79c-2.18,0-4.36-.12-6.53-.35a25.62,25.62,0,0,1-6.42-1.31,21.78,21.78,0,0,0-3-1.35,18.21,18.21,0,0,0-3.18-.69c-2.16-.28-4.34-.35-6.52-.47a34.57,34.57,0,0,1-6.49-.79,29.1,29.1,0,0,1-3.17-.86,4.85,4.85,0,0,1-1.45-.78,14,14,0,0,1-1.11-1.21l0,0v0a83.87,83.87,0,0,1,1.21-10.24c.31-1.69.68-3.38,1.14-5,.23-.82.49-1.65.79-2.46.15-.4.31-.8.5-1.19a4.56,4.56,0,0,1,.33-.56.29.29,0,0,1,.3-.18A.25.25,0,0,1,178.16,310.63Z"/>
  <path class="cls-11" d="M172.89,332.3a.14.14,0,0,0-.07-.16.14.14,0,0,0-.18.05c-1.19,1.83-1.79,4.73,4.73,6.13,9.93,2.14,15.7-.75,21.7,1s17.72-.12,21.91-.61,8.78-2.62,7.32-5.34c-.23-.66.22,2.18-2.82,3.58-1.8.83-9.25,1.61-16.64,2-8.48.49-6.7-1.23-16.32-2.7C183.78,335,170.67,337.61,172.89,332.3Z"/>
  <path class="cls-12" d="M101.74,186s60.84-8.87,71.7-9,14.25,8.39,11.46,21-14.55,94.86-15.2,101.19c0,0-9,8.63-21.1.81l5.45-79.21s-42.52,14.36-60.76,15.77S72.69,195.63,101.74,186Z"/>
  <path class="cls-13" d="M161.69,226.2a38.59,38.59,0,0,0-4.24,4,38.53,38.53,0,0,1-5.28,4.81c-3.11,2.05-10.18,3.73-15.38,6.55-5.83,3.14-4.66,2.91-7.57,4.63-4.06,2.48-24.08,12-23.38,10-.1,0-8.21,1.61-8.21,1.5-2.18,1.3-72.87-12.31-78.29-16.75-2.23-1.75-4-3.2-5.42-4.33a17.31,17.31,0,0,0-1.67,7.18,16.21,16.21,0,0,0,.48,4.41,7.45,7.45,0,0,0,2,3.12,4.7,4.7,0,0,1,.43.73c4.41,7,15.12,14.29,32,21.71a246.3,246.3,0,0,0,24.58,9c7.27,2.31,11.69,3.4,13.27,3.37q10.07-.15,23.81-7A278.61,278.61,0,0,0,133,264.93a152.65,152.65,0,0,1,15.4-8.55,62.38,62.38,0,0,0,9.16-5.18,12.5,12.5,0,0,0,4.19-7.12c.69-3,1-7.9.93-14.74a6.85,6.85,0,0,0-1-3.14Z"/>
  <path class="cls-14" d="M157.45,230.16a38.59,38.59,0,0,1,4.24-4c-1.51-2.61-4.7-5.61-9.58-8.9-5.94-4-13.87-8.1-23.79-12.37-8.77-3.76-17.31-7-25.85-9.7-8.33-2.61-13.81-3.89-16.64-3.85-4.3.07-10.46,1.74-18.7,5.12a156.3,156.3,0,0,0-24.56,12.79c-9,5.72-16.09,11.3-21.36,17a39.73,39.73,0,0,0-7.29,10.32c1.38,1.13,3.19,2.58,5.42,4.33,5.42,4.44,8.81,7,10.18,7.63a81.37,81.37,0,0,1,8.79,4.81,27.94,27.94,0,0,0,9.17,3.44c11.16,2,19.8,4.85,25.83,8.23,2.44,1.54,4.24,2.46,5.19,3a12.41,12.41,0,0,0,5.68,1.18c1.25-.34,2.72-.67,4.39-1.22a43.87,43.87,0,0,0,8.13-3.6c0,.11,0,.21.1.21a16,16,0,0,1-4.62,6.28q-3.11,2.73-3.07,5.09c0,.53.33.94,1,1.35a3.2,3.2,0,0,0,1.37.51c.93-.86,2.06-1.82,3.31-2.89a62.64,62.64,0,0,1,6-4.72A68.72,68.72,0,0,0,115.08,259a56.27,56.27,0,0,1,11.5-9.44c2.91-1.72,7.28-4.21,13.11-7.35,5.2-2.81,9.37-5.19,12.48-7.24a38.53,38.53,0,0,0,5.28-4.81Z"/>
  <path class="cls-15" d="M52.38,183.74l20.55,1.92c-4,10.84-2.78,40.37-.37,50.42,0,0-22.58-3.67-24.73-22.85S52.38,183.74,52.38,183.74Z"/>
  <path class="cls-16" d="M72.93,185.66l37.5,3.5s35.66-6.7,43.55-7.41,32.93-3.29,43.26,0,10.22,35.3,10.16,44.59-7.8,80.82-7.8,80.82c-10.36,11.24-22.28,3.16-22.28,3.16-.54-6.64-2.11-47.3-4.91-58.53s1.39-30.12,1.39-30.12-58.4,28.94-75.27,28-26-13.68-26-13.68C63.34,206.92,68.92,196.5,72.93,185.66Z"/>
  <path class="cls-16" d="M189.19,313a17.19,17.19,0,0,0,10.41-5.79s.09-1.14.24-3.08A97.09,97.09,0,0,1,189.19,313Z"/>
  <path class="cls-12" d="M176,245.3c-2.8-11.23,1.39-30.11,1.39-30.11s-58.4,28.93-75.27,28.05a25.31,25.31,0,0,1-9.15-2c-5.49-2.49-5.91-10.6-.71-13.74,26.92-16.28,33.85-26,36.8-34.51l-56.17-7.34c-4,10.84-9.59,21.26-.37,50.42,0,0,9.11,12.8,26,13.68s75.27-28,75.27-28-4.19,18.89-1.39,30.12,4.37,51.89,4.91,58.53a17.24,17.24,0,0,0,3,1.48C178.78,298,178.34,254.52,176,245.3Z"/>

  <g id="girl-head" transform="rotate(0, 100, 80)">
    <path class="cls-17" d="M96.13,17S86.34-9,76,5.94,65.91,37.73,90.16,28.58Z"/>
    <path class="cls-18" d="M93.51,16.88S81.08.45,76.18,5.36c0,0-.92-3.55-3.9-1.66s-1.5,3.84-1.5,3.84S65.53,11.92,67,15s-2.43,2.79,1.15,5.39,7.2,8.21,20.48,1.73,4.91-5.06,4.91-5.06Z"/>
    <path class="cls-19" d="M71.71,11.52l-1.82-.73c-1.15-.45-2.81-1.12-4.82-1.73a9.86,9.86,0,0,0-1.54-.36,2.35,2.35,0,0,0-.69,0c-.09,0-.09.05,0,0s0,0,0,0a2.8,2.8,0,0,0,.38.62c.17.22.37.44.58.67.42.44.87.89,1.35,1.33.95.89,2,1.75,3.06,2.68s2.12,1.86,3.17,2.84c.52.5,1,1,1.53,1.54a11.14,11.14,0,0,1,.72.89,4.69,4.69,0,0,1,.32.55,2.84,2.84,0,0,1,.13.35,3,3,0,0,1,0,.43,1.22,1.22,0,0,1-.13.47.82.82,0,0,1-.12.2,1,1,0,0,1-.14.15,1.17,1.17,0,0,1-.29.23,1.55,1.55,0,0,1-.28.15,6.46,6.46,0,0,1-1,.36c-.65.19-1.28.34-1.88.52a21.84,21.84,0,0,0-3.37,1.24l-.37.19-.18.09-.19.1c-.25.14-.49.27-.71.41a9.64,9.64,0,0,0-1.24.85,4.1,4.1,0,0,0-1.48,2,2.42,2.42,0,0,0,.34,1.9A4.48,4.48,0,0,0,64,30.54a4.28,4.28,0,0,0,.4.32s-.16-.08-.44-.26a4.47,4.47,0,0,1-1.1-1,2.84,2.84,0,0,1-.64-2.16A4.49,4.49,0,0,1,63.63,25a11.76,11.76,0,0,1,1.25-1,7.92,7.92,0,0,1,.71-.47l.18-.11.19-.12.39-.22a18.39,18.39,0,0,1,3.46-1.48c.62-.21,1.26-.39,1.87-.58a6,6,0,0,0,.83-.32l.15-.08s.09-.06.09-.08,0,0,0,0a1.35,1.35,0,0,0-.28-.53,7.37,7.37,0,0,0-.61-.73c-.46-.49-1-1-1.47-1.45-1-1-2.06-1.91-3.09-2.84s-2.06-1.85-3-2.8c-.47-.47-.94-1-1.36-1.46a7.9,7.9,0,0,1-.61-.79,3.34,3.34,0,0,1-.5-1,1,1,0,0,1,.09-.79.94.94,0,0,1,.68-.39,3,3,0,0,1,1,.08,12,12,0,0,1,1.66.51c1,.38,1.91.8,2.69,1.18s1.46.74,2,1C71.1,11.15,71.71,11.52,71.71,11.52Z"/>
    <path class="cls-20" d="M142.71,55.13a3.29,3.29,0,0,1-.66,1.17,3.12,3.12,0,0,1-1.91,1.07l-.12,0a1.42,1.42,0,0,0-1,1.27,1.49,1.49,0,0,0,.12.77l.55,1.26a2.22,2.22,0,0,1,.26.63h0c.4,1.94-2.58,3.24-2.58,3.24s0,0,0,0l.14.23a3,3,0,0,1,.29,1.89,5.05,5.05,0,0,1-2.1,2.84l-.39.27a1.48,1.48,0,0,0-.63,1.27,1.13,1.13,0,0,0,0,.25v0a4.13,4.13,0,0,1-.62,3.17,3.82,3.82,0,0,1-2.66,1.68h-.06a25.3,25.3,0,0,1-7.76-.61l-1.77-.4a7,7,0,0,0-1.57-.21,6.79,6.79,0,0,0-2,.22l-.75.19a7.26,7.26,0,0,0-2.54,2c-1.45,1.55-2.93,3.5-3.46,4.17A21.58,21.58,0,0,0,108.77,86a3,3,0,0,0-.19.41.3.3,0,0,0,0,.08c-.18.41-.34.81-.48,1.23,0,0,0,0,0,.08l0,0s0,0,0,0l-.13.42c0,.16-.09.33-.13.5s-.09.39-.13.58l0,.16c-.07.42-.14.82-.2,1.2h0a11.47,11.47,0,0,0,1.1,2.11c4.64,7,8.64,18,8.64,18,9,15.92-42.92-1.25-42.79-1.36.81-.69,2.59-10.14,3.88-13.72a158,158,0,0,0,12-17.45,46.78,46.78,0,0,0,5.83-14.65c.18-.66-3.58,0-3.43-.73,0-.23.09-.45.12-.68a8.17,8.17,0,0,0-.18-3.13,13.24,13.24,0,0,0-1.87-4l-.31-.46h0c-.36-.53-.74-1.06-1.15-1.58h0c-4.3-5.63-10.5-11.59-6.94-22.36.2-.6.41-1.18.63-1.75h0s0-.07,0-.11a33.44,33.44,0,0,1,1.53-3.4l0-.07,0-.06v0l.14-.26a2.12,2.12,0,0,0,.11-.21c6.39-11.66,17.09-13.22,23.82-13.35l2.91-.09a46.78,46.78,0,0,1,9.92.65h0a11.39,11.39,0,0,1,5.87,3.06A39,39,0,0,1,134.13,24a24.21,24.21,0,0,1,2.43,6.83,15,15,0,0,0,.93,2.91c.87,1.94.85,3.61-.13,6.22a9.43,9.43,0,0,0-.49,1.8,7.35,7.35,0,0,0-.09.87,3.52,3.52,0,0,0,.14,1.21,3.77,3.77,0,0,0,.66,1.33,11.46,11.46,0,0,1,1.48,2.71c.82,2.21.3,2.31,2.83,4.76l.13.14A2.3,2.3,0,0,1,142.71,55.13Z"/>
    <path class="cls-21" d="M136.32,58.65a1.91,1.91,0,0,1-1.17-.57c-.9-1-.31-2.75-.23-2.95a.42.42,0,0,1,.54-.26.43.43,0,0,1,.26.55c-.15.4-.41,1.56.06,2.09s1.35.33,2.06.15a.43.43,0,0,1,.52.31.43.43,0,0,1-.31.52A4.76,4.76,0,0,1,136.32,58.65Z"/>
    <path class="cls-18" d="M138,55.8a8,8,0,0,1,2.11-.22c.57,0,.85.5.41.69a5.2,5.2,0,0,1-2.1.49C137.53,56.75,137.19,56,138,55.8Z"/>
    <path class="cls-21" d="M129.35,46.73a.44.44,0,0,1-.35-.28.44.44,0,0,1,.27-.55c1.09-.37,4.12-1.51,5-2.37a.43.43,0,1,1,.6.61"/>
    <path class="cls-22" d="M96.17,63.33c.19-.66.35-1.34.5-2,0-.23.09-.45.12-.67a8.21,8.21,0,0,0-.18-3.14c2.28-2.62,5.08-4.37,6.58.17C105.08,63.38,99.82,63.72,96.17,63.33Z"/>
    <path class="cls-22" d="M122.48,43.9s7.77.11,10.77-1a1.69,1.69,0,0,1,1.13,0,.75.75,0,0,1,.5,1.07C134.47,45.19,125.18,49.37,122.48,43.9Z"/>
    <g id="girl-eye">
      <path class="cls-23" d="M134.43,46.07c-.12.87-.66,1.51-1.2,1.44s-.89-.84-.77-1.71.65-1.51,1.2-1.44S134.55,45.2,134.43,46.07Z"/>
      <path class="cls-24" d="M134.05,45.72a.43.43,0,0,1-.5.38.44.44,0,0,1-.38-.5.45.45,0,0,1,.5-.38A.43.43,0,0,1,134.05,45.72Z"/>
    </g>
    <path class="cls-18" d="M124.86,39.47s2.57-3.91,4.77-4.31l6,2.27,0,2-6.12-2.61Z"/>
    <path class="cls-25" d="M137.34,64.58s0,0,0,0l-3.69.83,2.2-1.44c2.23-2.14,3.43-2.64,4-2.68C140.32,63.28,137.34,64.58,137.34,64.58Z"/>
    <path class="cls-25" d="M136.79,67.07a5.46,5.46,0,0,1-2.71-.81l-.32-.16a.37.37,0,0,1-.17-.59c.16-.2.59-.17.87-.26s1.09-.44,1.25-.46a5,5,0,0,0,1.6-.27c.28-.11.57,1.48.55,1.81s0,.47-.27.58A2.59,2.59,0,0,1,136.79,67.07Z"/>
    <path class="cls-21" d="M129.54,42.17a.4.4,0,0,1-.28-.16.44.44,0,0,1,.07-.6c.24-.18,2.32-1.81,3.65-1.43a1.33,1.33,0,0,1,.88.86.42.42,0,0,1-.25.54.43.43,0,0,1-.55-.25.48.48,0,0,0-.31-.33c-.68-.18-2.13.69-2.89,1.28A.39.39,0,0,1,129.54,42.17Z"/>
    <ellipse class="cls-17" cx="81.04" cy="16.77" rx="5" ry="11.08" transform="translate(22.2 74.97) rotate(-56.37)"/>
    <path class="cls-19" d="M89.83,17.5l1.36-1.56c.84-1,2.08-2.41,3.37-4.19a11.64,11.64,0,0,0,.89-1.42,2.45,2.45,0,0,0,.26-.68c0-.09,0-.1,0,0s0,0-.06,0a2.75,2.75,0,0,0-.74.16c-.28.1-.57.22-.86.35-.59.26-1.19.56-1.79.88-1.21.64-2.43,1.4-3.71,2.12S86,14.62,84.66,15.32c-.66.35-1.34.68-2,1a8.82,8.82,0,0,1-1.13.41,3.93,3.93,0,0,1-.65.13,2.51,2.51,0,0,1-.39,0,2.33,2.33,0,0,1-.44-.1,1.4,1.4,0,0,1-.42-.28c-.06-.06-.11-.13-.16-.19a1.63,1.63,0,0,1-.23-.57,2,2,0,0,1,0-.33,7.35,7.35,0,0,1,0-1.15c0-.72.11-1.39.14-2.06a22.46,22.46,0,0,0-.07-3.78L79.15,8l0-.2,0-.23c0-.29-.1-.58-.15-.84a11,11,0,0,0-.42-1.53A4.3,4.3,0,0,0,77.05,3a2.55,2.55,0,0,0-2-.31,5.08,5.08,0,0,0-1.36.54,3.74,3.74,0,0,0-.45.29,3.89,3.89,0,0,1,.41-.36A5,5,0,0,1,75,2.4a3,3,0,0,1,2.37.11A4.75,4.75,0,0,1,79.29,4.8a12,12,0,0,1,.58,1.6c.09.29.15.58.22.87l0,.21a2.4,2.4,0,0,1,0,.24l.09.46a19.42,19.42,0,0,1,.27,4c0,.69-.05,1.39-.07,2.06a5.64,5.64,0,0,0,0,.94.45.45,0,0,0,0,.18.28.28,0,0,0,0,.12c0,.07,0,0,0,0a1.43,1.43,0,0,0,.61-.09,8.41,8.41,0,0,0,.94-.35c.64-.29,1.29-.62,1.94-1,1.3-.68,2.6-1.4,3.88-2.11s2.54-1.41,3.81-2c.64-.31,1.27-.61,1.92-.85a8.21,8.21,0,0,1,1-.33,3.59,3.59,0,0,1,1.13-.16,1,1,0,0,1,.75.35,1,1,0,0,1,.15.82,3.31,3.31,0,0,1-.43,1,13.49,13.49,0,0,1-1.08,1.46c-.73.88-1.46,1.63-2.1,2.28s-1.24,1.19-1.72,1.64C90.41,17,89.83,17.5,89.83,17.5Z"/>
    <path class="cls-18" d="M80.45,41.49A26.91,26.91,0,0,0,88.28,61a7.8,7.8,0,0,0,9.24,1.61c1.5-.79,2.58-2,2.11-3.87-1.23-4.81,2.74-1.86,2.72-3.82s2.92-2.23,2.41-6.59,7.18-2.38,7.18-2.38l1.24,2.65a3.72,3.72,0,0,0,2.22,2h0l.81-6a1.88,1.88,0,0,1,.75-1.28c2.86-2,14.16-10.65,11-19.1,0,0,6,6,8.6,3S125.86-.63,101,10a37.85,37.85,0,0,0-9.7,6.31C84.29,22.42,80.42,31.69,80.45,41.49Z"/>
    <path class="cls-17" d="M82.2,40c0,5.74,3,10.35,6.86,17,2,3.34,4.81,5.58,7.63,4.11,1.35-.71,1.69-2.77,1.26-4.46-1.1-4.34,4.31-2,4.28-3.76s2.17-3.39,1.71-7.33,6.48-2.15,6.48-2.15l1.12,2.39a3.33,3.33,0,0,0,2,1.82h0l.73-5.4c.07-.47,3.23-2.35,3.6-2.6,2.57-1.82,10.44-13.64,7.59-21.27,0,0,7.56,10.47,9.88,7.77s-11.72-24-34.15-14.39A89.52,89.52,0,0,0,91.27,19C84.92,24.52,82.18,31.14,82.2,40Z"/>
    <path class="cls-19" d="M72.64,23.93,71,25.9c-1,1.27-2.49,3.07-4,5.33a15.7,15.7,0,0,0-1,1.78,2.85,2.85,0,0,0-.29.85c0,.11,0,.13,0,0s0,0,.07,0a3.77,3.77,0,0,0,.91-.23c.34-.13.7-.29,1.06-.46.71-.35,1.45-.74,2.18-1.16,1.48-.84,3-1.82,4.53-2.76s3.14-1.91,4.76-2.83c.81-.46,1.64-.9,2.51-1.3A10.72,10.72,0,0,1,83,24.59a5.68,5.68,0,0,1,.81-.19,3.77,3.77,0,0,1,.48,0,2.91,2.91,0,0,1,.56.11,1.82,1.82,0,0,1,.53.33c.07.08.14.15.2.23a1.41,1.41,0,0,1,.13.24,1.94,1.94,0,0,1,.17.45,2.27,2.27,0,0,1,.08.41,8.8,8.8,0,0,1,0,1.43c0,.89-.09,1.73-.11,2.56a29.53,29.53,0,0,0,.23,4.68c0,.18,0,.36.08.54l0,.26.06.27c.06.37.14.72.22,1a13,13,0,0,0,.57,1.89A5.41,5.41,0,0,0,89,41.45a3.22,3.22,0,0,0,2.5.32,6.59,6.59,0,0,0,1.67-.72,4.67,4.67,0,0,0,.55-.37,5.93,5.93,0,0,1-.5.45,5.76,5.76,0,0,1-1.64,1,3.61,3.61,0,0,1-2.93-.05,5.76,5.76,0,0,1-2.48-2.76,14.7,14.7,0,0,1-.78-2c-.12-.35-.21-.71-.3-1.06L85,36c0-.11,0-.19-.06-.29l-.12-.56a24.82,24.82,0,0,1-.49-4.9c0-.85,0-1.72,0-2.56a6.83,6.83,0,0,0-.07-1.15,1.2,1.2,0,0,0,0-.23.53.53,0,0,0-.05-.14c0-.09,0,0,0-.05a1.58,1.58,0,0,0-.76.13,11.64,11.64,0,0,0-1.15.47c-.78.38-1.58.81-2.37,1.26-1.59.88-3.18,1.82-4.74,2.75s-3.1,1.84-4.65,2.66a25.26,25.26,0,0,1-2.35,1.13,11.77,11.77,0,0,1-1.22.45,4.16,4.16,0,0,1-1.39.24,1.28,1.28,0,0,1-.94-.42,1.23,1.23,0,0,1-.21-1,3.85,3.85,0,0,1,.5-1.26,16.17,16.17,0,0,1,1.28-1.85c.88-1.12,1.75-2.07,2.53-2.9s1.48-1.52,2.06-2.09C71.94,24.54,72.64,23.93,72.64,23.93Z"/>
    <path class="cls-22" d="M100.7,50.48s2,11.68,8,8.7c0,0,3-1.14,1.75-7.23Z"/>
    <path class="cls-7" d="M109.72,57.46h0a4,4,0,0,1-3.89,0c-2-1.09-3.54-3.69-4.64-6.17a11.47,11.47,0,0,0-.78-1.93A17.59,17.59,0,0,0,99,47c-2.61-3.71.11-5.14.11-5.14,6.58-4.94,9,.61,9.73,3,.21.7.43,1.39.71,2.07a23.12,23.12,0,0,1,1.34,4.51C111.25,53.66,111.18,56,109.72,57.46Z"/>
    <path class="cls-21" d="M105.4,53.35a1.37,1.37,0,0,1-.32-.16c-.92-.59-1.19-1.9-.69-3.34.81-2.3-1.5-4.3-1.52-4.32a.47.47,0,0,1-.07-.64.43.43,0,0,1,.62-.06c.12.1,2.81,2.43,1.8,5.33-.41,1.16-.13,2,.32,2.26s1.23.07,1.87-.64a.43.43,0,0,1,.62,0,.47.47,0,0,1,0,.64A2.48,2.48,0,0,1,105.4,53.35Z"/>
    <path class="cls-21" d="M102.23,48.52a.2.2,0,0,1-.11,0,.6.6,0,0,1-.15-.09l-.24-.25c-.1-.1-.19-.21-.27-.3s0-.05,0-.06h0l-.08-.09,0,0a5.73,5.73,0,0,1-.78-1.23,3.88,3.88,0,0,1-.29-.9,2.22,2.22,0,0,1,.2-1.58.35.35,0,0,1,.5-.07.43.43,0,0,1,.13.53c0,.06-.64,1.13.86,2.92l0,0h0a3.88,3.88,0,0,0,.34.38h0a1.85,1.85,0,0,0,.14.14.4.4,0,0,1,0,.53.18.18,0,0,1-.07,0l0,0h0A.25.25,0,0,1,102.23,48.52Z"/>
    <path class="cls-21" d="M105.74,43.43a.25.25,0,0,1,.12,0l.14.08c.09.09.18.16.26.25a3.83,3.83,0,0,1,.28.29s0,0,0,0h0l.09.09,0,0a5.88,5.88,0,0,1,.83,1.19,4,4,0,0,1,.32.88,2.27,2.27,0,0,1-.12,1.59.34.34,0,0,1-.5.09.4.4,0,0,1-.15-.51c0-.07.58-1.16-1-2.89l0,0h0a3.91,3.91,0,0,0-.35-.36h0l-.15-.14a.4.4,0,0,1-.06-.53l.06-.05h0A.18.18,0,0,1,105.74,43.43Z"/>
    <path class="cls-21" d="M107.61,58.53a3.7,3.7,0,0,1-.47,0c-2.42-.23-4.06-3-4.12-3.15a.42.42,0,0,1,.73-.43s1.49,2.55,3.48,2.73a3.51,3.51,0,0,0,2.93-1.53.43.43,0,1,1,.64.56A4.57,4.57,0,0,1,107.61,58.53Z"/>
    <path class="cls-21" d="M139.21,49a.21.21,0,0,1-.18-.17,7.71,7.71,0,0,0-1.65-3.24.21.21,0,0,1,0-.3.22.22,0,0,1,.3,0,8.06,8.06,0,0,1,1.75,3.45.22.22,0,0,1-.17.25Z"/>
    <path class="cls-21" d="M133.31,65.71a.2.2,0,0,1,.21-.14,8.7,8.7,0,0,0,3.68-1.06.27.27,0,0,1,.33,0,.18.18,0,0,1,0,.28A9,9,0,0,1,133.58,66a.27.27,0,0,1-.27-.19Z"/>
    <path class="cls-22" d="M123.75,75a4.75,4.75,0,0,1-.14.63,1.94,1.94,0,0,1,0,.2c-1.44-.32-2.5-.61-2.6-.63l-.69-.18a6.79,6.79,0,0,0-2,.22l-.75.19a7.26,7.26,0,0,0-2.54,2c-4.33-3-4.52-8.37-4.37-10.74h0c0-.74.13-1.19.13-1.19l.63.33a7.09,7.09,0,0,0,.89,3c1.44,2.56,4.44,4.44,8.91,5.56C121.2,74.4,122.28,74.69,123.75,75Z"/>
    <path class="cls-21" d="M131,76.79a14.81,14.81,0,0,1-3.28-.16c-1.43-.2-2.93-.5-4.16-.78-1.44-.32-2.5-.61-2.6-.63l-.69-.18c-4.33-1.21-7.28-3.16-8.76-5.81a8.08,8.08,0,0,1-.9-2.5h0a7.24,7.24,0,0,1,.11-3.22.42.42,0,1,1,.81.25,5,5,0,0,0-.12.64,6.72,6.72,0,0,0,0,1.47,7.09,7.09,0,0,0,.89,3c1.44,2.56,4.44,4.44,8.91,5.56,0,0,1.11.3,2.58.63a28.56,28.56,0,0,0,7.16.92.44.44,0,0,1,.46.32v.06A.41.41,0,0,1,131,76.79Z"/>
  </g>
  <g class="cls-26">
    <path class="cls-27" d="M103.75,95.38a.5.5,0,0,1-.38-.56l.16-21.94c0-.32.2-.59.43-.6s.43.23.42.56l-.16,21.93a.58.58,0,0,1-.43.61Z"/>
  </g>
  <path class="cls-22" d="M135.69,69.59l-.39.27a1.43,1.43,0,0,0-.56.76c-1.05-.09-1.92-.37-.73-1.18C134.85,68.86,135.37,69.09,135.69,69.59Z"/>
  <g class="cls-26">
    <rect class="cls-27" x="137.88" y="52.23" width="1.94" height="1.94" rx="0.96" transform="translate(67.39 183.59) rotate(-82.24)"/>
  </g>
  <g id="girl-left-arm" transform="rotate(0, 110, 120)">
    <path class="cls-20" d="M104.2,109.88c19-1.48,36.61-3.81,51.77-7.6,0,0,21.35.08,3.28,8.17-13.71,6.13-52.23,23.45-55.77,22.29Z"/>
    <path class="cls-28" d="M98.09,140.78l19.8-7.37c1.41-8.51.43-16.5-2.76-26.91l-17.85.58C91.2,119.22,95.11,130.11,98.09,140.78Z"/>
    <path class="cls-20" d="M163.62,96.37c1.27-1.61,6.66-5.78,7.74-6.61a12,12,0,0,1,6.18-2.06c1.64-.18,3.08.74,4.22,1,2.54.63,1.58,1.9-.91,2.9-.68.28-3-1.11-4.59-.15s-2.83,1.12-3.81,2.15c-.71.72-3.39,4.56-4.68,6.26C166.27,100.35,163.62,96.37,163.62,96.37Z"/>
    <path class="cls-29" d="M164.24,97.23c.88,1.14,2.48,3,3.53,2.66,1.29-1.7,4-5.54,4.68-6.26,1-1,2.28-1.24,3.81-2.15s3.91.43,4.59.15c2.49-1,3.45-2.27.91-2.9a10,10,0,0,1-1.22-.43C173.73,88.78,169.47,93.32,164.24,97.23Z"/>
    <path class="cls-20" d="M168,95a47.81,47.81,0,0,1,6.31-3.82,44.29,44.29,0,0,1,6.61-2c1.74-.35,4.91,1.82,6.39,2.41,2.37.94.85,3.6-1.18,2.68-.66-.3-3.06-1.52-4.86-1a23.33,23.33,0,0,0-5,2c-.87.5-3.71,2.44-5.42,3.72C169.3,98.93,168,95,168,95Z"/>
    <path class="cls-29" d="M168.91,97c.51,1,1.19,1.9,2,1.89,1.71-1.28,4.55-3.22,5.42-3.72a23.33,23.33,0,0,1,5-2c1.8-.48,4.2.74,4.86,1a1.72,1.72,0,0,0,1.9-.21C182,90.06,174.86,92.65,168.91,97Z"/>
    <path class="cls-20" d="M168.67,97.63A39.24,39.24,0,0,1,175,94.46a35.06,35.06,0,0,1,5.47-1.93c1.71-.34,4.63,1,5.76,1.25,2.4.54,1.62,2.74-.77,2.7-.72,0-1.9-1-3.67-.53a22.88,22.88,0,0,0-5,2c-.86.49-3.68,2.38-5.37,3.64C169.9,101.57,168.67,97.63,168.67,97.63Z"/>
    <path class="cls-29" d="M169.9,100.34c.44.68,1,1.22,1.54,1.22,1.69-1.26,4.51-3.15,5.37-3.64a23.57,23.57,0,0,1,4.92-2C177.08,95.34,173.54,98.37,169.9,100.34Z"/>
    <path class="cls-29" d="M170.16,100.64c.37.57.81,1,1.29,1,1.41-1.06,3.77-2.63,4.49-3A19.46,19.46,0,0,1,180,97C176.16,96.47,173.2,99,170.16,100.64Z"/>
    <path class="cls-20" d="M170.65,100.75a36.5,36.5,0,0,1,6.63-3.86,22.27,22.27,0,0,1,5.38-.87c.68,0,2.06.87,3.06,1.31,2.86,1.22,1.31,3.42-.95,3-.67-.12-3-.67-3-.67a23.94,23.94,0,0,0-4.81,1.8,17.41,17.41,0,0,0-3.19,2C172.26,103.6,170.65,100.75,170.65,100.75Z"/>
    <path class="cls-20" d="M155.63,103.59c.9-1.12,7.37-7.76,11.44-10.45,1.45,1,7.43,8.53,6.66,10.36-6.35,4-11.46,7-12.12,7.07C155,110.34,155,105.31,155.63,103.59Z"/>
    <path class="cls-20" d="M169.46,101.75s-12.83,7.27-8.57,8.52c4.93,1.44,8.9-.26,14.52-2.83a19,19,0,0,1,5.61-1.1c1.71-.16,1.51-2,.61-2.8-1.24-1.09-4.23-1.09-7.39.32C170.64,105.46,169.46,101.75,169.46,101.75Z"/>
  </g>
  <g id="girl-right-arm" transform="rotate(10, 170, 145)">
    <path class="cls-29" d="M215.77,116.28c-2,.49,3.69-5.59,7.92-8.35s10.52-6.06,11.57-6.63,3.47,2.1.06,5S216.83,116,215.77,116.28Z"/>
    <path class="cls-20" d="M226.22,108.37c2-1.31,9.47-3.71,11-4.18a11.55,11.55,0,0,1,7.3.52c1.77.58,2.83,2.37,3.88,3.26,2.32,2,.77,3-2.26,3-.81,0-2.58-2.78-4.66-2.4s-3.42,0-4.9.73c-1.05.53-5.54,3.83-7.63,5.25C227.15,114.42,226.22,108.37,226.22,108.37Z"/>
    <path class="cls-29" d="M226.47,109.7c.39,1.8,1.21,4.78,2.45,4.9,2.09-1.42,6.58-4.72,7.63-5.25,1.48-.75,2.91-.38,4.9-.73s3.85,2.4,4.66,2.4c3,0,4.58-1.06,2.26-3a12.39,12.39,0,0,1-1.07-1.09C240.07,104.16,233.62,107.54,226.47,109.7Z"/>
    <path class="cls-20" d="M229,109.86a47.61,47.61,0,0,1,8-2.8,43.84,43.84,0,0,1,7.77-.46c2,.11,4.75,3.85,6.17,5.05,2.27,1.92-.18,4.79-2.1,3-.62-.59-2.85-2.88-4.93-2.86a24,24,0,0,0-6.07,1c-1.1.35-4.78,1.89-7,3C229.09,115.25,229,109.86,229,109.86Z"/>
    <path class="cls-29" d="M229.26,112.74c.25,1.36.71,2.75,1.53,3,2.24-1.07,5.92-2.61,7-3a24,24,0,0,1,6.07-1c2.08,0,4.31,2.27,4.93,2.86a1.73,1.73,0,0,0,2.12.33C245.52,108.13,237.05,109.11,229.26,112.74Z"/>
    <path class="cls-20" d="M228.81,113.42a39.44,39.44,0,0,1,7.84-2,35.36,35.36,0,0,1,6.5-.69c2,.11,4.71,2.72,5.86,3.39,2.44,1.42.9,3.94-1.67,3.14-.77-.24-1.75-1.84-3.8-1.83a23.2,23.2,0,0,0-6,.9c-1.08.34-4.72,1.83-6.94,2.87C228.93,118.74,228.81,113.42,228.81,113.42Z"/>
    <path class="cls-29" d="M229.31,117.2c.26,1,.67,1.84,1.29,2,2.22-1,5.86-2.53,6.94-2.87a23.38,23.38,0,0,1,5.93-.9C238.62,113.2,233.85,115.88,229.31,117.2Z"/>
    <path class="cls-29" d="M229.5,117.67c.22.83.56,1.53,1.08,1.68,1.86-.87,4.88-2.11,5.79-2.39a19,19,0,0,1,4.95-.75C237.28,114.33,233.29,116.56,229.5,117.67Z"/>
    <path class="cls-20" d="M230,118a37,37,0,0,1,8.37-2.75,21.37,21.37,0,0,1,6.09.61c.75.15,2,1.74,2.91,2.6,2.72,2.45.37,4.71-2,3.47-.69-.36-3.08-1.8-3.08-1.8-1.89.15-4.33.16-5.76.74a18.19,18.19,0,0,0-4.09,1.55C230.86,122,230,118,230,118Z"/>
    <path class="cls-20" d="M212.86,116.78c1.31-1.14,10.37-7.42,15.6-9.51,1.26,1.74,5.42,13,4,15.11-8.11,3-14.58,5.19-15.3,5C210.1,125.05,211.65,118.73,212.86,116.78Z"/>
    <path class="cls-20" d="M140.16,149.38c13.42-10.49,28.86-8.24,75-33.48l5.36,10.26c-28.16,19-33.17,23.5-60.65,37Z"/>
  </g>
  <path class="cls-30" d="M58.72,154.66c-7.17,20.37-7.06,30.26-9.65,43.22l3.5,10.39c4.61,4.67,7,7,7.2,7.12,1.69.82,3.38,1.52,5.07,2.34a33.74,33.74,0,0,0-2.14-5c-1.92-3.74-2.82-6-2.82-6.77.79-3.51,1.69-5.26,2.82-5.26,1.57,0,3.94,2.34,7.21,7s6.19,6.88,8.89,6.88c1.69-.81,3.6-1.63,5.75-2.45a39.25,39.25,0,0,1,14.75-2.57,24.27,24.27,0,0,1,7.77,1.52c2.59,1.05-15.69,12.33-15.58,12.33.34,0,19.64-5.12,22.8-9,.33-.35,4.83-3.49,5-3.92a47.94,47.94,0,0,0,1.89-6.55c.56-3.27,0-6.3,0-11.56l-3.74-15.77c0-2.45,1.59-7.45,4.07-13.75a68.5,68.5,0,0,0,4.32-17.28v-.35a.42.42,0,0,0-.12-.35c-.33-1-.56-2-.9-3a54.92,54.92,0,0,0-2.36-7.36C116.53,137,92.32,84.32,92,82.68c0-.11-4.63-5.37-4.63-5.49-2.37-1.28-14.8,22-16.13,32.34C69.51,123,67.08,130.88,58.72,154.66Z"/>
  <path class="cls-31" d="M112.21,95.55c-.35-4,1.77-7,.38-9.59s-4.41-5.16-7.83-6.93c-3.9-2-16.93-4.73-16.93-4.73-2.18,4.38-2.87,5.42-3.09,6.11,2.64,1.39,4.82,4.17,7.24,5.44v.23A18.6,18.6,0,0,1,92.44,89c0,1.16-1.61,2.31-5,3.47A15.52,15.52,0,0,0,84,93.81c11.87,9.93,20.5,20.33,25.8,31.06s10.94,15,17,12.59c-.12-1.38,7.38,5.22,9.68,5.91,3.8,1.28,5.92,4.49,9,5.18,1,.23,6.81,1.35,11.18,2.16,2.88.58,7.09,3,15.5,8.63,7.71,5.2,12.29-13.91,10.1-13.34-3.34-3.11-6.32-7.75-10.71-7.85-5.53-.12-39-15.15-45.13-28.12C122.51,101.47,112.66,95.55,112.21,95.55Z"/>
  <path class="cls-32" d="M132.08,135.28a43.07,43.07,0,0,1-9.44-4.85c-.93-.58-1.85-1-2.77-1.62.12,1.5.35,2.89.46,4.27a52.62,52.62,0,0,1,2.42,7.28c.34,1,.58,2,.92,3a.45.45,0,0,1,.11.35c.12.11.12.23.24.34,1.72,5,3.91,8.66,6.56,11,5.41,3.23,29.71,7,32.82,9.11,2.88,2,14.55-8.51,6.83-13.7-8.4-5.66-16.73-10-19.61-10.54-4.38-.8-7-1.38-8.06-1.61a107.44,107.44,0,0,1-10.48-3Z"/>
  <path class="cls-33" d="M124.82,144.86c-.11-.12-.11-.23-.23-.35v.35Z"/>
  <path class="cls-31" d="M123.46,143.55h-.23a64.7,64.7,0,0,1-4.6,16.74c-2.54,6.24-3.8,10.51-3.8,12.93l.8,14.55a77,77,0,0,1-.8,12.7c-.12,1-.35,2-.46,2.78l-.92.92c-3.23,3.81-5,5.66-5.3,5.66-.12,0-1.5-.47-4.14-1.5a25.57,25.57,0,0,0-8-1.51A41.38,41.38,0,0,0,81,209.36c-2.2.81-4.15,1.62-5.88,2.43-2.76,0-5.56-4.47-8.9-9s-6-4.77-7.57-4.77c-1.15,0-2.07,1.73-2.87,5.2,0,.8.92,3,2.87,6.69a32.38,32.38,0,0,1,2.19,5c1.5.58,3.11,1.15,4.61,1.73a66.14,66.14,0,0,0,12,3.81,29.84,29.84,0,0,0,6,.69c10.71,0,26.43-.88,33.65-9.56,4-4.84,5.09-35.25,5.32-41.61s5.32-14.6,7.67-15.45c3.3-1.2-4.84-6-6.57-11Z"/>
  <path class="cls-10" d="M165.05,166.72l18.28-10.6c.12-8-2.43-16.37-7.1-25.13l-13.44,4.54C158.64,147.69,160.54,157.68,165.05,166.72Z"/>
  <path class="cls-34" d="M22,139.85c3.06,1.87,64.52,91,65,95.07a16.54,16.54,0,0,0,8.32-4q4.64-4.17,5.35-6.45.87-2.28.12-12.42c-.51-6.75-.8-12.6-.88-17.45s-.46-10.59-1-17.35-1-11.89-1.35-15.42a13,13,0,0,0-5.39-9,121.19,121.19,0,0,0-14.67-9.07q-9.78-5.3-22.9-12.06A203.13,203.13,0,0,0,30.76,121.2c-7-2.52-11.37-4.07-13.09-4.55-8.18,0-13.49,2.63-15.73,8,.92.59,1.43,3.73,2.75,4.31,5.79,2.34,5,3.41,5.34,3.51s.91,2.6,6.31,5.75Z"/>
  <path class="cls-35" d="M31.53,138.85a31.13,31.13,0,0,1-8.53-3.8c-5.4-3.15-8.26-4.83-8.46-4.92s-3.35-1.36-9.14-3.7a27.6,27.6,0,0,1-3.46-1.76,15.52,15.52,0,0,0-1.41,6.48,253,253,0,0,0,.54,29.06c.65,9.58.77,17.25.15,22.91A18.66,18.66,0,0,0,5.89,198c3.8,4.29,9.1,8.25,16,11.87s13.74,7,20.45,10C50.18,223.46,58,227,65.84,230.6c6.81,3.22,12.69,4.85,17.53,4.68a20.1,20.1,0,0,0,3.63-.36c-.46-4-.71-7.16-.75-9.28,0-.7.25-3.54.78-8.69s.79-7.89.78-8.29c0-1.41-.26-4.14-.73-8.07-.56-3.72-.79-5.54-.79-5.64a4.26,4.26,0,0,1,.77-2.63,3.5,3.5,0,0,0,.67-2.33c0-.31-.32-.81-.93-1.71a4.38,4.38,0,0,1-.84-2,4.91,4.91,0,0,1,1.66-3.46,4.91,4.91,0,0,0,1.67-3.16,5.39,5.39,0,0,0-2.8-4.9q-2.74-1.62-2.78-3.59a8.59,8.59,0,0,1,2.23-5.79c1.59-1.84,2.38-3.27,2.36-4.17a1.45,1.45,0,0,0-.52-1.11,2.43,2.43,0,0,0-1.42-.48,9.46,9.46,0,0,0-3,1.56c-1.71,1-2.81,1.56-3.51,1.57a30.6,30.6,0,0,1-3.58-3.08,46.88,46.88,0,0,0-4.71-3.76c-1.73-1-4.07-2.26-7.12-3.83-3.46-1.87-6.61-3.43-9.36-4.7-4.06-1.86-7.52-3.32-10.46-4.39-4-1.45-8.32-2.9-13.09-4.14ZM19.65,160.74q3.77-1.12,9.72,1.67c1.12.48,2.34,1,3.65,1.46,6.5,2.52,11.28,4.47,14.43,5.93,10.67,4.79,16,9.45,16.06,13.89a156.29,156.29,0,0,1-.35,17.17,20.33,20.33,0,0,1-2.49,8.41c-1.09,1.74-2.38,2.66-4.1,2.69q-.6,0-14-6.14c-8.54-4-13-6.07-13.53-6.36-6.21-3.84-10-7.42-11.57-10.73C16.1,185.82,15,179.58,14.34,170l-.06-4.13c1.27-2.75,3.06-4.49,5.37-5.13Z"/>
  <path class="cls-1" d="M29.37,162.41q-6-2.79-9.72-1.67a8.7,8.7,0,0,0-1.47,2.54l.06,4.14q1,14.37,3,18.73c1.56,3.31,5.35,6.88,11.57,10.63.51.29,5,2.34,13.62,6.35,8.85,4.11,13.52,6.15,13.92,6.15h.31a20.33,20.33,0,0,0,2.49-8.41,156.29,156.29,0,0,0,.35-17.17c-.07-4.44-5.39-9.1-16.06-13.89-3.15-1.46-7.93-3.41-14.43-5.93-1.31-.49-2.53-1-3.65-1.46Z"/>
  <path class="cls-36" d="M18.18,163.28a8.7,8.7,0,0,1,1.47-2.54c-2.31.64-4.1,2.38-5.37,5.13l.06,4.13c.65,9.58,1.76,15.82,3.11,18.73C19,192,22.81,195.62,29,199.46c.51.29,5,2.35,13.53,6.36Q56,212,56.57,212c1.72,0,3-1,4.1-2.69h-.31c-.4,0-5.07-2-13.92-6.15-8.64-4-13.11-6.06-13.62-6.35-6.22-3.75-10-7.32-11.57-10.63q-2-4.36-3-18.73l-.06-4.14Z"/>
  <path class="cls-4" d="M49.34,187.85A12.28,12.28,0,0,0,47.25,183c-5.62-4.46-11-6.5-15.95-6.32-4.41,1.89-7.4,4.35-9.07,7.41a6,6,0,0,1,4.13-.47A28.2,28.2,0,0,1,32,186.19a26.25,26.25,0,0,1,6.34,5.05,7.86,7.86,0,0,1,1.7,5.93c-.17,2.12-.33,4.55-.39,7.28-.45,3.94,0,9.89,1.38,17.94a81.71,81.71,0,0,0,6.08,21.31q4.08,9.18,5.33,11.73a42.86,42.86,0,0,0,4.25,7.21,11.61,11.61,0,0,0,2.1-1.25A4.93,4.93,0,0,0,61,258.53v-.2a51.19,51.19,0,0,1-4.15-7.21c-.1-.3-1.87-4-5.22-11.22a62.39,62.39,0,0,1-6-20.91c-.61-6.75-.87-11-.9-12.81l0-3a10.42,10.42,0,0,1,.35-3.24c2.11-.74,3.4-2.37,4.06-4.91a14.45,14.45,0,0,0,.2-7.16Z"/>
  <path class="cls-37" d="M39.6,204.45c.06-2.73.22-5.16.39-7.28a7.86,7.86,0,0,0-1.7-5.93A26.25,26.25,0,0,0,32,186.19a28.2,28.2,0,0,0-5.59-2.54,6,6,0,0,0-4.13.47c-1,14-.3,26.75,2.09,37.92s6,20.4,10.61,27.5c5.07,7.6,11.19,12,18.48,13.45l1.21,0a7.11,7.11,0,0,0,2-.33,42.86,42.86,0,0,1-4.25-7.21q-1.26-2.55-5.33-11.73A81.71,81.71,0,0,1,41,222.39c-1.33-8-1.83-14-1.38-17.94Z"/>
</svg>