<svg id="Layer_1" data-name="Layer 1" xmlns="http://www.w3.org/2000/svg" viewBox="0 0 104.5 65.04"><defs><style>.cls-1{fill:#c9c1b7;}.cls-2{fill:#fff;}.cls-3{fill:#f2e7db;}.cls-4{fill:#fff3e6;}.cls-5{fill:#666;}.cls-6{fill:#a8a8a8;}.cls-7{fill:#ccc;}.cls-8{fill:#0d0b15;}.cls-9{fill:#e63d48;}.cls-10{fill:#04a58e;}</style></defs><polygon class="cls-1" points="58.9 65.04 0.88 31.54 1.56 31.15 58.9 64.25 58.9 65.04"/><polygon class="cls-2" points="58.9 64.25 101.73 39.52 101.73 40.31 58.9 65.04 58.9 64.25"/><polygon class="cls-3" points="58.9 64.25 101.73 39.52 43.71 6.02 0.88 30.75 58.9 64.25"/><polygon class="cls-1" points="58.02 61.7 0 28.2 0.69 27.81 58.02 60.91 58.02 61.7"/><polygon class="cls-2" points="58.02 60.91 100.86 36.18 100.86 36.97 58.02 61.7 58.02 60.91"/><polygon class="cls-3" points="58.02 60.91 100.86 36.18 42.83 2.68 0 27.41 58.02 60.91"/><polygon class="cls-1" points="61.67 60.66 3.65 27.16 4.33 26.76 61.67 59.87 61.67 60.66"/><polygon class="cls-2" points="61.67 59.87 104.5 35.14 104.5 35.93 61.67 60.66 61.67 59.87"/><polygon class="cls-3" points="61.67 59.87 104.5 35.14 46.48 1.64 3.65 26.36 61.67 59.87"/><polygon class="cls-1" points="58.02 59.02 0 25.52 0.69 25.12 58.02 58.23 58.02 59.02"/><polygon class="cls-2" points="58.02 58.23 100.86 33.5 100.86 34.29 58.02 59.02 58.02 58.23"/><polygon class="cls-4" points="58.02 58.23 100.86 33.5 42.83 0 0 24.73 58.02 58.23"/><polygon class="cls-5" points="26.25 14.1 8.01 24.64 6.22 23.61 24.47 13.07 26.25 14.1"/><polygon class="cls-5" points="33.39 9.98 27.25 13.53 25.46 12.5 31.61 8.95 33.39 9.98"/><path class="cls-5" d="M43.63,4.15a1,1,0,0,1,0,1.81,3.47,3.47,0,0,1-3.14,0,1,1,0,0,1,0-1.81A3.47,3.47,0,0,1,43.63,4.15Z"/><polygon class="cls-5" points="46.28 5.89 43.51 7.49 42.62 6.98 45.39 5.38 46.28 5.89"/><polygon class="cls-6" points="36.66 10.98 10.51 26.08 9.84 25.7 36 10.6 36.66 10.98"/><polygon class="cls-6" points="38.07 11.79 11.92 26.89 11.26 26.51 37.41 11.41 38.07 11.79"/><polygon class="cls-6" points="39.49 12.61 13.33 27.71 12.67 27.33 38.82 12.23 39.49 12.61"/><polygon class="cls-6" points="33.23 17.86 14.75 28.53 14.08 28.14 32.57 17.47 33.23 17.86"/><polygon class="cls-5" points="73.65 33.48 62.83 39.72 61.1 38.72 71.92 32.48 73.65 33.48"/><polygon class="cls-7" points="86.51 29.39 65.72 41.39 65.13 41.05 85.92 29.05 86.51 29.39"/><polygon class="cls-7" points="88.05 30.28 67.27 42.28 66.68 41.94 87.47 29.94 88.05 30.28"/><polygon class="cls-7" points="89.6 31.18 68.82 43.18 68.23 42.84 89.01 30.84 89.6 31.18"/><polygon class="cls-7" points="79.01 39.08 70.36 44.07 69.78 43.73 78.43 38.74 79.01 39.08"/><path class="cls-5" d="M63.39,50a11.85,11.85,0,0,1-5,1.4,12.63,12.63,0,0,1-7-1.4,7.91,7.91,0,0,1-.88-.59,3.38,3.38,0,0,1-1.41-3.9,4.91,4.91,0,0,1,2.28-2.42,11.71,11.71,0,0,1,5-1.4,12.49,12.49,0,0,1,7,1.4,6.3,6.3,0,0,1,.87.59c1.41,1.12,1.92,2.54,1.41,3.89A5,5,0,0,1,63.39,50ZM51.52,43.12a4.86,4.86,0,0,0-2.25,2.38,3.33,3.33,0,0,0,1.39,3.83,7.56,7.56,0,0,0,.86.58,12.42,12.42,0,0,0,6.84,1.37,11.57,11.57,0,0,0,4.92-1.37,4.87,4.87,0,0,0,2.25-2.39,3.32,3.32,0,0,0-1.39-3.82,6.44,6.44,0,0,0-.86-.58,12.33,12.33,0,0,0-6.84-1.38A11.58,11.58,0,0,0,51.52,43.12Z"/><path class="cls-8" d="M61.7,44.66l.44-.18a6.08,6.08,0,0,0-.56-.38,8.89,8.89,0,0,0-4.79-1l.07.31a8.08,8.08,0,0,1,4.34.89A4.85,4.85,0,0,1,61.7,44.66Z"/><path class="cls-9" d="M61.31,44.88a1.92,1.92,0,0,1,.82,2.18l1.56.19a2.59,2.59,0,0,0-1.09-2.91Z"/><path class="cls-9" d="M52.92,43.86l1.12.65a6.8,6.8,0,0,1,2.8-.77l-.18-.91A9,9,0,0,0,52.92,43.86Z"/><path class="cls-10" d="M50,45.59a3,3,0,0,0,1.27,3.48,5.9,5.9,0,0,0,.78.53,11.32,11.32,0,0,0,6.22,1.25,10.57,10.57,0,0,0,4.48-1.25,4.43,4.43,0,0,0,2-2.17l-1.13-.14-.5-.06-.52-.07-.53-.06-1.55-.19a1.93,1.93,0,0,1-.88.93,4.48,4.48,0,0,1-1.92.53,4.8,4.8,0,0,1-2.66-.54,2.22,2.22,0,0,1-.34-.22,1.29,1.29,0,0,1-.54-1.49,1.89,1.89,0,0,1,.88-.93l-3.06-1.77A4.48,4.48,0,0,0,50,45.59Zm6.06,3.21L54,50l-.83-.48,2.12-1.22Z"/><polygon class="cls-8" points="60.94 45.58 58.82 46.8 58 46.33 60.11 45.11 60.94 45.58"/><polygon class="cls-9" points="59.23 44.59 57.11 45.82 56.29 45.34 58.4 44.12 59.23 44.59"/><polygon class="cls-5" points="93.98 33.64 58.58 54.08 58.29 53.91 93.68 33.47 93.98 33.64"/><polygon class="cls-5" points="60.53 54.06 59.54 54.63 58.56 54.06 59.54 53.49 60.53 54.06"/><polygon class="cls-5" points="92.06 36.02 84.56 40.34 83.82 39.91 91.32 35.59 92.06 36.02"/><polygon class="cls-5" points="95.07 34.27 92.62 35.69 91.88 35.27 94.33 33.85 95.07 34.27"/><polygon class="cls-7" points="77.37 24.03 44.57 42.97 44.45 42.9 77.25 23.96 77.37 24.03"/><polygon class="cls-7" points="74.68 22.48 41.88 41.41 41.76 41.34 74.56 22.41 74.68 22.48"/><polygon class="cls-7" points="71.99 20.92 39.19 39.86 39.07 39.79 71.88 20.85 71.99 20.92"/><polygon class="cls-7" points="69.31 19.37 36.5 38.31 36.38 38.24 69.19 19.3 69.31 19.37"/><polygon class="cls-7" points="66.62 17.82 33.81 36.76 33.69 36.69 66.5 17.75 66.62 17.82"/><polygon class="cls-7" points="63.93 16.27 31.12 35.2 31 35.13 63.81 16.2 63.93 16.27"/><polygon class="cls-7" points="61.24 14.71 28.43 33.65 28.32 33.58 61.12 14.64 61.24 14.71"/><polygon class="cls-7" points="58.55 13.16 25.75 32.1 25.63 32.03 58.43 13.09 58.55 13.16"/><polygon class="cls-7" points="55.86 11.61 23.06 30.55 22.94 30.48 55.74 11.54 55.86 11.61"/><polygon class="cls-7" points="53.17 10.05 20.37 28.99 20.25 28.93 53.05 9.98 53.17 10.05"/><polygon class="cls-7" points="69.13 28.72 69.01 28.79 44.81 14.81 44.93 14.75 69.13 28.72"/><polygon class="cls-7" points="66.4 30.3 66.28 30.36 42.08 16.39 42.2 16.32 66.4 30.3"/><polygon class="cls-7" points="63.67 31.87 63.55 31.94 39.35 17.97 39.47 17.9 63.67 31.87"/><polygon class="cls-7" points="60.94 33.45 60.82 33.51 36.62 19.54 36.74 19.47 60.94 33.45"/><polygon class="cls-7" points="58.21 35.02 58.09 35.09 33.89 21.12 34.01 21.05 58.21 35.02"/><polygon class="cls-7" points="55.48 36.6 55.37 36.66 31.16 22.69 31.28 22.62 55.48 36.6"/><polygon class="cls-7" points="52.76 38.17 52.64 38.24 28.43 24.27 28.55 24.2 52.76 38.17"/><polygon class="cls-7" points="50.03 39.75 49.91 39.82 25.71 25.84 25.83 25.77 50.03 39.75"/><polygon class="cls-7" points="47.3 41.32 47.18 41.39 22.98 27.42 23.1 27.35 47.3 41.32"/><polygon class="cls-7" points="44.57 42.9 44.45 42.97 20.25 28.99 20.37 28.93 44.57 42.9"/><polygon class="cls-7" points="77.31 23.99 77.19 24.06 52.99 10.09 53.11 10.02 77.31 23.99"/><polygon class="cls-7" points="74.58 25.57 74.47 25.64 50.26 11.66 50.38 11.6 74.58 25.57"/><polygon class="cls-7" points="71.86 27.14 71.74 27.21 47.53 13.24 47.66 13.17 71.86 27.14"/><polygon class="cls-5" points="18.2 30.79 17.14 30.18 18.67 29.29 19.73 29.9 18.2 30.79"/><polygon class="cls-5" points="20.89 32.34 19.83 31.73 21.36 30.84 22.42 31.46 20.89 32.34"/><polygon class="cls-5" points="23.58 33.9 22.52 33.28 24.05 32.4 25.11 33.01 23.58 33.9"/><polygon class="cls-5" points="26.27 35.45 25.21 34.84 26.74 33.95 27.8 34.56 26.27 35.45"/><polygon class="cls-5" points="28.95 37 27.89 36.39 29.43 35.5 30.49 36.11 28.95 37"/><polygon class="cls-5" points="31.64 38.55 30.58 37.94 32.12 37.05 33.18 37.67 31.64 38.55"/><polygon class="cls-5" points="34.33 40.1 33.27 39.49 34.81 38.61 35.87 39.22 34.33 40.1"/><polygon class="cls-5" points="37.02 41.66 35.96 41.05 37.49 40.16 38.56 40.77 37.02 41.66"/><polygon class="cls-5" points="39.71 43.21 38.65 42.6 40.18 41.71 41.24 42.32 39.71 43.21"/><polygon class="cls-5" points="48.81 43.15 47.75 42.54 49.29 41.65 50.35 42.27 48.81 43.15"/><polygon class="cls-5" points="54.27 40 53.21 39.39 54.74 38.5 55.8 39.12 54.27 40"/><polygon class="cls-5" points="59.73 36.85 58.67 36.24 60.2 35.35 61.26 35.97 59.73 36.85"/><polygon class="cls-5" points="65.19 33.7 64.13 33.09 65.66 32.2 66.72 32.81 65.19 33.7"/><polygon class="cls-5" points="70.64 30.55 69.58 29.94 71.12 29.05 72.18 29.66 70.64 30.55"/><polygon class="cls-5" points="76.1 27.4 75.04 26.79 76.57 25.9 77.63 26.51 76.1 27.4"/><polygon class="cls-9" points="39.6 35.32 36.78 36.95 33.14 34.84 35.96 33.22 39.6 35.32"/><polygon class="cls-10" points="48.65 40.54 45.83 42.17 40.62 39.16 43.43 37.53 48.65 40.54"/><polygon class="cls-8" points="43.43 37.53 40.62 39.16 36.78 36.95 39.6 35.32 43.43 37.53"/><polygon class="cls-9" points="40.31 29.43 37.49 31.05 34.7 29.44 37.51 27.81 40.31 29.43"/><polygon class="cls-10" points="54.1 37.39 51.29 39.02 42.64 34.03 45.45 32.4 54.1 37.39"/><polygon class="cls-8" points="45.45 32.4 42.64 34.03 37.49 31.05 40.31 29.43 45.45 32.4"/><polygon class="cls-9" points="47.06 27.02 44.24 28.65 41 26.78 43.82 25.15 47.06 27.02"/><polygon class="cls-10" points="59.56 34.24 56.74 35.87 48.32 31.01 51.14 29.38 59.56 34.24"/><polygon class="cls-8" points="51.14 29.38 48.32 31.01 44.24 28.65 47.06 27.02 51.14 29.38"/><polygon class="cls-9" points="52.36 23.78 49.54 25.41 44.45 22.47 47.27 20.84 52.36 23.78"/><polygon class="cls-10" points="65.02 31.09 62.2 32.72 57.35 29.91 60.16 28.29 65.02 31.09"/><polygon class="cls-8" points="60.16 28.29 57.35 29.91 49.54 25.41 52.36 23.78 60.16 28.29"/><polygon class="cls-9" points="55.68 19.4 52.86 21.02 47.75 18.07 50.56 16.44 55.68 19.4"/><polygon class="cls-10" points="70.48 27.94 67.66 29.57 59.94 25.11 62.76 23.49 70.48 27.94"/><polygon class="cls-8" points="62.76 23.49 59.94 25.11 52.86 21.02 55.68 19.4 62.76 23.49"/><polygon class="cls-9" points="56.64 13.65 53.82 15.28 49.52 12.79 52.33 11.16 56.64 13.65"/><polygon class="cls-10" points="75.93 24.79 73.11 26.42 60.3 19.02 63.12 17.39 75.93 24.79"/><polygon class="cls-8" points="63.12 17.39 60.3 19.02 53.82 15.28 56.64 13.65 63.12 17.39"/></svg>