<svg id="Layer_1" data-name="Layer 1" xmlns="http://www.w3.org/2000/svg" viewBox="0 0 91.5 54.79"><defs><style>.cls-1{fill:#037d6c;}.cls-2{fill:#04a58e;}.cls-3{fill:#dcdcdc;}.cls-4{fill:#e63d48;}.cls-5{fill:#d1e9c8;}.cls-6{fill:#fff;}.cls-7{fill:#a6b3a3;}.cls-8{fill:#2ba594;}.cls-9{fill:#ec1d25;}</style></defs><path class="cls-1" d="M39.7,53.39l0,.07a.94.94,0,0,1-.88.54,1.67,1.67,0,0,1-.8-.23L4.22,35.62l-.46-.25-.11-.06A.45.45,0,0,1,3.44,35l0,.72a.55.55,0,0,0,.32.42L38,54.48c1.15.62,2.09.27,2.36-.76Z"/><path class="cls-1" d="M3.84,34.43.3,30A1.23,1.23,0,0,1,0,29.24l0-.71a1,1,0,0,0,.07.35,1.53,1.53,0,0,0,.21.37l.23.28,3.42,4.32A.39.39,0,0,1,3.84,34.43Z"/><path class="cls-2" d="M39.82,52.64a1.72,1.72,0,0,1-.15.82.94.94,0,0,1-.88.54,1.67,1.67,0,0,1-.8-.23L4.22,35.62l-.46-.25-.11-.06A.45.45,0,0,1,3.44,35a.51.51,0,0,1,.27-.42.45.45,0,0,0,.13-.1.39.39,0,0,0,.09-.58L.51,29.53l-.23-.28a1.53,1.53,0,0,1-.21-.37A1,1,0,0,1,0,28.53a1.62,1.62,0,0,1,.9-1.34l15.89-9.83a5.09,5.09,0,0,1,3.52-.5l8.22,1.77a1.63,1.63,0,0,0,1.14-.15l3.69-2.28.4.48,3.34,4L13.16,35.49l0,.71L37.86,49.47A4.09,4.09,0,0,1,39.82,52.64Z"/><path class="cls-1" d="M2.75,28.66l16.7-10.34a1.9,1.9,0,0,1,1.69-.05l2.6,1.4a.51.51,0,0,1,0,1L7.07,31A1.9,1.9,0,0,1,5.38,31l-2.6-1.4C2.31,29.37,2.29,28.94,2.75,28.66Z"/><path class="cls-3" d="M8.11,25.66l11.62-7.19a1.24,1.24,0,0,1,1.14,0l2.6,1.39c.33.18.33.47,0,.66l-11.62,7.2Z"/><path class="cls-4" d="M3,28.8l4.64-2.87,3.76,2L6.79,30.83a1.24,1.24,0,0,1-1.14,0l-2.6-1.4C2.73,29.29,2.72,29,3,28.8Z"/><polygon class="cls-5" points="84.73 23.86 53.22 6.92 6.9 35.58 38.4 52.51 84.73 23.86"/><polygon class="cls-6" points="6.9 35.58 6.91 36.08 38.42 53.01 38.4 52.51 6.9 35.58"/><polygon class="cls-7" points="84.74 24.35 84.73 23.86 38.4 52.51 38.42 53.01 84.74 24.35"/><polygon class="cls-5" points="85.16 22.57 53.65 5.64 7.33 34.3 38.83 51.23 85.16 22.57"/><polygon class="cls-6" points="7.33 34.3 7.34 34.8 38.85 51.73 38.83 51.23 7.33 34.3"/><polygon class="cls-7" points="85.17 23.07 85.16 22.57 38.83 51.23 38.85 51.73 85.17 23.07"/><polygon class="cls-5" points="85.18 21.37 53.68 4.43 7.35 33.09 38.86 50.03 85.18 21.37"/><polygon class="cls-6" points="7.35 33.09 7.37 33.59 38.87 50.52 38.86 50.03 7.35 33.09"/><polygon class="cls-7" points="85.2 21.86 85.18 21.37 38.86 50.03 38.87 50.52 85.2 21.86"/><path class="cls-1" d="M40.45,53a5.46,5.46,0,0,0-.08-.68,5.81,5.81,0,0,0-2-3.17,4,4,0,0,0-.56-.38L13.79,35.83l-.63-.34,0,.71L37.86,49.47a4.09,4.09,0,0,1,2,3.17,1.74,1.74,0,0,1-.12.75l.67.33A2.44,2.44,0,0,0,40.45,53Z"/><path class="cls-1" d="M37.22,20.61l-.12.07-3.34-4-.4-.48-.49-.59,0-.71.4.48.48.58.4.48,3.18,3.82C37.41,20.37,37.37,20.51,37.22,20.61Z"/><path class="cls-8" d="M91.5,21.4a5.5,5.5,0,0,0-2.62-4.23L56.93,0,32.85,14.9l.4.48.48.58.4.48,3.18,3.82c.1.11.06.25-.09.35l-.12.07L13.16,35.49l.63.34L37.84,48.75a4,4,0,0,1,.56.38,5.81,5.81,0,0,1,2,3.17,5.46,5.46,0,0,1,.08.68,1.74,1.74,0,0,1-.68,1.62L90.82,23A1.77,1.77,0,0,0,91.5,21.4Z"/><path class="cls-9" d="M38.66,42.22c.36-.22.7-.45,1.06-.66.15-.09.3-.3.52-.07a.88.88,0,0,1,.27.51c0,.25-.23.26-.46.17s-.22,0-.27.16c-.23.83-1.25,1-1.87,1.47a.3.3,0,0,1-.44-.13c-.14-.23-.3-.48,0-.67s.81-.52,1.22-.77Z"/><path class="cls-9" d="M44.73,39.51c-.47,0-.56.83-1.39.45-.29-.13-.15.16-.16.27s0,.35-.24.28a1.49,1.49,0,0,1-.63-.37c-.16-.17.06-.26.18-.34.67-.43,1.36-.82,2-1.28a.77.77,0,0,1,1.16.08c.34.4-.27.42-.45.61A2.62,2.62,0,0,1,44.73,39.51Z"/><path class="cls-9" d="M46.89,42.15c-.24.16-.49.3-.72.47a.52.52,0,0,1-.8-.09c-.33-.34-.26-.53.08-.74.55-.32,1.07-.69,1.62-1,.18-.1.37-.45.67-.06s.5.62,0,.87S47.19,42,46.89,42.15Z"/><path class="cls-9" d="M40.75,46.62c.6-.38,1.12-.69,1.62-1s.6-.25,1,.13.3.59-.08.87A1.91,1.91,0,0,1,40.75,46.62Z"/><path class="cls-9" d="M47.09,42.61a2.15,2.15,0,0,1,.27-.17c.29-.12.52-.54.85-.33a.82.82,0,0,1,.18,1,2,2,0,0,1-1.37.93c-.29.08-.51-.26-.64-.47C45.88,42.79,47.06,43,47.09,42.61Z"/><path class="cls-9" d="M40.54,44.91c.3-.19.62-.36.9-.57s.54,0,.77.2.27.42,0,.6a18,18,0,0,0-1.63,1,.77.77,0,0,1-1.1-.16c-.45-.44.18-.46.36-.63A4.46,4.46,0,0,1,40.54,44.91Z"/><path class="cls-9" d="M63.16,28.42a3.16,3.16,0,0,0-.41-.41c-.26-.2-.38-.67-.79-.56s0,.41.13.63-.17.19-.27.27a.61.61,0,0,0,0,.89,1.39,1.39,0,0,0,.95.64,1,1,0,0,0,1.05-.59C64,29,63.32,28.71,63.16,28.42Zm-.1.51a.42.42,0,0,1,.07.13v.07a.17.17,0,0,1,0,.12l-.05,0a.05.05,0,0,1,0,0,.16.16,0,0,1-.08.05h-.11a.27.27,0,0,1-.12,0l-.05,0c-.22,0-.44-.25-.33-.41h0a.22.22,0,0,1,0-.11l0-.05a.17.17,0,0,1,.1,0,.21.21,0,0,1,.11,0h.12l.12,0a.38.38,0,0,1,.13.09.24.24,0,0,1,.06.08Z"/><path class="cls-9" d="M68.79,24.18c-.27-.21-.45-.67-.81-.58-.53.13.1.41.15.62s-.19.17-.28.26c-.41.43-.13.86.36,1.26a.94.94,0,0,0,1.27,0c.77-.5-.09-.87-.37-1.25A2.72,2.72,0,0,0,68.79,24.18Zm.27.93v.08a.2.2,0,0,1,0,.11.18.18,0,0,1-.08.09.21.21,0,0,1-.12,0,.33.33,0,0,1-.14,0h-.08l-.11,0h0a.36.36,0,0,1-.16-.11l-.06-.07a.27.27,0,0,1,0-.16V25a.13.13,0,0,1,.07-.09.23.23,0,0,1,.11-.07h.13l.09,0h.06a.4.4,0,0,1,.18.07L69,25A.36.36,0,0,1,69.06,25.11Z"/><path class="cls-9" d="M39.83,44.63l-.82.52c-.3.2-.51,0-.73-.18s-.26-.44,0-.62c.53-.31,1-.65,1.56-1,.2-.13.42-.35.69,0s.42.56,0,.78S40.07,44.48,39.83,44.63Z"/><path class="cls-9" d="M45.39,39.88c.16-.1.31-.21.48-.3s.55-.55,1,0,0,.58-.26.75-.76.47-1.12.72a.63.63,0,0,1-1-.07c-.43-.44,0-.52.21-.68S45.18,40,45.39,39.88Z"/><path class="cls-9" d="M53.23,38.44c.34-.16,0-.67.56-.68,0,.65.58,1,1.35,1.06-.11.4-.4.38-.73.3-.16,0-.33-.15-.41.06-.2.54-.22.53-.69.06-.29-.3-.58-.6-.86-.91s-.51-.42-.15-.6.4.2.58.34A4.12,4.12,0,0,1,53.23,38.44Z"/><path class="cls-9" d="M49.41,36.51a.9.9,0,0,0-1.07-.18c-.86.37-.87.5,0,1.48.3.21.48.79.91.72.63-.11-.23-.48-.08-.71s.26-.25.36-.39A.63.63,0,0,0,49.41,36.51Zm-.38.8c-.37.24-.89-.32-.52-.56S49.4,37.08,49,37.31Z"/><path class="cls-9" d="M57.22,33.44l-.28-.16a.69.69,0,0,1-.49-.13.75.75,0,0,1-.2-.1.54.54,0,0,1-.2-.31l0,0a.38.38,0,0,1,0-.1v-.05l0-.08h0l0,0v-.08h0s0,0,0,0h-.13l0,0,0,0,0,0-.1.09-.06.24,0,0a.08.08,0,0,1,0,.07c-.2.13-.29.06-.36-.05a1.73,1.73,0,0,1-.28-.26.8.8,0,0,1-.15-.21.27.27,0,0,0-.28-.06c-.18.07-.19.23-.05.37.47.52.94,1,1.46,1.52.21.2.59.18.45-.11-.24-.47-.09-.44.34-.32s.58.06.61-.25Z"/><path class="cls-9" d="M59.64,35.87c-.44-.35-.74-1-1.46-1a.75.75,0,0,0-.74.47c0,.11-.09.23.08.3.41.19.38-.36.89-.19-.26.34-.81.62-.22,1.06s.89.07,1.16-.27C59.46,36.14,59.94,36.12,59.64,35.87ZM59,36a.16.16,0,0,1,0,.1.06.06,0,0,1,0,0,.07.07,0,0,1,0,.05.05.05,0,0,1,0,0l0,0h0l-.06.05h0l-.09,0h-.17l-.08,0a.42.42,0,0,1-.14-.09l0-.06a.26.26,0,0,1,0-.1.31.31,0,0,1,0-.1.16.16,0,0,1,.06-.08l0,0s0,0,0,0l0-.05a.33.33,0,0,1,.14,0h.08a.15.15,0,0,1,.11,0,.26.26,0,0,1,.11.07A.21.21,0,0,1,59,36Z"/><path class="cls-9" d="M55.19,36.91a.71.71,0,0,0-.91.71c.51.23.5-.3,1-.17-.15.33-.77.47-.36,1a.62.62,0,0,0,.74.27c.34-.18.9-.6.84-.68A2.26,2.26,0,0,0,55.19,36.91Zm.74,1a.17.17,0,0,1,0,.1.14.14,0,0,1,0,.09.6.6,0,0,1-.06.11h0l-.06.06h0a.33.33,0,0,1-.14,0h-.08a.44.44,0,0,1-.16-.06l-.06,0a.21.21,0,0,1-.06-.1.12.12,0,0,1,0-.1.16.16,0,0,1,0-.09.1.1,0,0,1,0,0h0a.24.24,0,0,1,.08-.09l.07,0a.26.26,0,0,1,.15,0l.08,0a.41.41,0,0,1,.11.07A.24.24,0,0,1,55.93,37.9Z"/><path class="cls-9" d="M37.16,42.21c-.22-.56-.16-.87.23-1.1s1-.65,1.53-1c.16-.1.33-.37.59,0s.28.43,0,.61C38.73,41.2,38,41.68,37.16,42.21Z"/><path class="cls-9" d="M44,37.91c-.74.46-1.44.89-2.11,1.35a.62.62,0,0,1-.91-.06c-.29-.34.14-.4.31-.52.43-.3.91-.57,1.35-.87A1.11,1.11,0,0,1,44,37.91Z"/><path class="cls-9" d="M58,32.5h0v0h0a.07.07,0,0,1,0,.08h0l0,0h0a.5.5,0,0,1-.39.09c-.08,0-.13-.1-.09-.16a1.78,1.78,0,0,1,.45-.36l.1-.12a.09.09,0,0,1,0-.06.47.47,0,0,1,0-.17v0a1.05,1.05,0,0,0-.94-.31.46.46,0,0,0-.52.32l-.15.35h0A1.71,1.71,0,0,0,57,33c.15.1.32.18.48.27l0,0c.53-.12,1.29-.08.72-.92l-.15.11A.09.09,0,0,1,58,32.5Zm-1.19-.14a.07.07,0,0,1,0-.12.26.26,0,0,1,.06-.23.39.39,0,0,1,.21-.14.33.33,0,0,1,.14,0h.08a.17.17,0,0,1,.16.08.12.12,0,0,1,0,.14.72.72,0,0,1-.2.14c-.11.05-.19.12-.3.17A.13.13,0,0,1,56.82,32.36Z"/><path class="cls-9" d="M66.2,31.36h0a.52.52,0,0,1-.1.11.38.38,0,0,1-.24.11.15.15,0,0,1-.14,0,.09.09,0,0,1,0-.07v0a.81.81,0,0,1,.28-.24l.31-.16c0-.46-.42-.64-.85-.68-.63-.06-.83.3-.86.77a1.09,1.09,0,0,0,0,.36h0a.28.28,0,0,1,.23.22c0,.06,0,.12.06.19h0a1.34,1.34,0,0,0,.55.14c.66,0,1.41.08,1-.84A1.07,1.07,0,0,1,66.2,31.36Zm-1-.56c.22-.14.55.19.33.33S64.94,30.93,65.15,30.8Z"/><path class="cls-9" d="M51.45,39.3a.75.75,0,0,0-.88.43c0,.09-.15.21,0,.31.43.26.39-.36.83-.19.11.19-.08.21-.16.28-.25.23-.39.48,0,.78a.65.65,0,0,0,1,0c.16-.25.82-.35.56-.59S52.07,39.42,51.45,39.3Zm.49,1.05a.13.13,0,0,1,0,.06h0v0h0a.11.11,0,0,1,0,.08.08.08,0,0,1-.08,0h-.08l0,0a.08.08,0,0,1-.08,0l0,0,0,0,0,0a.1.1,0,0,1,0-.09l.08,0h0l0,0h0a.12.12,0,0,1,0-.05.14.14,0,0,1,.09,0A.15.15,0,0,1,51.94,40.35Z"/><path class="cls-9" d="M66.41,25.41c-.39.3-.42.7,0,1.15a1.06,1.06,0,0,0,1.4.28c.48-.3.41-.73,0-1.16A1.14,1.14,0,0,0,66.41,25.41ZM67.5,26l.06.08h0a.54.54,0,0,1,.05.11h0s0,.05,0,.08v0a.23.23,0,0,1-.19.23.36.36,0,0,1-.18,0,.49.49,0,0,1-.18-.08l-.07,0-.08-.06,0,0-.08-.06a.39.39,0,0,1-.1-.16V26h0v-.08a.23.23,0,0,1,.1-.12l.08,0H67a.32.32,0,0,1,.14,0l.12.07h0l.1.06h0a.1.1,0,0,0,0,0s0,0,0,.05Z"/><path class="cls-9" d="M45.61,45.44c.37-.19.64-.64,1.22,0s0,.76-.35,1-.58.72-1.21.1S45.27,45.7,45.61,45.44Z"/><path class="cls-9" d="M60.4,29.27c-.46.26-.52.69-.1,1.15a1.06,1.06,0,0,0,1.45.31c.47-.3.41-.7.06-1.15A1.15,1.15,0,0,0,60.4,29.27Zm1.14.79a.24.24,0,0,1-.11.28l0,0-.11.05-.11,0h-.11l-.1,0a.52.52,0,0,1-.25-.21h0l0-.08h0v0l0,0,0-.08a.26.26,0,0,1,0-.15l0-.07a.25.25,0,0,1,.1-.08.28.28,0,0,1,.13,0l.14,0a.35.35,0,0,1,.14.06l.18.14.1.07A.39.39,0,0,1,61.54,30.06Z"/><path class="cls-9" d="M64.61,27.08l-.1-.09c-.16.31-.62.08-.89.23a.66.66,0,0,0-.24,1.11,1.11,1.11,0,0,0,1.37.47c.49-.21.63-.57.27-1.09C64.87,27.5,64.51,27.37,64.61,27.08Zm0,.9a.19.19,0,0,1,0,.12.11.11,0,0,1,0,.08.15.15,0,0,1,0,.11l-.06.05a.2.2,0,0,1-.13,0H64.2A.48.48,0,0,1,64,28.3l-.08-.06-.06-.08h0a.62.62,0,0,1-.14-.14l0-.08a.22.22,0,0,1,0-.16l0-.07a.26.26,0,0,1,.1-.07.28.28,0,0,1,.13,0,.34.34,0,0,1,.14,0,.42.42,0,0,1,.14.06l.19.13a.48.48,0,0,1,.11.09Z"/><path class="cls-9" d="M70.23,24.23c.08-.35-.71-.91-.17-1s.54.59.73.93c.33.57.91,1.27-.35,1.61.55-.83-.26-1-.79-1.33-.24-.16-.8-.24-.66-.53s.56,0,.86.17Z"/><path class="cls-9" d="M56.23,37.11c-.07-.25-.84-.46-.21-.84.33-.19.49-.67,1.06-.36a2.34,2.34,0,0,1,1,1.12c.05.14-.24.19-.4.09a3.8,3.8,0,0,1-.47-.43c-.18-.15-.36-.41-.61-.21s-.06.33.09.5l.14.15c.12.2.56.42.19.59s-.41-.21-.58-.36A2.94,2.94,0,0,1,56.23,37.11Z"/><path class="cls-9" d="M63.54,32.83l0,0,0,0a.5.5,0,0,1-.12-.08,1,1,0,0,1-.26-.35h0a.82.82,0,0,0-1-.07c-.23.14-.54.35-.27.61s.35-.22.61-.2a1.13,1.13,0,0,1,.22.09c-.17.32-.71.57-.17,1,.27.23.82.24.84,0,0-.38,1.23-.22.42-.91A.54.54,0,0,1,63.54,32.83Zm-.36.62c-.22.14-.55-.19-.33-.33S63.4,33.31,63.18,33.45Z"/><path class="cls-9" d="M62.17,34.56c-.49.34-.87.51-1-.27,0-.28.07-.72-.59-.45-.1,0-.35-.19-.24-.33a1.16,1.16,0,0,1,.91-.54c.42,0,.34.41.39.67s0,.6.51.33a.26.26,0,0,1,.35.13C62.63,34.42,62.24,34.43,62.17,34.56Z"/><path class="cls-9" d="M52.86,35.92c-.18-.16-.37-.31-.55-.48s-.5-.5-.9-.37-.78.3-.57.81h0c.06-.1.23-.13.35-.18a.65.65,0,0,1,.25-.12h0v0h0c.05-.13.3,0,.25.1a1,1,0,0,1-.28.35,1.54,1.54,0,0,0-.17.19.6.6,0,0,0,.55.63A1.26,1.26,0,0,0,53,36.08C53.06,36,53,35.91,52.86,35.92Zm-.6.19a.21.21,0,0,1-.07.22.29.29,0,0,1-.13.08h-.18a.18.18,0,0,1-.08-.07s0-.06,0-.09A.35.35,0,0,1,52,36a.17.17,0,0,1,.1,0l.07,0A.13.13,0,0,1,52.26,36.11Z"/><path class="cls-9" d="M41.16,37.67l-3.35,2.12C38,38.73,39.47,37.75,41.16,37.67Z"/><path class="cls-9" d="M53,36.08l-.18-.16c.26-.74.23-.79-.47-1-.08,0-.22-.13-.22-.17A1,1,0,0,1,53,34.1c.49-.13.4.28.48.53s-.13.46.3.48c.22,0,.48-.21.61.13s-.23.33-.41.42A7.92,7.92,0,0,1,53,36.08Z"/><path class="cls-9" d="M54.84,34.36c-.41,0-.9.25-1.18-.3-.18-.37.06-.58.37-.69s.62-.36.55.25c0,.19.11.21.3.28.76.28.88.64.35,1-.19.13-.45.37-.71.07S54.92,34.76,54.84,34.36Z"/><path class="cls-9" d="M64.93,32a.27.27,0,0,1,0,.13.32.32,0,0,1-.11.12.24.24,0,0,1-.13,0,.69.69,0,0,1-.32,0,.72.72,0,0,1-.27-.12.74.74,0,0,1-.12-.13.23.23,0,0,1,0-.14.32.32,0,0,1,.18-.27l.24-.14a.2.2,0,0,1,.11,0c0-.12,0-.24-.29-.35-.7.06-1,.38-.83,1h0l.08.08.09.11.13.13,0,0,0,0h0l.1.08a.18.18,0,0,1,0,.07h0l0,.06h0c.81.24,1.36.14,1.37-.63A.65.65,0,0,0,64.93,32Z"/><path class="cls-9" d="M59.59,31c.06-.35-.72-.9-.11-1s.42.58.63.9.39.56.1.75-.58-.1-.86-.24a1,1,0,0,1-.29-.15c-.2-.23-.9-.22-.66-.6s.59.14.9.23Z"/><path class="cls-9" d="M45.34,45.29c-.33,0-.5.58-.85.18a.74.74,0,0,1,0-1.15,1.11,1.11,0,0,1,1.29.22C46.26,45,45.46,45,45.34,45.29Z"/><path class="cls-9" d="M64.61,27.09l-.1-.1c-.15-.39.11-.4.42-.28s.47.33.79.35c-.07-.14-.15-.29-.21-.43s-.3-.53.07-.57.3.34.45.51a.73.73,0,0,1,.15.35c.09.27.45.6.15.82s-.64-.14-.94-.28Z"/><path class="cls-9" d="M50,36.87c-.26-.24-.7-.55,0-.83.17-.08.26-.33.48-.23s.11.34.06.52.2.44.36.65.45.35.18.54-.48-.1-.68-.27Z"/><path class="cls-9" d="M59.14,34.91c-.12-.41-1.06-.75-.63-1s.71.5,1,.81,1,.77.7.94C59.73,35.9,59.6,35.09,59.14,34.91Z"/><path class="cls-9" d="M59.94,33.86c.31.28.63.56.93.85s.44.38.15.54-.47-.08-.62-.27-.7-.54-.75-.94C59.66,33.89,59.76,33.83,59.94,33.86Z"/><path class="cls-9" d="M48.22,43.9c0,.43.05.9-.48,1.06-.06,0-.33-.19-.37-.31C47.21,44.08,47.88,44.11,48.22,43.9Z"/><path class="cls-9" d="M43.14,47.1c.36-.14.44-.77,1.07-.4.13.08.35.29.22.38A1.45,1.45,0,0,1,43.14,47.1Z"/><path class="cls-9" d="M57,31.5c-.27-.12-.18-.64-.58-.5s.07.5.1.76a0,0,0,0,0,0,0Z"/><path class="cls-9" d="M59.94,33.86l-.29.18c0-.29-.67-.25-.55-.62a.29.29,0,0,1,.22-.14C59.79,33.27,59.64,33.73,59.94,33.86Z"/><path class="cls-9" d="M51.7,34.07c.21-.27.54-.22.92-.31C52.38,34.09,52.22,34.32,51.7,34.07Z"/></svg>