<svg xmlns="http://www.w3.org/2000/svg" xmlns:xlink="http://www.w3.org/1999/xlink" viewBox="0 0 546.47 609.05"><defs><style>.cls-1{mask:url(#mask);filter:url(#luminosity-noclip-9);}.cls-10,.cls-12,.cls-14,.cls-16,.cls-2,.cls-4,.cls-6,.cls-8{mix-blend-mode:multiply;}.cls-2{fill:url(#Áåçûìÿííûé_ãðàäèåíò_1314);}.cls-3{mask:url(#mask-2);filter:url(#luminosity-noclip-14);}.cls-4{fill:url(#Áåçûìÿííûé_ãðàäèåíò_1000);}.cls-5{mask:url(#mask-3);filter:url(#luminosity-noclip-15);}.cls-6{fill:url(#Áåçûìÿííûé_ãðàäèåíò_1000-2);}.cls-7{mask:url(#mask-4);filter:url(#luminosity-noclip-16);}.cls-8{fill:url(#Áåçûìÿííûé_ãðàäèåíò_1000-3);}.cls-9{mask:url(#mask-5);filter:url(#luminosity-noclip-10);}.cls-10{fill:url(#Áåçûìÿííûé_ãðàäèåíò_1000-4);}.cls-11{mask:url(#mask-6);filter:url(#luminosity-noclip-11);}.cls-12{fill:url(#Áåçûìÿííûé_ãðàäèåíò_1000-5);}.cls-13{mask:url(#mask-7);filter:url(#luminosity-noclip-12);}.cls-14{fill:url(#Áåçûìÿííûé_ãðàäèåíò_1000-6);}.cls-15{mask:url(#mask-8);filter:url(#luminosity-noclip-13);}.cls-16{fill:url(#Áåçûìÿííûé_ãðàäèåíò_1000-7);}.cls-17{isolation:isolate;}.cls-18,.cls-19{mix-blend-mode:screen;opacity:0.22;}.cls-18{fill:url(#Áåçûìÿííûé_ãðàäèåíò_2);}.cls-19{fill:url(#Áåçûìÿííûé_ãðàäèåíò_2-2);}.cls-20{mask:url(#mask-9);}.cls-21{fill:#ad2f55;}.cls-22{fill:#9a648c;opacity:0.31;}.cls-23{fill:#4b0f22;}.cls-24{fill:#4c1424;opacity:0.17;}.cls-25{fill:#fefcb6;opacity:0.43;}.cls-26{mask:url(#mask-10);}.cls-27{fill:#27010c;}.cls-28{mask:url(#mask-11);}.cls-29{mask:url(#mask-12);}.cls-30{fill:#4d1327;}.cls-31{mask:url(#mask-13);}.cls-32{mask:url(#mask-14);}.cls-33{mask:url(#mask-15);}.cls-34{mask:url(#mask-16);}.cls-35{fill:#fdfa9d;}.cls-36{fill:#fbc69f;}.cls-37{filter:url(#luminosity-noclip-8);}.cls-38{filter:url(#luminosity-noclip-7);}.cls-39{filter:url(#luminosity-noclip-6);}.cls-40{filter:url(#luminosity-noclip-5);}.cls-41{filter:url(#luminosity-noclip-4);}.cls-42{filter:url(#luminosity-noclip-3);}.cls-43{filter:url(#luminosity-noclip-2);}.cls-44{filter:url(#luminosity-noclip);}</style><filter id="luminosity-noclip" x="68.24" y="-7559.17" width="442.26" height="32766" filterUnits="userSpaceOnUse" color-interpolation-filters="sRGB"><feFlood flood-color="#fff" result="bg"/><feBlend in="SourceGraphic" in2="bg"/></filter><mask id="mask" x="68.24" y="-7559.17" width="442.26" height="32766" maskUnits="userSpaceOnUse"><g class="cls-44"/></mask><radialGradient id="Áåçûìÿííûé_ãðàäèåíò_1314" cx="362.11" cy="577.57" r="503.91" gradientTransform="translate(-55.28 -93.61) scale(0.97 1.03)" gradientUnits="userSpaceOnUse"><stop offset="0" stop-color="#666"/><stop offset="0.13" stop-color="#727272"/><stop offset="0.36" stop-color="#919191"/><stop offset="0.67" stop-color="#c3c3c3"/><stop offset="1" stop-color="#fff"/></radialGradient><filter id="luminosity-noclip-2" x="250.51" y="-7559.17" width="41.42" height="32766" filterUnits="userSpaceOnUse" color-interpolation-filters="sRGB"><feFlood flood-color="#fff" result="bg"/><feBlend in="SourceGraphic" in2="bg"/></filter><mask id="mask-2" x="250.51" y="-7559.17" width="41.42" height="32766" maskUnits="userSpaceOnUse"><g class="cls-43"/></mask><radialGradient id="Áåçûìÿííûé_ãðàäèåíò_1000" cx="338.13" cy="110.66" r="24.25" gradientTransform="translate(-55.28 24.79) scale(0.97 0.85)" gradientUnits="userSpaceOnUse"><stop offset="0" stop-color="gray"/><stop offset="0.15" stop-color="#8c8c8c"/><stop offset="0.42" stop-color="#ababab"/><stop offset="0.78" stop-color="#dcdcdc"/><stop offset="1" stop-color="#fff"/></radialGradient><filter id="luminosity-noclip-3" x="300.97" y="-7559.17" width="42.5" height="32766" filterUnits="userSpaceOnUse" color-interpolation-filters="sRGB"><feFlood flood-color="#fff" result="bg"/><feBlend in="SourceGraphic" in2="bg"/></filter><mask id="mask-3" x="300.97" y="-7559.17" width="42.5" height="32766" maskUnits="userSpaceOnUse"><g class="cls-42"/></mask><radialGradient id="Áåçûìÿííûé_ãðàäèåíò_1000-2" cx="390.95" cy="110.67" r="24.51" xlink:href="#Áåçûìÿííûé_ãðàäèåíò_1000"/><filter id="luminosity-noclip-4" x="353.34" y="-7559.17" width="38.39" height="32766" filterUnits="userSpaceOnUse" color-interpolation-filters="sRGB"><feFlood flood-color="#fff" result="bg"/><feBlend in="SourceGraphic" in2="bg"/></filter><mask id="mask-4" x="353.34" y="-7559.17" width="38.39" height="32766" maskUnits="userSpaceOnUse"><g class="cls-41"/></mask><radialGradient id="Áåçûìÿííûé_ãðàäèåíò_1000-3" cx="443.06" cy="110.65" r="23.5" xlink:href="#Áåçûìÿííûé_ãðàäèåíò_1000"/><filter id="luminosity-noclip-5" x="87.9" y="-7559.17" width="402.94" height="32766" filterUnits="userSpaceOnUse" color-interpolation-filters="sRGB"><feFlood flood-color="#fff" result="bg"/><feBlend in="SourceGraphic" in2="bg"/></filter><mask id="mask-5" x="87.9" y="-7559.17" width="402.94" height="32766" maskUnits="userSpaceOnUse"><g class="cls-40"/></mask><radialGradient id="Áåçûìÿííûé_ãðàäèåíò_1000-4" cx="356.93" cy="381.04" r="351.33" gradientTransform="translate(-55.28 -31.85) scale(0.97)" xlink:href="#Áåçûìÿííûé_ãðàäèåíò_1000"/><filter id="luminosity-noclip-6" x="89.33" y="-7559.17" width="400.08" height="32766" filterUnits="userSpaceOnUse" color-interpolation-filters="sRGB"><feFlood flood-color="#fff" result="bg"/><feBlend in="SourceGraphic" in2="bg"/></filter><mask id="mask-6" x="89.33" y="-7559.17" width="400.08" height="32766" maskUnits="userSpaceOnUse"><g class="cls-39"/></mask><radialGradient id="Áåçûìÿííûé_ãðàäèåíò_1000-5" cx="356.93" cy="381.04" r="345.4" gradientTransform="translate(-55.28 -31.85) scale(0.97)" xlink:href="#Áåçûìÿííûé_ãðàäèåíò_1000"/><filter id="luminosity-noclip-7" x="68.25" y="-7559.17" width="121.8" height="32766" filterUnits="userSpaceOnUse" color-interpolation-filters="sRGB"><feFlood flood-color="#fff" result="bg"/><feBlend in="SourceGraphic" in2="bg"/></filter><mask id="mask-7" x="68.25" y="-7559.17" width="121.8" height="32766" maskUnits="userSpaceOnUse"><g class="cls-38"/></mask><radialGradient id="Áåçûìÿííûé_ãðàäèåíò_1000-6" cx="191" cy="196.34" r="100.27" gradientTransform="translate(-55.28 -93.61) scale(0.97 1.03)" xlink:href="#Áåçûìÿííûé_ãðàäèåíò_1000"/><filter id="luminosity-noclip-8" x="186.45" y="-7559.17" width="60.95" height="32766" filterUnits="userSpaceOnUse" color-interpolation-filters="sRGB"><feFlood flood-color="#fff" result="bg"/><feBlend in="SourceGraphic" in2="bg"/></filter><mask id="mask-8" x="186.45" y="-7559.17" width="60.95" height="32766" maskUnits="userSpaceOnUse"><g class="cls-37"/></mask><radialGradient id="Áåçûìÿííûé_ãðàäèåíò_1000-7" cx="281.91" cy="110.53" r="29.25" xlink:href="#Áåçûìÿííûé_ãðàäèåíò_1000"/><radialGradient id="Áåçûìÿííûé_ãðàäèåíò_2" cx="127.71" cy="304.42" r="86.94" gradientTransform="translate(-55.28 -93.61) scale(0.97 1.03)" gradientUnits="userSpaceOnUse"><stop offset="0" stop-color="#812c42"/><stop offset="1" stop-color="#850d43"/></radialGradient><radialGradient id="Áåçûìÿííûé_ãðàäèåíò_2-2" cx="127.72" cy="304.42" r="86.94" xlink:href="#Áåçûìÿííûé_ãðàäèåíò_2"/><filter id="luminosity-noclip-9" x="68.24" y="28.86" width="442.26" height="580.19" filterUnits="userSpaceOnUse" color-interpolation-filters="sRGB"><feFlood flood-color="#fff" result="bg"/><feBlend in="SourceGraphic" in2="bg"/></filter><mask id="mask-9" x="68.24" y="28.86" width="442.26" height="580.19" maskUnits="userSpaceOnUse"><g class="cls-1"><path class="cls-2" d="M74,49.49c-4.6,7.31-9.51,135.25-1.45,265.39,6.56,129.89,26.08,262,35.79,272,10.28,9.75,97.57,23,184.56,22.17,87,.63,173.68-12.75,182.82-22.92,8.66-10.41,26.28-142.39,31.57-272,6.78-129.81,1.23-257.27-1.92-263.12-3.1-5.54-108.83-22.31-214.77-22C184.64,27.14,78.48,42.4,74,49.49Z"/></g></mask><filter id="luminosity-noclip-10" x="87.9" y="54.65" width="402.94" height="530.13" filterUnits="userSpaceOnUse" color-interpolation-filters="sRGB"><feFlood flood-color="#fff" result="bg"/><feBlend in="SourceGraphic" in2="bg"/></filter><mask id="mask-10" x="87.9" y="54.65" width="402.94" height="530.13" maskUnits="userSpaceOnUse"><g class="cls-9"><path class="cls-10" d="M486.15,106.36c-2.82-4.75-99.15-19.13-195.66-18.83C194,85.92,97.23,99,93.14,105.08c-4.19,6.27-8.66,116-1.32,227.51,6,111.36,23.76,224.59,32.61,233.15,9.36,8.37,88.89,19.7,168.15,19,79.25.55,158.23-10.93,166.56-19.64C467,556.18,483.09,443,487.91,331.92,494.08,220.63,489,111.37,486.15,106.36ZM485,332.1c-4.74,106.37-20.56,214.67-28.34,223.22-8.21,8.35-86,19.33-164.14,18.81-78.1.65-156.47-10.19-165.7-18.2-8.72-8.2-26.24-116.59-32.13-223.19C87.46,226,91.87,121,96,115c4-5.82,99.34-18.34,194.47-16.8,95.11-.29,190,13.47,192.82,18C486.12,121,491.1,225.56,485,332.1Z"/></g></mask><filter id="luminosity-noclip-11" x="89.33" y="60.83" width="400.08" height="518.14" filterUnits="userSpaceOnUse" color-interpolation-filters="sRGB"><feFlood flood-color="#fff" result="bg"/><feBlend in="SourceGraphic" in2="bg"/></filter><mask id="mask-11" x="89.33" y="60.83" width="400.08" height="518.14" maskUnits="userSpaceOnUse"><g class="cls-11"><path class="cls-12" d="M457.94,559.76C465.78,551,481.72,440.54,486.5,332c6.13-108.68,1.11-215.39-1.74-220.29C482,107.08,386.31,93,290.48,93.34c-95.85-1.57-191.89,11.2-196,17.14-4.17,6.12-8.6,113.24-1.31,222.2C99.15,441.42,116.81,552,125.6,560.38c9.3,8.17,88.26,19.23,167,18.56C371.25,579.47,449.67,568.27,457.94,559.76ZM292.53,574.13c-78.1.65-156.47-10.19-165.7-18.2-8.72-8.2-26.24-116.59-32.13-223.19C87.46,226,91.87,121,96,115c4-5.82,99.34-18.34,194.47-16.8,95.11-.29,190,13.47,192.82,18,2.83,4.8,7.81,109.39,1.72,215.93-4.74,106.37-20.56,214.67-28.34,223.22C448.46,563.67,370.63,574.65,292.53,574.13Z"/></g></mask><filter id="luminosity-noclip-12" x="68.25" y="35.52" width="121.8" height="144.7" filterUnits="userSpaceOnUse" color-interpolation-filters="sRGB"><feFlood flood-color="#fff" result="bg"/><feBlend in="SourceGraphic" in2="bg"/></filter><mask id="mask-12" x="68.25" y="35.52" width="121.8" height="144.7" maskUnits="userSpaceOnUse"><g class="cls-13"><path class="cls-14" d="M135.59,140.23c12.48,1.93,6.38,13.73,10.89,16.82a.56.56,0,0,0,.18.07l.13,0h0A3.86,3.86,0,0,0,149,156h0l.09-.07a32.16,32.16,0,0,0,3-2.85s0,0,0,0h0c4.47-4.65,13.89-15.67,28.65-38.87,2.06-3.19,3.9-6.12,5.38-8.62l.91-1.49,1.07-1.75h0l-.14,0c1.57-2.85,2.34-4.67,2-4.92-1.26-.87-9.09,7.34-16.72,14.59l-1.12,1.05a1.14,1.14,0,0,1-.11.11l-1.06,1-.15.13-1,1a1.42,1.42,0,0,0-.13.12l-1,.93-.1.08c-.71.63-1.4,1.23-2.08,1.79l-.09.08c-.32.26-.63.52-.94.76l-.14.11-.88.68-.14.11-.84.61-.12.07c-.28.2-.55.39-.82.55l0,0c-.27.17-.53.33-.78.46l-.05,0c-.24.14-.47.25-.7.36l-.09,0a4.9,4.9,0,0,1-.62.24l-.1,0a4.2,4.2,0,0,1-.54.13h-.09a2,2,0,0,1-.48,0h0a1.8,1.8,0,0,1-.43-.12,1.58,1.58,0,0,1-.24-.15l-.08-.06-.17-.14-.1-.09-.16-.17-.11-.12-.16-.19a1.71,1.71,0,0,1-.11-.14l-.17-.22-.11-.15-.18-.27s-.07-.1-.1-.16a3.28,3.28,0,0,1-.2-.31l-.1-.16-.22-.38s-.05-.08-.07-.13l-.27-.48,0-.07c-.75-1.39-1.55-3.13-2.37-5.1-4.15-9.93-8.87-25.58-10.4-30.76,7.12-12,16.31-30.63,15.69-33.42-.78-3.55-4.69,4-8,7.31s-9.09.81-9.17.77a54.52,54.52,0,0,0,6-22.32C105.46,40,76.3,45.84,74,49.49c-2.58,4.1-5.26,46.18-5.69,105.31q1.35-1.92,2.64-4a65.41,65.41,0,0,0,5.78-12l2.66-3.26,0,0,12.47-5.05c0,.24,0,.49,0,.74a10.26,10.26,0,0,1-.11,1.42,34.92,34.92,0,0,1-2.66,8.55c-.31.72-.64,1.47-1,2.23-.7,1.51-1.48,3.09-2.32,4.71l-.64,1.22c-1.51,2.86-3.2,5.83-5,8.81-.36.62-.72,1.23-1.09,1.84-3.51,5.71-7.45,11.9-10.8,17.26,0,1,0,2,0,3.05l.46-.71.88-1.34c.9-1.35,1.84-2.75,2.81-4.15.64-.94,1.3-1.88,2-2.82s1.2-1.67,1.8-2.49c1.44-1.94,2.91-3.83,4.37-5.56.69-.83,1.38-1.62,2.07-2.36s1.37-1.45,2-2.1c.34-.32.67-.64,1-.93C85.82,157.76,123.14,138.31,135.59,140.23Z"/></g></mask><filter id="luminosity-noclip-13" x="186.45" y="96" width="60.95" height="45.45" filterUnits="userSpaceOnUse" color-interpolation-filters="sRGB"><feFlood flood-color="#fff" result="bg"/><feBlend in="SourceGraphic" in2="bg"/></filter><mask id="mask-13" x="186.45" y="96" width="60.95" height="45.45" maskUnits="userSpaceOnUse"><g class="cls-15"><polygon class="cls-16" points="186.45 141.2 200.16 96 208.07 96 217.32 114.72 223.1 96 231.52 96 247.4 138.25 231.07 140.26 223.06 120.84 216.9 133.07 210.55 121.31 203.49 141.45 186.45 141.2"/></g></mask><filter id="luminosity-noclip-14" x="250.51" y="96.09" width="41.42" height="45.48" filterUnits="userSpaceOnUse" color-interpolation-filters="sRGB"><feFlood flood-color="#fff" result="bg"/><feBlend in="SourceGraphic" in2="bg"/></filter><mask id="mask-14" x="250.51" y="96.09" width="41.42" height="45.48" maskUnits="userSpaceOnUse"><g class="cls-3"><path class="cls-4" d="M250.51,98.72l41.13-2.63-1.45,10.83L266,108.84l1.22,7.25,16.07-.43-.87,6.43-14.53,1,.91,8.17L291.92,130,290,140.6c-2.43.22-10.38.57-34.61,1Z"/></g></mask><filter id="luminosity-noclip-15" x="300.97" y="96.09" width="42.5" height="45.51" filterUnits="userSpaceOnUse" color-interpolation-filters="sRGB"><feFlood flood-color="#fff" result="bg"/><feBlend in="SourceGraphic" in2="bg"/></filter><mask id="mask-15" x="300.97" y="96.09" width="42.5" height="45.51" maskUnits="userSpaceOnUse"><g class="cls-5"><path class="cls-6" d="M329.47,141.6l-14.89-22.44-2.61,22-11-3c-.05-11.61.62-22.93,2-40.34H314l15.6,26.58L331,96.91l12.52-.82-4.19,45.51Z"/></g></mask><filter id="luminosity-noclip-16" x="353.34" y="96.18" width="38.39" height="45.28" filterUnits="userSpaceOnUse" color-interpolation-filters="sRGB"><feFlood flood-color="#fff" result="bg"/><feBlend in="SourceGraphic" in2="bg"/></filter><mask id="mask-16" x="353.34" y="96.18" width="38.39" height="45.28" maskUnits="userSpaceOnUse"><g class="cls-7"><path class="cls-8" d="M391.68,96.79l-14,2.19c2,20.58-.34,25.38-2.27,27.19a4.44,4.44,0,0,1-3,1.21,6.86,6.86,0,0,1-1.32.13,4.86,4.86,0,0,1-4.7-3.24l-.08-.21v-.21c-.4-8.87-.46-17.66-.17-26.15l-12.8-1.52.48,24.06c0,14.26,5.39,21.2,16.5,21.23,10.11-.55,15.27-3.27,17.78-9.36C390.8,122.8,392,111.23,391.68,96.79Z"/></g></mask></defs><g class="cls-17"><g id="Layer_1" data-name="Layer 1"><path class="cls-18" d="M66.09,115.38c-1.25,4.44-82.81,124.81-63,178.24s133,15.52,133,15.52S19.48,341.57,9.13,287.36s70.2-162.9,70.2-162.9Z"/><path class="cls-19" d="M12.07,296.14C1.14,278.68,2.9,253.67,7.69,232.52c-7.36,23.1-10.52,45.1-4.59,61.1,19.82,53.44,133,15.52,133,15.52S32.94,337.83,12.07,296.14Z"/><g class="cls-20"><path class="cls-21" d="M74,49.49c-4.6,7.31-9.51,135.25-1.45,265.39,6.56,129.89,26.08,262,35.79,272,10.28,9.75,97.57,23,184.56,22.17,87,.63,173.68-12.75,182.82-22.92,8.66-10.41,26.28-142.39,31.57-272,6.78-129.81,1.23-257.27-1.92-263.12-3.1-5.54-108.83-22.31-214.77-22C184.64,27.14,78.48,42.4,74,49.49Z"/></g><path class="cls-22" d="M78.12,244.1c5.83,15.85,15,29.59,29.7,36.9,32.76,16.35,71.33-1.51,97.32-23.44,21.51-18.14,40.38-39.43,59.28-60.53,17.43-19.47,35.07-38.88,55-55.51,11.28-9.41,22.88-18.17,35.46-25.51a274.06,274.06,0,0,1,38.66-18.42C430.07,83.37,469,77.43,507.85,74.68c-.84-13.84-1.73-22.3-2.49-23.71-3.1-5.54-108.83-22.31-214.77-22C184.64,27.14,78.48,42.4,74,49.49c-3.15,4.95-2.48,15.09-2.91,20.7-1.29,16.76-1.84,33.58-2.25,50.38-.59,24.12-1.83,48.3-.23,72.4C69.67,209.09,72.09,227.73,78.12,244.1Z"/><path class="cls-23" d="M75.19,51.83c2.65,1.58,9.85-1.24,12.3-1.72,4.84-.94,9.88-1.91,14.6-2.73,11.18-2,22.42-3.48,33.68-4.83,30.58-3.66,61.32-5.92,92.08-7.12,20.93-.81,41.81-.66,62.74-.73,34.28-.11,68.57,1.48,102.74,4.36,26.53,2.24,53.05,5.15,79.35,9.51,6.07,1,12.14,2.09,18.16,3.39,3.5.76,9.33,3,12.85,1.8s.35-3.84-1.75-4.59c-5.82-2.09-12-3.16-18.06-4.31-23.71-4.53-47.72-7.37-71.69-9.75-33.17-3.3-66.47-5.34-99.78-5.94-7.27-.12-14.55,0-21.82-.16-34.24-.6-68.51.5-102.67,2.93-26.69,1.91-53.41,4.51-79.87,8.76-8.11,1.3-16.24,2.7-24.21,4.78-2,.53-11.88,2.65-9.17,5.91A2,2,0,0,0,75.19,51.83Z"/><path class="cls-24" d="M499.13,330.9c-4.26-12.82-12-23.36-25.34-28.79-38.48-15.62-77.55,4.12-107.67,29.36-24.36,20.41-45.24,45.07-64.3,71-14.2,19.71-27.25,40.26-40.73,60.52-26,39.08-58.48,82.45-107,86.17a78.48,78.48,0,0,1-35.52-6,125.38,125.38,0,0,1-24.2-13.05c5.24,31.86,10.3,53,14,56.79,10.28,9.75,97.57,23,184.56,22.17,87,.63,173.68-12.75,182.82-22.92,1.66-1.84,2.25-4.94,3-7.25,6.94-20.53,12.08-66.46,15.75-98.7q4.35-38.37,7.38-76.9C503.55,382.1,506.5,353.09,499.13,330.9Z"/><path class="cls-25" d="M75.48,122.22c3.42,1,5.78-12.73,6.08-14.18q2.58-12.48,3.9-25.18a61.39,61.39,0,0,0,.21-15c-.44-3.19-1.55-8.28-3.94-10.51-3.57-3.33-5.17,3.78-5.59,6.5C75,71,75.25,78.24,74.43,85.4a145.74,145.74,0,0,0-1.12,15.78c0,3.34.11,6.7.27,10,.1,1.86-.33,9.5,1.35,10.72A1.69,1.69,0,0,0,75.48,122.22Z"/><g class="cls-26"><path class="cls-27" d="M486.15,74.8c-2.82-5-99.15-20.33-195.66-20C194,53.09,97.23,67,93.14,73.45,89,80.11,84.48,196.68,91.82,315.24c6,118.34,23.76,238.68,32.61,247.79,9.36,8.89,88.89,20.93,168.15,20.19,79.25.59,158.23-11.61,166.56-20.87,7.89-9.49,23.95-129.73,28.77-247.83C494.08,196.25,489,80.13,486.15,74.8ZM485,314.71C480.27,427.76,464.45,542.87,456.67,552c-8.21,8.87-86,20.54-164.14,20-78.1.7-156.47-10.82-165.7-19.33-8.72-8.72-26.24-123.92-32.13-237.2C87.46,201.9,91.87,90.31,96,83.93c4-6.18,99.34-19.48,194.47-17.85,95.11-.31,190,14.32,192.82,19.15C486.12,90.33,491.1,201.49,485,314.71Z"/></g><g class="cls-28"><path class="cls-27" d="M457.94,556.66c7.84-9.27,23.78-126.7,28.56-242,6.13-115.5,1.11-228.91-1.74-234.12C482,75.57,386.31,60.65,290.48,61c-95.85-1.67-191.89,11.91-196,18.21-4.17,6.51-8.6,120.35-1.31,236.15,5.93,115.57,23.59,233.1,32.38,242,9.3,8.68,88.26,20.44,167,19.73C371.25,577.62,449.67,565.71,457.94,556.66ZM292.53,571.93c-78.1.7-156.47-10.82-165.7-19.33-8.72-8.72-26.24-123.92-32.13-237.2C87.46,201.9,91.87,90.31,96,83.93c4-6.18,99.34-19.48,194.47-17.85,95.11-.31,190,14.32,192.82,19.15,2.83,5.1,7.81,116.26,1.72,229.48C480.27,427.76,464.45,542.87,456.67,552,448.46,560.82,370.63,572.49,292.53,571.93Z"/></g><path class="cls-25" d="M471.1,582.81c2.37-2.37,13.32-54.7,16.88-87.24,1.61-14.76,5.46-33.87,3.44-34.49-5.17-1.61-11,15.92-16.66,56.17-1.27,9-8.33,52.32-14.65,54.34-34.47,11-82.72,15.57-114.61,18-22.07,1.69-28.44,8.09-22,12.45,0,0,.24,5.86,71.14-2.38S471.1,582.81,471.1,582.81Z"/><g class="cls-29"><path class="cls-30" d="M135.59,140.23c12.48,1.93,6.38,13.73,10.89,16.82a.56.56,0,0,0,.18.07l.13,0h0A3.86,3.86,0,0,0,149,156h0l.09-.07a32.16,32.16,0,0,0,3-2.85s0,0,0,0h0c4.47-4.65,13.89-15.67,28.65-38.87,2.06-3.19,3.9-6.12,5.38-8.62l.91-1.49,1.07-1.75h0l-.14,0c1.57-2.85,2.34-4.67,2-4.92-1.26-.87-9.09,7.34-16.72,14.59l-1.12,1.05a1.14,1.14,0,0,1-.11.11l-1.06,1-.15.13-1,1a1.42,1.42,0,0,0-.13.12l-1,.93-.1.08c-.71.63-1.4,1.23-2.08,1.79l-.09.08c-.32.26-.63.52-.94.76l-.14.11-.88.68-.14.11-.84.61-.12.07c-.28.2-.55.39-.82.55l0,0c-.27.17-.53.33-.78.46l-.05,0c-.24.14-.47.25-.7.36l-.09,0a4.9,4.9,0,0,1-.62.24l-.1,0a4.2,4.2,0,0,1-.54.13h-.09a2,2,0,0,1-.48,0h0a1.8,1.8,0,0,1-.43-.12,1.58,1.58,0,0,1-.24-.15l-.08-.06-.17-.14-.1-.09-.16-.17-.11-.12-.16-.19a1.71,1.71,0,0,1-.11-.14l-.17-.22-.11-.15-.18-.27s-.07-.1-.1-.16a3.28,3.28,0,0,1-.2-.31l-.1-.16-.22-.38s-.05-.08-.07-.13l-.27-.48,0-.07c-.75-1.39-1.55-3.13-2.37-5.1-4.15-9.93-8.87-25.58-10.4-30.76,7.12-12,16.31-30.63,15.69-33.42-.78-3.55-4.69,4-8,7.31s-9.09.81-9.17.77a54.52,54.52,0,0,0,6-22.32C105.46,40,76.3,45.84,74,49.49c-2.58,4.1-5.26,46.18-5.69,105.31q1.35-1.92,2.64-4a65.41,65.41,0,0,0,5.78-12l2.66-3.26,0,0,12.47-5.05c0,.24,0,.49,0,.74a10.26,10.26,0,0,1-.11,1.42,34.92,34.92,0,0,1-2.66,8.55c-.31.72-.64,1.47-1,2.23-.7,1.51-1.48,3.09-2.32,4.71l-.64,1.22c-1.51,2.86-3.2,5.83-5,8.81-.36.62-.72,1.23-1.09,1.84-3.51,5.71-7.45,11.9-10.8,17.26,0,1,0,2,0,3.05l.46-.71.88-1.34c.9-1.35,1.84-2.75,2.81-4.15.64-.94,1.3-1.88,2-2.82s1.2-1.67,1.8-2.49c1.44-1.94,2.91-3.83,4.37-5.56.69-.83,1.38-1.62,2.07-2.36s1.37-1.45,2-2.1c.34-.32.67-.64,1-.93C85.82,157.76,123.14,138.31,135.59,140.23Z"/></g><path class="cls-24" d="M276.39,26.55s207.55,40,244.21,74.83-3.35,74.33-3.35,74.33,43.69-18,24.22-79.2S435.33,0,435.33,0Z"/><g class="cls-31"><polygon class="cls-27" points="186.45 141.2 200.16 96 208.07 96 217.32 114.72 223.1 96 231.52 96 247.4 138.25 231.07 140.26 223.06 120.84 216.9 133.07 210.55 121.31 203.49 141.45 186.45 141.2"/></g><g class="cls-32"><path class="cls-27" d="M250.51,98.72l41.13-2.63-1.45,10.83L266,108.84l1.22,7.25,16.07-.43-.87,6.43-14.53,1,.91,8.17L291.92,130,290,140.6c-2.43.22-10.38.57-34.61,1Z"/></g><g class="cls-33"><path class="cls-27" d="M329.47,141.6l-14.89-22.44-2.61,22-11-3c-.05-11.61.62-22.93,2-40.34H314l15.6,26.58L331,96.91l12.52-.82-4.19,45.51Z"/></g><g class="cls-34"><path class="cls-27" d="M391.68,96.79l-14,2.19c2,20.58-.34,25.38-2.27,27.19a4.44,4.44,0,0,1-3,1.21,6.86,6.86,0,0,1-1.32.13,4.86,4.86,0,0,1-4.7-3.24l-.08-.21v-.21c-.4-8.87-.46-17.66-.17-26.15l-12.8-1.52.48,24.06c0,14.26,5.39,21.2,16.5,21.23,10.11-.55,15.27-3.27,17.78-9.36C390.8,122.8,392,111.23,391.68,96.79Z"/></g><polygon class="cls-35" points="190.09 136.66 203.31 93.06 210.94 93.06 219.87 111.12 225.44 93.06 233.56 93.06 248.88 133.82 233.13 135.76 225.4 117.03 219.46 128.82 213.33 117.47 206.52 136.9 190.09 136.66"/><path class="cls-35" d="M251.87,95.69l39.68-2.54-1.4,10.44-23.35,1.86,1.17,7,15.51-.41-.84,6.2-14,1,.88,7.88,22.32-1.24L290,136.08c-2.35.22-10,.56-33.38.94Z"/><path class="cls-35" d="M328,137.05,313.68,115.4l-2.52,21.19-10.61-2.86c-.05-11.2.6-22.12,1.89-38.91h10.69l15.05,25.64,1.28-26.52,12.08-.79-4,43.9Z"/><path class="cls-35" d="M367.44,136.92c-10.71,0-15.92-6.72-15.92-20.48l-.46-23.2,12.35,1.46c-.28,8.19-.23,16.67.16,25.22v.21l.08.2a4.68,4.68,0,0,0,4.53,3.13,6.3,6.3,0,0,0,1.27-.13,4.25,4.25,0,0,0,2.88-1.17c1.86-1.75,4.08-6.38,2.19-26.22l13.52-2.12c.27,13.93-.86,25.09-3.46,34.07C382.17,133.77,377.19,136.39,367.44,136.92Z"/><path class="cls-36" d="M217.45,115.06a57.16,57.16,0,0,1-18.41-7.9l-8.95,29.5,16.43.24,6.81-19.43,6.13,11.35L225.4,117l7.73,18.73,15.75-1.94-5.71-15.18A132,132,0,0,1,217.45,115.06Z"/><path class="cls-36" d="M268.62,119.19l14-1,0-.16c-6.57.44-13.15.73-19.74.83-2.76,0-5.56.07-8.38,0L256.61,137c23.36-.38,31-.72,33.38-.94l1.83-10.25-22.32,1.24Z"/><path class="cls-36" d="M328.53,113.08l-.35,7.38-4-6.77-3.24.44c-6.64.87-13.3,1.67-20,2.36-.31,6.18-.46,11.68-.43,17.24l10.61,2.86,2.52-21.19L328,137.05h9.46l2.37-25.76Q334.22,112.25,328.53,113.08Z"/><path class="cls-36" d="M375.09,103.38c.72,13.63-1.15,17.28-2.75,18.78a4.25,4.25,0,0,1-2.88,1.17,6.3,6.3,0,0,1-1.27.13,4.68,4.68,0,0,1-4.53-3.13l-.08-.2v-.21c-.2-4.49-.31-9-.33-13.39q-5.89,1.41-11.86,2.62l.14,7.29c0,13.76,5.21,20.46,15.92,20.48,9.75-.53,14.73-3.15,17.15-9,2.27-7.82,3.42-17.3,3.49-28.81C383.82,100.66,379.48,102.09,375.09,103.38Z"/><path class="cls-25" d="M87.68,435.05c1,11.66,1.34,23.77,2.86,35.33,1,7.5,1.95,15,3,22.48.94,6.52,1.65,13.08,3.23,19.47.43,1.75,3.66,11.94,4.66,5.18.63-4.26-.36-9.18-.64-13.43-.9-13.8-2.55-27.58-3.59-41.37-1.35-17.92-2.41-36.36-5.33-54.07-.26-1.6-.62-8.49-2.39-9.2C84.92,397.6,87.53,433.25,87.68,435.05Z"/></g></g></svg>