<svg xmlns="http://www.w3.org/2000/svg" xmlns:xlink="http://www.w3.org/1999/xlink" viewBox="0 0 448.34 365.84"><defs><style>.cls-1{mask:url(#mask);filter:url(#luminosity-noclip-6);}.cls-10,.cls-2,.cls-4{mix-blend-mode:multiply;}.cls-2{fill:url(#Áåçûìÿííûé_ãðàäèåíò_1314);}.cls-3,.cls-5{mask:url(#mask-2);}.cls-3{filter:url(#luminosity-noclip-7);}.cls-4{fill:url(#Áåçûìÿííûé_ãðàäèåíò_1314-2);}.cls-6{isolation:isolate;}.cls-7{mask:url(#mask-6);}.cls-8{fill:#ad2f55;}.cls-9{fill:#4b0f22;}.cls-10{opacity:0.37;fill:url(#Áåçûìÿííûé_ãðàäèåíò_4);}.cls-11{fill:#27010c;}.cls-12{mask:url(#mask-7);}.cls-13{fill:#280311;}.cls-14{fill:#4c1424;opacity:0.17;}.cls-15{filter:url(#luminosity-noclip-2);}.cls-16{filter:url(#luminosity-noclip);}</style><filter id="luminosity-noclip" x="0" y="-7538.74" width="448.34" height="32766" filterUnits="userSpaceOnUse" color-interpolation-filters="sRGB"><feFlood flood-color="#fff" result="bg"/><feBlend in="SourceGraphic" in2="bg"/></filter><mask id="mask" x="0" y="-7538.74" width="448.34" height="32766" maskUnits="userSpaceOnUse"><g class="cls-16"/></mask><radialGradient id="Áåçûìÿííûé_ãðàäèåíò_1314" cx="281.31" cy="421.9" r="289.83" gradientTransform="translate(-70.06 -195.18) scale(1.05 1.28)" gradientUnits="userSpaceOnUse"><stop offset="0" stop-color="#666"/><stop offset="0.13" stop-color="#727272"/><stop offset="0.36" stop-color="#919191"/><stop offset="0.67" stop-color="#c3c3c3"/><stop offset="1" stop-color="#fff"/></radialGradient><filter id="luminosity-noclip-2" x="0" y="-7538.74" width="448.32" height="32766" filterUnits="userSpaceOnUse" color-interpolation-filters="sRGB"><feFlood flood-color="#fff" result="bg"/><feBlend in="SourceGraphic" in2="bg"/></filter><mask id="mask-2" x="0" y="-7538.74" width="448.32" height="32766" maskUnits="userSpaceOnUse"><g class="cls-15"/></mask><radialGradient id="Áåçûìÿííûé_ãðàäèåíò_1314-2" cx="281.3" cy="426.74" r="289.36" xlink:href="#Áåçûìÿííûé_ãðàäèåíò_1314"/><filter id="luminosity-noclip-6" x="0" y="0" width="448.34" height="365.84" filterUnits="userSpaceOnUse" color-interpolation-filters="sRGB"><feFlood flood-color="#fff" result="bg"/><feBlend in="SourceGraphic" in2="bg"/></filter><mask id="mask-6" x="0" y="0" width="448.34" height="365.84" maskUnits="userSpaceOnUse"><g class="cls-1"><path class="cls-2" d="M.05,107.36c5.35,68.05,15.75,158,41.54,230.89,1.63,4.6,5.1,7.85,9.15,8.59,120.49,22,247.83,24.93,363.36,8.64,4.54-.63,8.37-4.42,9.87-9.7,30.35-107.09,32.47-230,5.71-335.57-1.6-6.3-6.49-10.48-11.89-10.2C295.87,6.39,155.18,50.2,9.22,91.77,3.39,93.43-.51,100.09.05,107.36Z"/></g></mask><radialGradient id="Áåçûìÿííûé_ãðàäèåíò_4" cx="224.17" cy="339.93" r="279.86" gradientTransform="translate(0 -62.7) scale(1 1.13)" gradientUnits="userSpaceOnUse"><stop offset="0" stop-color="#8a0091"/><stop offset="0.15" stop-color="#7e0089"/><stop offset="0.41" stop-color="#5f0075"/><stop offset="0.76" stop-color="#2e0154"/><stop offset="1" stop-color="#07013a"/></radialGradient><filter id="luminosity-noclip-7" x="0" y="101.29" width="448.32" height="264.54" filterUnits="userSpaceOnUse" color-interpolation-filters="sRGB"><feFlood flood-color="#fff" result="bg"/><feBlend in="SourceGraphic" in2="bg"/></filter><mask id="mask-7" x="0" y="101.29" width="448.32" height="264.54" maskUnits="userSpaceOnUse"><g class="cls-3"><path class="cls-4" d="M424,332.45c-1.5,5.27-5.33,9.06-9.87,9.7-115.53,16.29-242.87,13.31-363.36-8.65-4.05-.74-7.52-4-9.15-8.58C16.72,254.58,6.15,168.38.64,101.29a17.91,17.91,0,0,0-.59,6.07c5.35,68.05,15.75,158,41.54,230.89,1.63,4.6,5.1,7.85,9.15,8.59,120.49,22,247.83,24.93,363.36,8.64,4.54-.63,8.37-4.42,9.87-9.7,16.83-59.36,25-123.58,24.32-187C447.73,217.83,439.61,277.24,424,332.45Z"/></g></mask></defs><g class="cls-6"><g id="Layer_1" data-name="Layer 1"><g class="cls-7"><path class="cls-8" d="M.05,107.36c5.35,68.05,15.75,158,41.54,230.89,1.63,4.6,5.1,7.85,9.15,8.59,120.49,22,247.83,24.93,363.36,8.64,4.54-.63,8.37-4.42,9.87-9.7,30.35-107.09,32.47-230,5.71-335.57-1.6-6.3-6.49-10.48-11.89-10.2C295.87,6.39,155.18,50.2,9.22,91.77,3.39,93.43-.51,100.09.05,107.36Z"/></g><path class="cls-9" d="M8.41,96.6c3.15,1.86,7.57,1.68,10.92,1.28C45.12,94.78,70.69,87.15,95.85,80c27.49-7.85,55-15.56,82.59-22.9,52.74-14,105.8-26.8,159.36-35.28,23.41-3.71,48.53-3.07,71.06-12C414.44,7.62,426-.51,412.65.3,387.79,1.82,363,4.77,338.31,8.67c-53.5,8.44-106.5,21.17-159.19,35.17C122.59,58.87,66.36,75.49,10,91.54l-.8.23c-3.56,1-3.61,2.75-1.16,4.59A2.71,2.71,0,0,0,8.41,96.6Z"/><path class="cls-10" d="M413.89,32.93c-1.48-5.46-6-9.1-11-8.85C290.36,29.62,160.48,67.66,25.74,103.76c-5.38,1.44-9,7.23-8.46,13.54,4.94,59.1,14.54,137.2,38.33,200.52a11.34,11.34,0,0,0,8.46,7.45c111.23,19.07,228.78,21.65,335.44,7.51,4.19-.56,7.72-3.85,9.1-8.43C436.63,231.35,438.59,124.65,413.89,32.93ZM400.62,318.22c-1.32,4.38-4.7,7.53-8.71,8.06-102,13.54-214.49,11.06-320.91-7.18A10.82,10.82,0,0,1,62.93,312C40.16,251.4,31,176.68,26.25,120.15c-.51-6,2.95-11.58,8.09-13C163.24,72.65,287.5,36.27,395.17,31c4.76-.23,9.09,3.24,10.49,8.48C429.3,127.17,427.42,229.26,400.62,318.22Z"/><path class="cls-11" d="M410.45,35.65c-1.44-5.37-5.88-8.94-10.77-8.7-110.52,5.44-238,42.79-370.35,78.24-5.28,1.42-8.82,7.1-8.31,13.3,4.85,58,14.27,134.72,37.65,196.88A11.15,11.15,0,0,0,67,322.7C176.18,341.42,291.6,344,396.33,330.07c4.12-.55,7.59-3.78,8.94-8.28C432.79,230.48,434.71,125.7,410.45,35.65Zm-9.83,282.57c-1.32,4.38-4.68,7.69-8.71,8.06-123,11.3-222.08,10.26-320.91-7.18A10.85,10.85,0,0,1,62.93,312C40.16,251.4,31,176.68,26.25,120.15c-.51-6,2.95-11.58,8.09-13C163.24,72.65,287.5,36.27,395.17,31c4.76-.23,9.09,3.24,10.49,8.48C429.3,127.17,427.42,229.26,400.62,318.22Z"/><g class="cls-12"><path class="cls-13" d="M424,332.45c-1.5,5.27-5.33,9.06-9.87,9.7-115.53,16.29-242.87,13.31-363.36-8.65-4.05-.74-7.52-4-9.15-8.58C16.72,254.58,6.15,168.38.64,101.29a17.91,17.91,0,0,0-.59,6.07c5.35,68.05,15.75,158,41.54,230.89,1.63,4.6,5.1,7.85,9.15,8.59,120.49,22,247.83,24.93,363.36,8.64,4.54-.63,8.37-4.42,9.87-9.7,16.83-59.36,25-123.58,24.32-187C447.73,217.83,439.61,277.24,424,332.45Z"/></g><g class="cls-12"><path class="cls-13" d="M424,332.45c-1.5,5.27-5.33,9.06-9.87,9.7-115.53,16.29-242.87,13.31-363.36-8.65-4.05-.74-7.52-4-9.15-8.58C16.72,254.58,6.15,168.38.64,101.29a17.91,17.91,0,0,0-.59,6.07c5.35,68.05,15.75,158,41.54,230.89,1.63,4.6,5.1,7.85,9.15,8.59,120.49,22,247.83,24.93,363.36,8.64,4.54-.63,8.37-4.42,9.87-9.7,16.83-59.36,25-123.58,24.32-187C447.73,217.83,439.61,277.24,424,332.45Z"/></g><g class="cls-12"><path class="cls-13" d="M424,332.45c-1.5,5.27-5.33,9.06-9.87,9.7-115.53,16.29-242.87,13.31-363.36-8.65-4.05-.74-7.52-4-9.15-8.58C16.72,254.58,6.15,168.38.64,101.29a17.91,17.91,0,0,0-.59,6.07c5.35,68.05,15.75,158,41.54,230.89,1.63,4.6,5.1,7.85,9.15,8.59,120.49,22,247.83,24.93,363.36,8.64,4.54-.63,8.37-4.42,9.87-9.7,16.83-59.36,25-123.58,24.32-187C447.73,217.83,439.61,277.24,424,332.45Z"/></g><g class="cls-12"><path class="cls-13" d="M424,332.45c-1.5,5.27-5.33,9.06-9.87,9.7-115.53,16.29-242.87,13.31-363.36-8.65-4.05-.74-7.52-4-9.15-8.58C16.72,254.58,6.15,168.38.64,101.29a17.91,17.91,0,0,0-.59,6.07c5.35,68.05,15.75,158,41.54,230.89,1.63,4.6,5.1,7.85,9.15,8.59,120.49,22,247.83,24.93,363.36,8.64,4.54-.63,8.37-4.42,9.87-9.7,16.83-59.36,25-123.58,24.32-187C447.73,217.83,439.61,277.24,424,332.45Z"/></g><path class="cls-14" d="M415.45,103.58c-3.84-10.43-10.78-19-22.85-23.42-34.68-12.7-69.91,3.36-97.06,23.88-22,16.6-40.78,36.66-58,57.73-12.8,16-24.56,32.75-36.72,49.22-23.45,31.78-52.72,67.05-96.46,70.09a77.73,77.73,0,0,1-32-4.91,117.29,117.29,0,0,1-21.82-10.62c4.72,25.92,11.51,48.49,14.81,51.56C74.63,325,222.3,334,229.28,334c78.42,0,162.55-5.11,169.36-9.87,1.73-1.22,17.8-72.17,21.1-98.39,2.63-20.8,3.07-41,3.07-62C422.81,144.68,422.1,121.63,415.45,103.58Z"/></g></g></svg>