<svg id="Layer_1" data-name="Layer 1" xmlns="http://www.w3.org/2000/svg" xmlns:xlink="http://www.w3.org/1999/xlink" viewBox="0 0 349.69 138.23"><defs><style>.cls-1{mask:url(#mask);filter:url(#luminosity-noclip-2);}.cls-2{mix-blend-mode:multiply;fill:url(#linear-gradient);}.cls-3{fill:#4b0f22;}.cls-4{mask:url(#mask-2);}.cls-5{fill:#ad2f55;}.cls-6{fill:#dbb5cf;}.cls-7{fill:#27010c;}.cls-8{fill:#fdfa9d;}.cls-9{opacity:0.5;}.cls-10{opacity:0;}.cls-11{opacity:0.09;}.cls-12{opacity:0.18;}.cls-13{opacity:0.27;}.cls-14{opacity:0.36;}.cls-15{opacity:0.45;}.cls-16{opacity:0.55;}.cls-17{opacity:0.64;}.cls-18{opacity:0.73;}.cls-19{opacity:0.82;}.cls-20{opacity:0.91;}.cls-21{fill:#f9f8f7;}.cls-22{fill:#e63d48;}.cls-23{fill:#fff;}.cls-24{filter:url(#luminosity-noclip);}</style><filter id="luminosity-noclip" x="4.11" y="-7274.53" width="345.57" height="32766" filterUnits="userSpaceOnUse" color-interpolation-filters="sRGB"><feFlood flood-color="#fff" result="bg"/><feBlend in="SourceGraphic" in2="bg"/></filter><mask id="mask" x="4.11" y="-7274.53" width="345.57" height="32766" maskUnits="userSpaceOnUse"><g class="cls-24"/></mask><linearGradient id="linear-gradient" x1="-598.55" y1="140.87" x2="-646.27" y2="12.51" gradientTransform="matrix(-1, 0, 0, 1, -449.55, 0)" gradientUnits="userSpaceOnUse"><stop offset="0" stop-color="#fff"/><stop offset="1"/></linearGradient><filter id="luminosity-noclip-2" x="4.11" y="0" width="345.57" height="131.65" filterUnits="userSpaceOnUse" color-interpolation-filters="sRGB"><feFlood flood-color="#fff" result="bg"/><feBlend in="SourceGraphic" in2="bg"/></filter><mask id="mask-2" x="4.11" y="0" width="345.57" height="131.65" maskUnits="userSpaceOnUse"><g class="cls-1"><path class="cls-2" d="M7.82,0,63.87,89.68a82.31,82.31,0,0,0,69.77,38.68H349.69v3.29H132A82.33,82.33,0,0,1,62.22,93L4.11,0Z"/></g></mask></defs><path d="M349.69,0V138.23H132A82.33,82.33,0,0,1,62.22,99.56L0,0Z"/><path class="cls-3" d="M62.22,93A82.33,82.33,0,0,0,132,131.65H349.69V0H4.11Z"/><g class="cls-4"><path class="cls-5" d="M7.82,0,63.87,89.68a82.31,82.31,0,0,0,69.77,38.68H349.69v3.29H132A82.33,82.33,0,0,1,62.22,93L4.11,0Z"/></g><path class="cls-6" d="M349.69,115.19V16.46H33.81L76.18,84.25A65.81,65.81,0,0,0,132,115.19Z"/><path class="cls-7" d="M349.69,105.32v-79H51.62L84.55,79A55.91,55.91,0,0,0,132,105.32Z"/><polygon class="cls-8" points="311.02 80.58 136.25 80.58 136.25 45.01 337.35 45.01 311.02 80.58"/><g class="cls-9"><path class="cls-10" d="M177.25,94.49c0,2-17.58,3.53-39.27,3.53S98.7,96.44,98.7,94.49,116.29,91,138,91,177.25,92.54,177.25,94.49Z"/><path class="cls-11" d="M175.21,94.39c0,1.85-16.63,3.34-37.14,3.34s-37.14-1.49-37.14-3.34,16.63-3.34,37.14-3.34S175.21,92.55,175.21,94.39Z"/><path class="cls-12" d="M173.17,94.3c0,1.74-15.67,3.15-35,3.15s-35-1.41-35-3.15,15.67-3.15,35-3.15S173.17,92.56,173.17,94.3Z"/><path class="cls-13" d="M171.13,94.21c0,1.63-14.72,3-32.87,3s-32.87-1.32-32.87-3,14.71-3,32.87-3S171.13,92.58,171.13,94.21Z"/><path class="cls-14" d="M169.09,94.12c0,1.52-13.77,2.76-30.74,2.76s-30.74-1.24-30.74-2.76,13.76-2.77,30.74-2.77S169.09,92.59,169.09,94.12Z"/><path class="cls-15" d="M167,94c0,1.42-12.8,2.57-28.6,2.57s-28.6-1.15-28.6-2.57,12.81-2.57,28.6-2.57S167,92.6,167,94Z"/><path class="cls-16" d="M165,93.93c0,1.31-11.85,2.38-26.46,2.38s-26.47-1.07-26.47-2.38,11.85-2.38,26.47-2.38S165,92.61,165,93.93Z"/><path class="cls-17" d="M163,93.84c0,1.21-10.89,2.19-24.33,2.19s-24.33-1-24.33-2.19,10.89-2.19,24.33-2.19S163,92.63,163,93.84Z"/><path class="cls-18" d="M160.92,93.74c0,1.11-9.94,2-22.2,2s-22.2-.89-22.2-2,9.94-2,22.2-2S160.92,92.64,160.92,93.74Z"/><path class="cls-19" d="M158.88,93.65c0,1-9,1.81-20.07,1.81s-20.06-.81-20.06-1.81,9-1.8,20.06-1.8S158.88,92.65,158.88,93.65Z"/><path class="cls-20" d="M156.83,93.56c0,.89-8,1.61-17.92,1.61S121,94.45,121,93.56,129,92,138.91,92,156.83,92.67,156.83,93.56Z"/><path d="M154.79,93.47c0,.78-7.07,1.42-15.79,1.42s-15.79-.64-15.79-1.42S130.28,92,139,92,154.79,92.68,154.79,93.47Z"/></g><path class="cls-21" d="M178,58.43c0,22-18.48,39.83-41.27,39.83S95.46,80.43,95.46,58.43,113.93,18.6,136.72,18.6,178,36.44,178,58.43Z"/><path class="cls-22" d="M171.86,58.51c0,18.69-15.69,33.84-35.05,33.84S101.75,77.2,101.75,58.51s15.69-33.83,35.06-33.83S171.86,39.83,171.86,58.51Z"/><path class="cls-23" d="M136.8,69.54a5.78,5.78,0,1,0,6,5.78A5.88,5.88,0,0,0,136.8,69.54Z"/><path class="cls-23" d="M133.57,66.64h6.74a1.07,1.07,0,0,0,1.09-1l.72-28.06A1.07,1.07,0,0,0,141,36.48h-8.46a1.07,1.07,0,0,0-1.09,1.05l1,28.06A1.07,1.07,0,0,0,133.57,66.64Z"/></svg>