<svg xmlns="http://www.w3.org/2000/svg" xmlns:xlink="http://www.w3.org/1999/xlink" viewBox="0 0 575.71 875.93"><defs><style>.cls-1{mask:url(#mask);filter:url(#luminosity-noclip-2);}.cls-2,.cls-7{mix-blend-mode:multiply;}.cls-2{fill:url(#Áåçûìÿííûé_ãðàäèåíò_1314);}.cls-3{isolation:isolate;}.cls-4{mask:url(#mask-2);}.cls-5{fill:#ad2f55;}.cls-6{fill:#4c1424;opacity:0.17;}.cls-7{opacity:0.8;}.cls-8{fill:#27010c;}.cls-12,.cls-9{fill:#fefcb6;}.cls-10{fill:#4d1327;}.cls-11{fill:#4b0f22;}.cls-12{opacity:0.43;}.cls-13{filter:url(#luminosity-noclip);}</style><filter id="luminosity-noclip" x="0" y="-7697.5" width="575.71" height="32766" filterUnits="userSpaceOnUse" color-interpolation-filters="sRGB"><feFlood flood-color="#fff" result="bg"/><feBlend in="SourceGraphic" in2="bg"/></filter><mask id="mask" x="0" y="-7697.5" width="575.71" height="32766" maskUnits="userSpaceOnUse"><g class="cls-13"/></mask><radialGradient id="Áåçûìÿííûé_ãðàäèåíò_1314" cx="398.75" cy="391.26" r="710.01" gradientTransform="translate(-82.97 -27.09) scale(0.97)" gradientUnits="userSpaceOnUse"><stop offset="0" stop-color="#666"/><stop offset="0.13" stop-color="#727272"/><stop offset="0.36" stop-color="#919191"/><stop offset="0.67" stop-color="#c3c3c3"/><stop offset="1" stop-color="#fff"/></radialGradient><filter id="luminosity-noclip-2" x="0" y="0" width="575.71" height="875.93" filterUnits="userSpaceOnUse" color-interpolation-filters="sRGB"><feFlood flood-color="#fff" result="bg"/><feBlend in="SourceGraphic" in2="bg"/></filter><mask id="mask-2" x="0" y="0" width="575.71" height="875.93" maskUnits="userSpaceOnUse"><g class="cls-1"><path class="cls-2" d="M538.32,856.33a1610.33,1610.33,0,0,1-500.93,0c-5.24-.87-9.11-5.22-9.8-11.1C-.57,598.05-5.74,323.7,5.61,40.41,5.94,32.88,9.89,27.14,15.48,26a1438.8,1438.8,0,0,1,544.76,0c5.58,1.12,9.53,6.86,9.86,14.39,11.36,283.29,6.19,557.64-22,804.82C547.43,851.11,543.56,855.46,538.32,856.33Z"/></g></mask></defs><g class="cls-3"><g id="Layer_1" data-name="Layer 1"><g class="cls-4"><path class="cls-5" d="M538.32,856.33a1610.33,1610.33,0,0,1-500.93,0c-5.24-.87-9.11-5.22-9.8-11.1C-.57,598.05-5.74,323.7,5.61,40.41,5.94,32.88,9.89,27.14,15.48,26a1438.8,1438.8,0,0,1,544.76,0c5.58,1.12,9.53,6.86,9.86,14.39,11.36,283.29,6.19,557.64-22,804.82C547.43,851.11,543.56,855.46,538.32,856.33Z"/></g><path class="cls-6" d="M561.5,592.8C555.84,580,545.6,569.44,527.81,564c-51.14-15.62-103.08,4.12-143.12,29.36-32.37,20.41-60.12,45.07-85.46,71-18.88,19.71-36.22,40.26-54.15,60.52-34.57,39.08-77.72,82.45-142.22,86.18a135.62,135.62,0,0,1-47.21-6c-11.51-3.59-23.71-7.8-33.69-13.07,2.55,28.07,4.83,57.51,9.7,61.28C45.32,863,173.9,876.49,289.53,875.69c115.63.64,244.43-12.85,256.17-23.49,5.45-4.94,9.87-81.36,12.43-110.81,2.23-25.77,4.29-50.56,7-76.23C567.37,644,571.29,615,561.5,592.8Z"/><g class="cls-7"><path class="cls-8" d="M519.91,743.74a1635.57,1635.57,0,0,1-464.1,0,10.48,10.48,0,0,1-9-9.36C23.15,528,21.05,303.15,34,75.62c.37-6,4-10.54,9-11.43a1463.17,1463.17,0,0,1,489.79,0c5,.89,8.64,5.44,9,11.43C554.66,303.15,552.57,528,528.89,734.38A10.48,10.48,0,0,1,519.91,743.74Z"/></g><path class="cls-9" d="M510.64,728.69a1561.38,1561.38,0,0,1-445.56,0,10.08,10.08,0,0,1-8.62-9C34,520.57,32.26,304.2,44.89,85.69c.35-5.74,3.81-10.11,8.63-11a1397.17,1397.17,0,0,1,468.68,0c4.82.86,8.27,5.23,8.62,11,12.64,218.51,10.91,434.88-11.57,634A10.08,10.08,0,0,1,510.64,728.69Z"/><path class="cls-10" d="M532.37,703.24c-.71,5.77-2.73,22.09-3.48,27.82-.59,4.3-4.14,7.5-9,8.13a1879.81,1879.81,0,0,1-464.1,0c-4.84-.63-8.39-3.83-9-8.13Q44.24,711.4,42,691.5c.07,2.77,3.33,35.56,5.11,49,.59,4.29,4.13,7.48,9,8.11a1879.51,1879.51,0,0,0,463.58,0c4.83-.63,8.38-3.82,9-8.11C529.39,734.67,532.3,706.26,532.37,703.24Z"/><path class="cls-11" d="M15.6,34.39c.18.15.37.31.58.46,5.53,4.2,12.64,2.31,18.46,1.14,6.8-1.36,13.83-1.86,20.75-3q24.78-4.05,49.68-7.24,49.8-6.37,100-9.26a1440.23,1440.23,0,0,1,200.65,2.44C431.85,21.08,458,23.84,484,27.36q19.51,2.66,38.94,5.88c8.81,1.48,29.14,10.89,36.4-.59,5.25-8.3-8.58-8.5-12.28-9.2Q534.6,21.1,522.12,19c-33.34-5.59-66.89-9.8-100.55-12.85q-29.79-2.7-59.66-4.22A1438.57,1438.57,0,0,0,161.17,5.61q-40,3.54-79.83,9.3-19.89,2.88-39.69,6.32-9.9,1.71-19.78,3.57C18,25.54,8.61,28.57,15.6,34.39Z"/><path class="cls-12" d="M539.55,846.24c2.24-2.48,10.49-55.31,12.37-88,.86-14.82,3.72-34.11,1.67-34.63-5.24-1.34-10.13,16.47-13.75,57-.81,9.07-5.64,50.65-11.84,53-33.86,12.75-79.35,15.07-111.07,19.15-21.95,2.82-28,9.54-21.3,13.57,0,0,.54,5.84,70.92-6S539.55,846.24,539.55,846.24Z"/></g></g></svg>