<svg id="Layer_1" data-name="Layer 1" xmlns="http://www.w3.org/2000/svg" xmlns:xlink="http://www.w3.org/1999/xlink" viewBox="0 0 583.72 465.66"><defs><style>.cls-1{mask:url(#mask);filter:url(#luminosity-noclip-4);}.cls-2,.cls-4,.cls-6{mix-blend-mode:multiply;}.cls-2{fill:url(#Áåçûìÿííûé_ãðàäèåíò_1314);}.cls-3{mask:url(#mask-2);filter:url(#luminosity-noclip-5);}.cls-4{fill:url(#Áåçûìÿííûé_ãðàäèåíò_1000);}.cls-5{mask:url(#mask-3);filter:url(#luminosity-noclip-6);}.cls-6{fill:url(#Áåçûìÿííûé_ãðàäèåíò_1000-2);}.cls-7{mask:url(#mask-4);}.cls-8{fill:#ad2f55;}.cls-9{fill:#4c1424;opacity:0.17;}.cls-10{fill:#4b0f22;}.cls-11{mask:url(#mask-5);}.cls-12{fill:#4d1327;}.cls-13{mask:url(#mask-6);}.cls-14{fill:#27010c;}.cls-15{fill:#fefcb6;opacity:0.43;}.cls-16{filter:url(#luminosity-noclip-3);}.cls-17{filter:url(#luminosity-noclip-2);}.cls-18{filter:url(#luminosity-noclip);}</style><filter id="luminosity-noclip" x="0" y="-6541.26" width="583.72" height="32766" filterUnits="userSpaceOnUse" color-interpolation-filters="sRGB"><feFlood flood-color="#fff" result="bg"/><feBlend in="SourceGraphic" in2="bg"/></filter><mask id="mask" x="0" y="-6541.26" width="583.72" height="32766" maskUnits="userSpaceOnUse"><g class="cls-18"/></mask><radialGradient id="Áåçûìÿííûé_ãðàäèåíò_1314" cx="389.94" cy="457.36" r="408.35" gradientTransform="translate(-74.18 -66.86) scale(0.97)" gradientUnits="userSpaceOnUse"><stop offset="0" stop-color="#666"/><stop offset="0.13" stop-color="#727272"/><stop offset="0.36" stop-color="#919191"/><stop offset="0.67" stop-color="#c3c3c3"/><stop offset="1" stop-color="#fff"/></radialGradient><filter id="luminosity-noclip-2" x="24.21" y="-6541.26" width="535.31" height="32766" filterUnits="userSpaceOnUse" color-interpolation-filters="sRGB"><feFlood flood-color="#fff" result="bg"/><feBlend in="SourceGraphic" in2="bg"/></filter><mask id="mask-2" x="24.21" y="-6541.26" width="535.31" height="32766" maskUnits="userSpaceOnUse"><g class="cls-17"/></mask><radialGradient id="Áåçûìÿííûé_ãðàäèåíò_1000" cx="382.35" cy="400.31" r="381.98" gradientTransform="translate(-74.18 -142.49) scale(0.97 0.92)" gradientUnits="userSpaceOnUse"><stop offset="0" stop-color="gray"/><stop offset="0.15" stop-color="#8c8c8c"/><stop offset="0.42" stop-color="#ababab"/><stop offset="0.78" stop-color="#dcdcdc"/><stop offset="1" stop-color="#fff"/></radialGradient><filter id="luminosity-noclip-3" x="28.61" y="-6541.26" width="526.5" height="32766" filterUnits="userSpaceOnUse" color-interpolation-filters="sRGB"><feFlood flood-color="#fff" result="bg"/><feBlend in="SourceGraphic" in2="bg"/></filter><mask id="mask-3" x="28.61" y="-6541.26" width="526.5" height="32766" maskUnits="userSpaceOnUse"><g class="cls-16"/></mask><radialGradient id="Áåçûìÿííûé_ãðàäèåíò_1000-2" cx="382.29" cy="400.49" r="374.21" xlink:href="#Áåçûìÿííûé_ãðàäèåíò_1000"/><filter id="luminosity-noclip-4" x="0" y="0.02" width="583.72" height="465.64" filterUnits="userSpaceOnUse" color-interpolation-filters="sRGB"><feFlood flood-color="#fff" result="bg"/><feBlend in="SourceGraphic" in2="bg"/></filter><mask id="mask-4" x="0" y="0.02" width="583.72" height="465.64" maskUnits="userSpaceOnUse"><g class="cls-1"><path class="cls-2" d="M562.75,31.29C549.59,16,420.73-.74,291.86.05,163-.74,34.13,16,21,31.29,10.24,44.48-2.27,141.39.35,237.65c1,96.21,17.08,191.77,25.36,201.23,11.82,12.47,139,27.52,266.14,26.76C419,466.4,546.19,451.35,558,438.88c8.27-9.46,24.38-105,25.36-201.23C586,141.39,573.49,44.48,562.75,31.29Z"/></g></mask><filter id="luminosity-noclip-5" x="24.21" y="19.33" width="535.31" height="427.03" filterUnits="userSpaceOnUse" color-interpolation-filters="sRGB"><feFlood flood-color="#fff" result="bg"/><feBlend in="SourceGraphic" in2="bg"/></filter><mask id="mask-5" x="24.21" y="19.33" width="535.31" height="427.03" maskUnits="userSpaceOnUse"><g class="cls-3"><path class="cls-4" d="M540.28,48C528.22,34,410,18.63,291.86,19.35,173.68,18.63,55.5,34,43.43,48,33.59,60.1,22.12,149,24.53,237.25c.89,88.23,15.66,175.87,23.24,184.54C58.62,433.23,175.24,447,291.85,446.33c116.63.7,233.25-13.1,244.1-24.54,7.58-8.67,22.35-96.31,23.24-184.54C561.6,149,550.13,60.1,540.28,48Zm12.09,189c-.86,84.1-15.25,167.62-22.65,175.89C519.15,423.83,405.5,437,291.85,436.32,178.22,437,64.57,423.83,54,412.93,46.61,404.66,32.21,321.14,31.35,237,29,152.91,40.18,68.2,49.78,56.67c11.75-13.36,126.91-28,242.08-27.3C407,28.68,522.2,43.31,533.94,56.67,543.54,68.2,554.71,152.91,552.37,237Z"/></g></mask><filter id="luminosity-noclip-6" x="28.61" y="24.77" width="526.5" height="416.14" filterUnits="userSpaceOnUse" color-interpolation-filters="sRGB"><feFlood flood-color="#fff" result="bg"/><feBlend in="SourceGraphic" in2="bg"/></filter><mask id="mask-6" x="28.61" y="24.77" width="526.5" height="416.14" maskUnits="userSpaceOnUse"><g class="cls-5"><path class="cls-6" d="M291.86,24.8C175.63,24.09,59.39,39.05,47.52,52.72c-9.68,11.78-21,98.39-18.59,184.42.87,86,15.4,171.37,22.87,179.83,10.66,11.15,125.36,24.6,240.05,23.92,114.71.68,229.41-12.77,240.08-23.92,7.46-8.46,22-93.85,22.86-179.83,2.38-86-8.91-172.64-18.59-184.42C524.33,39.05,408.1,24.09,291.86,24.8ZM552.37,237c-.86,84.1-15.25,167.62-22.65,175.89C519.15,423.83,405.5,437,291.85,436.32,178.22,437,64.57,423.83,54,412.93,46.61,404.66,32.21,321.14,31.35,237,29,152.91,40.18,68.2,49.78,56.67c11.75-13.36,126.91-28,242.08-27.3C407,28.68,522.2,43.31,533.94,56.67,543.54,68.2,554.71,152.91,552.37,237Z"/></g></mask></defs><g class="cls-7"><path class="cls-8" d="M562.75,31.29C549.59,16,420.73-.74,291.86.05,163-.74,34.13,16,21,31.29,10.24,44.48-2.27,141.39.35,237.65c1,96.21,17.08,191.77,25.36,201.23,11.82,12.47,139,27.52,266.14,26.76C419,466.4,546.19,451.35,558,438.88c8.27-9.46,24.38-105,25.36-201.23C586,141.39,573.49,44.48,562.75,31.29Z"/></g><path class="cls-9" d="M42.74,237.71c6.81,15.85,17.57,29.58,34.67,36.89C115.65,291,160.68,273.09,191,251.17c25.11-18.15,47.14-39.43,69.2-60.54,20.35-19.47,40.95-38.88,64.21-55.51a308.42,308.42,0,0,1,41.4-25.51A345.83,345.83,0,0,1,411,91.2C453.62,77,499,71,544.41,68.28c-1-13.84-12.22-20.1-13.11-21.51-3.62-5.54-116.84-24.51-240.51-24.15C167.09,20.75,58.68,37.32,53.43,44.41c-3.66,5-10.22,15.07-10.72,20.68-1.5,16.76-10.33,32.29-10.81,49.08-.69,24.12-2.14,48.3-.27,72.41C32.87,202.7,35.7,221.33,42.74,237.71Z"/><path class="cls-10" d="M25.22,31.35c9.54,3.6,68.47-8.66,74.91-9.52,39.36-5.28,79.08-8.24,118.77-9.9,24.32-1,48.62-1.18,73-1.33,77-.47,156.76,2.44,232.31,17.88,6.29,1.29,27.25,7.52,32.51,3.57,6.81-5.12-17-10.58-20.55-11.45-30.2-7.45-61.65-10.91-92.62-13.89C393.05,1.88,342.54.36,291.85.05,214.81-.43,135,2.48,59.42,18c-3.67.76-36.57,6.6-35.48,12.26C24,30.7,24.48,31.07,25.22,31.35Z"/><g class="cls-11"><path class="cls-12" d="M540.28,48C528.22,34,410,18.63,291.86,19.35,173.68,18.63,55.5,34,43.43,48,33.59,60.1,22.12,149,24.53,237.25c.89,88.23,15.66,175.87,23.24,184.54C58.62,433.23,175.24,447,291.85,446.33c116.63.7,233.25-13.1,244.1-24.54,7.58-8.67,22.35-96.31,23.24-184.54C561.6,149,550.13,60.1,540.28,48Zm12.09,189c-.86,84.1-15.25,167.62-22.65,175.89C519.15,423.83,405.5,437,291.85,436.32,178.22,437,64.57,423.83,54,412.93,46.61,404.66,32.21,321.14,31.35,237,29,152.91,40.18,68.2,49.78,56.67c11.75-13.36,126.91-28,242.08-27.3C407,28.68,522.2,43.31,533.94,56.67,543.54,68.2,554.71,152.91,552.37,237Z"/></g><g class="cls-13"><path class="cls-14" d="M291.86,24.8C175.63,24.09,59.39,39.05,47.52,52.72c-9.68,11.78-21,98.39-18.59,184.42.87,86,15.4,171.37,22.87,179.83,10.66,11.15,125.36,24.6,240.05,23.92,114.71.68,229.41-12.77,240.08-23.92,7.46-8.46,22-93.85,22.86-179.83,2.38-86-8.91-172.64-18.59-184.42C524.33,39.05,408.1,24.09,291.86,24.8ZM552.37,237c-.86,84.1-15.25,167.62-22.65,175.89C519.15,423.83,405.5,437,291.85,436.32,178.22,437,64.57,423.83,54,412.93,46.61,404.66,32.21,321.14,31.35,237,29,152.91,40.18,68.2,49.78,56.67c11.75-13.36,126.91-28,242.08-27.3C407,28.68,522.2,43.31,533.94,56.67,543.54,68.2,554.71,152.91,552.37,237Z"/></g><path class="cls-15" d="M236.9,460.93c-5-.19-3.44-6,16.11-7.9,22.9-2.25,68.23-.84,123-3.68,101.46-5.26,138.39-16.54,146.67-13,3,1.28,7.4,7.75-18.2,12.58C458.91,457.51,354.69,465.31,236.9,460.93Z"/></svg>