<svg id="Layer_1" data-name="Layer 1" xmlns="http://www.w3.org/2000/svg" xmlns:xlink="http://www.w3.org/1999/xlink" viewBox="0 0 684.25 119.2"><defs><style>.cls-1{mask:url(#mask);filter:url(#luminosity-noclip-2);}.cls-2{mix-blend-mode:multiply;fill:url(#linear-gradient);}.cls-3{fill:#ad2f55;}.cls-4{fill:#27010c;}.cls-5{fill:#fefcb6;}.cls-6{mask:url(#mask-2);}.cls-7{fill:#ba9ba2;}.cls-8{filter:url(#luminosity-noclip);}</style><filter id="luminosity-noclip" x="43.86" y="-6866.78" width="594.76" height="32766" filterUnits="userSpaceOnUse" color-interpolation-filters="sRGB"><feFlood flood-color="#fff" result="bg"/><feBlend in="SourceGraphic" in2="bg"/></filter><mask id="mask" x="43.86" y="-6866.78" width="594.76" height="32766" maskUnits="userSpaceOnUse"><g class="cls-8"/></mask><linearGradient id="linear-gradient" x1="-19.37" y1="-3999.22" x2="-19.37" y2="-3913.44" gradientTransform="matrix(-1.14, 0, 0, -1, 321.46, -3886.56)" gradientUnits="userSpaceOnUse"><stop offset="0"/><stop offset="1" stop-color="#fff"/></linearGradient><filter id="luminosity-noclip-2" x="43.86" y="30.12" width="594.76" height="89.05" filterUnits="userSpaceOnUse" color-interpolation-filters="sRGB"><feFlood flood-color="#fff" result="bg"/><feBlend in="SourceGraphic" in2="bg"/></filter><mask id="mask-2" x="43.86" y="30.12" width="594.76" height="89.05" maskUnits="userSpaceOnUse"><g class="cls-1"><path class="cls-2" d="M104.46,64.26A86.15,86.15,0,0,1,134,44.66a96.19,96.19,0,0,1,36.14-6.94l342.34.19a96.16,96.16,0,0,1,36.13,7,85.89,85.89,0,0,1,29.5,19.63l53.13,54.64h7.41L578.1,56.92a86.08,86.08,0,0,0-29.51-19.63,96.1,96.1,0,0,0-36.12-7l-342.35-.19A96.1,96.1,0,0,0,134,37.06a86,86,0,0,0-29.53,19.6l-60.6,62.18h7.41Z"/></g></mask></defs><path class="cls-3" d="M684.25,119.2,606.89,37.06A114.86,114.86,0,0,0,567.31,9.87,125,125,0,0,0,518.84.2L165.55,0a125,125,0,0,0-48.48,9.62A114.63,114.63,0,0,0,77.46,36.76L0,118.81Z"/><path class="cls-4" d="M672.77,119.19l-75-77.1a111.41,111.41,0,0,0-38.35-25.52,124.72,124.72,0,0,0-47-9.08L170.14,7.3a124.46,124.46,0,0,0-47,9A111.32,111.32,0,0,0,84.78,41.8l-75.06,77Z"/><path class="cls-5" d="M104.46,56.66A86,86,0,0,1,134,37.06a96.1,96.1,0,0,1,36.13-6.94l342.35.19a96.1,96.1,0,0,1,36.12,7A86.08,86.08,0,0,1,578.1,56.92l60.53,62.25-594.77-.33Z"/><g class="cls-6"><path class="cls-7" d="M104.46,64.26A86.15,86.15,0,0,1,134,44.66a96.19,96.19,0,0,1,36.14-6.94l342.34.19a96.16,96.16,0,0,1,36.13,7,85.89,85.89,0,0,1,29.5,19.63l53.13,54.64h7.41L578.1,56.92a86.08,86.08,0,0,0-29.51-19.63,96.1,96.1,0,0,0-36.12-7l-342.35-.19A96.1,96.1,0,0,0,134,37.06a86,86,0,0,0-29.53,19.6l-60.6,62.18h7.41Z"/></g></svg>